# Created by Kenney (www.kenney.nl)

mtllib bench-short.mtl

g bench-short

v 0.3105226 0.3294683 0.08014987 1 1 1
v 0.3105226 0.2676626 0.08014987 1 1 1
v 0.3105226 0.3294683 0.2069812 1 1 1
v 0.3105226 0.2676626 0.2069812 1 1 1
v 0.3105226 0.3294683 -0.07225832 1 1 1
v 0.3105226 0.2676626 -0.07225831 1 1 1
v 0.3105226 0.3294683 0.05457221 1 1 1
v 0.3105226 0.2676626 0.05457225 1 1 1
v 0.2705226 0.2676626 0.2469812 1 1 1
v 0.2705226 0.3294683 0.2469812 1 1 1
v 0.2705226 0.3294682 -0.1122585 1 1 1
v 0.2705226 0.2676626 -0.1122585 1 1 1
v -0.2705226 0.2676626 0.2469812 1 1 1
v -0.2705226 0.3294683 0.2469812 1 1 1
v -0.3105226 0.2676626 0.05457225 1 1 1
v -0.2705226 0.2676626 -0.1122585 1 1 1
v -0.3105226 0.2676626 -0.07225831 1 1 1
v -0.3105226 0.3294683 0.08014987 1 1 1
v -0.3105226 0.3294683 0.2069812 1 1 1
v -0.3105226 0.2676626 0.08014987 1 1 1
v -0.3105226 0.2676626 0.2069812 1 1 1
v -0.3105226 0.3294683 -0.07225832 1 1 1
v -0.3105226 0.3294683 0.05457221 1 1 1
v -0.2705226 0.3294682 -0.1122585 1 1 1
v 0.2705226 0.3734578 -0.1333787 1 1 1
v 0.2705226 0.3959735 -0.07582013 1 1 1
v 0.3105226 0.4107091 -0.1479506 1 1 1
v 0.3105226 0.4332248 -0.09039202 1 1 1
v 0.3105226 0.5288249 -0.1941549 1 1 1
v 0.3105226 0.5513406 -0.1365963 1 1 1
v -0.3105226 0.5288249 -0.1941549 1 1 1
v -0.3105226 0.5513406 -0.1365963 1 1 1
v -0.2705226 0.3959735 -0.07582013 1 1 1
v -0.3105226 0.4332248 -0.09039202 1 1 1
v -0.2705226 0.3734578 -0.1333787 1 1 1
v -0.3105226 0.4107091 -0.1479506 1 1 1
v 0.3105226 0.6932757 -0.1921182 1 1 1
v 0.3105226 0.67076 -0.2496767 1 1 1
v 0.3105226 0.5751606 -0.1459142 1 1 1
v 0.3105226 0.552645 -0.2034727 1 1 1
v 0.2705226 0.7305272 -0.2066903 1 1 1
v 0.2705226 0.7080115 -0.2642488 1 1 1
v -0.2705226 0.7305272 -0.2066903 1 1 1
v -0.3105226 0.6932757 -0.1921182 1 1 1
v -0.2705226 0.7080115 -0.2642488 1 1 1
v -0.3105226 0.67076 -0.2496767 1 1 1
v -0.3105226 0.5751606 -0.1459142 1 1 1
v -0.3105226 0.552645 -0.2034727 1 1 1
v -0.09588526 0.7080117 -0.3160545 1 1 1
v -0.09588526 0.2676626 -0.2124434 1 1 1
v -0.09588526 0.7080117 -0.2642489 1 1 1
v -0.09588526 0.2676626 -0.09199407 1 1 1
v -0.09588526 0.1758717 -0.1340509 1 1 1
v -0.09588526 4.441447E-17 -0.1794101 1 1 1
v -0.09588526 4.464017E-17 -0.2728839 1 1 1
v -0.09588526 0.1758717 0.1702367 1 1 1
v -0.09588526 0.2676626 0.2469812 1 1 1
v -0.09588526 0 0.2220749 1 1 1
v -0.09588526 0 0.3160545 1 1 1
v -0.2032039 4.464017E-17 -0.2728839 1 1 1
v -0.2032039 0.2676626 -0.2124434 1 1 1
v -0.2032039 4.441447E-17 -0.1794101 1 1 1
v -0.2032039 0.1758717 -0.1340509 1 1 1
v -0.2032039 0.2676626 -0.09199407 1 1 1
v -0.2032039 0.1758717 0.1702367 1 1 1
v -0.2032039 0.7080117 -0.2642489 1 1 1
v -0.2032039 0.7080117 -0.3160545 1 1 1
v -0.2032039 0.2676626 0.2469812 1 1 1
v -0.2032039 0 0.2220749 1 1 1
v -0.2032039 0 0.3160545 1 1 1
v 0.2041148 0.7080117 -0.3160545 1 1 1
v 0.2041148 0.2676626 -0.2124434 1 1 1
v 0.2041148 0.7080117 -0.2642489 1 1 1
v 0.2041148 0.2676626 -0.09199407 1 1 1
v 0.2041148 0.1758717 -0.1340509 1 1 1
v 0.2041148 4.441447E-17 -0.1794101 1 1 1
v 0.2041148 4.464017E-17 -0.2728839 1 1 1
v 0.2041148 0.1758717 0.1702367 1 1 1
v 0.2041148 0.2676626 0.2469812 1 1 1
v 0.2041148 0 0.2220749 1 1 1
v 0.2041148 0 0.3160545 1 1 1
v 0.0967961 4.464017E-17 -0.2728839 1 1 1
v 0.0967961 0.2676626 -0.2124434 1 1 1
v 0.0967961 4.441447E-17 -0.1794101 1 1 1
v 0.0967961 0.1758717 -0.1340509 1 1 1
v 0.0967961 0.2676626 -0.09199407 1 1 1
v 0.0967961 0.1758717 0.1702367 1 1 1
v 0.0967961 0.7080117 -0.2642489 1 1 1
v 0.0967961 0.7080117 -0.3160545 1 1 1
v 0.0967961 0.2676626 0.2469812 1 1 1
v 0.0967961 0 0.2220749 1 1 1
v 0.0967961 0 0.3160545 1 1 1

vn 1 0 0
vn 0.9238795 0 0.3826834
vn 0.92388 0 -0.3826823
vn 0.92388 0 -0.3826823
vn 0.3826834 0 0.9238795
vn 0.3826847 -5.381542E-07 -0.923879
vn 0.3826845 -5.381543E-07 -0.9238791
vn -0.3826834 0 0.9238795
vn 0 -1 2.675432E-07
vn 0 1 0
vn 0 0 -1
vn -0.9238795 0 0.3826834
vn -0.92388 0 -0.3826823
vn -1 0 0
vn -0.92388 0 -0.3826823
vn 0 5.824942E-07 1
vn 0 1 -2.675432E-07
vn -0.3826847 -5.381542E-07 -0.923879
vn -0.3826845 -5.381543E-07 -0.9238791
vn 0 -1 0
vn 0.3826834 -0.8603931 0.3365667
vn 0.9238795 -0.3563865 0.1394105
vn 0 0.9312828 -0.3642972
vn 0 0.3642972 0.9312828
vn 0 -0.3642972 -0.9312828
vn -0.3826834 -0.8603931 0.3365667
vn -0.9238795 -0.3563865 0.1394105
vn 0.92388 0.3563854 -0.1394101
vn 0.92388 0.3563855 -0.1394101
vn 0.3826847 0.8603925 -0.3365671
vn 0.3826845 0.8603926 -0.3365671
vn -0.3826847 0.8603925 -0.3365671
vn -0.92388 0.3563854 -0.1394101
vn -0.3826845 0.8603926 -0.3365671
vn -0.92388 0.3563855 -0.1394101
vn 0 -0.9312826 0.3642978
vn 0 -0.3642975 -0.9312827
vn 0 0.3642975 0.9312827
vn 0 -0.2497386 0.9683132
vn 0 0.2202628 -0.9754405
vn 0 -0.2290383 -0.9734173
vn 0 0.3642977 0.9312826
vn 0 0.2498749 0.9682782
vn 0 -0.2827246 -0.9592011

vt 0.21875 0.375
vt 0.21875 0.275
vt 0.21875 0.2750001
vt 0.21875 0.375
vt 0.21875 0.2750001
vt 0.21875 0.3749999
vt 0.21875 0.275
vt 0.96875 0.025
vt 0.96875 0.1493904
vt 0.96875 0.1753195
vt 0.96875 0.225

usemtl colormap

f 3/1/2 2/2/1 1/1/1
f 2/2/1 3/1/2 4/2/2
f 7/4/1 6/3/4 5/1/3
f 6/3/4 7/4/1 8/5/1
f 3/1/2 9/2/5 4/2/2
f 9/2/5 3/1/2 10/1/5
f 5/1/3 12/7/7 11/6/6
f 12/7/7 5/1/3 6/3/4
f 10/1/5 13/2/8 9/2/5
f 13/2/8 10/1/5 14/1/8
f 15/5/9 6/3/9 8/5/9
f 6/3/9 15/5/9 12/7/9
f 12/7/9 15/5/9 16/7/9
f 16/7/9 15/5/9 17/3/9
f 18/1/10 3/1/10 1/1/10
f 3/1/10 18/1/10 10/1/10
f 10/1/10 18/1/10 14/1/10
f 14/1/10 18/1/10 19/1/10
f 18/1/11 2/2/11 20/2/11
f 2/2/11 18/1/11 1/1/11
f 14/1/8 21/2/12 13/2/8
f 21/2/12 14/1/8 19/1/12
f 17/3/15 23/4/14 22/1/13
f 23/4/14 17/3/15 15/5/14
f 7/4/16 15/5/16 8/5/16
f 15/5/16 7/4/16 23/4/16
f 11/6/17 7/4/17 5/1/17
f 7/4/17 11/6/17 23/4/17
f 23/4/17 11/6/17 24/6/17
f 23/4/17 24/6/17 22/1/17
f 16/7/19 22/1/13 24/6/18
f 22/1/13 16/7/19 17/3/15
f 16/7/19 11/6/6 12/7/7
f 11/6/6 16/7/19 24/6/18
f 9/2/20 2/2/20 4/2/20
f 2/2/20 9/2/20 20/2/20
f 20/2/20 9/2/20 13/2/20
f 20/2/20 13/2/20 21/2/20
f 21/2/12 18/1/14 20/2/14
f 18/1/14 21/2/12 19/1/12
f 27/7/22 26/1/21 25/7/21
f 26/1/21 27/7/22 28/1/22
f 30/1/1 27/7/22 29/7/1
f 27/7/22 30/1/1 28/1/22
f 32/1/23 29/7/23 31/7/23
f 29/7/23 32/1/23 30/1/23
f 32/1/24 28/1/24 30/1/24
f 28/1/24 32/1/24 26/1/24
f 26/1/24 32/1/24 33/1/24
f 33/1/24 32/1/24 34/1/24
f 25/7/25 29/7/25 27/7/25
f 29/7/25 25/7/25 31/7/25
f 31/7/25 25/7/25 35/7/25
f 31/7/25 35/7/25 36/7/25
f 26/1/21 35/7/26 25/7/21
f 35/7/26 26/1/21 33/1/26
f 33/1/26 36/7/27 35/7/26
f 36/7/27 33/1/26 34/1/27
f 36/7/27 32/1/14 31/7/14
f 32/1/14 36/7/27 34/1/27
f 39/4/1 38/3/29 37/1/28
f 38/3/29 39/4/1 40/5/1
f 37/1/28 42/7/31 41/6/30
f 42/7/31 37/1/28 38/3/29
f 45/7/34 44/1/33 43/6/32
f 44/1/33 45/7/34 46/3/35
f 46/3/35 47/4/14 44/1/33
f 47/4/14 46/3/35 48/5/14
f 39/4/36 48/5/36 40/5/36
f 48/5/36 39/4/36 47/4/36
f 45/7/34 41/6/30 42/7/31
f 41/6/30 45/7/34 43/6/32
f 48/5/37 38/3/37 40/5/37
f 38/3/37 48/5/37 42/7/37
f 42/7/37 48/5/37 45/7/37
f 45/7/37 48/5/37 46/3/37
f 41/6/38 39/4/38 37/1/38
f 39/4/38 41/6/38 47/4/38
f 47/4/38 41/6/38 43/6/38
f 47/4/38 43/6/38 44/1/38
f 51/8/1 50/9/1 49/8/1
f 50/9/1 51/8/1 52/9/1
f 50/9/1 52/9/1 53/10/1
f 50/9/1 53/10/1 54/11/1
f 54/11/1 55/11/1 50/9/1
f 53/10/1 52/9/1 56/10/1
f 56/10/1 52/9/1 57/9/1
f 56/10/1 57/9/1 58/11/1
f 58/11/1 57/9/1 59/11/1
f 62/11/14 61/9/14 60/11/14
f 63/10/14 61/9/14 62/11/14
f 64/9/14 61/9/14 63/10/14
f 64/9/14 63/10/14 65/10/14
f 66/8/14 61/9/14 64/9/14
f 61/9/14 66/8/14 67/8/14
f 64/9/14 65/10/14 68/9/14
f 68/9/14 65/10/14 69/11/14
f 68/9/14 69/11/14 70/11/14
f 53/10/39 62/11/39 54/11/39
f 62/11/39 53/10/39 63/10/39
f 62/11/20 55/11/20 54/11/20
f 55/11/20 62/11/20 60/11/20
f 61/9/40 55/11/40 60/11/40
f 55/11/40 61/9/40 50/9/40
f 67/8/41 50/9/41 61/9/41
f 50/9/41 67/8/41 49/8/41
f 67/8/10 51/8/10 49/8/10
f 51/8/10 67/8/10 66/8/10
f 51/8/42 64/9/42 52/9/42
f 64/9/42 51/8/42 66/8/42
f 64/9/10 57/9/10 52/9/10
f 57/9/10 64/9/10 68/9/10
f 57/9/43 70/11/43 59/11/43
f 70/11/43 57/9/43 68/9/43
f 70/11/20 58/11/20 59/11/20
f 58/11/20 70/11/20 69/11/20
f 65/10/44 58/11/44 69/11/44
f 58/11/44 65/10/44 56/10/44
f 65/10/20 53/10/20 56/10/20
f 53/10/20 65/10/20 63/10/20
f 73/8/1 72/9/1 71/8/1
f 72/9/1 73/8/1 74/9/1
f 72/9/1 74/9/1 75/10/1
f 72/9/1 75/10/1 76/11/1
f 76/11/1 77/11/1 72/9/1
f 75/10/1 74/9/1 78/10/1
f 78/10/1 74/9/1 79/9/1
f 78/10/1 79/9/1 80/11/1
f 80/11/1 79/9/1 81/11/1
f 84/11/14 83/9/14 82/11/14
f 85/10/14 83/9/14 84/11/14
f 86/9/14 83/9/14 85/10/14
f 86/9/14 85/10/14 87/10/14
f 88/8/14 83/9/14 86/9/14
f 83/9/14 88/8/14 89/8/14
f 86/9/14 87/10/14 90/9/14
f 90/9/14 87/10/14 91/11/14
f 90/9/14 91/11/14 92/11/14
f 75/10/39 84/11/39 76/11/39
f 84/11/39 75/10/39 85/10/39
f 84/11/20 77/11/20 76/11/20
f 77/11/20 84/11/20 82/11/20
f 83/9/40 77/11/40 82/11/40
f 77/11/40 83/9/40 72/9/40
f 89/8/41 72/9/41 83/9/41
f 72/9/41 89/8/41 71/8/41
f 89/8/10 73/8/10 71/8/10
f 73/8/10 89/8/10 88/8/10
f 73/8/42 86/9/42 74/9/42
f 86/9/42 73/8/42 88/8/42
f 86/9/10 79/9/10 74/9/10
f 79/9/10 86/9/10 90/9/10
f 79/9/43 92/11/43 81/11/43
f 92/11/43 79/9/43 90/9/43
f 92/11/20 80/11/20 81/11/20
f 80/11/20 92/11/20 91/11/20
f 87/10/44 80/11/44 91/11/44
f 80/11/44 87/10/44 78/10/44
f 87/10/20 75/10/20 78/10/20
f 75/10/20 87/10/20 85/10/20

g bench-short




usemtl colormap

f 3/1/2 2/2/1 1/1/1
f 2/2/1 3/1/2 4/2/2
f 7/4/1 6/3/4 5/1/3
f 6/3/4 7/4/1 8/5/1
f 3/1/2 9/2/5 4/2/2
f 9/2/5 3/1/2 10/1/5
f 5/1/3 12/7/7 11/6/6
f 12/7/7 5/1/3 6/3/4
f 10/1/5 13/2/8 9/2/5
f 13/2/8 10/1/5 14/1/8
f 15/5/9 6/3/9 8/5/9
f 6/3/9 15/5/9 12/7/9
f 12/7/9 15/5/9 16/7/9
f 16/7/9 15/5/9 17/3/9
f 18/1/10 3/1/10 1/1/10
f 3/1/10 18/1/10 10/1/10
f 10/1/10 18/1/10 14/1/10
f 14/1/10 18/1/10 19/1/10
f 18/1/11 2/2/11 20/2/11
f 2/2/11 18/1/11 1/1/11
f 14/1/8 21/2/12 13/2/8
f 21/2/12 14/1/8 19/1/12
f 17/3/15 23/4/14 22/1/13
f 23/4/14 17/3/15 15/5/14
f 7/4/16 15/5/16 8/5/16
f 15/5/16 7/4/16 23/4/16
f 11/6/17 7/4/17 5/1/17
f 7/4/17 11/6/17 23/4/17
f 23/4/17 11/6/17 24/6/17
f 23/4/17 24/6/17 22/1/17
f 16/7/19 22/1/13 24/6/18
f 22/1/13 16/7/19 17/3/15
f 16/7/19 11/6/6 12/7/7
f 11/6/6 16/7/19 24/6/18
f 9/2/20 2/2/20 4/2/20
f 2/2/20 9/2/20 20/2/20
f 20/2/20 9/2/20 13/2/20
f 20/2/20 13/2/20 21/2/20
f 21/2/12 18/1/14 20/2/14
f 18/1/14 21/2/12 19/1/12
f 27/7/22 26/1/21 25/7/21
f 26/1/21 27/7/22 28/1/22
f 30/1/1 27/7/22 29/7/1
f 27/7/22 30/1/1 28/1/22
f 32/1/23 29/7/23 31/7/23
f 29/7/23 32/1/23 30/1/23
f 32/1/24 28/1/24 30/1/24
f 28/1/24 32/1/24 26/1/24
f 26/1/24 32/1/24 33/1/24
f 33/1/24 32/1/24 34/1/24
f 25/7/25 29/7/25 27/7/25
f 29/7/25 25/7/25 31/7/25
f 31/7/25 25/7/25 35/7/25
f 31/7/25 35/7/25 36/7/25
f 26/1/21 35/7/26 25/7/21
f 35/7/26 26/1/21 33/1/26
f 33/1/26 36/7/27 35/7/26
f 36/7/27 33/1/26 34/1/27
f 36/7/27 32/1/14 31/7/14
f 32/1/14 36/7/27 34/1/27
f 39/4/1 38/3/29 37/1/28
f 38/3/29 39/4/1 40/5/1
f 37/1/28 42/7/31 41/6/30
f 42/7/31 37/1/28 38/3/29
f 45/7/34 44/1/33 43/6/32
f 44/1/33 45/7/34 46/3/35
f 46/3/35 47/4/14 44/1/33
f 47/4/14 46/3/35 48/5/14
f 39/4/36 48/5/36 40/5/36
f 48/5/36 39/4/36 47/4/36
f 45/7/34 41/6/30 42/7/31
f 41/6/30 45/7/34 43/6/32
f 48/5/37 38/3/37 40/5/37
f 38/3/37 48/5/37 42/7/37
f 42/7/37 48/5/37 45/7/37
f 45/7/37 48/5/37 46/3/37
f 41/6/38 39/4/38 37/1/38
f 39/4/38 41/6/38 47/4/38
f 47/4/38 41/6/38 43/6/38
f 47/4/38 43/6/38 44/1/38
f 51/8/1 50/9/1 49/8/1
f 50/9/1 51/8/1 52/9/1
f 50/9/1 52/9/1 53/10/1
f 50/9/1 53/10/1 54/11/1
f 54/11/1 55/11/1 50/9/1
f 53/10/1 52/9/1 56/10/1
f 56/10/1 52/9/1 57/9/1
f 56/10/1 57/9/1 58/11/1
f 58/11/1 57/9/1 59/11/1
f 62/11/14 61/9/14 60/11/14
f 63/10/14 61/9/14 62/11/14
f 64/9/14 61/9/14 63/10/14
f 64/9/14 63/10/14 65/10/14
f 66/8/14 61/9/14 64/9/14
f 61/9/14 66/8/14 67/8/14
f 64/9/14 65/10/14 68/9/14
f 68/9/14 65/10/14 69/11/14
f 68/9/14 69/11/14 70/11/14
f 53/10/39 62/11/39 54/11/39
f 62/11/39 53/10/39 63/10/39
f 62/11/20 55/11/20 54/11/20
f 55/11/20 62/11/20 60/11/20
f 61/9/40 55/11/40 60/11/40
f 55/11/40 61/9/40 50/9/40
f 67/8/41 50/9/41 61/9/41
f 50/9/41 67/8/41 49/8/41
f 67/8/10 51/8/10 49/8/10
f 51/8/10 67/8/10 66/8/10
f 51/8/42 64/9/42 52/9/42
f 64/9/42 51/8/42 66/8/42
f 64/9/10 57/9/10 52/9/10
f 57/9/10 64/9/10 68/9/10
f 57/9/43 70/11/43 59/11/43
f 70/11/43 57/9/43 68/9/43
f 70/11/20 58/11/20 59/11/20
f 58/11/20 70/11/20 69/11/20
f 65/10/44 58/11/44 69/11/44
f 58/11/44 65/10/44 56/10/44
f 65/10/20 53/10/20 56/10/20
f 53/10/20 65/10/20 63/10/20
f 73/8/1 72/9/1 71/8/1
f 72/9/1 73/8/1 74/9/1
f 72/9/1 74/9/1 75/10/1
f 72/9/1 75/10/1 76/11/1
f 76/11/1 77/11/1 72/9/1
f 75/10/1 74/9/1 78/10/1
f 78/10/1 74/9/1 79/9/1
f 78/10/1 79/9/1 80/11/1
f 80/11/1 79/9/1 81/11/1
f 84/11/14 83/9/14 82/11/14
f 85/10/14 83/9/14 84/11/14
f 86/9/14 83/9/14 85/10/14
f 86/9/14 85/10/14 87/10/14
f 88/8/14 83/9/14 86/9/14
f 83/9/14 88/8/14 89/8/14
f 86/9/14 87/10/14 90/9/14
f 90/9/14 87/10/14 91/11/14
f 90/9/14 91/11/14 92/11/14
f 75/10/39 84/11/39 76/11/39
f 84/11/39 75/10/39 85/10/39
f 84/11/20 77/11/20 76/11/20
f 77/11/20 84/11/20 82/11/20
f 83/9/40 77/11/40 82/11/40
f 77/11/40 83/9/40 72/9/40
f 89/8/41 72/9/41 83/9/41
f 72/9/41 89/8/41 71/8/41
f 89/8/10 73/8/10 71/8/10
f 73/8/10 89/8/10 88/8/10
f 73/8/42 86/9/42 74/9/42
f 86/9/42 73/8/42 88/8/42
f 86/9/10 79/9/10 74/9/10
f 79/9/10 86/9/10 90/9/10
f 79/9/43 92/11/43 81/11/43
f 92/11/43 79/9/43 90/9/43
f 92/11/20 80/11/20 81/11/20
f 80/11/20 92/11/20 91/11/20
f 87/10/44 80/11/44 91/11/44
f 80/11/44 87/10/44 78/10/44
f 87/10/20 75/10/20 78/10/20
f 75/10/20 87/10/20 85/10/20

