# Created by Kenney (www.kenney.nl)

mtllib cabin-wall-roof-center.mtl

g cabin-wall-roof-center

v 0.05 0.9 0.65 1 1 1
v -0.05 0.9 0.65 1 1 1
v 0 1 0.6 1 1 1
v -0.05 0.9 0.35 1 1 1
v 0.05 0.9 0.35 1 1 1
v 0 1 0.4 1 1 1
v -0.4 0.2 0.4 1 1 1
v 0.4 0.2 0.4 1 1 1
v -0.35 0.3 0.35 1 1 1
v 0.35 0.3 0.35 1 1 1
v 0.4 0.2 0.6 1 1 1
v -0.4 0.2 0.6 1 1 1
v 0.35 0.3 0.65 1 1 1
v -0.35 0.3 0.65 1 1 1
v 0.3 0.4 0.4 1 1 1
v -0.3 0.4 0.4 1 1 1
v 0.25 0.5 0.35 1 1 1
v 0.2 0.6 0.4 1 1 1
v -0.25 0.5 0.35 1 1 1
v -0.2 0.6 0.4 1 1 1
v 0.1 0.8 0.4 1 1 1
v -0.1 0.8 0.4 1 1 1
v -0.2 0.6 0.6 1 1 1
v -0.15 0.7 0.65 1 1 1
v 0.2 0.6 0.6 1 1 1
v 0.15 0.7 0.65 1 1 1
v -0.3 0.4 0.6 1 1 1
v -0.25 0.5 0.65 1 1 1
v 0.3 0.4 0.6 1 1 1
v 0.25 0.5 0.65 1 1 1
v 0.15 0.7 0.35 1 1 1
v -0.15 0.7 0.35 1 1 1
v 0.5 0 0.6 1 1 1
v -0.5 2.887646E-14 0.6 1 1 1
v 0.45 0.1 0.65 1 1 1
v -0.45 0.1 0.65 1 1 1
v -0.1 0.8 0.6 1 1 1
v 0.1 0.8 0.6 1 1 1
v -0.5 -2.887646E-14 0.4 1 1 1
v 0.5 0 0.4 1 1 1
v -0.45 0.1 0.35 1 1 1
v 0.45 0.1 0.35 1 1 1

vn 0 0.4472136 0.8944272
vn 0 0.4472136 -0.8944272
vn 0 0.1326768 -0.9911594
vn 0 -0.4472136 -0.8944272
vn 0 0.1326768 0.9911594
vn 0 -0.4472136 0.8944272
vn 0 -1 0
vn -0.8944272 0.4472136 0
vn 0.8944272 0.4472136 0

vt 0.21875 0.455
vt 0.21875 0.475
vt 0.21875 0.315
vt 0.21875 0.335
vt 0.21875 0.355
vt 0.21875 0.375
vt 0.21875 0.395
vt 0.21875 0.435
vt 0.21875 0.415
vt 0.21875 0.275
vt 0.21875 0.295

usemtl colormap

f 3/2/1 2/1/1 1/1/1
f 6/2/2 5/1/2 4/1/2
f 9/4/4 8/3/3 7/3/3
f 8/3/3 9/4/4 10/4/4
f 13/4/6 12/3/5 11/3/5
f 12/3/5 13/4/6 14/4/6
f 9/4/2 15/5/3 10/4/2
f 15/5/3 9/4/2 16/5/3
f 19/6/2 18/7/3 17/6/2
f 18/7/3 19/6/2 20/7/3
f 22/8/3 5/1/4 21/8/3
f 5/1/4 22/8/3 4/1/4
f 25/7/5 24/9/6 23/7/5
f 24/9/6 25/7/5 26/9/6
f 29/5/5 28/6/6 27/5/5
f 28/6/6 29/5/5 30/6/6
f 30/6/1 23/7/5 28/6/1
f 23/7/5 30/6/1 25/7/5
f 20/7/3 31/9/4 18/7/3
f 31/9/4 20/7/3 32/9/4
f 35/11/6 34/10/6 33/10/6
f 34/10/6 35/11/6 36/11/6
f 13/4/1 27/5/5 14/4/1
f 27/5/5 13/4/1 29/5/5
f 38/8/5 2/1/6 37/8/5
f 2/1/6 38/8/5 1/1/6
f 32/9/2 21/8/3 31/9/2
f 21/8/3 32/9/2 22/8/3
f 41/11/4 40/10/4 39/10/4
f 40/10/4 41/11/4 42/11/4
f 7/3/3 42/11/2 41/11/2
f 42/11/2 7/3/3 8/3/3
f 11/3/5 36/11/1 35/11/1
f 36/11/1 11/3/5 12/3/5
f 26/9/1 37/8/5 24/9/1
f 37/8/5 26/9/1 38/8/5
f 16/5/3 17/6/4 15/5/3
f 17/6/4 16/5/3 19/6/4
f 34/10/7 40/10/7 33/10/7
f 40/10/7 34/10/7 39/10/7
f 20/7/8 22/8/8 32/9/8
f 6/2/8 22/8/8 20/7/8
f 22/8/8 6/2/8 4/1/8
f 20/7/8 16/5/8 6/2/8
f 16/5/8 20/7/8 19/6/8
f 6/2/8 16/5/8 3/2/8
f 3/2/8 16/5/8 7/3/8
f 7/3/8 16/5/8 9/4/8
f 3/2/8 7/3/8 12/3/8
f 3/2/8 12/3/8 37/8/8
f 3/2/8 37/8/8 2/1/8
f 7/3/8 34/10/8 12/3/8
f 12/3/8 34/10/8 36/11/8
f 7/3/8 39/10/8 34/10/8
f 39/10/8 7/3/8 41/11/8
f 12/3/8 27/5/8 37/8/8
f 27/5/8 12/3/8 14/4/8
f 23/7/8 37/8/8 27/5/8
f 28/6/8 23/7/8 27/5/8
f 37/8/8 23/7/8 24/9/8
f 18/7/9 15/5/9 17/6/9
f 8/3/9 15/5/9 18/7/9
f 15/5/9 8/3/9 10/4/9
f 18/7/9 3/2/9 8/3/9
f 21/8/9 3/2/9 18/7/9
f 18/7/9 31/9/9 21/8/9
f 21/8/9 6/2/9 3/2/9
f 6/2/9 21/8/9 5/1/9
f 8/3/9 3/2/9 11/3/9
f 33/10/9 8/3/9 11/3/9
f 33/10/9 11/3/9 35/11/9
f 40/10/9 8/3/9 33/10/9
f 8/3/9 40/10/9 42/11/9
f 11/3/9 3/2/9 25/7/9
f 25/7/9 3/2/9 38/8/9
f 1/1/9 38/8/9 3/2/9
f 25/7/9 38/8/9 26/9/9
f 29/5/9 11/3/9 25/7/9
f 30/6/9 29/5/9 25/7/9
f 11/3/9 29/5/9 13/4/9

g cabin-wall-roof-center




usemtl colormap

f 3/2/1 2/1/1 1/1/1
f 6/2/2 5/1/2 4/1/2
f 9/4/4 8/3/3 7/3/3
f 8/3/3 9/4/4 10/4/4
f 13/4/6 12/3/5 11/3/5
f 12/3/5 13/4/6 14/4/6
f 9/4/2 15/5/3 10/4/2
f 15/5/3 9/4/2 16/5/3
f 19/6/2 18/7/3 17/6/2
f 18/7/3 19/6/2 20/7/3
f 22/8/3 5/1/4 21/8/3
f 5/1/4 22/8/3 4/1/4
f 25/7/5 24/9/6 23/7/5
f 24/9/6 25/7/5 26/9/6
f 29/5/5 28/6/6 27/5/5
f 28/6/6 29/5/5 30/6/6
f 30/6/1 23/7/5 28/6/1
f 23/7/5 30/6/1 25/7/5
f 20/7/3 31/9/4 18/7/3
f 31/9/4 20/7/3 32/9/4
f 35/11/6 34/10/6 33/10/6
f 34/10/6 35/11/6 36/11/6
f 13/4/1 27/5/5 14/4/1
f 27/5/5 13/4/1 29/5/5
f 38/8/5 2/1/6 37/8/5
f 2/1/6 38/8/5 1/1/6
f 32/9/2 21/8/3 31/9/2
f 21/8/3 32/9/2 22/8/3
f 41/11/4 40/10/4 39/10/4
f 40/10/4 41/11/4 42/11/4
f 7/3/3 42/11/2 41/11/2
f 42/11/2 7/3/3 8/3/3
f 11/3/5 36/11/1 35/11/1
f 36/11/1 11/3/5 12/3/5
f 26/9/1 37/8/5 24/9/1
f 37/8/5 26/9/1 38/8/5
f 16/5/3 17/6/4 15/5/3
f 17/6/4 16/5/3 19/6/4
f 34/10/7 40/10/7 33/10/7
f 40/10/7 34/10/7 39/10/7
f 20/7/8 22/8/8 32/9/8
f 6/2/8 22/8/8 20/7/8
f 22/8/8 6/2/8 4/1/8
f 20/7/8 16/5/8 6/2/8
f 16/5/8 20/7/8 19/6/8
f 6/2/8 16/5/8 3/2/8
f 3/2/8 16/5/8 7/3/8
f 7/3/8 16/5/8 9/4/8
f 3/2/8 7/3/8 12/3/8
f 3/2/8 12/3/8 37/8/8
f 3/2/8 37/8/8 2/1/8
f 7/3/8 34/10/8 12/3/8
f 12/3/8 34/10/8 36/11/8
f 7/3/8 39/10/8 34/10/8
f 39/10/8 7/3/8 41/11/8
f 12/3/8 27/5/8 37/8/8
f 27/5/8 12/3/8 14/4/8
f 23/7/8 37/8/8 27/5/8
f 28/6/8 23/7/8 27/5/8
f 37/8/8 23/7/8 24/9/8
f 18/7/9 15/5/9 17/6/9
f 8/3/9 15/5/9 18/7/9
f 15/5/9 8/3/9 10/4/9
f 18/7/9 3/2/9 8/3/9
f 21/8/9 3/2/9 18/7/9
f 18/7/9 31/9/9 21/8/9
f 21/8/9 6/2/9 3/2/9
f 6/2/9 21/8/9 5/1/9
f 8/3/9 3/2/9 11/3/9
f 33/10/9 8/3/9 11/3/9
f 33/10/9 11/3/9 35/11/9
f 40/10/9 8/3/9 33/10/9
f 8/3/9 40/10/9 42/11/9
f 11/3/9 3/2/9 25/7/9
f 25/7/9 3/2/9 38/8/9
f 1/1/9 38/8/9 3/2/9
f 25/7/9 38/8/9 26/9/9
f 29/5/9 11/3/9 25/7/9
f 30/6/9 29/5/9 25/7/9
f 11/3/9 29/5/9 13/4/9

