# Created by Kenney (www.kenney.nl)

mtllib cabin-doorway-right.mtl

g cabin-doorway-right

v 0.25 0.1 0.65 1 1 1
v 0.5 0.1 0.65 1 1 1
v 0.25 0.2 0.6 1 1 1
v 0.5 0.2 0.6 1 1 1
v 0.5 0.8 0.6 1 1 1
v 0.5 0.9 0.65 1 1 1
v 0.25 0.8 0.6 1 1 1
v 0.25 0.9 0.65 1 1 1
v 0.5 0.3 0.65 1 1 1
v 0.5 0.4 0.6 1 1 1
v 0.25 0.3 0.65 1 1 1
v 0.25 0.4 0.6 1 1 1
v 0.5 0.5 0.65 1 1 1
v 0.25 0.5 0.65 1 1 1
v 0.5 0.6 0.4 1 1 1
v 0.25 0.6 0.4 1 1 1
v 0.5 0.7 0.35 1 1 1
v 0.25 0.7 0.35 1 1 1
v 0.25 0.8 0.4 1 1 1
v 0.25 0.9 0.35 1 1 1
v 0.5 0.8 0.4 1 1 1
v 0.5 0.9 0.35 1 1 1
v 0.25 0.4 0.4 1 1 1
v 0.25 0.5 0.35 1 1 1
v 0.5 0.4 0.4 1 1 1
v 0.5 0.5 0.35 1 1 1
v 0.25 0.2 0.4 1 1 1
v 0.25 0.3 0.35 1 1 1
v 0.25 1.982736E-14 0.6 1 1 1
v 0.25 1.277145E-14 0.4 1 1 1
v 0.25 0.1 0.35 1 1 1
v 0.25 0.6 0.6 1 1 1
v 0.25 0.7 0.65 1 1 1
v -0.5 0.9 0.35 1 1 1
v -0.5 0.9 0.65 1 1 1
v -0.5 1 0.4 1 1 1
v -0.5 1 0.6 1 1 1
v 0.5 0.1 0.35 1 1 1
v 0.5 0.2 0.4 1 1 1
v 0.5 0.6 0.6 1 1 1
v 0.5 0.7 0.65 1 1 1
v 0.5 0.3 0.35 1 1 1
v 0.5 2.887646E-14 0.6 1 1 1
v 0.5 1 0.4 1 1 1
v 0.5 1 0.6 1 1 1
v 0.5 -2.887646E-14 0.4 1 1 1
v 0.2 0.8 0.3 1 1 1
v 0.2 -2.887646E-14 0.3 1 1 1
v 0.2 0.8 0.7 1 1 1
v 0.2 -2.887646E-14 0.7 1 1 1
v 0.25 0.9 0.3 1 1 1
v 0.25 0.9 0.7 1 1 1
v 0.3 0.85 0.3 1 1 1
v 0.3 0.85 0.7 1 1 1
v 0.3 -2.887646E-14 0.3 1 1 1
v 0.3 -2.887646E-14 0.7 1 1 1
v -0.5 0.9 0.3 1 1 1
v -0.5 0.9 0.7 1 1 1
v -0.5 0.8 0.3 1 1 1
v -0.5 0.8 0.7 1 1 1

vn 0 0.4472136 0.8944272
vn 0 0 1
vn 0 -0.4472136 0.8944272
vn 0 0 -1
vn 0 -0.4472136 -0.8944272
vn -1 0 0
vn 0 0.4472136 -0.8944272
vn 1 0 0
vn 0 -1 0
vn 0 1 0
vn 0.3826834 0.9238795 0
vn 0.9238795 0.3826834 0

vt 0.21875 0.295
vt 0.21875 0.315
vt 0.21875 0.435
vt 0.21875 0.455
vt 0.21875 0.335
vt 0.21875 0.355
vt 0.21875 0.375
vt 0.21875 0.395
vt 0.21875 0.415
vt 0.21875 0.275
vt 0.21875 0.475
vt 0.71875 0.4527778
vt 0.71875 0.275
vt 0.71875 0.475
vt 0.71875 0.4638889

usemtl colormap

f 21/3/4 17/9/7 19/3/4
f 18/9/7 19/3/4 17/9/7
f 45/11/1 37/11/1 6/4/1
f 37/11/1 35/4/1 6/4/1
f 8/4/1 6/4/1 35/4/1
f 8/4/9 35/4/9 20/4/9
f 34/4/9 20/4/9 35/4/9
f 25/6/4 42/5/7 23/6/4
f 28/5/7 23/6/4 42/5/7
f 31/1/5 38/1/5 30/10/5
f 46/10/5 30/10/5 38/1/5
f 41/9/3 33/9/3 40/8/2
f 32/8/2 40/8/2 33/9/3
f 45/11/10 44/11/10 37/11/10
f 36/11/10 37/11/10 44/11/10
f 46/10/9 43/10/9 30/10/9
f 29/10/9 30/10/9 43/10/9
f 44/11/7 22/4/7 36/11/7
f 36/11/7 22/4/7 34/4/7
f 20/4/7 34/4/7 22/4/7
f 9/5/3 11/5/3 4/2/2
f 3/2/2 4/2/2 11/5/3
f 6/4/8 5/3/8 45/11/8
f 40/8/8 5/3/8 41/9/8
f 5/3/8 40/8/8 45/11/8
f 10/6/8 40/8/8 13/7/8
f 40/8/8 10/6/8 45/11/8
f 4/2/8 10/6/8 9/5/8
f 10/6/8 4/2/8 45/11/8
f 38/1/8 39/2/8 46/10/8
f 43/10/8 46/10/8 39/2/8
f 39/2/8 42/5/8 25/6/8
f 25/6/8 43/10/8 39/2/8
f 25/6/8 26/7/8 15/8/8
f 15/8/8 43/10/8 25/6/8
f 15/8/8 17/9/8 21/3/8
f 21/3/8 43/10/8 15/8/8
f 44/11/8 45/11/8 4/2/8
f 2/1/8 43/10/8 4/2/8
f 4/2/8 43/10/8 44/11/8
f 44/11/8 43/10/8 21/3/8
f 21/3/8 22/4/8 44/11/8
f 2/1/3 1/1/3 43/10/3
f 29/10/3 43/10/3 1/1/3
f 16/8/4 15/8/4 24/7/7
f 26/7/7 24/7/7 15/8/4
f 28/5/5 42/5/5 27/2/4
f 39/2/4 27/2/4 42/5/5
f 7/3/2 33/9/1 5/3/2
f 41/9/1 5/3/2 33/9/1
f 40/8/2 32/8/2 13/7/1
f 14/7/1 13/7/1 32/8/2
f 27/2/4 39/2/4 31/1/7
f 38/1/7 31/1/7 39/2/4
f 37/11/6 36/11/6 35/4/6
f 34/4/6 35/4/6 36/11/6
f 32/8/6 12/6/6 14/7/6
f 7/3/6 32/8/6 33/9/6
f 32/8/6 7/3/6 12/6/6
f 11/5/6 12/6/6 3/2/6
f 7/3/6 3/2/6 12/6/6
f 31/1/6 30/10/6 27/2/6
f 29/10/6 27/2/6 30/10/6
f 1/1/6 3/2/6 29/10/6
f 3/2/6 27/2/6 29/10/6
f 3/2/6 7/3/6 27/2/6
f 20/4/6 19/3/6 8/4/6
f 19/3/6 18/9/6 16/8/6
f 16/8/6 8/4/6 19/3/6
f 7/3/6 8/4/6 16/8/6
f 27/2/6 7/3/6 16/8/6
f 28/5/6 27/2/6 23/6/6
f 16/8/6 23/6/6 27/2/6
f 24/7/6 23/6/6 16/8/6
f 26/7/5 25/6/4 24/7/5
f 23/6/4 24/7/5 25/6/4
f 22/4/5 21/3/4 20/4/5
f 19/3/4 20/4/5 21/3/4
f 18/9/5 17/9/5 16/8/4
f 15/8/4 16/8/4 17/9/5
f 14/7/3 12/6/2 13/7/3
f 10/6/2 13/7/3 12/6/2
f 12/6/2 11/5/1 10/6/2
f 9/5/1 10/6/2 11/5/1
f 8/4/3 7/3/2 6/4/3
f 5/3/2 6/4/3 7/3/2
f 4/2/2 3/2/2 2/1/1
f 1/1/1 2/1/1 3/2/2
f 55/13/9 56/13/9 48/13/9
f 50/13/9 48/13/9 56/13/9
f 47/12/9 49/12/9 59/12/9
f 60/12/9 59/12/9 49/12/9
f 50/13/2 56/13/2 49/12/2
f 54/15/2 49/12/2 56/13/2
f 52/14/2 58/14/2 54/15/2
f 54/15/2 58/14/2 49/12/2
f 60/12/2 49/12/2 58/14/2
f 59/12/4 57/14/4 47/12/4
f 51/14/4 53/15/4 57/14/4
f 53/15/4 47/12/4 57/14/4
f 47/12/4 53/15/4 48/13/4
f 55/13/4 48/13/4 53/15/4
f 60/12/6 58/14/6 59/12/6
f 57/14/6 59/12/6 58/14/6
f 52/14/11 51/14/11 58/14/10
f 57/14/10 58/14/10 51/14/11
f 54/15/12 56/13/8 53/15/12
f 55/13/8 53/15/12 56/13/8
f 54/15/12 53/15/12 52/14/11
f 51/14/11 52/14/11 53/15/12
f 50/13/6 49/12/6 48/13/6
f 47/12/6 48/13/6 49/12/6

g cabin-doorway-right




usemtl colormap

f 21/3/4 17/9/7 19/3/4
f 18/9/7 19/3/4 17/9/7
f 45/11/1 37/11/1 6/4/1
f 37/11/1 35/4/1 6/4/1
f 8/4/1 6/4/1 35/4/1
f 8/4/9 35/4/9 20/4/9
f 34/4/9 20/4/9 35/4/9
f 25/6/4 42/5/7 23/6/4
f 28/5/7 23/6/4 42/5/7
f 31/1/5 38/1/5 30/10/5
f 46/10/5 30/10/5 38/1/5
f 41/9/3 33/9/3 40/8/2
f 32/8/2 40/8/2 33/9/3
f 45/11/10 44/11/10 37/11/10
f 36/11/10 37/11/10 44/11/10
f 46/10/9 43/10/9 30/10/9
f 29/10/9 30/10/9 43/10/9
f 44/11/7 22/4/7 36/11/7
f 36/11/7 22/4/7 34/4/7
f 20/4/7 34/4/7 22/4/7
f 9/5/3 11/5/3 4/2/2
f 3/2/2 4/2/2 11/5/3
f 6/4/8 5/3/8 45/11/8
f 40/8/8 5/3/8 41/9/8
f 5/3/8 40/8/8 45/11/8
f 10/6/8 40/8/8 13/7/8
f 40/8/8 10/6/8 45/11/8
f 4/2/8 10/6/8 9/5/8
f 10/6/8 4/2/8 45/11/8
f 38/1/8 39/2/8 46/10/8
f 43/10/8 46/10/8 39/2/8
f 39/2/8 42/5/8 25/6/8
f 25/6/8 43/10/8 39/2/8
f 25/6/8 26/7/8 15/8/8
f 15/8/8 43/10/8 25/6/8
f 15/8/8 17/9/8 21/3/8
f 21/3/8 43/10/8 15/8/8
f 44/11/8 45/11/8 4/2/8
f 2/1/8 43/10/8 4/2/8
f 4/2/8 43/10/8 44/11/8
f 44/11/8 43/10/8 21/3/8
f 21/3/8 22/4/8 44/11/8
f 2/1/3 1/1/3 43/10/3
f 29/10/3 43/10/3 1/1/3
f 16/8/4 15/8/4 24/7/7
f 26/7/7 24/7/7 15/8/4
f 28/5/5 42/5/5 27/2/4
f 39/2/4 27/2/4 42/5/5
f 7/3/2 33/9/1 5/3/2
f 41/9/1 5/3/2 33/9/1
f 40/8/2 32/8/2 13/7/1
f 14/7/1 13/7/1 32/8/2
f 27/2/4 39/2/4 31/1/7
f 38/1/7 31/1/7 39/2/4
f 37/11/6 36/11/6 35/4/6
f 34/4/6 35/4/6 36/11/6
f 32/8/6 12/6/6 14/7/6
f 7/3/6 32/8/6 33/9/6
f 32/8/6 7/3/6 12/6/6
f 11/5/6 12/6/6 3/2/6
f 7/3/6 3/2/6 12/6/6
f 31/1/6 30/10/6 27/2/6
f 29/10/6 27/2/6 30/10/6
f 1/1/6 3/2/6 29/10/6
f 3/2/6 27/2/6 29/10/6
f 3/2/6 7/3/6 27/2/6
f 20/4/6 19/3/6 8/4/6
f 19/3/6 18/9/6 16/8/6
f 16/8/6 8/4/6 19/3/6
f 7/3/6 8/4/6 16/8/6
f 27/2/6 7/3/6 16/8/6
f 28/5/6 27/2/6 23/6/6
f 16/8/6 23/6/6 27/2/6
f 24/7/6 23/6/6 16/8/6
f 26/7/5 25/6/4 24/7/5
f 23/6/4 24/7/5 25/6/4
f 22/4/5 21/3/4 20/4/5
f 19/3/4 20/4/5 21/3/4
f 18/9/5 17/9/5 16/8/4
f 15/8/4 16/8/4 17/9/5
f 14/7/3 12/6/2 13/7/3
f 10/6/2 13/7/3 12/6/2
f 12/6/2 11/5/1 10/6/2
f 9/5/1 10/6/2 11/5/1
f 8/4/3 7/3/2 6/4/3
f 5/3/2 6/4/3 7/3/2
f 4/2/2 3/2/2 2/1/1
f 1/1/1 2/1/1 3/2/2
f 55/13/9 56/13/9 48/13/9
f 50/13/9 48/13/9 56/13/9
f 47/12/9 49/12/9 59/12/9
f 60/12/9 59/12/9 49/12/9
f 50/13/2 56/13/2 49/12/2
f 54/15/2 49/12/2 56/13/2
f 52/14/2 58/14/2 54/15/2
f 54/15/2 58/14/2 49/12/2
f 60/12/2 49/12/2 58/14/2
f 59/12/4 57/14/4 47/12/4
f 51/14/4 53/15/4 57/14/4
f 53/15/4 47/12/4 57/14/4
f 47/12/4 53/15/4 48/13/4
f 55/13/4 48/13/4 53/15/4
f 60/12/6 58/14/6 59/12/6
f 57/14/6 59/12/6 58/14/6
f 52/14/11 51/14/11 58/14/10
f 57/14/10 58/14/10 51/14/11
f 54/15/12 56/13/8 53/15/12
f 55/13/8 53/15/12 56/13/8
f 54/15/12 53/15/12 52/14/11
f 51/14/11 52/14/11 53/15/12
f 50/13/6 49/12/6 48/13/6
f 47/12/6 48/13/6 49/12/6

