# Created by Kenney (www.kenney.nl)

mtllib cabin-window-a.mtl

g cabin-window-a

v -0.5 0.2 0.4 1 1 1
v 0.5 0.2 0.4 1 1 1
v -0.5 0.3 0.35 1 1 1
v 0.5 0.3 0.35 1 1 1
v 0.25 0.3 0.35 1 1 1
v -0.25 0.3 0.35 1 1 1
v 0.5 1 0.4 1 1 1
v 0.5 1 0.6 1 1 1
v -0.5 1 0.4 1 1 1
v -0.5 1 0.6 1 1 1
v -0.5 0.1 0.35 1 1 1
v 0.5 0.1 0.35 1 1 1
v 0.5 0.4 0.4 1 1 1
v 0.25 0.4 0.4 1 1 1
v 0.5 0.5 0.35 1 1 1
v 0.25 0.5 0.35 1 1 1
v 0.25 0.8 0.6 1 1 1
v 0.25 0.9 0.65 1 1 1
v 0.5 0.8 0.6 1 1 1
v 0.5 0.9 0.65 1 1 1
v 0.5 0 0.6 1 1 1
v 0.5 0 0.4 1 1 1
v -0.5 2.887646E-14 0.6 1 1 1
v -0.5 -2.887646E-14 0.4 1 1 1
v 0.5 0.7 0.35 1 1 1
v 0.5 0.8 0.4 1 1 1
v 0.25 0.7 0.35 1 1 1
v 0.25 0.8 0.4 1 1 1
v -0.5 0.4 0.6 1 1 1
v -0.5 0.5 0.65 1 1 1
v -0.25 0.4 0.6 1 1 1
v -0.25 0.5 0.65 1 1 1
v -0.5 0.9 0.35 1 1 1
v -0.25 0.9 0.35 1 1 1
v 0.5 0.9 0.35 1 1 1
v 0.25 0.9 0.35 1 1 1
v 0.5 0.2 0.6 1 1 1
v -0.5 0.2 0.6 1 1 1
v 0.5 0.3 0.65 1 1 1
v -0.5 0.3 0.65 1 1 1
v -0.25 0.3 0.65 1 1 1
v 0.25 0.3 0.65 1 1 1
v -0.25 0.5 0.35 1 1 1
v -0.25 0.4 0.4 1 1 1
v -0.25 0.6 0.4 1 1 1
v -0.25 0.8 0.6 1 1 1
v -0.25 0.6 0.6 1 1 1
v -0.25 0.7 0.65 1 1 1
v -0.25 0.9 0.65 1 1 1
v -0.25 0.8 0.4 1 1 1
v -0.25 0.7 0.35 1 1 1
v 0.5 0.6 0.4 1 1 1
v 0.5 0.6 0.6 1 1 1
v 0.5 0.7 0.65 1 1 1
v 0.5 0.4 0.6 1 1 1
v 0.5 0.5 0.65 1 1 1
v 0.5 0.1 0.65 1 1 1
v -0.5 0.1 0.65 1 1 1
v 0.25 0.6 0.6 1 1 1
v 0.25 0.7 0.65 1 1 1
v -0.5 0.8 0.4 1 1 1
v -0.5 0.6 0.4 1 1 1
v -0.5 0.7 0.35 1 1 1
v -0.5 0.4 0.4 1 1 1
v -0.5 0.5 0.35 1 1 1
v -0.5 0.6 0.6 1 1 1
v -0.5 0.8 0.6 1 1 1
v -0.5 0.7 0.65 1 1 1
v -0.5 0.9 0.65 1 1 1
v 0.25 0.4 0.6 1 1 1
v 0.25 0.6 0.4 1 1 1
v 0.25 0.5 0.65 1 1 1
v -0.3 0.2534074 0.6741181 1 1 1
v 0.3 0.2534074 0.6741181 1 1 1
v -0.3 0.35 0.7 1 1 1
v 0.3 0.35 0.7 1 1 1
v 0.3 0.3241181 0.7965926 1 1 1
v 0.3 0.2275255 0.7707107 1 1 1
v -0.3 0.2275255 0.7707107 1 1 1
v -0.3 0.3241181 0.7965926 1 1 1
v 0.25 0.2145846 0.819007 1 1 1
v -0.25 0.2145846 0.819007 1 1 1
v 0.25 0.3111771 0.8448889 1 1 1
v -0.25 0.3111771 0.8448889 1 1 1
v 0.2 0.4 0.3 1 1 1
v 0.2 0.8 0.3 1 1 1
v 0.2 0.4 0.7 1 1 1
v 0.2 0.8 0.7 1 1 1
v -0.2 0.8 0.3 1 1 1
v -0.2 0.4 0.3 1 1 1
v -0.2 0.8 0.7 1 1 1
v -0.2 0.4 0.7 1 1 1
v -0.25 0.9 0.3 1 1 1
v -0.25 0.9 0.7 1 1 1
v -0.3 0.85 0.3 1 1 1
v -0.3 0.85 0.7 1 1 1
v -0.3 0.35 0.3 1 1 1
v -0.3 0.35 0.7 1 1 1
v -0.25 0.3 0.7 1 1 1
v -0.25 0.3 0.3 1 1 1
v 0.25 0.9 0.3 1 1 1
v 0.25 0.9 0.7 1 1 1
v 0.3 0.85 0.3 1 1 1
v 0.3 0.35 0.3 1 1 1
v 0.3 0.85 0.7 1 1 1
v 0.3 0.35 0.7 1 1 1
v 0.25 0.3 0.3 1 1 1
v 0.25 0.3 0.7 1 1 1
v -0.025 0.8 0.65 1 1 1
v 0.025 0.8 0.65 1 1 1
v -0.025 0.625 0.65 1 1 1
v 0.025 0.625 0.65 1 1 1
v 0.2 0.625 0.65 1 1 1
v -0.2 0.575 0.65 1 1 1
v -0.2 0.625 0.65 1 1 1
v -0.025 0.575 0.65 1 1 1
v 0.025 0.575 0.65 1 1 1
v 0.2 0.575 0.65 1 1 1
v -0.025 0.4 0.65 1 1 1
v 0.025 0.4 0.65 1 1 1
v 0.2 0.575 0.6 1 1 1
v 0.2 0.625 0.6 1 1 1
v 0.025 0.575 0.6 1 1 1
v 0.025 0.625 0.6 1 1 1
v -0.025 0.575 0.6 1 1 1
v 0.025 0.4 0.6 1 1 1
v -0.025 0.4 0.6 1 1 1
v -0.025 0.625 0.6 1 1 1
v -0.2 0.575 0.6 1 1 1
v -0.2 0.625 0.6 1 1 1
v 0.025 0.8 0.6 1 1 1
v -0.025 0.8 0.6 1 1 1

vn 0 0 -1
vn 0 -0.4472136 -0.8944272
vn 0 1 0
vn 0 0.4472136 -0.8944272
vn 0 0 1
vn 0 -0.4472136 0.8944272
vn 0 -1 0
vn 1 0 0
vn 0 0.4472136 0.8944272
vn -1 0 0
vn 0 0.258819 -0.9659258
vn 0.9238795 -0.09904576 0.3696438
vn -0.9238795 -0.09904576 0.3696438
vn 0.3826834 -0.2391176 0.892399
vn -0.3826834 -0.2391176 0.892399
vn 0 -0.9659258 -0.258819
vn 0 0.9659258 0.258819
vn -0.3826834 0.9238795 0
vn -0.9238795 0.3826834 0
vn -0.9238795 -0.3826834 0
vn -0.3826834 -0.9238795 0
vn 0.3826834 0.9238795 0
vn 0.9238795 0.3826834 0
vn 0.9238795 -0.3826834 0
vn 0.3826834 -0.9238795 0

vt 0.21875 0.315
vt 0.21875 0.335
vt 0.21875 0.475
vt 0.21875 0.295
vt 0.21875 0.355
vt 0.21875 0.375
vt 0.21875 0.435
vt 0.21875 0.455
vt 0.21875 0.275
vt 0.21875 0.415
vt 0.21875 0.395
vt 0.71875 0.3083333
vt 0.71875 0.4416667
vt 0.71875 0.475
vt 0.71875 0.4583333
vt 0.71875 0.2916667
vt 0.71875 0.275
vt 0.71875 0.3625
vt 0.71875 0.3875

usemtl colormap

f 3/2/2 2/1/1 1/1/1
f 2/1/1 3/2/2 4/2/2
f 4/2/2 3/2/2 5/2/2
f 5/2/2 3/2/2 6/2/2
f 9/3/3 8/3/3 7/3/3
f 8/3/3 9/3/3 10/3/3
f 1/1/1 12/4/4 11/4/4
f 12/4/4 1/1/1 2/1/1
f 5/2/4 13/5/1 4/2/4
f 13/5/1 5/2/4 14/5/1
f 14/5/1 15/6/2 13/5/1
f 15/6/2 14/5/1 16/6/2
f 19/7/5 18/8/6 17/7/5
f 18/8/6 19/7/5 20/8/6
f 23/9/7 22/9/7 21/9/7
f 22/9/7 23/9/7 24/9/7
f 27/10/4 26/7/1 25/10/4
f 26/7/1 27/10/4 28/7/1
f 31/5/5 30/6/6 29/5/5
f 30/6/6 31/5/5 32/6/6
f 9/3/4 34/8/4 33/8/4
f 7/3/4 34/8/4 9/3/4
f 35/8/4 34/8/4 7/3/4
f 34/8/4 35/8/4 36/8/4
f 39/2/6 38/1/5 37/1/5
f 38/1/5 39/2/6 40/2/6
f 40/2/6 39/2/6 41/2/6
f 41/2/6 39/2/6 42/2/6
f 45/11/8 44/5/8 43/6/8
f 41/2/8 44/5/8 45/11/8
f 44/5/8 41/2/8 6/2/8
f 41/2/8 45/11/8 31/5/8
f 31/5/8 45/11/8 46/7/8
f 31/5/8 46/7/8 47/11/8
f 32/6/8 31/5/8 47/11/8
f 48/10/8 47/11/8 46/7/8
f 45/11/8 49/8/8 46/7/8
f 50/7/8 49/8/8 45/11/8
f 45/11/8 51/10/8 50/7/8
f 49/8/8 50/7/8 34/8/8
f 7/3/8 26/7/8 35/8/8
f 26/7/8 7/3/8 8/3/8
f 26/7/8 8/3/8 52/11/8
f 52/11/8 25/10/8 26/7/8
f 52/11/8 8/3/8 13/5/8
f 13/5/8 15/6/8 52/11/8
f 13/5/8 8/3/8 2/1/8
f 2/1/8 4/2/8 13/5/8
f 21/9/8 2/1/8 8/3/8
f 22/9/8 2/1/8 21/9/8
f 2/1/8 22/9/8 12/4/8
f 21/9/8 8/3/8 19/7/8
f 20/8/8 19/7/8 8/3/8
f 21/9/8 19/7/8 53/11/8
f 54/10/8 53/11/8 19/7/8
f 21/9/8 53/11/8 55/5/8
f 56/6/8 55/5/8 53/11/8
f 21/9/8 55/5/8 37/1/8
f 39/2/8 37/1/8 55/5/8
f 21/9/8 37/1/8 57/4/8
f 57/4/6 23/9/6 21/9/6
f 23/9/6 57/4/6 58/4/6
f 53/11/5 60/10/6 59/11/5
f 60/10/6 53/11/5 54/10/6
f 54/10/9 17/7/5 60/10/9
f 17/7/5 54/10/9 19/7/5
f 37/1/5 58/4/9 57/4/9
f 58/4/9 37/1/5 38/1/5
f 9/3/10 33/8/10 61/7/10
f 61/7/10 23/9/10 9/3/10
f 9/3/10 23/9/10 38/1/10
f 38/1/10 23/9/10 58/4/10
f 38/1/10 10/3/10 9/3/10
f 62/11/10 23/9/10 61/7/10
f 61/7/10 63/10/10 62/11/10
f 64/5/10 23/9/10 62/11/10
f 62/11/10 65/6/10 64/5/10
f 1/1/10 23/9/10 64/5/10
f 64/5/10 3/2/10 1/1/10
f 1/1/10 24/9/10 23/9/10
f 24/9/10 1/1/10 11/4/10
f 10/3/10 38/1/10 29/5/10
f 40/2/10 29/5/10 38/1/10
f 10/3/10 29/5/10 66/11/10
f 30/6/10 66/11/10 29/5/10
f 10/3/10 66/11/10 67/7/10
f 68/10/10 67/7/10 66/11/10
f 10/3/10 67/7/10 69/8/10
f 11/4/2 22/9/2 24/9/2
f 22/9/2 11/4/2 12/4/2
f 63/10/2 45/11/1 62/11/1
f 45/11/1 63/10/2 51/10/2
f 47/11/5 30/6/9 32/6/9
f 30/6/9 47/11/5 66/11/5
f 20/8/9 49/8/9 18/8/9
f 49/8/9 20/8/9 69/8/9
f 69/8/9 20/8/9 8/3/9
f 69/8/9 8/3/9 10/3/9
f 39/2/9 70/5/5 42/2/9
f 70/5/5 39/2/9 55/5/5
f 16/6/4 52/11/1 15/6/4
f 52/11/1 16/6/4 71/11/1
f 61/7/1 34/8/2 50/7/1
f 34/8/2 61/7/1 33/8/2
f 48/10/9 67/7/5 68/10/9
f 67/7/5 48/10/9 46/7/5
f 64/5/1 6/2/4 3/2/4
f 6/2/4 64/5/1 44/5/1
f 62/11/1 43/6/4 65/6/4
f 43/6/4 62/11/1 45/11/1
f 41/2/9 29/5/5 40/2/9
f 29/5/5 41/2/9 31/5/5
f 48/10/6 66/11/5 47/11/5
f 66/11/5 48/10/6 68/10/6
f 28/7/1 35/8/2 26/7/1
f 35/8/2 28/7/1 36/8/2
f 49/8/7 36/8/7 18/8/7
f 36/8/7 49/8/7 34/8/7
f 71/11/1 25/10/2 52/11/1
f 25/10/2 71/11/1 27/10/2
f 46/7/5 69/8/6 67/7/5
f 69/8/6 46/7/5 49/8/6
f 53/11/5 72/6/9 56/6/9
f 72/6/9 53/11/5 59/11/5
f 55/5/5 72/6/6 70/5/5
f 72/6/6 55/5/5 56/6/6
f 64/5/1 43/6/2 44/5/1
f 43/6/2 64/5/1 65/6/2
f 63/10/4 50/7/1 51/10/4
f 50/7/1 63/10/4 61/7/1
f 14/5/10 71/11/10 16/6/10
f 71/11/10 14/5/10 28/7/10
f 28/7/10 27/10/10 71/11/10
f 17/7/10 28/7/10 14/5/10
f 18/8/10 28/7/10 17/7/10
f 28/7/10 18/8/10 36/8/10
f 17/7/10 14/5/10 59/11/10
f 60/10/10 17/7/10 59/11/10
f 14/5/10 70/5/10 59/11/10
f 72/6/10 59/11/10 70/5/10
f 14/5/10 42/2/10 70/5/10
f 42/2/10 14/5/10 5/2/10
f 6/2/3 42/2/3 5/2/3
f 42/2/3 6/2/3 41/2/3
f 75/3/11 74/9/11 73/9/11
f 74/9/11 75/3/11 76/3/11
f 77/3/12 74/9/8 76/3/8
f 74/9/8 77/3/12 78/9/12
f 79/9/13 75/3/10 73/9/10
f 75/3/10 79/9/13 80/3/13
f 83/3/14 82/9/15 81/9/14
f 82/9/15 83/3/14 84/3/15
f 84/3/15 79/9/13 82/9/15
f 79/9/13 84/3/15 80/3/13
f 77/3/12 81/9/14 78/9/12
f 81/9/14 77/3/12 83/3/14
f 81/9/16 74/9/16 78/9/16
f 74/9/16 81/9/16 73/9/16
f 73/9/16 81/9/16 82/9/16
f 73/9/16 82/9/16 79/9/16
f 75/3/17 77/3/17 76/3/17
f 77/3/17 75/3/17 83/3/17
f 83/3/17 75/3/17 84/3/17
f 84/3/17 75/3/17 80/3/17
f 87/12/10 86/13/10 85/12/10
f 86/13/10 87/12/10 88/13/10
f 91/13/8 90/12/8 89/13/8
f 90/12/8 91/13/8 92/12/8
f 95/15/19 94/14/18 93/14/18
f 94/14/18 95/15/19 96/15/19
f 98/16/20 95/15/19 97/16/20
f 95/15/19 98/16/20 96/15/19
f 98/16/20 100/17/21 99/17/21
f 100/17/21 98/16/20 97/16/20
f 93/14/18 102/14/22 101/14/22
f 102/14/22 93/14/18 94/14/18
f 105/15/23 104/16/24 103/15/23
f 104/16/24 105/15/23 106/16/24
f 97/16/1 107/17/1 100/17/1
f 107/17/1 97/16/1 104/16/1
f 104/16/1 97/16/1 90/12/1
f 90/12/1 97/16/1 95/15/1
f 85/12/1 104/16/1 90/12/1
f 90/12/1 95/15/1 89/13/1
f 104/16/1 85/12/1 103/15/1
f 89/13/1 95/15/1 86/13/1
f 103/15/1 85/12/1 86/13/1
f 103/15/1 86/13/1 95/15/1
f 103/15/1 95/15/1 93/14/1
f 103/15/1 93/14/1 101/14/1
f 99/17/21 107/17/25 108/17/25
f 107/17/25 99/17/21 100/17/21
f 101/14/22 105/15/23 103/15/23
f 105/15/23 101/14/22 102/14/22
f 106/16/5 99/17/5 108/17/5
f 99/17/5 106/16/5 98/16/5
f 98/16/5 106/16/5 87/12/5
f 87/12/5 106/16/5 105/15/5
f 92/12/5 98/16/5 87/12/5
f 87/12/5 105/15/5 88/13/5
f 98/16/5 92/12/5 96/15/5
f 88/13/5 105/15/5 91/13/5
f 96/15/5 92/12/5 91/13/5
f 96/15/5 91/13/5 105/15/5
f 96/15/5 105/15/5 102/14/5
f 96/15/5 102/14/5 94/14/5
f 108/17/25 104/16/24 106/16/24
f 104/16/24 108/17/25 107/17/25
f 90/12/3 87/12/3 85/12/3
f 87/12/3 90/12/3 92/12/3
f 91/13/7 86/13/7 88/13/7
f 86/13/7 91/13/7 89/13/7
f 111/18/5 110/17/5 109/17/5
f 110/17/5 111/18/5 112/18/5
f 111/18/5 113/18/5 112/18/5
f 114/19/5 113/18/5 111/18/5
f 114/19/5 111/18/5 115/18/5
f 116/19/5 113/18/5 114/19/5
f 117/19/5 113/18/5 116/19/5
f 113/18/5 117/19/5 118/19/5
f 119/14/5 117/19/5 116/19/5
f 117/19/5 119/14/5 120/14/5
f 123/19/1 122/18/1 121/19/1
f 122/18/1 123/19/1 124/18/1
f 125/19/1 124/18/1 123/19/1
f 126/14/1 125/19/1 123/19/1
f 125/19/1 126/14/1 127/14/1
f 124/18/1 125/19/1 128/18/1
f 129/19/1 128/18/1 125/19/1
f 128/18/1 129/19/1 130/18/1
f 128/18/1 131/17/1 124/18/1
f 131/17/1 128/18/1 132/17/1
f 124/18/3 113/18/3 122/18/3
f 113/18/3 124/18/3 112/18/3
f 110/17/8 124/18/8 131/17/8
f 124/18/8 110/17/8 112/18/8
f 130/18/3 111/18/3 128/18/3
f 111/18/3 130/18/3 115/18/3
f 111/18/10 132/17/10 128/18/10
f 132/17/10 111/18/10 109/17/10
f 114/19/7 125/19/7 116/19/7
f 125/19/7 114/19/7 129/19/7
f 119/14/10 125/19/10 127/14/10
f 125/19/10 119/14/10 116/19/10
f 117/19/8 126/14/8 123/19/8
f 126/14/8 117/19/8 120/14/8
f 117/19/7 121/19/7 118/19/7
f 121/19/7 117/19/7 123/19/7

g cabin-window-a




usemtl colormap

f 3/2/2 2/1/1 1/1/1
f 2/1/1 3/2/2 4/2/2
f 4/2/2 3/2/2 5/2/2
f 5/2/2 3/2/2 6/2/2
f 9/3/3 8/3/3 7/3/3
f 8/3/3 9/3/3 10/3/3
f 1/1/1 12/4/4 11/4/4
f 12/4/4 1/1/1 2/1/1
f 5/2/4 13/5/1 4/2/4
f 13/5/1 5/2/4 14/5/1
f 14/5/1 15/6/2 13/5/1
f 15/6/2 14/5/1 16/6/2
f 19/7/5 18/8/6 17/7/5
f 18/8/6 19/7/5 20/8/6
f 23/9/7 22/9/7 21/9/7
f 22/9/7 23/9/7 24/9/7
f 27/10/4 26/7/1 25/10/4
f 26/7/1 27/10/4 28/7/1
f 31/5/5 30/6/6 29/5/5
f 30/6/6 31/5/5 32/6/6
f 9/3/4 34/8/4 33/8/4
f 7/3/4 34/8/4 9/3/4
f 35/8/4 34/8/4 7/3/4
f 34/8/4 35/8/4 36/8/4
f 39/2/6 38/1/5 37/1/5
f 38/1/5 39/2/6 40/2/6
f 40/2/6 39/2/6 41/2/6
f 41/2/6 39/2/6 42/2/6
f 45/11/8 44/5/8 43/6/8
f 41/2/8 44/5/8 45/11/8
f 44/5/8 41/2/8 6/2/8
f 41/2/8 45/11/8 31/5/8
f 31/5/8 45/11/8 46/7/8
f 31/5/8 46/7/8 47/11/8
f 32/6/8 31/5/8 47/11/8
f 48/10/8 47/11/8 46/7/8
f 45/11/8 49/8/8 46/7/8
f 50/7/8 49/8/8 45/11/8
f 45/11/8 51/10/8 50/7/8
f 49/8/8 50/7/8 34/8/8
f 7/3/8 26/7/8 35/8/8
f 26/7/8 7/3/8 8/3/8
f 26/7/8 8/3/8 52/11/8
f 52/11/8 25/10/8 26/7/8
f 52/11/8 8/3/8 13/5/8
f 13/5/8 15/6/8 52/11/8
f 13/5/8 8/3/8 2/1/8
f 2/1/8 4/2/8 13/5/8
f 21/9/8 2/1/8 8/3/8
f 22/9/8 2/1/8 21/9/8
f 2/1/8 22/9/8 12/4/8
f 21/9/8 8/3/8 19/7/8
f 20/8/8 19/7/8 8/3/8
f 21/9/8 19/7/8 53/11/8
f 54/10/8 53/11/8 19/7/8
f 21/9/8 53/11/8 55/5/8
f 56/6/8 55/5/8 53/11/8
f 21/9/8 55/5/8 37/1/8
f 39/2/8 37/1/8 55/5/8
f 21/9/8 37/1/8 57/4/8
f 57/4/6 23/9/6 21/9/6
f 23/9/6 57/4/6 58/4/6
f 53/11/5 60/10/6 59/11/5
f 60/10/6 53/11/5 54/10/6
f 54/10/9 17/7/5 60/10/9
f 17/7/5 54/10/9 19/7/5
f 37/1/5 58/4/9 57/4/9
f 58/4/9 37/1/5 38/1/5
f 9/3/10 33/8/10 61/7/10
f 61/7/10 23/9/10 9/3/10
f 9/3/10 23/9/10 38/1/10
f 38/1/10 23/9/10 58/4/10
f 38/1/10 10/3/10 9/3/10
f 62/11/10 23/9/10 61/7/10
f 61/7/10 63/10/10 62/11/10
f 64/5/10 23/9/10 62/11/10
f 62/11/10 65/6/10 64/5/10
f 1/1/10 23/9/10 64/5/10
f 64/5/10 3/2/10 1/1/10
f 1/1/10 24/9/10 23/9/10
f 24/9/10 1/1/10 11/4/10
f 10/3/10 38/1/10 29/5/10
f 40/2/10 29/5/10 38/1/10
f 10/3/10 29/5/10 66/11/10
f 30/6/10 66/11/10 29/5/10
f 10/3/10 66/11/10 67/7/10
f 68/10/10 67/7/10 66/11/10
f 10/3/10 67/7/10 69/8/10
f 11/4/2 22/9/2 24/9/2
f 22/9/2 11/4/2 12/4/2
f 63/10/2 45/11/1 62/11/1
f 45/11/1 63/10/2 51/10/2
f 47/11/5 30/6/9 32/6/9
f 30/6/9 47/11/5 66/11/5
f 20/8/9 49/8/9 18/8/9
f 49/8/9 20/8/9 69/8/9
f 69/8/9 20/8/9 8/3/9
f 69/8/9 8/3/9 10/3/9
f 39/2/9 70/5/5 42/2/9
f 70/5/5 39/2/9 55/5/5
f 16/6/4 52/11/1 15/6/4
f 52/11/1 16/6/4 71/11/1
f 61/7/1 34/8/2 50/7/1
f 34/8/2 61/7/1 33/8/2
f 48/10/9 67/7/5 68/10/9
f 67/7/5 48/10/9 46/7/5
f 64/5/1 6/2/4 3/2/4
f 6/2/4 64/5/1 44/5/1
f 62/11/1 43/6/4 65/6/4
f 43/6/4 62/11/1 45/11/1
f 41/2/9 29/5/5 40/2/9
f 29/5/5 41/2/9 31/5/5
f 48/10/6 66/11/5 47/11/5
f 66/11/5 48/10/6 68/10/6
f 28/7/1 35/8/2 26/7/1
f 35/8/2 28/7/1 36/8/2
f 49/8/7 36/8/7 18/8/7
f 36/8/7 49/8/7 34/8/7
f 71/11/1 25/10/2 52/11/1
f 25/10/2 71/11/1 27/10/2
f 46/7/5 69/8/6 67/7/5
f 69/8/6 46/7/5 49/8/6
f 53/11/5 72/6/9 56/6/9
f 72/6/9 53/11/5 59/11/5
f 55/5/5 72/6/6 70/5/5
f 72/6/6 55/5/5 56/6/6
f 64/5/1 43/6/2 44/5/1
f 43/6/2 64/5/1 65/6/2
f 63/10/4 50/7/1 51/10/4
f 50/7/1 63/10/4 61/7/1
f 14/5/10 71/11/10 16/6/10
f 71/11/10 14/5/10 28/7/10
f 28/7/10 27/10/10 71/11/10
f 17/7/10 28/7/10 14/5/10
f 18/8/10 28/7/10 17/7/10
f 28/7/10 18/8/10 36/8/10
f 17/7/10 14/5/10 59/11/10
f 60/10/10 17/7/10 59/11/10
f 14/5/10 70/5/10 59/11/10
f 72/6/10 59/11/10 70/5/10
f 14/5/10 42/2/10 70/5/10
f 42/2/10 14/5/10 5/2/10
f 6/2/3 42/2/3 5/2/3
f 42/2/3 6/2/3 41/2/3
f 75/3/11 74/9/11 73/9/11
f 74/9/11 75/3/11 76/3/11
f 77/3/12 74/9/8 76/3/8
f 74/9/8 77/3/12 78/9/12
f 79/9/13 75/3/10 73/9/10
f 75/3/10 79/9/13 80/3/13
f 83/3/14 82/9/15 81/9/14
f 82/9/15 83/3/14 84/3/15
f 84/3/15 79/9/13 82/9/15
f 79/9/13 84/3/15 80/3/13
f 77/3/12 81/9/14 78/9/12
f 81/9/14 77/3/12 83/3/14
f 81/9/16 74/9/16 78/9/16
f 74/9/16 81/9/16 73/9/16
f 73/9/16 81/9/16 82/9/16
f 73/9/16 82/9/16 79/9/16
f 75/3/17 77/3/17 76/3/17
f 77/3/17 75/3/17 83/3/17
f 83/3/17 75/3/17 84/3/17
f 84/3/17 75/3/17 80/3/17
f 87/12/10 86/13/10 85/12/10
f 86/13/10 87/12/10 88/13/10
f 91/13/8 90/12/8 89/13/8
f 90/12/8 91/13/8 92/12/8
f 95/15/19 94/14/18 93/14/18
f 94/14/18 95/15/19 96/15/19
f 98/16/20 95/15/19 97/16/20
f 95/15/19 98/16/20 96/15/19
f 98/16/20 100/17/21 99/17/21
f 100/17/21 98/16/20 97/16/20
f 93/14/18 102/14/22 101/14/22
f 102/14/22 93/14/18 94/14/18
f 105/15/23 104/16/24 103/15/23
f 104/16/24 105/15/23 106/16/24
f 97/16/1 107/17/1 100/17/1
f 107/17/1 97/16/1 104/16/1
f 104/16/1 97/16/1 90/12/1
f 90/12/1 97/16/1 95/15/1
f 85/12/1 104/16/1 90/12/1
f 90/12/1 95/15/1 89/13/1
f 104/16/1 85/12/1 103/15/1
f 89/13/1 95/15/1 86/13/1
f 103/15/1 85/12/1 86/13/1
f 103/15/1 86/13/1 95/15/1
f 103/15/1 95/15/1 93/14/1
f 103/15/1 93/14/1 101/14/1
f 99/17/21 107/17/25 108/17/25
f 107/17/25 99/17/21 100/17/21
f 101/14/22 105/15/23 103/15/23
f 105/15/23 101/14/22 102/14/22
f 106/16/5 99/17/5 108/17/5
f 99/17/5 106/16/5 98/16/5
f 98/16/5 106/16/5 87/12/5
f 87/12/5 106/16/5 105/15/5
f 92/12/5 98/16/5 87/12/5
f 87/12/5 105/15/5 88/13/5
f 98/16/5 92/12/5 96/15/5
f 88/13/5 105/15/5 91/13/5
f 96/15/5 92/12/5 91/13/5
f 96/15/5 91/13/5 105/15/5
f 96/15/5 105/15/5 102/14/5
f 96/15/5 102/14/5 94/14/5
f 108/17/25 104/16/24 106/16/24
f 104/16/24 108/17/25 107/17/25
f 90/12/3 87/12/3 85/12/3
f 87/12/3 90/12/3 92/12/3
f 91/13/7 86/13/7 88/13/7
f 86/13/7 91/13/7 89/13/7
f 111/18/5 110/17/5 109/17/5
f 110/17/5 111/18/5 112/18/5
f 111/18/5 113/18/5 112/18/5
f 114/19/5 113/18/5 111/18/5
f 114/19/5 111/18/5 115/18/5
f 116/19/5 113/18/5 114/19/5
f 117/19/5 113/18/5 116/19/5
f 113/18/5 117/19/5 118/19/5
f 119/14/5 117/19/5 116/19/5
f 117/19/5 119/14/5 120/14/5
f 123/19/1 122/18/1 121/19/1
f 122/18/1 123/19/1 124/18/1
f 125/19/1 124/18/1 123/19/1
f 126/14/1 125/19/1 123/19/1
f 125/19/1 126/14/1 127/14/1
f 124/18/1 125/19/1 128/18/1
f 129/19/1 128/18/1 125/19/1
f 128/18/1 129/19/1 130/18/1
f 128/18/1 131/17/1 124/18/1
f 131/17/1 128/18/1 132/17/1
f 124/18/3 113/18/3 122/18/3
f 113/18/3 124/18/3 112/18/3
f 110/17/8 124/18/8 131/17/8
f 124/18/8 110/17/8 112/18/8
f 130/18/3 111/18/3 128/18/3
f 111/18/3 130/18/3 115/18/3
f 111/18/10 132/17/10 128/18/10
f 132/17/10 111/18/10 109/17/10
f 114/19/7 125/19/7 116/19/7
f 125/19/7 114/19/7 129/19/7
f 119/14/10 125/19/10 127/14/10
f 125/19/10 119/14/10 116/19/10
f 117/19/8 126/14/8 123/19/8
f 126/14/8 117/19/8 120/14/8
f 117/19/7 121/19/7 118/19/7
f 121/19/7 117/19/7 123/19/7

