# Created by Kenney (www.kenney.nl)

mtllib cabin-window-large.mtl

g cabin-window-large

v 0.5 1 0.4 1 1 1
v 0.5 1 0.6 1 1 1
v -0.5 1 0.4 1 1 1
v -0.5 1 0.6 1 1 1
v 0.5 0.9 0.35 1 1 1
v 0.5 0.8 0.4 1 1 1
v 0.5 0.6 0.4 1 1 1
v 0.5 0.7 0.35 1 1 1
v 0.5 0.4 0.4 1 1 1
v 0.5 0.5 0.35 1 1 1
v 0.5 0.2 0.4 1 1 1
v 0.5 0.3 0.35 1 1 1
v 0.5 0 0.6 1 1 1
v 0.5 0 0.4 1 1 1
v 0.5 0.1 0.35 1 1 1
v 0.5 0.8 0.6 1 1 1
v 0.5 0.9 0.65 1 1 1
v 0.5 0.6 0.6 1 1 1
v 0.5 0.7 0.65 1 1 1
v 0.5 0.4 0.6 1 1 1
v 0.5 0.5 0.65 1 1 1
v 0.5 0.2 0.6 1 1 1
v 0.5 0.3 0.65 1 1 1
v 0.5 0.1 0.65 1 1 1
v -0.5 0.3 0.65 1 1 1
v -0.5 0.4 0.6 1 1 1
v -0.5 0.5 0.65 1 1 1
v -0.5 0.6 0.6 1 1 1
v -0.5 0.8 0.6 1 1 1
v -0.5 0.9 0.65 1 1 1
v -0.5 0.7 0.65 1 1 1
v -0.5 2.887646E-14 0.6 1 1 1
v -0.5 0.1 0.65 1 1 1
v -0.5 0.2 0.6 1 1 1
v -0.5 0.8 0.4 1 1 1
v -0.5 0.9 0.35 1 1 1
v -0.5 0.6 0.4 1 1 1
v -0.5 0.7 0.35 1 1 1
v -0.5 0.4 0.4 1 1 1
v -0.5 0.5 0.35 1 1 1
v -0.5 0.2 0.4 1 1 1
v -0.5 0.3 0.35 1 1 1
v -0.5 -2.887646E-14 0.4 1 1 1
v -0.5 0.1 0.35 1 1 1
v -0.2613249 0.3 0.727735 1 1 1
v -0.2613249 0.7 0.727735 1 1 1
v -0.172265 0.3 0.861325 1 1 1
v -0.172265 0.7 0.861325 1 1 1
v 0.1 0.3 0.9 1 1 1
v -0.1 0.3 0.9 1 1 1
v 0.1 0.7 0.9 1 1 1
v -0.1 0.7 0.9 1 1 1
v 0.2613249 0.7 0.727735 1 1 1
v 0.2613249 0.3 0.727735 1 1 1
v 0.172265 0.7 0.861325 1 1 1
v 0.172265 0.3 0.861325 1 1 1
v 0.4 0.8 0.6 1 1 1
v 0.4 0.2 0.6 1 1 1
v 0.4 0.8 0.7 1 1 1
v 0.4 0.2 0.7 1 1 1
v -0.4 0.2 0.6 1 1 1
v -0.4 0.8 0.6 1 1 1
v -0.4 0.2 0.7 1 1 1
v -0.4 0.8 0.7 1 1 1
v 0.2166667 0.2 0.975 1 1 1
v 0.1699537 0.2 1 1 1 1
v 0.2166667 0.8 0.975 1 1 1
v 0.1699537 0.8 1 1 1 1
v -0.1699537 0.2 1 1 1 1
v -0.2166667 0.2 0.975 1 1 1
v -0.1699537 0.8 1 1 1 1
v -0.2166667 0.8 0.975 1 1 1
v 0.1 0.3 1 1 1 1
v -0.1 0.3 1 1 1 1
v 0.1 0.7 1 1 1 1
v -0.1 0.7 1 1 1 1
v 0.34453 0.7 0.783205 1 1 1
v 0.34453 0.3 0.783205 1 1 1
v 0.25547 0.7 0.916795 1 1 1
v 0.25547 0.3 0.916795 1 1 1
v -0.34453 0.3 0.783205 1 1 1
v -0.34453 0.7 0.783205 1 1 1
v -0.25547 0.3 0.916795 1 1 1
v -0.25547 0.7 0.916795 1 1 1
v 0.2613249 0.7 0.727735 1 1 1
v 0.34453 0.7 0.783205 1 1 1
v 0.25547 0.7 0.916795 1 1 1
v 0.172265 0.7 0.861325 1 1 1
v 0.1 0.7 0.9 1 1 1
v 0.1 0.7 1 1 1 1
v -0.2613249 0.7 0.727735 1 1 1
v -0.34453 0.7 0.783205 1 1 1
v 0.25547 0.3 0.916795 1 1 1
v -0.1 0.7 0.9 1 1 1
v -0.1 0.7 1 1 1 1
v -0.172265 0.7 0.861325 1 1 1
v -0.25547 0.7 0.916795 1 1 1
v -0.25547 0.3 0.916795 1 1 1
v -0.1 0.475 0.925 1 1 1
v 0.1 0.475 0.925 1 1 1
v -0.1 0.525 0.925 1 1 1
v 0.1 0.525 0.925 1 1 1
v -0.1 0.475 0.9749999 1 1 1
v -0.1 0.525 0.9749999 1 1 1
v 0.1 0.475 0.9749999 1 1 1
v 0.1 0.525 0.9749999 1 1 1
v 0.2821262 0.475 0.7416025 1 1 1
v 0.2821262 0.525 0.7416025 1 1 1
v 0.1930663 0.475 0.8751925 1 1 1
v 0.1930663 0.525 0.8751925 1 1 1
v 0.3237287 0.475 0.7693375 1 1 1
v 0.2346688 0.475 0.9029275 1 1 1
v 0.3237287 0.525 0.7693375 1 1 1
v 0.2346688 0.525 0.9029275 1 1 1
v 0.45 0.95 0.6 1 1 1
v 0.45 0.95 0.7 1 1 1
v -0.45 0.95 0.6 1 1 1
v -0.45 0.95 0.7 1 1 1
v -0.45 0.8 0.6 1 1 1
v -0.45 0.8 0.7 1 1 1
v 0.45 0.8 0.6 1 1 1
v 0.45 0.8 0.7 1 1 1
v -0.2785714 0.8 1 1 1 1
v -0.2785714 0.9071429 1 1 1 1
v 0.1924124 0.8 1.05 1 1 1
v -0.1924124 0.8 1.05 1 1 1
v 0.1924124 0.9 1.05 1 1 1
v -0.1924124 0.9 1.05 1 1 1
v 0.2785714 0.9071429 1 1 1 1
v 0.2785714 0.8 1 1 1 1

vn 0 1 0
vn 1 0 0
vn 0 0.4472136 0.8944272
vn 0 0 1
vn 0 -0.4472136 0.8944272
vn -1 0 0
vn 0 -1 0
vn 0 0.4472136 -0.8944272
vn 0 0 -1
vn 0 -0.4472136 -0.8944272
vn -0.8320503 0 0.5547002
vn 0.8320503 0 0.5547002
vn 0.6721401 0 0.740424
vn 0.2432338 0 0.9699677
vn -0.2432338 0 0.9699677
vn -0.6721401 0 0.740424
vn -0.5547002 0 0.8320503
vn 0.5547002 0 0.8320503
vn -0.5547002 0 -0.8320503
vn 0.5547002 0 -0.8320503
vn -0.8320503 0 -0.5547002
vn 0 0.9983747 0.05699043
vn -0.9664996 0 0.2566679
vn -0.9692294 0 0.246159
vn 0.9692294 0 0.246159
vn 0.9664996 0 0.2566679
vn -0.7094642 0 0.7047415
vn -0.7209482 0 0.6929889
vn 0.2598941 0 0.9656371
vn -0.2598941 0 0.9656371
vn 0.2656792 0 0.9640616
vn -0.2656792 0 0.9640616
vn 0.7209482 0 0.6929889
vn 0.7094642 0 0.7047415
vn 0 0.9899495 0.1414214

vt 0.21875 0.475
vt 0.21875 0.455
vt 0.21875 0.435
vt 0.21875 0.395
vt 0.21875 0.415
vt 0.21875 0.355
vt 0.21875 0.375
vt 0.21875 0.315
vt 0.21875 0.335
vt 0.21875 0.275
vt 0.21875 0.295
vt 0.09375 0.3916667
vt 0.09375 0.4583333
vt 0.71875 0.475
vt 0.71875 0.375
vt 0.71875 0.3916667
vt 0.71875 0.4583333
vt 0.71875 0.275
vt 0.71875 0.325
vt 0.71875 0.425
vt 0.34375 0.425
vt 0.34375 0.325
vt 0.34375 0.3964286
vt 0.34375 0.3916667

usemtl colormap

f 3/1/1 2/1/1 1/1/1
f 2/1/1 3/1/1 4/1/1
f 1/1/2 6/3/2 5/2/2
f 6/3/2 1/1/2 2/1/2
f 6/3/2 2/1/2 7/4/2
f 7/4/2 8/5/2 6/3/2
f 7/4/2 2/1/2 9/6/2
f 9/6/2 10/7/2 7/4/2
f 9/6/2 2/1/2 11/8/2
f 11/8/2 12/9/2 9/6/2
f 13/10/2 11/8/2 2/1/2
f 14/10/2 11/8/2 13/10/2
f 11/8/2 14/10/2 15/11/2
f 13/10/2 2/1/2 16/3/2
f 17/2/2 16/3/2 2/1/2
f 13/10/2 16/3/2 18/4/2
f 19/5/2 18/4/2 16/3/2
f 13/10/2 18/4/2 20/6/2
f 21/7/2 20/6/2 18/4/2
f 13/10/2 20/6/2 22/8/2
f 23/9/2 22/8/2 20/6/2
f 13/10/2 22/8/2 24/11/2
f 23/9/3 26/6/4 25/9/3
f 26/6/4 23/9/3 20/6/4
f 18/4/4 27/7/3 21/7/3
f 27/7/3 18/4/4 28/4/4
f 16/3/4 30/2/5 29/3/4
f 30/2/5 16/3/4 17/2/5
f 19/5/5 28/4/4 18/4/4
f 28/4/4 19/5/5 31/5/5
f 19/5/3 29/3/4 31/5/3
f 29/3/4 19/5/3 16/3/4
f 2/1/3 30/2/3 17/2/3
f 30/2/3 2/1/3 4/1/3
f 20/6/4 27/7/5 26/6/4
f 27/7/5 20/6/4 21/7/5
f 24/11/5 32/10/5 13/10/5
f 32/10/5 24/11/5 33/11/5
f 22/8/4 33/11/3 24/11/3
f 33/11/3 22/8/4 34/8/4
f 23/9/5 34/8/4 22/8/4
f 34/8/4 23/9/5 25/9/5
f 3/1/6 36/2/6 35/3/6
f 35/3/6 32/10/6 3/1/6
f 3/1/6 32/10/6 34/8/6
f 34/8/6 32/10/6 33/11/6
f 34/8/6 4/1/6 3/1/6
f 37/4/6 32/10/6 35/3/6
f 35/3/6 38/5/6 37/4/6
f 39/6/6 32/10/6 37/4/6
f 37/4/6 40/7/6 39/6/6
f 41/8/6 32/10/6 39/6/6
f 39/6/6 42/9/6 41/8/6
f 41/8/6 43/10/6 32/10/6
f 43/10/6 41/8/6 44/11/6
f 4/1/6 34/8/6 26/6/6
f 25/9/6 26/6/6 34/8/6
f 4/1/6 26/6/6 28/4/6
f 27/7/6 28/4/6 26/6/6
f 4/1/6 28/4/6 29/3/6
f 31/5/6 29/3/6 28/4/6
f 4/1/6 29/3/6 30/2/6
f 32/10/7 14/10/7 13/10/7
f 14/10/7 32/10/7 43/10/7
f 3/1/8 5/2/8 36/2/8
f 5/2/8 3/1/8 1/1/8
f 42/9/10 11/8/9 41/8/9
f 11/8/9 42/9/10 12/9/10
f 42/9/8 9/6/9 12/9/8
f 9/6/9 42/9/8 39/6/9
f 41/8/9 15/11/8 44/11/8
f 15/11/8 41/8/9 11/8/9
f 38/5/8 6/3/9 8/5/8
f 6/3/9 38/5/8 35/3/9
f 39/6/9 10/7/10 9/6/9
f 10/7/10 39/6/9 40/7/10
f 44/11/10 14/10/10 43/10/10
f 14/10/10 44/11/10 15/11/10
f 37/4/9 10/7/8 40/7/8
f 10/7/8 37/4/9 7/4/9
f 35/3/9 5/2/10 6/3/9
f 5/2/10 35/3/9 36/2/10
f 38/5/10 7/4/9 37/4/9
f 7/4/9 38/5/10 8/5/10
f 47/12/11 46/13/11 45/12/11
f 46/13/11 47/12/11 48/13/11
f 51/13/4 50/12/4 49/12/4
f 50/12/4 51/13/4 52/13/4
f 55/13/12 54/12/12 53/13/12
f 54/12/12 55/13/12 56/12/12
f 59/14/2 58/15/2 57/14/2
f 58/15/2 59/14/2 60/15/2
f 63/15/6 62/14/6 61/15/6
f 62/14/6 63/15/6 64/14/6
f 67/14/13 66/15/14 65/15/13
f 66/15/14 67/14/13 68/14/14
f 71/14/15 70/15/16 69/15/15
f 70/15/16 71/14/15 72/14/16
f 65/15/7 58/15/7 60/15/7
f 58/15/7 65/15/7 61/15/7
f 61/15/7 65/15/7 66/15/7
f 61/15/7 66/15/7 69/15/7
f 61/15/7 69/15/7 70/15/7
f 61/15/7 70/15/7 63/15/7
f 66/15/14 73/16/4 69/15/15
f 73/16/4 66/15/14 68/14/14
f 74/16/4 69/15/15 73/16/4
f 73/16/4 68/14/14 75/17/4
f 69/15/15 74/16/4 71/14/15
f 75/17/4 68/14/14 76/17/4
f 71/14/15 74/16/4 76/17/4
f 71/14/15 76/17/4 68/14/14
f 59/14/12 77/17/12 60/15/12
f 77/17/12 59/14/12 67/14/13
f 78/16/12 60/15/12 77/17/12
f 77/17/12 67/14/13 79/17/12
f 60/15/12 78/16/12 65/15/13
f 79/17/12 67/14/13 80/16/12
f 65/15/13 78/16/12 80/16/12
f 65/15/13 80/16/12 67/14/13
f 63/15/11 81/16/11 64/14/11
f 81/16/11 63/15/11 70/15/16
f 82/17/11 64/14/11 81/16/11
f 81/16/11 70/15/16 83/16/11
f 64/14/11 82/17/11 72/14/16
f 83/16/11 70/15/16 84/17/11
f 72/14/16 82/17/11 84/17/11
f 72/14/16 84/17/11 70/15/16
f 78/18/17 85/15/17 54/18/17
f 85/15/17 78/18/17 86/15/17
f 87/15/7 85/15/7 86/15/7
f 85/15/7 87/15/7 88/15/7
f 73/18/6 89/15/6 49/18/6
f 89/15/6 73/18/6 90/15/6
f 91/15/18 81/18/18 45/18/18
f 81/18/18 91/15/18 92/15/18
f 54/18/1 93/18/1 78/18/1
f 93/18/1 54/18/1 56/18/1
f 95/15/2 50/18/2 94/15/2
f 50/18/2 95/15/2 74/18/2
f 50/18/1 73/18/1 49/18/1
f 73/18/1 50/18/1 74/18/1
f 97/15/7 91/15/7 96/15/7
f 91/15/7 97/15/7 92/15/7
f 98/18/19 96/15/19 47/18/19
f 96/15/19 98/18/19 97/15/19
f 95/15/7 89/15/7 90/15/7
f 89/15/7 95/15/7 94/15/7
f 45/18/1 98/18/1 47/18/1
f 98/18/1 45/18/1 81/18/1
f 88/15/20 93/18/20 56/18/20
f 93/18/20 88/15/20 87/15/20
f 101/20/9 100/19/9 99/19/9
f 100/19/9 101/20/9 102/20/9
f 105/19/4 104/20/4 103/19/4
f 104/20/4 105/19/4 106/20/4
f 101/20/1 106/20/1 102/20/1
f 106/20/1 101/20/1 104/20/1
f 103/19/7 100/19/7 105/19/7
f 100/19/7 103/19/7 99/19/7
f 109/19/21 108/20/21 107/19/21
f 108/20/21 109/19/21 110/20/21
f 113/20/12 112/19/12 111/19/12
f 112/19/12 113/20/12 114/20/12
f 112/19/7 107/19/7 111/19/7
f 107/19/7 112/19/7 109/19/7
f 108/20/1 114/20/1 113/20/1
f 114/20/1 108/20/1 110/20/1
f 117/21/1 116/21/22 115/21/1
f 116/21/22 117/21/1 118/21/22
f 120/22/23 117/21/6 119/22/6
f 117/21/6 120/22/23 118/21/24
f 116/21/25 121/22/2 115/21/2
f 121/22/2 116/21/25 122/22/26
f 123/22/27 118/21/24 120/22/23
f 118/21/24 123/22/27 124/23/28
f 127/24/31 126/22/30 125/22/29
f 126/22/30 127/24/31 128/24/32
f 129/23/33 122/22/26 116/21/25
f 122/22/26 129/23/33 130/22/34
f 128/24/32 123/22/27 126/22/30
f 123/22/27 128/24/32 124/23/28
f 129/23/33 125/22/29 130/22/34
f 125/22/29 129/23/33 127/24/31
f 118/21/22 129/23/35 116/21/22
f 129/23/35 118/21/22 127/24/35
f 127/24/35 118/21/22 128/24/35
f 128/24/35 118/21/22 124/23/35
f 130/22/7 121/22/7 122/22/7
f 121/22/7 130/22/7 119/22/7
f 119/22/7 130/22/7 125/22/7
f 119/22/7 125/22/7 126/22/7
f 119/22/7 126/22/7 123/22/7
f 119/22/7 123/22/7 120/22/7

g cabin-window-large




usemtl colormap

f 3/1/1 2/1/1 1/1/1
f 2/1/1 3/1/1 4/1/1
f 1/1/2 6/3/2 5/2/2
f 6/3/2 1/1/2 2/1/2
f 6/3/2 2/1/2 7/4/2
f 7/4/2 8/5/2 6/3/2
f 7/4/2 2/1/2 9/6/2
f 9/6/2 10/7/2 7/4/2
f 9/6/2 2/1/2 11/8/2
f 11/8/2 12/9/2 9/6/2
f 13/10/2 11/8/2 2/1/2
f 14/10/2 11/8/2 13/10/2
f 11/8/2 14/10/2 15/11/2
f 13/10/2 2/1/2 16/3/2
f 17/2/2 16/3/2 2/1/2
f 13/10/2 16/3/2 18/4/2
f 19/5/2 18/4/2 16/3/2
f 13/10/2 18/4/2 20/6/2
f 21/7/2 20/6/2 18/4/2
f 13/10/2 20/6/2 22/8/2
f 23/9/2 22/8/2 20/6/2
f 13/10/2 22/8/2 24/11/2
f 23/9/3 26/6/4 25/9/3
f 26/6/4 23/9/3 20/6/4
f 18/4/4 27/7/3 21/7/3
f 27/7/3 18/4/4 28/4/4
f 16/3/4 30/2/5 29/3/4
f 30/2/5 16/3/4 17/2/5
f 19/5/5 28/4/4 18/4/4
f 28/4/4 19/5/5 31/5/5
f 19/5/3 29/3/4 31/5/3
f 29/3/4 19/5/3 16/3/4
f 2/1/3 30/2/3 17/2/3
f 30/2/3 2/1/3 4/1/3
f 20/6/4 27/7/5 26/6/4
f 27/7/5 20/6/4 21/7/5
f 24/11/5 32/10/5 13/10/5
f 32/10/5 24/11/5 33/11/5
f 22/8/4 33/11/3 24/11/3
f 33/11/3 22/8/4 34/8/4
f 23/9/5 34/8/4 22/8/4
f 34/8/4 23/9/5 25/9/5
f 3/1/6 36/2/6 35/3/6
f 35/3/6 32/10/6 3/1/6
f 3/1/6 32/10/6 34/8/6
f 34/8/6 32/10/6 33/11/6
f 34/8/6 4/1/6 3/1/6
f 37/4/6 32/10/6 35/3/6
f 35/3/6 38/5/6 37/4/6
f 39/6/6 32/10/6 37/4/6
f 37/4/6 40/7/6 39/6/6
f 41/8/6 32/10/6 39/6/6
f 39/6/6 42/9/6 41/8/6
f 41/8/6 43/10/6 32/10/6
f 43/10/6 41/8/6 44/11/6
f 4/1/6 34/8/6 26/6/6
f 25/9/6 26/6/6 34/8/6
f 4/1/6 26/6/6 28/4/6
f 27/7/6 28/4/6 26/6/6
f 4/1/6 28/4/6 29/3/6
f 31/5/6 29/3/6 28/4/6
f 4/1/6 29/3/6 30/2/6
f 32/10/7 14/10/7 13/10/7
f 14/10/7 32/10/7 43/10/7
f 3/1/8 5/2/8 36/2/8
f 5/2/8 3/1/8 1/1/8
f 42/9/10 11/8/9 41/8/9
f 11/8/9 42/9/10 12/9/10
f 42/9/8 9/6/9 12/9/8
f 9/6/9 42/9/8 39/6/9
f 41/8/9 15/11/8 44/11/8
f 15/11/8 41/8/9 11/8/9
f 38/5/8 6/3/9 8/5/8
f 6/3/9 38/5/8 35/3/9
f 39/6/9 10/7/10 9/6/9
f 10/7/10 39/6/9 40/7/10
f 44/11/10 14/10/10 43/10/10
f 14/10/10 44/11/10 15/11/10
f 37/4/9 10/7/8 40/7/8
f 10/7/8 37/4/9 7/4/9
f 35/3/9 5/2/10 6/3/9
f 5/2/10 35/3/9 36/2/10
f 38/5/10 7/4/9 37/4/9
f 7/4/9 38/5/10 8/5/10
f 47/12/11 46/13/11 45/12/11
f 46/13/11 47/12/11 48/13/11
f 51/13/4 50/12/4 49/12/4
f 50/12/4 51/13/4 52/13/4
f 55/13/12 54/12/12 53/13/12
f 54/12/12 55/13/12 56/12/12
f 59/14/2 58/15/2 57/14/2
f 58/15/2 59/14/2 60/15/2
f 63/15/6 62/14/6 61/15/6
f 62/14/6 63/15/6 64/14/6
f 67/14/13 66/15/14 65/15/13
f 66/15/14 67/14/13 68/14/14
f 71/14/15 70/15/16 69/15/15
f 70/15/16 71/14/15 72/14/16
f 65/15/7 58/15/7 60/15/7
f 58/15/7 65/15/7 61/15/7
f 61/15/7 65/15/7 66/15/7
f 61/15/7 66/15/7 69/15/7
f 61/15/7 69/15/7 70/15/7
f 61/15/7 70/15/7 63/15/7
f 66/15/14 73/16/4 69/15/15
f 73/16/4 66/15/14 68/14/14
f 74/16/4 69/15/15 73/16/4
f 73/16/4 68/14/14 75/17/4
f 69/15/15 74/16/4 71/14/15
f 75/17/4 68/14/14 76/17/4
f 71/14/15 74/16/4 76/17/4
f 71/14/15 76/17/4 68/14/14
f 59/14/12 77/17/12 60/15/12
f 77/17/12 59/14/12 67/14/13
f 78/16/12 60/15/12 77/17/12
f 77/17/12 67/14/13 79/17/12
f 60/15/12 78/16/12 65/15/13
f 79/17/12 67/14/13 80/16/12
f 65/15/13 78/16/12 80/16/12
f 65/15/13 80/16/12 67/14/13
f 63/15/11 81/16/11 64/14/11
f 81/16/11 63/15/11 70/15/16
f 82/17/11 64/14/11 81/16/11
f 81/16/11 70/15/16 83/16/11
f 64/14/11 82/17/11 72/14/16
f 83/16/11 70/15/16 84/17/11
f 72/14/16 82/17/11 84/17/11
f 72/14/16 84/17/11 70/15/16
f 78/18/17 85/15/17 54/18/17
f 85/15/17 78/18/17 86/15/17
f 87/15/7 85/15/7 86/15/7
f 85/15/7 87/15/7 88/15/7
f 73/18/6 89/15/6 49/18/6
f 89/15/6 73/18/6 90/15/6
f 91/15/18 81/18/18 45/18/18
f 81/18/18 91/15/18 92/15/18
f 54/18/1 93/18/1 78/18/1
f 93/18/1 54/18/1 56/18/1
f 95/15/2 50/18/2 94/15/2
f 50/18/2 95/15/2 74/18/2
f 50/18/1 73/18/1 49/18/1
f 73/18/1 50/18/1 74/18/1
f 97/15/7 91/15/7 96/15/7
f 91/15/7 97/15/7 92/15/7
f 98/18/19 96/15/19 47/18/19
f 96/15/19 98/18/19 97/15/19
f 95/15/7 89/15/7 90/15/7
f 89/15/7 95/15/7 94/15/7
f 45/18/1 98/18/1 47/18/1
f 98/18/1 45/18/1 81/18/1
f 88/15/20 93/18/20 56/18/20
f 93/18/20 88/15/20 87/15/20
f 101/20/9 100/19/9 99/19/9
f 100/19/9 101/20/9 102/20/9
f 105/19/4 104/20/4 103/19/4
f 104/20/4 105/19/4 106/20/4
f 101/20/1 106/20/1 102/20/1
f 106/20/1 101/20/1 104/20/1
f 103/19/7 100/19/7 105/19/7
f 100/19/7 103/19/7 99/19/7
f 109/19/21 108/20/21 107/19/21
f 108/20/21 109/19/21 110/20/21
f 113/20/12 112/19/12 111/19/12
f 112/19/12 113/20/12 114/20/12
f 112/19/7 107/19/7 111/19/7
f 107/19/7 112/19/7 109/19/7
f 108/20/1 114/20/1 113/20/1
f 114/20/1 108/20/1 110/20/1
f 117/21/1 116/21/22 115/21/1
f 116/21/22 117/21/1 118/21/22
f 120/22/23 117/21/6 119/22/6
f 117/21/6 120/22/23 118/21/24
f 116/21/25 121/22/2 115/21/2
f 121/22/2 116/21/25 122/22/26
f 123/22/27 118/21/24 120/22/23
f 118/21/24 123/22/27 124/23/28
f 127/24/31 126/22/30 125/22/29
f 126/22/30 127/24/31 128/24/32
f 129/23/33 122/22/26 116/21/25
f 122/22/26 129/23/33 130/22/34
f 128/24/32 123/22/27 126/22/30
f 123/22/27 128/24/32 124/23/28
f 129/23/33 125/22/29 130/22/34
f 125/22/29 129/23/33 127/24/31
f 118/21/22 129/23/35 116/21/22
f 129/23/35 118/21/22 127/24/35
f 127/24/35 118/21/22 128/24/35
f 128/24/35 118/21/22 124/23/35
f 130/22/7 121/22/7 122/22/7
f 121/22/7 130/22/7 119/22/7
f 119/22/7 130/22/7 125/22/7
f 119/22/7 125/22/7 126/22/7
f 119/22/7 126/22/7 123/22/7
f 119/22/7 123/22/7 120/22/7

