# Created by Kenney (www.kenney.nl)

mtllib cabin-roof-top.mtl

g cabin-roof-top

v 0.1 0 0.5 1 1 1
v 0.1 0 -0.5 1 1 1
v -0.1 0 0.5 1 1 1
v -0.1 0 -0.5 1 1 1
v 0.1 0.2 -0.5 1 1 1
v 0.1 0.2 0.5 1 1 1
v -0.1 0.2 -0.5 1 1 1
v -0.1 0.2 0.5 1 1 1

vn 0 -1 0
vn 0.7071068 0.7071068 0
vn -0.7071068 0.7071068 0
vn -1 0 0
vn 0 0 -1
vn 1 0 0
vn 0 0 1

vt 0.21875 0.275
vt 0.21875 0.475

usemtl colormap

f 3/1/1 2/1/1 1/1/1
f 2/1/1 3/1/1 4/1/1
f 7/2/3 6/2/2 5/2/2
f 6/2/2 7/2/3 8/2/3
f 3/1/4 7/2/3 4/1/4
f 7/2/3 3/1/4 8/2/3
f 7/2/5 2/1/5 4/1/5
f 2/1/5 7/2/5 5/2/5
f 6/2/2 2/1/6 5/2/2
f 2/1/6 6/2/2 1/1/6
f 6/2/7 3/1/7 1/1/7
f 3/1/7 6/2/7 8/2/7

g cabin-roof-top




usemtl colormap

f 3/1/1 2/1/1 1/1/1
f 2/1/1 3/1/1 4/1/1
f 7/2/3 6/2/2 5/2/2
f 6/2/2 7/2/3 8/2/3
f 3/1/4 7/2/3 4/1/4
f 7/2/3 3/1/4 8/2/3
f 7/2/5 2/1/5 4/1/5
f 2/1/5 7/2/5 5/2/5
f 6/2/2 2/1/6 5/2/2
f 2/1/6 6/2/2 1/1/6
f 6/2/7 3/1/7 1/1/7
f 3/1/7 6/2/7 8/2/7

