# Created by Kenney (www.kenney.nl)

mtllib cabin-overhang-doorway.mtl

g cabin-overhang-doorway

v 0.25 -2.887646E-14 0.3 1 1 1
v 0.25 0.8 0.3 1 1 1
v 0.25 -2.887646E-14 0.7 1 1 1
v 0.25 0.8 0.7 1 1 1
v -0.25 0.8 0.3 1 1 1
v -0.25 -2.887646E-14 0.3 1 1 1
v -0.25 0.8 0.7 1 1 1
v -0.25 -2.887646E-14 0.7 1 1 1
v -0.3 0.9 0.3 1 1 1
v -0.3 0.9 0.7 1 1 1
v -0.35 0.85 0.3 1 1 1
v -0.35 0.85 0.7 1 1 1
v -0.35 -2.887646E-14 0.3 1 1 1
v -0.35 -2.887646E-14 0.7 1 1 1
v 0.3 0.9 0.3 1 1 1
v 0.3 0.9 0.7 1 1 1
v 0.35 0.85 0.3 1 1 1
v 0.35 -2.887646E-14 0.3 1 1 1
v 0.35 0.85 0.7 1 1 1
v 0.35 -2.887646E-14 0.7 1 1 1
v -0.3 0.1 0.65 1 1 1
v -0.5 0.1 0.65 1 1 1
v -0.3 0.2 0.6 1 1 1
v -0.5 0.2 0.6 1 1 1
v 0.3 0.1 0.35 1 1 1
v 0.5 0.1 0.35 1 1 1
v 0.3 0.2 0.4 1 1 1
v 0.5 0.2 0.4 1 1 1
v -0.5 0.8 0.6 1 1 1
v -0.5 0.9 0.65 1 1 1
v -0.3 0.8 0.6 1 1 1
v -0.3 0.9 0.65 1 1 1
v -0.5 0.3 0.65 1 1 1
v -0.5 0.4 0.6 1 1 1
v -0.3 0.3 0.65 1 1 1
v -0.3 0.4 0.6 1 1 1
v -0.5 0.5 0.65 1 1 1
v -0.3 0.5 0.65 1 1 1
v -0.5 0.6 0.4 1 1 1
v -0.3 0.6 0.4 1 1 1
v -0.5 0.7 0.35 1 1 1
v -0.3 0.7 0.35 1 1 1
v 0.5 0.5 0.65 1 1 1
v 0.3 0.5 0.65 1 1 1
v 0.5 0.6 0.6 1 1 1
v 0.3 0.6 0.6 1 1 1
v 0.5 0.4 0.4 1 1 1
v 0.5 0.5 0.35 1 1 1
v 0.3 0.4 0.4 1 1 1
v 0.3 0.5 0.35 1 1 1
v 0.5 0.2 0.6 1 1 1
v 0.3 0.2 0.6 1 1 1
v 0.5 0.3 0.65 1 1 1
v 0.3 0.3 0.65 1 1 1
v -0.3 0.8 0.4 1 1 1
v -0.3 0.9 0.35 1 1 1
v -0.5 0.8 0.4 1 1 1
v -0.5 0.9 0.35 1 1 1
v 0.3 0.4 0.6 1 1 1
v 0.5 0.4 0.6 1 1 1
v -0.3 0.4 0.4 1 1 1
v -0.3 0.5 0.35 1 1 1
v -0.5 0.4 0.4 1 1 1
v -0.5 0.5 0.35 1 1 1
v -0.3 0.2 0.4 1 1 1
v -0.3 0.3 0.35 1 1 1
v -0.3 1.984331E-14 0.6 1 1 1
v -0.3 1.27874E-14 0.4 1 1 1
v -0.3 0.1 0.35 1 1 1
v -0.3 0.6 0.6 1 1 1
v -0.3 0.7 0.65 1 1 1
v 0.3 0.8 0.6 1 1 1
v 0.3 0.9 0.65 1 1 1
v 0.5 0.8 0.6 1 1 1
v 0.5 0.9 0.65 1 1 1
v 0.5 0.7 0.35 1 1 1
v 0.5 0.8 0.4 1 1 1
v 0.3 0.7 0.35 1 1 1
v 0.3 0.8 0.4 1 1 1
v 0.3 0.7 0.65 1 1 1
v 0.5 0.7 0.65 1 1 1
v 0.5 0.1 0.65 1 1 1
v 0.3 0.1 0.65 1 1 1
v 0.5 0.9 0.35 1 1 1
v 0.5 1 0.4 1 1 1
v 0.5 1 0.6 1 1 1
v 0.5 0.6 0.4 1 1 1
v 0.5 0.3 0.35 1 1 1
v 0.5 0 0.6 1 1 1
v 0.5 0 0.4 1 1 1
v 0.3 0.3 0.35 1 1 1
v -0.5 0.1 0.35 1 1 1
v -0.5 0.2 0.4 1 1 1
v 0.3 2.251858E-14 0.6 1 1 1
v 0.3 0.6 0.4 1 1 1
v -0.5 0.6 0.6 1 1 1
v -0.5 0.7 0.65 1 1 1
v -0.5 0.3 0.35 1 1 1
v -0.5 2.887646E-14 0.6 1 1 1
v 0.3 1.546266E-14 0.4 1 1 1
v -0.5 1 0.4 1 1 1
v -0.5 1 0.6 1 1 1
v -0.5 -2.887646E-14 0.4 1 1 1
v 0.3 0.9 0.35 1 1 1
v -0.4 0.9034075 0.5741181 1 1 1
v 0.4 0.9034075 0.5741181 1 1 1
v -0.4 1 0.6 1 1 1
v 0.4 1 0.6 1 1 1
v 0.4 0.8516436 0.7673033 1 1 1
v 0.4 0.9482362 0.7931852 1 1 1
v -0.4 0.8516436 0.7673033 1 1 1
v -0.4 0.9482362 0.7931852 1 1 1
v 0.35 0.8387027 0.8155996 1 1 1
v -0.35 0.8387027 0.8155996 1 1 1
v 0.35 0.9352953 0.8414814 1 1 1
v -0.35 0.9352953 0.8414814 1 1 1

vn -1 0 0
vn 1 0 0
vn -0.3826834 0.9238795 0
vn -0.9238795 0.3826834 0
vn 0.3826834 0.9238795 0
vn 0.9238795 0.3826834 0
vn 0 0 -1
vn 0 -1 0
vn 0 0 1
vn 0 0.4472136 0.8944272
vn 0 0.4472136 -0.8944272
vn 0 -0.4472136 0.8944272
vn 0 -0.4472136 -0.8944272
vn 0 1 0
vn 0 0.258819 -0.9659258
vn 0.9238795 -0.09904576 0.3696438
vn -0.9238795 -0.09904576 0.3696438
vn 0.3826834 -0.2391176 0.892399
vn -0.3826834 -0.2391176 0.892399
vn 0 -0.9659258 -0.258819
vn 0 0.9659258 0.258819

vt 0.71875 0.275
vt 0.71875 0.4527778
vt 0.71875 0.475
vt 0.71875 0.4638889
vt 0.21875 0.295
vt 0.21875 0.315
vt 0.21875 0.435
vt 0.21875 0.455
vt 0.21875 0.335
vt 0.21875 0.355
vt 0.21875 0.375
vt 0.21875 0.395
vt 0.21875 0.415
vt 0.21875 0.275
vt 0.21875 0.475
vt 0.34375 0.275
vt 0.34375 0.475

usemtl colormap

f 3/1/1 2/2/1 1/1/1
f 2/2/1 3/1/1 4/2/1
f 7/2/2 6/1/2 5/2/2
f 6/1/2 7/2/2 8/1/2
f 11/4/4 10/3/3 9/3/3
f 10/3/3 11/4/4 12/4/4
f 14/1/1 11/4/4 13/1/1
f 11/4/4 14/1/1 12/4/4
f 9/3/3 16/3/5 15/3/5
f 16/3/5 9/3/3 10/3/3
f 19/4/6 18/1/2 17/4/6
f 18/1/2 19/4/6 20/1/2
f 11/4/7 6/1/7 13/1/7
f 6/1/7 11/4/7 5/2/7
f 5/2/7 11/4/7 2/2/7
f 17/4/7 2/2/7 11/4/7
f 17/4/7 11/4/7 9/3/7
f 17/4/7 9/3/7 15/3/7
f 18/1/7 2/2/7 17/4/7
f 2/2/7 18/1/7 1/1/7
f 3/1/8 18/1/8 20/1/8
f 18/1/8 3/1/8 1/1/8
f 15/3/5 19/4/6 17/4/6
f 19/4/6 15/3/5 16/3/5
f 19/4/9 3/1/9 20/1/9
f 3/1/9 19/4/9 4/2/9
f 4/2/9 19/4/9 7/2/9
f 12/4/9 7/2/9 19/4/9
f 12/4/9 19/4/9 16/3/9
f 12/4/9 16/3/9 10/3/9
f 14/1/9 7/2/9 12/4/9
f 7/2/9 14/1/9 8/1/9
f 7/2/8 2/2/8 4/2/8
f 2/2/8 7/2/8 5/2/8
f 14/1/8 6/1/8 8/1/8
f 6/1/8 14/1/8 13/1/8
f 23/6/9 22/5/10 21/5/10
f 22/5/10 23/6/9 24/6/9
f 27/6/7 26/5/11 25/5/11
f 26/5/11 27/6/7 28/6/7
f 31/7/9 30/8/12 29/7/9
f 30/8/12 31/7/9 32/8/12
f 35/9/10 34/10/9 33/9/10
f 34/10/9 35/9/10 36/10/9
f 36/10/9 37/11/12 34/10/9
f 37/11/12 36/10/9 38/11/12
f 41/13/13 40/12/7 39/12/7
f 40/12/7 41/13/13 42/13/13
f 45/12/9 44/11/10 43/11/10
f 44/11/10 45/12/9 46/12/9
f 49/10/7 48/11/13 47/10/7
f 48/11/13 49/10/7 50/11/13
f 53/9/12 52/6/9 51/6/9
f 52/6/9 53/9/12 54/9/12
f 57/7/7 56/8/13 55/7/7
f 56/8/13 57/7/7 58/8/13
f 60/10/9 44/11/12 59/10/9
f 44/11/12 60/10/9 43/11/12
f 63/10/7 62/11/13 61/10/7
f 62/11/13 63/10/7 64/11/13
f 40/12/2 61/10/2 62/11/2
f 65/6/2 61/10/2 40/12/2
f 61/10/2 65/6/2 66/9/2
f 40/12/2 31/7/2 65/6/2
f 40/12/2 32/8/2 31/7/2
f 55/7/2 32/8/2 40/12/2
f 40/12/2 42/13/2 55/7/2
f 32/8/2 55/7/2 56/8/2
f 65/6/2 31/7/2 23/6/2
f 67/14/2 65/6/2 23/6/2
f 67/14/2 23/6/2 21/5/2
f 68/14/2 65/6/2 67/14/2
f 65/6/2 68/14/2 69/5/2
f 36/10/2 23/6/2 31/7/2
f 23/6/2 36/10/2 35/9/2
f 36/10/2 31/7/2 70/12/2
f 71/13/2 70/12/2 31/7/2
f 38/11/2 36/10/2 70/12/2
f 74/7/9 73/8/12 72/7/9
f 73/8/12 74/7/9 75/8/12
f 78/13/11 77/7/7 76/13/11
f 77/7/7 78/13/11 79/7/7
f 45/12/9 80/13/12 46/12/9
f 80/13/12 45/12/9 81/13/12
f 51/6/9 83/5/10 82/5/10
f 83/5/10 51/6/9 52/6/9
f 85/15/2 77/7/2 84/8/2
f 77/7/2 85/15/2 86/15/2
f 77/7/2 86/15/2 87/12/2
f 87/12/2 76/13/2 77/7/2
f 87/12/2 86/15/2 47/10/2
f 47/10/2 48/11/2 87/12/2
f 47/10/2 86/15/2 28/6/2
f 28/6/2 88/9/2 47/10/2
f 89/14/2 28/6/2 86/15/2
f 90/14/2 28/6/2 89/14/2
f 28/6/2 90/14/2 26/5/2
f 89/14/2 86/15/2 74/7/2
f 75/8/2 74/7/2 86/15/2
f 89/14/2 74/7/2 45/12/2
f 81/13/2 45/12/2 74/7/2
f 89/14/2 45/12/2 60/10/2
f 43/11/2 60/10/2 45/12/2
f 89/14/2 60/10/2 51/6/2
f 53/9/2 51/6/2 60/10/2
f 89/14/2 51/6/2 82/5/2
f 91/9/13 28/6/7 27/6/7
f 28/6/7 91/9/13 88/9/13
f 93/6/7 69/5/11 92/5/11
f 69/5/11 93/6/7 65/6/7
f 82/5/12 94/14/12 89/14/12
f 94/14/12 82/5/12 83/5/12
f 53/9/10 59/10/9 54/9/10
f 59/10/9 53/9/10 60/10/9
f 50/11/11 87/12/7 48/11/11
f 87/12/7 50/11/11 95/12/7
f 70/12/9 37/11/10 38/11/10
f 37/11/10 70/12/9 96/12/9
f 71/13/10 29/7/9 97/13/10
f 29/7/9 71/13/10 31/7/9
f 98/9/13 65/6/7 93/6/7
f 65/6/7 98/9/13 66/9/13
f 39/12/7 62/11/11 64/11/11
f 62/11/11 39/12/7 40/12/7
f 21/5/12 99/14/12 67/14/12
f 99/14/12 21/5/12 22/5/12
f 100/14/13 26/5/13 90/14/13
f 26/5/13 100/14/13 25/5/13
f 101/15/1 58/8/1 57/7/1
f 57/7/1 99/14/1 101/15/1
f 101/15/1 99/14/1 24/6/1
f 24/6/1 99/14/1 22/5/1
f 24/6/1 102/15/1 101/15/1
f 39/12/1 99/14/1 57/7/1
f 57/7/1 41/13/1 39/12/1
f 63/10/1 99/14/1 39/12/1
f 39/12/1 64/11/1 63/10/1
f 93/6/1 99/14/1 63/10/1
f 63/10/1 98/9/1 93/6/1
f 93/6/1 103/14/1 99/14/1
f 103/14/1 93/6/1 92/5/1
f 102/15/1 24/6/1 34/10/1
f 33/9/1 34/10/1 24/6/1
f 102/15/1 34/10/1 96/12/1
f 37/11/1 96/12/1 34/10/1
f 102/15/1 96/12/1 29/7/1
f 97/13/1 29/7/1 96/12/1
f 102/15/1 29/7/1 30/8/1
f 35/9/12 24/6/9 23/6/9
f 24/6/9 35/9/12 33/9/12
f 58/8/11 104/8/11 56/8/11
f 104/8/11 58/8/11 84/8/11
f 84/8/11 58/8/11 101/15/11
f 84/8/11 101/15/11 85/15/11
f 99/14/8 68/14/8 67/14/8
f 68/14/8 99/14/8 103/14/8
f 81/13/10 72/7/9 80/13/10
f 72/7/9 81/13/10 74/7/9
f 101/15/14 86/15/14 85/15/14
f 86/15/14 101/15/14 102/15/14
f 91/9/11 47/10/7 88/9/11
f 47/10/7 91/9/11 49/10/7
f 71/13/12 96/12/9 70/12/9
f 96/12/9 71/13/12 97/13/12
f 49/10/1 95/12/1 50/11/1
f 95/12/1 49/10/1 79/7/1
f 79/7/1 78/13/1 95/12/1
f 72/7/1 79/7/1 49/10/1
f 73/8/1 79/7/1 72/7/1
f 79/7/1 73/8/1 104/8/1
f 72/7/1 49/10/1 27/6/1
f 27/6/1 49/10/1 91/9/1
f 72/7/1 27/6/1 52/6/1
f 72/7/1 52/6/1 46/12/1
f 80/13/1 72/7/1 46/12/1
f 52/6/1 59/10/1 46/12/1
f 44/11/1 46/12/1 59/10/1
f 59/10/1 52/6/1 54/9/1
f 27/6/1 94/14/1 52/6/1
f 52/6/1 94/14/1 83/5/1
f 27/6/1 100/14/1 94/14/1
f 100/14/1 27/6/1 25/5/1
f 92/5/13 68/14/13 103/14/13
f 68/14/13 92/5/13 69/5/13
f 98/9/11 61/10/7 66/9/11
f 61/10/7 98/9/11 63/10/7
f 79/7/7 84/8/13 77/7/7
f 84/8/13 79/7/7 104/8/13
f 94/14/8 90/14/8 89/14/8
f 90/14/8 94/14/8 100/14/8
f 32/8/8 104/8/8 73/8/8
f 104/8/8 32/8/8 56/8/8
f 95/12/7 76/13/13 87/12/7
f 76/13/13 95/12/7 78/13/13
f 73/8/10 30/8/10 32/8/10
f 30/8/10 73/8/10 75/8/10
f 30/8/10 75/8/10 86/15/10
f 30/8/10 86/15/10 102/15/10
f 41/13/11 55/7/7 42/13/11
f 55/7/7 41/13/11 57/7/7
f 107/17/15 106/16/15 105/16/15
f 106/16/15 107/17/15 108/17/15
f 108/17/2 109/16/16 106/16/2
f 109/16/16 108/17/2 110/17/16
f 111/16/17 107/17/1 105/16/1
f 107/17/1 111/16/17 112/17/17
f 115/17/18 114/16/19 113/16/18
f 114/16/19 115/17/18 116/17/19
f 114/16/19 112/17/17 111/16/17
f 112/17/17 114/16/19 116/17/19
f 110/17/16 113/16/18 109/16/16
f 113/16/18 110/17/16 115/17/18
f 113/16/20 106/16/20 109/16/20
f 106/16/20 113/16/20 105/16/20
f 105/16/20 113/16/20 114/16/20
f 105/16/20 114/16/20 111/16/20
f 107/17/21 110/17/21 108/17/21
f 110/17/21 107/17/21 115/17/21
f 115/17/21 107/17/21 116/17/21
f 116/17/21 107/17/21 112/17/21

g cabin-overhang-doorway




usemtl colormap

f 3/1/1 2/2/1 1/1/1
f 2/2/1 3/1/1 4/2/1
f 7/2/2 6/1/2 5/2/2
f 6/1/2 7/2/2 8/1/2
f 11/4/4 10/3/3 9/3/3
f 10/3/3 11/4/4 12/4/4
f 14/1/1 11/4/4 13/1/1
f 11/4/4 14/1/1 12/4/4
f 9/3/3 16/3/5 15/3/5
f 16/3/5 9/3/3 10/3/3
f 19/4/6 18/1/2 17/4/6
f 18/1/2 19/4/6 20/1/2
f 11/4/7 6/1/7 13/1/7
f 6/1/7 11/4/7 5/2/7
f 5/2/7 11/4/7 2/2/7
f 17/4/7 2/2/7 11/4/7
f 17/4/7 11/4/7 9/3/7
f 17/4/7 9/3/7 15/3/7
f 18/1/7 2/2/7 17/4/7
f 2/2/7 18/1/7 1/1/7
f 3/1/8 18/1/8 20/1/8
f 18/1/8 3/1/8 1/1/8
f 15/3/5 19/4/6 17/4/6
f 19/4/6 15/3/5 16/3/5
f 19/4/9 3/1/9 20/1/9
f 3/1/9 19/4/9 4/2/9
f 4/2/9 19/4/9 7/2/9
f 12/4/9 7/2/9 19/4/9
f 12/4/9 19/4/9 16/3/9
f 12/4/9 16/3/9 10/3/9
f 14/1/9 7/2/9 12/4/9
f 7/2/9 14/1/9 8/1/9
f 7/2/8 2/2/8 4/2/8
f 2/2/8 7/2/8 5/2/8
f 14/1/8 6/1/8 8/1/8
f 6/1/8 14/1/8 13/1/8
f 23/6/9 22/5/10 21/5/10
f 22/5/10 23/6/9 24/6/9
f 27/6/7 26/5/11 25/5/11
f 26/5/11 27/6/7 28/6/7
f 31/7/9 30/8/12 29/7/9
f 30/8/12 31/7/9 32/8/12
f 35/9/10 34/10/9 33/9/10
f 34/10/9 35/9/10 36/10/9
f 36/10/9 37/11/12 34/10/9
f 37/11/12 36/10/9 38/11/12
f 41/13/13 40/12/7 39/12/7
f 40/12/7 41/13/13 42/13/13
f 45/12/9 44/11/10 43/11/10
f 44/11/10 45/12/9 46/12/9
f 49/10/7 48/11/13 47/10/7
f 48/11/13 49/10/7 50/11/13
f 53/9/12 52/6/9 51/6/9
f 52/6/9 53/9/12 54/9/12
f 57/7/7 56/8/13 55/7/7
f 56/8/13 57/7/7 58/8/13
f 60/10/9 44/11/12 59/10/9
f 44/11/12 60/10/9 43/11/12
f 63/10/7 62/11/13 61/10/7
f 62/11/13 63/10/7 64/11/13
f 40/12/2 61/10/2 62/11/2
f 65/6/2 61/10/2 40/12/2
f 61/10/2 65/6/2 66/9/2
f 40/12/2 31/7/2 65/6/2
f 40/12/2 32/8/2 31/7/2
f 55/7/2 32/8/2 40/12/2
f 40/12/2 42/13/2 55/7/2
f 32/8/2 55/7/2 56/8/2
f 65/6/2 31/7/2 23/6/2
f 67/14/2 65/6/2 23/6/2
f 67/14/2 23/6/2 21/5/2
f 68/14/2 65/6/2 67/14/2
f 65/6/2 68/14/2 69/5/2
f 36/10/2 23/6/2 31/7/2
f 23/6/2 36/10/2 35/9/2
f 36/10/2 31/7/2 70/12/2
f 71/13/2 70/12/2 31/7/2
f 38/11/2 36/10/2 70/12/2
f 74/7/9 73/8/12 72/7/9
f 73/8/12 74/7/9 75/8/12
f 78/13/11 77/7/7 76/13/11
f 77/7/7 78/13/11 79/7/7
f 45/12/9 80/13/12 46/12/9
f 80/13/12 45/12/9 81/13/12
f 51/6/9 83/5/10 82/5/10
f 83/5/10 51/6/9 52/6/9
f 85/15/2 77/7/2 84/8/2
f 77/7/2 85/15/2 86/15/2
f 77/7/2 86/15/2 87/12/2
f 87/12/2 76/13/2 77/7/2
f 87/12/2 86/15/2 47/10/2
f 47/10/2 48/11/2 87/12/2
f 47/10/2 86/15/2 28/6/2
f 28/6/2 88/9/2 47/10/2
f 89/14/2 28/6/2 86/15/2
f 90/14/2 28/6/2 89/14/2
f 28/6/2 90/14/2 26/5/2
f 89/14/2 86/15/2 74/7/2
f 75/8/2 74/7/2 86/15/2
f 89/14/2 74/7/2 45/12/2
f 81/13/2 45/12/2 74/7/2
f 89/14/2 45/12/2 60/10/2
f 43/11/2 60/10/2 45/12/2
f 89/14/2 60/10/2 51/6/2
f 53/9/2 51/6/2 60/10/2
f 89/14/2 51/6/2 82/5/2
f 91/9/13 28/6/7 27/6/7
f 28/6/7 91/9/13 88/9/13
f 93/6/7 69/5/11 92/5/11
f 69/5/11 93/6/7 65/6/7
f 82/5/12 94/14/12 89/14/12
f 94/14/12 82/5/12 83/5/12
f 53/9/10 59/10/9 54/9/10
f 59/10/9 53/9/10 60/10/9
f 50/11/11 87/12/7 48/11/11
f 87/12/7 50/11/11 95/12/7
f 70/12/9 37/11/10 38/11/10
f 37/11/10 70/12/9 96/12/9
f 71/13/10 29/7/9 97/13/10
f 29/7/9 71/13/10 31/7/9
f 98/9/13 65/6/7 93/6/7
f 65/6/7 98/9/13 66/9/13
f 39/12/7 62/11/11 64/11/11
f 62/11/11 39/12/7 40/12/7
f 21/5/12 99/14/12 67/14/12
f 99/14/12 21/5/12 22/5/12
f 100/14/13 26/5/13 90/14/13
f 26/5/13 100/14/13 25/5/13
f 101/15/1 58/8/1 57/7/1
f 57/7/1 99/14/1 101/15/1
f 101/15/1 99/14/1 24/6/1
f 24/6/1 99/14/1 22/5/1
f 24/6/1 102/15/1 101/15/1
f 39/12/1 99/14/1 57/7/1
f 57/7/1 41/13/1 39/12/1
f 63/10/1 99/14/1 39/12/1
f 39/12/1 64/11/1 63/10/1
f 93/6/1 99/14/1 63/10/1
f 63/10/1 98/9/1 93/6/1
f 93/6/1 103/14/1 99/14/1
f 103/14/1 93/6/1 92/5/1
f 102/15/1 24/6/1 34/10/1
f 33/9/1 34/10/1 24/6/1
f 102/15/1 34/10/1 96/12/1
f 37/11/1 96/12/1 34/10/1
f 102/15/1 96/12/1 29/7/1
f 97/13/1 29/7/1 96/12/1
f 102/15/1 29/7/1 30/8/1
f 35/9/12 24/6/9 23/6/9
f 24/6/9 35/9/12 33/9/12
f 58/8/11 104/8/11 56/8/11
f 104/8/11 58/8/11 84/8/11
f 84/8/11 58/8/11 101/15/11
f 84/8/11 101/15/11 85/15/11
f 99/14/8 68/14/8 67/14/8
f 68/14/8 99/14/8 103/14/8
f 81/13/10 72/7/9 80/13/10
f 72/7/9 81/13/10 74/7/9
f 101/15/14 86/15/14 85/15/14
f 86/15/14 101/15/14 102/15/14
f 91/9/11 47/10/7 88/9/11
f 47/10/7 91/9/11 49/10/7
f 71/13/12 96/12/9 70/12/9
f 96/12/9 71/13/12 97/13/12
f 49/10/1 95/12/1 50/11/1
f 95/12/1 49/10/1 79/7/1
f 79/7/1 78/13/1 95/12/1
f 72/7/1 79/7/1 49/10/1
f 73/8/1 79/7/1 72/7/1
f 79/7/1 73/8/1 104/8/1
f 72/7/1 49/10/1 27/6/1
f 27/6/1 49/10/1 91/9/1
f 72/7/1 27/6/1 52/6/1
f 72/7/1 52/6/1 46/12/1
f 80/13/1 72/7/1 46/12/1
f 52/6/1 59/10/1 46/12/1
f 44/11/1 46/12/1 59/10/1
f 59/10/1 52/6/1 54/9/1
f 27/6/1 94/14/1 52/6/1
f 52/6/1 94/14/1 83/5/1
f 27/6/1 100/14/1 94/14/1
f 100/14/1 27/6/1 25/5/1
f 92/5/13 68/14/13 103/14/13
f 68/14/13 92/5/13 69/5/13
f 98/9/11 61/10/7 66/9/11
f 61/10/7 98/9/11 63/10/7
f 79/7/7 84/8/13 77/7/7
f 84/8/13 79/7/7 104/8/13
f 94/14/8 90/14/8 89/14/8
f 90/14/8 94/14/8 100/14/8
f 32/8/8 104/8/8 73/8/8
f 104/8/8 32/8/8 56/8/8
f 95/12/7 76/13/13 87/12/7
f 76/13/13 95/12/7 78/13/13
f 73/8/10 30/8/10 32/8/10
f 30/8/10 73/8/10 75/8/10
f 30/8/10 75/8/10 86/15/10
f 30/8/10 86/15/10 102/15/10
f 41/13/11 55/7/7 42/13/11
f 55/7/7 41/13/11 57/7/7
f 107/17/15 106/16/15 105/16/15
f 106/16/15 107/17/15 108/17/15
f 108/17/2 109/16/16 106/16/2
f 109/16/16 108/17/2 110/17/16
f 111/16/17 107/17/1 105/16/1
f 107/17/1 111/16/17 112/17/17
f 115/17/18 114/16/19 113/16/18
f 114/16/19 115/17/18 116/17/19
f 114/16/19 112/17/17 111/16/17
f 112/17/17 114/16/19 116/17/19
f 110/17/16 113/16/18 109/16/16
f 113/16/18 110/17/16 115/17/18
f 113/16/20 106/16/20 109/16/20
f 106/16/20 113/16/20 105/16/20
f 105/16/20 113/16/20 114/16/20
f 105/16/20 114/16/20 111/16/20
f 107/17/21 110/17/21 108/17/21
f 110/17/21 107/17/21 115/17/21
f 115/17/21 107/17/21 116/17/21
f 116/17/21 107/17/21 112/17/21

