# Created by Kenney (www.kenney.nl)

mtllib cabin-roof.mtl

g cabin-roof

v 0.1414214 0.7414213 -0.7 1 1 1
v 0.1414214 0.6414213 -0.7 1 1 1
v 0.1414214 0.7414213 0.7 1 1 1
v 0.1414214 0.6414213 0.7 1 1 1
v 0.7828428 0.09999999 -0.7 1 1 1
v 0.7828428 0 -0.7 1 1 1
v 0.7828428 0.09999999 0.7 1 1 1
v 0.7828428 0 0.7 1 1 1
v -0.1792893 1.062132 -0.7 1 1 1
v -0.1792893 1.062132 0.7 1 1 1
v -0.5 1.282843 -0.7 1 1 1
v -0.5 1.282843 0.7 1 1 1
v 0.462132 0.4207106 -0.7 1 1 1
v 0.462132 0.3207107 -0.7 1 1 1
v 0.462132 0.4207106 0.7 1 1 1
v 0.462132 0.3207107 0.7 1 1 1
v -0.1792893 0.962132 -0.7 1 1 1
v -0.1792893 0.962132 0.7 1 1 1
v -0.5 0.9999999 -0.7 1 1 1
v -0.5 0.9999999 -0.5 1 1 1
v -0.5 0.9999999 0.5 1 1 1
v -0.5 0.9999999 0.7 1 1 1
v 0.6414214 -0.1414214 0.7 1 1 1
v 0.6414214 -0.1414214 -0.7 1 1 1

vn 0.8851317 0.4653407 0
vn 1 0 0
vn 0.5669161 0.8237755 0
vn -1 0 0
vn 0.7071068 -0.7071068 0
vn -0.7071068 -0.7071068 0
vn 0 0 -1
vn 0 0 1

vt 0.71875 0.4232843
vt 0.71875 0.4032843
vt 0.71875 0.295
vt 0.71875 0.275
vt 0.71875 0.475
vt 0.71875 0.3591421
vt 0.71875 0.3391421
vt 0.71875 0.4674264
vt 0.34375 0.475
vt 0.34375 0.475
vt 0.34375 0.275
vt 0.34375 0.3391421
vt 0.34375 0.295
vt 0.34375 0.3591421
vt 0.34375 0.4032843
vt 0.34375 0.4232843
vt 0.34375 0.4674264

usemtl colormap

f 3/1/1 2/2/2 1/1/1
f 2/2/2 3/1/1 4/2/2
f 7/3/1 6/4/2 5/3/1
f 6/4/2 7/3/1 8/4/2
f 11/5/3 10/5/1 9/5/1
f 10/5/1 11/5/3 12/5/3
f 15/6/1 14/7/2 13/6/1
f 14/7/2 15/6/1 16/7/2
f 10/5/1 17/8/2 9/5/1
f 17/8/2 10/5/1 18/8/2
f 17/8/3 3/1/1 1/1/1
f 3/1/1 17/8/3 18/8/3
f 14/7/3 7/3/1 5/3/1
f 7/3/1 14/7/3 16/7/3
f 2/2/3 15/6/1 13/6/1
f 15/6/1 2/2/3 4/2/3
f 20/9/4 11/10/4 19/9/4
f 11/10/4 20/9/4 12/10/4
f 12/10/4 20/9/4 21/9/4
f 12/10/4 21/9/4 22/9/4
f 23/11/5 6/11/5 8/11/5
f 6/11/5 23/11/5 24/11/5
f 23/11/6 19/9/6 24/11/6
f 19/9/6 23/11/6 20/9/6
f 20/9/6 23/11/6 21/9/6
f 21/9/6 23/11/6 22/9/6
f 19/9/7 6/11/7 24/11/7
f 6/11/7 19/9/7 14/12/7
f 6/11/7 14/12/7 5/13/7
f 14/12/7 19/9/7 13/14/7
f 13/14/7 19/9/7 2/15/7
f 2/15/7 19/9/7 1/16/7
f 1/16/7 19/9/7 17/17/7
f 17/17/7 19/9/7 9/10/7
f 9/10/7 19/9/7 11/10/7
f 8/11/8 22/9/8 23/11/8
f 22/9/8 8/11/8 16/12/8
f 16/12/8 8/11/8 7/13/8
f 22/9/8 16/12/8 15/14/8
f 22/9/8 15/14/8 4/15/8
f 22/9/8 4/15/8 3/16/8
f 22/9/8 3/16/8 18/17/8
f 22/9/8 18/17/8 10/10/8
f 22/9/8 10/10/8 12/10/8

g cabin-roof




usemtl colormap

f 3/1/1 2/2/2 1/1/1
f 2/2/2 3/1/1 4/2/2
f 7/3/1 6/4/2 5/3/1
f 6/4/2 7/3/1 8/4/2
f 11/5/3 10/5/1 9/5/1
f 10/5/1 11/5/3 12/5/3
f 15/6/1 14/7/2 13/6/1
f 14/7/2 15/6/1 16/7/2
f 10/5/1 17/8/2 9/5/1
f 17/8/2 10/5/1 18/8/2
f 17/8/3 3/1/1 1/1/1
f 3/1/1 17/8/3 18/8/3
f 14/7/3 7/3/1 5/3/1
f 7/3/1 14/7/3 16/7/3
f 2/2/3 15/6/1 13/6/1
f 15/6/1 2/2/3 4/2/3
f 20/9/4 11/10/4 19/9/4
f 11/10/4 20/9/4 12/10/4
f 12/10/4 20/9/4 21/9/4
f 12/10/4 21/9/4 22/9/4
f 23/11/5 6/11/5 8/11/5
f 6/11/5 23/11/5 24/11/5
f 23/11/6 19/9/6 24/11/6
f 19/9/6 23/11/6 20/9/6
f 20/9/6 23/11/6 21/9/6
f 21/9/6 23/11/6 22/9/6
f 19/9/7 6/11/7 24/11/7
f 6/11/7 19/9/7 14/12/7
f 6/11/7 14/12/7 5/13/7
f 14/12/7 19/9/7 13/14/7
f 13/14/7 19/9/7 2/15/7
f 2/15/7 19/9/7 1/16/7
f 1/16/7 19/9/7 17/17/7
f 17/17/7 19/9/7 9/10/7
f 9/10/7 19/9/7 11/10/7
f 8/11/8 22/9/8 23/11/8
f 22/9/8 8/11/8 16/12/8
f 16/12/8 8/11/8 7/13/8
f 22/9/8 16/12/8 15/14/8
f 22/9/8 15/14/8 4/15/8
f 22/9/8 4/15/8 3/16/8
f 22/9/8 3/16/8 18/17/8
f 22/9/8 18/17/8 10/10/8
f 22/9/8 10/10/8 12/10/8

