# Created by Kenney (www.kenney.nl)

mtllib cabin-roof-dormer.mtl

g cabin-roof-dormer

v -7.152558E-08 0.9999999 0.6000001 1 1 1
v 0.5707107 0.4292893 0.6000001 1 1 1
v 5.960464E-08 0.9999999 -0.5000001 1 1 1
v 0.5707108 0.4292893 -0.5 1 1 1
v 0.6414214 0.6414213 0.6000001 1 1 1
v 0.6414214 0.5 0.6000001 1 1 1
v 0.07071061 1.212132 0.6000001 1 1 1
v -0.07071076 1.212132 0.6000001 1 1 1
v -0.5707108 0.4292893 0.6 1 1 1
v -0.6414215 0.6414213 0.6 1 1 1
v -0.6414215 0.5 0.6 1 1 1
v -0.5707107 0.4292893 -0.5000001 1 1 1
v -0.6414214 0.5 -0.5000001 1 1 1
v -0.6414214 0.6414213 -0.5000001 1 1 1
v 0.6414215 0.5 -0.5 1 1 1
v 0.6414215 0.6414213 -0.5 1 1 1
v -0.07071063 1.212132 -0.5000001 1 1 1
v 0.07071075 1.212132 -0.5000001 1 1 1
v -0.2460001 0.308 0.6 1 1 1
v -0.2460001 0.308 0.5000001 1 1 1
v -0.2460001 0.504 0.6 1 1 1
v -0.2460001 0.504 0.5000001 1 1 1
v 0.1739482 0.6779482 0.6000001 1 1 1
v -7.152559E-08 0.75 0.6000001 1 1 1
v 0.1739482 0.6779482 0.5000001 1 1 1
v -5.960466E-08 0.75 0.5000001 1 1 1
v -7.152559E-08 0.6417608 0.6000001 1 1 1
v -5.960466E-08 0.6417608 0.5000001 1 1 1
v -0.09741167 0.6014116 0.6000001 1 1 1
v -0.09741165 0.6014116 0.5000001 1 1 1
v -0.1739483 0.6779482 0.6000001 1 1 1
v -0.1739483 0.6779482 0.5000001 1 1 1
v 0.246 0.504 0.6000001 1 1 1
v 0.246 0.504 0.5000001 1 1 1
v 0.146 0.4841087 0.6000001 1 1 1
v 0.146 0.4841087 0.5000001 1 1 1
v 0.09741152 0.6014116 0.6000001 1 1 1
v 0.09741154 0.6014116 0.5000001 1 1 1
v -0.1460001 0.4841087 0.6000001 1 1 1
v -0.1460001 0.4841087 0.5000001 1 1 1
v 0.246 0.308 0.5000001 1 1 1
v 0.196 0.258 0.5000001 1 1 1
v 0.146 0.358 0.5000001 1 1 1
v -0.1960001 0.258 0.5000001 1 1 1
v -0.1460001 0.358 0.5000001 1 1 1
v 0.246 0.308 0.6000001 1 1 1
v 0.146 0.358 0.6000001 1 1 1
v 0.196 0.258 0.6000001 1 1 1
v -0.1960001 0.258 0.6000001 1 1 1
v -0.1460001 0.358 0.6000001 1 1 1
v -0.02500007 0.358 0.575 1 1 1
v -0.02500007 0.358 0.525 1 1 1
v -0.02500007 0.6417608 0.575 1 1 1
v -0.02500007 0.6417608 0.525 1 1 1
v 0.02499994 0.6417608 0.5750001 1 1 1
v 0.02499994 0.358 0.5750001 1 1 1
v 0.02499994 0.358 0.5250001 1 1 1
v 0.02499994 0.6417608 0.5250001 1 1 1
v -0.5000001 0 0.4 1 1 1
v -0.5 0 -0.5000001 1 1 1
v -0.5000001 0.5 0.4 1 1 1
v -0.5 0.5 -0.5000001 1 1 1
v 0.5000001 0 -0.5 1 1 1
v 0.5000001 0.5 -0.5 1 1 1
v 0.6414215 0.6414214 -0.5 1 1 1
v 0.6414215 0.5 -0.5 1 1 1
v -0.6414214 0.6414214 -0.5000001 1 1 1
v -0.6414214 0.5 -0.5000001 1 1 1
v 0.4 0.6 0.5000001 1 1 1
v 0.4 0 0.5000001 1 1 1
v -5.960465E-08 1 0.5000001 1 1 1
v -0.4000001 0 0.5 1 1 1
v -0.4000001 0.6 0.5 1 1 1
v 0.5 0 0.4000001 1 1 1
v 0.5 0.5 0.4000001 1 1 1
v 0.146 0.4841087 0.5100001 1 1 1
v 0.146 0.358 0.5100001 1 1 1
v 0.09741154 0.6014116 0.5100001 1 1 1
v -0.1460001 0.358 0.5100001 1 1 1
v -6.079674E-08 0.6417608 0.5100001 1 1 1
v -0.09741165 0.6014116 0.5100001 1 1 1
v -0.1460001 0.4841087 0.5100001 1 1 1

vn -0.7071068 -0.7071068 -8.42937E-08
vn -1.192093E-07 0 1
vn 0.7071068 -0.7071068 8.42937E-08
vn -0.9238796 -0.3826834 -1.10135E-07
vn -0.9238796 0.3826834 -1.10135E-07
vn 0.9238796 -0.3826834 1.10135E-07
vn 0.9238796 0.3826834 1.10135E-07
vn -0.3826835 0.9238795 -4.561942E-08
vn 0.3826835 0.9238795 4.561942E-08
vn -0.9807854 0.1950903 -1.169187E-07
vn 0.7071068 0.7071068 8.42937E-08
vn 0 1 0
vn 0 -1 0
vn -0.7071068 0.7071068 -8.42937E-08
vn 0.9807854 0.1950903 1.169187E-07
vn -0.9807854 -0.1950903 -1.169187E-07
vn 0.9807854 -0.1950903 1.169187E-07
vn 1.192093E-07 0 -1
vn -1 0 -1.192093E-07
vn 0.3826835 -0.9238795 4.561942E-08
vn -0.3826835 -0.9238795 -4.561942E-08
vn 1 0 1.192093E-07
vn -1 0 -1.192093E-07
vn -1.192093E-07 9.083207E-17 1
vn 1 0 1.192093E-07
vn 1.192093E-07 -9.083207E-17 -1
vn -0.9238797 0 0.3826834
vn -0.8958522 0 0.4443523
vn 0.2174821 0 0.9760644
vn 0.3826834 0 0.9238797
vn -0.3826836 0 0.9238796
vn -0.2174824 0 0.9760644
vn 0.9238796 0 0.3826836
vn 0.8958521 0 0.4443526

vt 0.34375 0.4208047
vt 0.34375 0.275
vt 0.34375 0.3291953
vt 0.34375 0.2930651
vt 0.34375 0.475
vt 0.71875 0.2930651
vt 0.71875 0.3291953
vt 0.71875 0.275
vt 0.71875 0.475
vt 0.71875 0.2953252
vt 0.71875 0.375
vt 0.71875 0.4457107
vt 0.71875 0.4310003
vt 0.71875 0.4145982
vt 0.71875 0.3669141
vt 0.71875 0.3156504
vt 0.21875 0.475
vt 0.21875 0.3925007
vt 0.21875 0.275
vt 0.21875 0.4041679
vt 0.21875 0.3691664
vt 0.21875 0.3760009
vt 0.21875 0.3100015
vt 0.09375 0.3861161
vt 0.09375 0.475
vt 0.09375 0.3034389
vt 0.09375 0.275

usemtl colormap

f 3/1/1 2/2/1 1/1/1
f 2/2/1 3/1/1 4/2/1
f 7/5/2 6/4/2 5/3/2
f 6/4/2 7/5/2 2/2/2
f 2/2/2 7/5/2 1/1/2
f 1/1/2 7/5/2 8/5/2
f 1/1/2 8/5/2 9/2/2
f 9/2/2 8/5/2 10/3/2
f 9/2/2 10/3/2 11/4/2
f 3/1/3 9/2/3 12/2/3
f 9/2/3 3/1/3 1/1/3
f 10/7/5 13/6/4 11/6/4
f 13/6/4 10/7/5 14/7/5
f 16/7/7 6/6/6 15/6/6
f 6/6/6 16/7/7 5/7/7
f 15/6/6 2/8/3 4/8/3
f 2/8/3 15/6/6 6/6/6
f 13/6/4 9/8/1 11/6/4
f 9/8/1 13/6/4 12/8/1
f 17/9/8 10/7/5 8/9/8
f 10/7/5 17/9/8 14/7/5
f 18/9/9 8/9/8 7/9/9
f 8/9/8 18/9/9 17/9/8
f 18/9/9 5/7/7 16/7/7
f 5/7/7 18/9/9 7/9/9
f 21/11/10 20/10/4 19/10/4
f 20/10/4 21/11/10 22/11/10
f 25/12/11 24/9/12 23/12/11
f 24/9/12 25/12/11 26/9/12
f 29/14/3 28/13/13 27/13/13
f 28/13/13 29/14/3 30/14/3
f 31/12/14 22/11/10 21/11/10
f 22/11/10 31/12/14 32/12/14
f 26/9/12 31/12/14 24/9/12
f 31/12/14 26/9/12 32/12/14
f 34/11/15 23/12/11 33/11/15
f 23/12/11 34/11/15 25/12/11
f 37/14/1 36/15/16 35/15/16
f 36/15/16 37/14/1 38/14/1
f 28/13/13 37/14/1 27/13/13
f 37/14/1 28/13/13 38/14/1
f 40/15/17 29/14/3 39/15/17
f 29/14/3 40/15/17 30/14/3
f 42/8/18 34/11/18 41/10/18
f 34/11/18 42/8/18 25/12/18
f 25/12/18 42/8/18 43/16/18
f 43/16/18 42/8/18 44/8/18
f 36/15/18 25/12/18 43/16/18
f 38/14/18 25/12/18 36/15/18
f 43/16/18 44/8/18 45/16/18
f 25/12/18 38/14/18 26/9/18
f 26/9/18 38/14/18 28/13/18
f 26/9/18 28/13/18 30/14/18
f 26/9/18 30/14/18 32/12/18
f 32/12/18 30/14/18 40/15/18
f 45/16/18 44/8/18 40/15/18
f 40/15/18 44/8/18 32/12/18
f 32/12/18 44/8/18 22/11/18
f 22/11/18 44/8/18 20/10/18
f 41/10/6 33/11/15 46/10/6
f 33/11/15 41/10/6 34/11/15
f 35/15/16 43/16/19 47/16/19
f 43/16/19 35/15/16 36/15/16
f 23/12/2 46/10/2 33/11/2
f 46/10/2 23/12/2 48/8/2
f 48/8/2 23/12/2 47/16/2
f 48/8/2 47/16/2 49/8/2
f 47/16/2 23/12/2 35/15/2
f 23/12/2 37/14/2 35/15/2
f 37/14/2 23/12/2 24/9/2
f 37/14/2 24/9/2 27/13/2
f 27/13/2 24/9/2 31/12/2
f 27/13/2 31/12/2 29/14/2
f 29/14/2 31/12/2 39/15/2
f 39/15/2 31/12/2 50/16/2
f 49/8/2 47/16/2 50/16/2
f 49/8/2 50/16/2 31/12/2
f 49/8/2 31/12/2 21/11/2
f 49/8/2 21/11/2 19/10/2
f 49/8/21 42/8/20 48/8/20
f 42/8/20 49/8/21 44/8/21
f 42/8/20 46/10/6 48/8/20
f 46/10/6 42/8/20 41/10/6
f 45/16/22 39/15/17 50/16/22
f 39/15/17 45/16/22 40/15/17
f 20/10/4 49/8/21 19/10/4
f 49/8/21 20/10/4 44/8/21
f 43/16/12 50/16/12 47/16/12
f 50/16/12 43/16/12 45/16/12
f 53/8/23 52/9/23 51/9/23
f 52/9/23 53/8/23 54/8/23
f 53/8/24 56/9/24 55/8/24
f 56/9/24 53/8/24 51/9/24
f 58/8/25 56/9/25 57/9/25
f 56/9/25 58/8/25 55/8/25
f 52/9/26 58/8/26 57/9/26
f 58/8/26 52/9/26 54/8/26
f 61/18/28 60/17/19 59/17/27
f 60/17/19 61/18/28 62/18/19
f 60/17/18 64/18/18 63/17/18
f 64/18/18 60/17/18 18/19/18
f 18/19/18 4/20/18 64/18/18
f 65/21/18 4/20/18 18/19/18
f 4/20/18 65/21/18 66/18/18
f 18/19/18 60/17/18 17/19/18
f 17/19/18 60/17/18 62/18/18
f 17/19/18 62/18/18 67/21/18
f 67/21/18 62/18/18 12/20/18
f 67/21/18 12/20/18 68/18/18
f 71/23/2 70/17/30 69/22/29
f 70/17/30 71/23/2 72/17/31
f 72/17/31 71/23/2 73/22/32
f 64/18/22 74/17/33 63/17/22
f 74/17/33 64/18/22 75/18/34
f 69/22/29 74/17/33 75/18/34
f 74/17/33 69/22/29 70/17/30
f 73/22/32 59/17/27 72/17/31
f 59/17/27 73/22/32 61/18/28
f 59/17/13 70/17/13 72/17/13
f 70/17/13 59/17/13 74/17/13
f 74/17/13 59/17/13 60/17/13
f 74/17/13 60/17/13 63/17/13
f 78/26/2 77/25/2 76/24/2
f 77/25/2 78/26/2 79/25/2
f 79/25/2 78/26/2 80/27/2
f 79/25/2 80/27/2 81/26/2
f 79/25/2 81/26/2 82/24/2

g cabin-roof-dormer




usemtl colormap

f 3/1/1 2/2/1 1/1/1
f 2/2/1 3/1/1 4/2/1
f 7/5/2 6/4/2 5/3/2
f 6/4/2 7/5/2 2/2/2
f 2/2/2 7/5/2 1/1/2
f 1/1/2 7/5/2 8/5/2
f 1/1/2 8/5/2 9/2/2
f 9/2/2 8/5/2 10/3/2
f 9/2/2 10/3/2 11/4/2
f 3/1/3 9/2/3 12/2/3
f 9/2/3 3/1/3 1/1/3
f 10/7/5 13/6/4 11/6/4
f 13/6/4 10/7/5 14/7/5
f 16/7/7 6/6/6 15/6/6
f 6/6/6 16/7/7 5/7/7
f 15/6/6 2/8/3 4/8/3
f 2/8/3 15/6/6 6/6/6
f 13/6/4 9/8/1 11/6/4
f 9/8/1 13/6/4 12/8/1
f 17/9/8 10/7/5 8/9/8
f 10/7/5 17/9/8 14/7/5
f 18/9/9 8/9/8 7/9/9
f 8/9/8 18/9/9 17/9/8
f 18/9/9 5/7/7 16/7/7
f 5/7/7 18/9/9 7/9/9
f 21/11/10 20/10/4 19/10/4
f 20/10/4 21/11/10 22/11/10
f 25/12/11 24/9/12 23/12/11
f 24/9/12 25/12/11 26/9/12
f 29/14/3 28/13/13 27/13/13
f 28/13/13 29/14/3 30/14/3
f 31/12/14 22/11/10 21/11/10
f 22/11/10 31/12/14 32/12/14
f 26/9/12 31/12/14 24/9/12
f 31/12/14 26/9/12 32/12/14
f 34/11/15 23/12/11 33/11/15
f 23/12/11 34/11/15 25/12/11
f 37/14/1 36/15/16 35/15/16
f 36/15/16 37/14/1 38/14/1
f 28/13/13 37/14/1 27/13/13
f 37/14/1 28/13/13 38/14/1
f 40/15/17 29/14/3 39/15/17
f 29/14/3 40/15/17 30/14/3
f 42/8/18 34/11/18 41/10/18
f 34/11/18 42/8/18 25/12/18
f 25/12/18 42/8/18 43/16/18
f 43/16/18 42/8/18 44/8/18
f 36/15/18 25/12/18 43/16/18
f 38/14/18 25/12/18 36/15/18
f 43/16/18 44/8/18 45/16/18
f 25/12/18 38/14/18 26/9/18
f 26/9/18 38/14/18 28/13/18
f 26/9/18 28/13/18 30/14/18
f 26/9/18 30/14/18 32/12/18
f 32/12/18 30/14/18 40/15/18
f 45/16/18 44/8/18 40/15/18
f 40/15/18 44/8/18 32/12/18
f 32/12/18 44/8/18 22/11/18
f 22/11/18 44/8/18 20/10/18
f 41/10/6 33/11/15 46/10/6
f 33/11/15 41/10/6 34/11/15
f 35/15/16 43/16/19 47/16/19
f 43/16/19 35/15/16 36/15/16
f 23/12/2 46/10/2 33/11/2
f 46/10/2 23/12/2 48/8/2
f 48/8/2 23/12/2 47/16/2
f 48/8/2 47/16/2 49/8/2
f 47/16/2 23/12/2 35/15/2
f 23/12/2 37/14/2 35/15/2
f 37/14/2 23/12/2 24/9/2
f 37/14/2 24/9/2 27/13/2
f 27/13/2 24/9/2 31/12/2
f 27/13/2 31/12/2 29/14/2
f 29/14/2 31/12/2 39/15/2
f 39/15/2 31/12/2 50/16/2
f 49/8/2 47/16/2 50/16/2
f 49/8/2 50/16/2 31/12/2
f 49/8/2 31/12/2 21/11/2
f 49/8/2 21/11/2 19/10/2
f 49/8/21 42/8/20 48/8/20
f 42/8/20 49/8/21 44/8/21
f 42/8/20 46/10/6 48/8/20
f 46/10/6 42/8/20 41/10/6
f 45/16/22 39/15/17 50/16/22
f 39/15/17 45/16/22 40/15/17
f 20/10/4 49/8/21 19/10/4
f 49/8/21 20/10/4 44/8/21
f 43/16/12 50/16/12 47/16/12
f 50/16/12 43/16/12 45/16/12
f 53/8/23 52/9/23 51/9/23
f 52/9/23 53/8/23 54/8/23
f 53/8/24 56/9/24 55/8/24
f 56/9/24 53/8/24 51/9/24
f 58/8/25 56/9/25 57/9/25
f 56/9/25 58/8/25 55/8/25
f 52/9/26 58/8/26 57/9/26
f 58/8/26 52/9/26 54/8/26
f 61/18/28 60/17/19 59/17/27
f 60/17/19 61/18/28 62/18/19
f 60/17/18 64/18/18 63/17/18
f 64/18/18 60/17/18 18/19/18
f 18/19/18 4/20/18 64/18/18
f 65/21/18 4/20/18 18/19/18
f 4/20/18 65/21/18 66/18/18
f 18/19/18 60/17/18 17/19/18
f 17/19/18 60/17/18 62/18/18
f 17/19/18 62/18/18 67/21/18
f 67/21/18 62/18/18 12/20/18
f 67/21/18 12/20/18 68/18/18
f 71/23/2 70/17/30 69/22/29
f 70/17/30 71/23/2 72/17/31
f 72/17/31 71/23/2 73/22/32
f 64/18/22 74/17/33 63/17/22
f 74/17/33 64/18/22 75/18/34
f 69/22/29 74/17/33 75/18/34
f 74/17/33 69/22/29 70/17/30
f 73/22/32 59/17/27 72/17/31
f 59/17/27 73/22/32 61/18/28
f 59/17/13 70/17/13 72/17/13
f 70/17/13 59/17/13 74/17/13
f 74/17/13 59/17/13 60/17/13
f 74/17/13 60/17/13 63/17/13
f 78/26/2 77/25/2 76/24/2
f 77/25/2 78/26/2 79/25/2
f 79/25/2 78/26/2 80/27/2
f 79/25/2 80/27/2 81/26/2
f 79/25/2 81/26/2 82/24/2

