# Created by Kenney (www.kenney.nl)

mtllib cabin-doorway-left.mtl

g cabin-doorway-left

v -0.2 0.8 0.3 1 1 1
v -0.2 -2.887646E-14 0.3 1 1 1
v -0.2 0.8 0.7 1 1 1
v -0.2 -2.887646E-14 0.7 1 1 1
v -0.25 0.9 0.3 1 1 1
v -0.25 0.9 0.7 1 1 1
v -0.3 0.85 0.3 1 1 1
v -0.3 0.85 0.7 1 1 1
v -0.3 -2.887646E-14 0.3 1 1 1
v -0.3 -2.887646E-14 0.7 1 1 1
v 0.5 0.9 0.3 1 1 1
v 0.5 0.9 0.7 1 1 1
v 0.5 0.8 0.3 1 1 1
v 0.5 0.8 0.7 1 1 1
v -0.25 0.1 0.65 1 1 1
v -0.5 0.1 0.65 1 1 1
v -0.25 0.2 0.6 1 1 1
v -0.5 0.2 0.6 1 1 1
v -0.5 0.8 0.6 1 1 1
v -0.5 0.9 0.65 1 1 1
v -0.25 0.8 0.6 1 1 1
v -0.25 0.9 0.65 1 1 1
v -0.5 0.3 0.65 1 1 1
v -0.5 0.4 0.6 1 1 1
v -0.25 0.3 0.65 1 1 1
v -0.25 0.4 0.6 1 1 1
v -0.5 0.5 0.65 1 1 1
v -0.25 0.5 0.65 1 1 1
v -0.5 0.6 0.4 1 1 1
v -0.25 0.6 0.4 1 1 1
v -0.5 0.7 0.35 1 1 1
v -0.25 0.7 0.35 1 1 1
v -0.25 0.8 0.4 1 1 1
v -0.25 0.9 0.35 1 1 1
v -0.5 0.8 0.4 1 1 1
v -0.5 0.9 0.35 1 1 1
v -0.25 0.4 0.4 1 1 1
v -0.25 0.5 0.35 1 1 1
v -0.5 0.4 0.4 1 1 1
v -0.5 0.5 0.35 1 1 1
v -0.25 0.2 0.4 1 1 1
v -0.25 0.3 0.35 1 1 1
v -0.25 1.982736E-14 0.6 1 1 1
v -0.25 1.277145E-14 0.4 1 1 1
v -0.25 0.1 0.35 1 1 1
v -0.25 0.6 0.6 1 1 1
v -0.25 0.7 0.65 1 1 1
v 0.5 0.9 0.35 1 1 1
v 0.5 0.9 0.65 1 1 1
v 0.5 1 0.4 1 1 1
v 0.5 1 0.6 1 1 1
v -0.5 0.1 0.35 1 1 1
v -0.5 0.2 0.4 1 1 1
v -0.5 0.6 0.6 1 1 1
v -0.5 0.7 0.65 1 1 1
v -0.5 0.3 0.35 1 1 1
v -0.5 2.887646E-14 0.6 1 1 1
v -0.5 1 0.4 1 1 1
v -0.5 1 0.6 1 1 1
v -0.5 -2.887646E-14 0.4 1 1 1

vn 1 0 0
vn -0.3826834 0.9238795 0
vn -0.9238795 0.3826834 0
vn -1 0 0
vn 0 1 0
vn 0 0 -1
vn 0 0 1
vn 0 -1 0
vn 0 0.4472136 0.8944272
vn 0 -0.4472136 0.8944272
vn 0 -0.4472136 -0.8944272
vn 0 0.4472136 -0.8944272

vt 0.71875 0.4527778
vt 0.71875 0.275
vt 0.71875 0.475
vt 0.71875 0.4638889
vt 0.21875 0.295
vt 0.21875 0.315
vt 0.21875 0.435
vt 0.21875 0.455
vt 0.21875 0.335
vt 0.21875 0.355
vt 0.21875 0.375
vt 0.21875 0.395
vt 0.21875 0.415
vt 0.21875 0.275
vt 0.21875 0.475

usemtl colormap

f 3/1/1 2/2/1 1/1/1
f 2/2/1 3/1/1 4/2/1
f 7/4/3 6/3/2 5/3/2
f 6/3/2 7/4/3 8/4/3
f 10/2/4 7/4/3 9/2/4
f 7/4/3 10/2/4 8/4/3
f 5/3/2 12/3/5 11/3/5
f 12/3/5 5/3/2 6/3/2
f 12/3/1 13/1/1 11/3/1
f 13/1/1 12/3/1 14/1/1
f 7/4/6 2/2/6 9/2/6
f 2/2/6 7/4/6 1/1/6
f 11/3/6 1/1/6 7/4/6
f 11/3/6 7/4/6 5/3/6
f 1/1/6 11/3/6 13/1/6
f 12/3/7 3/1/7 14/1/7
f 3/1/7 12/3/7 8/4/7
f 8/4/7 12/3/7 6/3/7
f 10/2/7 3/1/7 8/4/7
f 3/1/7 10/2/7 4/2/7
f 3/1/8 13/1/8 14/1/8
f 13/1/8 3/1/8 1/1/8
f 10/2/8 2/2/8 4/2/8
f 2/2/8 10/2/8 9/2/8
f 17/6/7 16/5/9 15/5/9
f 16/5/9 17/6/7 18/6/7
f 21/7/7 20/8/10 19/7/7
f 20/8/10 21/7/7 22/8/10
f 25/9/9 24/10/7 23/9/9
f 24/10/7 25/9/9 26/10/7
f 26/10/7 27/11/10 24/10/7
f 27/11/10 26/10/7 28/11/10
f 31/13/11 30/12/6 29/12/6
f 30/12/6 31/13/11 32/13/11
f 35/7/6 34/8/11 33/7/6
f 34/8/11 35/7/6 36/8/11
f 39/10/6 38/11/11 37/10/6
f 38/11/11 39/10/6 40/11/11
f 30/12/1 37/10/1 38/11/1
f 41/6/1 37/10/1 30/12/1
f 37/10/1 41/6/1 42/9/1
f 30/12/1 21/7/1 41/6/1
f 30/12/1 22/8/1 21/7/1
f 33/7/1 22/8/1 30/12/1
f 30/12/1 32/13/1 33/7/1
f 22/8/1 33/7/1 34/8/1
f 41/6/1 21/7/1 17/6/1
f 43/14/1 41/6/1 17/6/1
f 43/14/1 17/6/1 15/5/1
f 44/14/1 41/6/1 43/14/1
f 41/6/1 44/14/1 45/5/1
f 26/10/1 17/6/1 21/7/1
f 17/6/1 26/10/1 25/9/1
f 26/10/1 21/7/1 46/12/1
f 47/13/1 46/12/1 21/7/1
f 28/11/1 26/10/1 46/12/1
f 50/15/1 49/8/1 48/8/1
f 49/8/1 50/15/1 51/15/1
f 53/6/6 45/5/12 52/5/12
f 45/5/12 53/6/6 41/6/6
f 46/12/7 27/11/9 28/11/9
f 27/11/9 46/12/7 54/12/7
f 47/13/9 19/7/7 55/13/9
f 19/7/7 47/13/9 21/7/7
f 56/9/11 41/6/6 53/6/6
f 41/6/6 56/9/11 42/9/11
f 29/12/6 38/11/12 40/11/12
f 38/11/12 29/12/6 30/12/6
f 15/5/10 57/14/10 43/14/10
f 57/14/10 15/5/10 16/5/10
f 58/15/4 36/8/4 35/7/4
f 35/7/4 57/14/4 58/15/4
f 58/15/4 57/14/4 18/6/4
f 18/6/4 57/14/4 16/5/4
f 18/6/4 59/15/4 58/15/4
f 29/12/4 57/14/4 35/7/4
f 35/7/4 31/13/4 29/12/4
f 39/10/4 57/14/4 29/12/4
f 29/12/4 40/11/4 39/10/4
f 53/6/4 57/14/4 39/10/4
f 39/10/4 56/9/4 53/6/4
f 53/6/4 60/14/4 57/14/4
f 60/14/4 53/6/4 52/5/4
f 59/15/4 18/6/4 24/10/4
f 23/9/4 24/10/4 18/6/4
f 59/15/4 24/10/4 54/12/4
f 27/11/4 54/12/4 24/10/4
f 59/15/4 54/12/4 19/7/4
f 55/13/4 19/7/4 54/12/4
f 59/15/4 19/7/4 20/8/4
f 25/9/10 18/6/7 17/6/7
f 18/6/7 25/9/10 23/9/10
f 36/8/12 48/8/12 34/8/12
f 48/8/12 36/8/12 50/15/12
f 50/15/12 36/8/12 58/15/12
f 57/14/8 44/14/8 43/14/8
f 44/14/8 57/14/8 60/14/8
f 58/15/5 51/15/5 50/15/5
f 51/15/5 58/15/5 59/15/5
f 47/13/10 54/12/7 46/12/7
f 54/12/7 47/13/10 55/13/10
f 52/5/11 44/14/11 60/14/11
f 44/14/11 52/5/11 45/5/11
f 56/9/12 37/10/6 42/9/12
f 37/10/6 56/9/12 39/10/6
f 49/8/8 34/8/8 48/8/8
f 34/8/8 49/8/8 22/8/8
f 49/8/9 20/8/9 22/8/9
f 20/8/9 49/8/9 51/15/9
f 20/8/9 51/15/9 59/15/9
f 31/13/12 33/7/6 32/13/12
f 33/7/6 31/13/12 35/7/6

g cabin-doorway-left




usemtl colormap

f 3/1/1 2/2/1 1/1/1
f 2/2/1 3/1/1 4/2/1
f 7/4/3 6/3/2 5/3/2
f 6/3/2 7/4/3 8/4/3
f 10/2/4 7/4/3 9/2/4
f 7/4/3 10/2/4 8/4/3
f 5/3/2 12/3/5 11/3/5
f 12/3/5 5/3/2 6/3/2
f 12/3/1 13/1/1 11/3/1
f 13/1/1 12/3/1 14/1/1
f 7/4/6 2/2/6 9/2/6
f 2/2/6 7/4/6 1/1/6
f 11/3/6 1/1/6 7/4/6
f 11/3/6 7/4/6 5/3/6
f 1/1/6 11/3/6 13/1/6
f 12/3/7 3/1/7 14/1/7
f 3/1/7 12/3/7 8/4/7
f 8/4/7 12/3/7 6/3/7
f 10/2/7 3/1/7 8/4/7
f 3/1/7 10/2/7 4/2/7
f 3/1/8 13/1/8 14/1/8
f 13/1/8 3/1/8 1/1/8
f 10/2/8 2/2/8 4/2/8
f 2/2/8 10/2/8 9/2/8
f 17/6/7 16/5/9 15/5/9
f 16/5/9 17/6/7 18/6/7
f 21/7/7 20/8/10 19/7/7
f 20/8/10 21/7/7 22/8/10
f 25/9/9 24/10/7 23/9/9
f 24/10/7 25/9/9 26/10/7
f 26/10/7 27/11/10 24/10/7
f 27/11/10 26/10/7 28/11/10
f 31/13/11 30/12/6 29/12/6
f 30/12/6 31/13/11 32/13/11
f 35/7/6 34/8/11 33/7/6
f 34/8/11 35/7/6 36/8/11
f 39/10/6 38/11/11 37/10/6
f 38/11/11 39/10/6 40/11/11
f 30/12/1 37/10/1 38/11/1
f 41/6/1 37/10/1 30/12/1
f 37/10/1 41/6/1 42/9/1
f 30/12/1 21/7/1 41/6/1
f 30/12/1 22/8/1 21/7/1
f 33/7/1 22/8/1 30/12/1
f 30/12/1 32/13/1 33/7/1
f 22/8/1 33/7/1 34/8/1
f 41/6/1 21/7/1 17/6/1
f 43/14/1 41/6/1 17/6/1
f 43/14/1 17/6/1 15/5/1
f 44/14/1 41/6/1 43/14/1
f 41/6/1 44/14/1 45/5/1
f 26/10/1 17/6/1 21/7/1
f 17/6/1 26/10/1 25/9/1
f 26/10/1 21/7/1 46/12/1
f 47/13/1 46/12/1 21/7/1
f 28/11/1 26/10/1 46/12/1
f 50/15/1 49/8/1 48/8/1
f 49/8/1 50/15/1 51/15/1
f 53/6/6 45/5/12 52/5/12
f 45/5/12 53/6/6 41/6/6
f 46/12/7 27/11/9 28/11/9
f 27/11/9 46/12/7 54/12/7
f 47/13/9 19/7/7 55/13/9
f 19/7/7 47/13/9 21/7/7
f 56/9/11 41/6/6 53/6/6
f 41/6/6 56/9/11 42/9/11
f 29/12/6 38/11/12 40/11/12
f 38/11/12 29/12/6 30/12/6
f 15/5/10 57/14/10 43/14/10
f 57/14/10 15/5/10 16/5/10
f 58/15/4 36/8/4 35/7/4
f 35/7/4 57/14/4 58/15/4
f 58/15/4 57/14/4 18/6/4
f 18/6/4 57/14/4 16/5/4
f 18/6/4 59/15/4 58/15/4
f 29/12/4 57/14/4 35/7/4
f 35/7/4 31/13/4 29/12/4
f 39/10/4 57/14/4 29/12/4
f 29/12/4 40/11/4 39/10/4
f 53/6/4 57/14/4 39/10/4
f 39/10/4 56/9/4 53/6/4
f 53/6/4 60/14/4 57/14/4
f 60/14/4 53/6/4 52/5/4
f 59/15/4 18/6/4 24/10/4
f 23/9/4 24/10/4 18/6/4
f 59/15/4 24/10/4 54/12/4
f 27/11/4 54/12/4 24/10/4
f 59/15/4 54/12/4 19/7/4
f 55/13/4 19/7/4 54/12/4
f 59/15/4 19/7/4 20/8/4
f 25/9/10 18/6/7 17/6/7
f 18/6/7 25/9/10 23/9/10
f 36/8/12 48/8/12 34/8/12
f 48/8/12 36/8/12 50/15/12
f 50/15/12 36/8/12 58/15/12
f 57/14/8 44/14/8 43/14/8
f 44/14/8 57/14/8 60/14/8
f 58/15/5 51/15/5 50/15/5
f 51/15/5 58/15/5 59/15/5
f 47/13/10 54/12/7 46/12/7
f 54/12/7 47/13/10 55/13/10
f 52/5/11 44/14/11 60/14/11
f 44/14/11 52/5/11 45/5/11
f 56/9/12 37/10/6 42/9/12
f 37/10/6 56/9/12 39/10/6
f 49/8/8 34/8/8 48/8/8
f 34/8/8 49/8/8 22/8/8
f 49/8/9 20/8/9 22/8/9
f 20/8/9 49/8/9 51/15/9
f 20/8/9 51/15/9 59/15/9
f 31/13/12 33/7/6 32/13/12
f 33/7/6 31/13/12 35/7/6

