# Created by Kenney (www.kenney.nl)

mtllib cabin-corner.mtl

g cabin-corner

v -0.5 1 0.5 1 1 1
v -0.5 1 0.65 1 1 1
v -0.65 1 0.5 1 1 1
v -0.65 1 0.65 1 1 1
v -0.65 -2.52669E-15 0.5 1 1 1
v -0.5 -2.52669E-15 0.5 1 1 1
v -0.5 -2.52669E-15 0.65 1 1 1
v -0.65 -2.52669E-15 0.65 1 1 1

vn 0 1 0
vn 0 0 -1
vn 1 0 0
vn -1 0 0
vn 0 0 1

vt 0.15625 0.375

usemtl colormap

f 3/1/1 2/1/1 1/1/1
f 2/1/1 3/1/1 4/1/1
f 3/1/2 6/1/2 5/1/2
f 6/1/2 3/1/2 1/1/2
f 2/1/3 6/1/3 1/1/3
f 6/1/3 2/1/3 7/1/3
f 8/1/4 3/1/4 5/1/4
f 3/1/4 8/1/4 4/1/4
f 2/1/5 8/1/5 7/1/5
f 8/1/5 2/1/5 4/1/5

g cabin-corner




usemtl colormap

f 3/1/1 2/1/1 1/1/1
f 2/1/1 3/1/1 4/1/1
f 3/1/2 6/1/2 5/1/2
f 6/1/2 3/1/2 1/1/2
f 2/1/3 6/1/3 1/1/3
f 6/1/3 2/1/3 7/1/3
f 8/1/4 3/1/4 5/1/4
f 3/1/4 8/1/4 4/1/4
f 2/1/5 8/1/5 7/1/5
f 8/1/5 2/1/5 4/1/5

