# Created by Kenney (www.kenney.nl)

mtllib cabin-wall-roof.mtl

g cabin-wall-roof

v -0.4 0.9 0.65 1 1 1
v -0.5 0.9 0.65 1 1 1
v -0.5 1 0.6 1 1 1
v -0.5 0.9 0.35 1 1 1
v -0.4 0.9 0.35 1 1 1
v -0.5 1 0.4 1 1 1
v -0.5 0.4 0.4 1 1 1
v 0.1 0.4 0.4 1 1 1
v -0.5 0.5 0.35 1 1 1
v 3.284697E-14 0.5 0.35 1 1 1
v -0.5 0.6 0.4 1 1 1
v -0.5 0.8 0.4 1 1 1
v -0.5 0.7 0.35 1 1 1
v -0.5 0.2 0.4 1 1 1
v -0.5 0.3 0.35 1 1 1
v -0.5 1.804779E-16 0.5 1 1 1
v -0.5 1.913065E-15 0.4 1 1 1
v -0.5 0.1 0.35 1 1 1
v -0.5 0.2 0.6 1 1 1
v -0.5 1.804779E-16 0.6 1 1 1
v -0.5 0.1 0.65 1 1 1
v -0.5 0.4 0.6 1 1 1
v -0.5 0.3 0.65 1 1 1
v -0.5 0.6 0.6 1 1 1
v -0.5 0.5 0.65 1 1 1
v -0.5 0.8 0.6 1 1 1
v -0.5 0.7 0.65 1 1 1
v -0.3 0.8 0.6 1 1 1
v 0.1 0.4 0.6 1 1 1
v 3.248601E-15 0.5 0.65 1 1 1
v 0.5 1.804779E-16 0.5 1 1 1
v 0.5 1.804779E-16 0.6 1 1 1
v 0.5 3.100209E-15 0.4 1 1 1
v 0.4 0.1 0.35 1 1 1
v 0.2 0.3 0.35 1 1 1
v -0.1 0.6 0.4 1 1 1
v -0.1 0.6 0.6 1 1 1
v -0.2 0.7 0.65 1 1 1
v 0.3 0.2 0.6 1 1 1
v 0.2 0.3 0.65 1 1 1
v 0.4 0.1 0.65 1 1 1
v -0.3 0.8 0.4 1 1 1
v 0.3 0.2 0.4 1 1 1
v -0.2 0.7 0.35 1 1 1

vn 0 0.4472136 0.8944272
vn 0 0.4472136 -0.8944272
vn 0 0 -1
vn 0 0.226256 -0.9740679
vn 0 -0.4472136 -0.8944272
vn -1 0 0
vn 0 0.226256 0.9740679
vn 0 0 1
vn 0 -0.4472136 0.8944272
vn 0 -1 0
vn 0.7071068 0.7071068 0

vt 0.21875 0.455
vt 0.21875 0.475
vt 0.21875 0.355
vt 0.21875 0.375
vt 0.21875 0.395
vt 0.21875 0.435
vt 0.21875 0.415
vt 0.21875 0.315
vt 0.21875 0.335
vt 0.21875 0.275
vt 0.21875 0.295
vt 0.09375 0.275

usemtl colormap

f 3/2/1 2/1/1 1/1/1
f 6/2/2 5/1/2 4/1/2
f 9/4/5 8/3/4 7/3/3
f 8/3/4 9/4/5 10/4/5
f 7/3/6 11/5/6 9/4/6
f 12/6/6 11/5/6 7/3/6
f 11/5/6 12/6/6 13/7/6
f 7/3/6 14/8/6 12/6/6
f 3/2/6 12/6/6 14/8/6
f 14/8/6 7/3/6 15/9/6
f 6/2/6 12/6/6 3/2/6
f 12/6/6 6/2/6 4/1/6
f 3/2/6 14/8/6 16/10/6
f 14/8/6 17/10/6 16/10/6
f 17/10/6 14/8/6 18/11/6
f 3/2/6 16/10/6 19/8/6
f 20/10/6 19/8/6 16/10/6
f 19/8/6 20/10/6 21/11/6
f 3/2/6 19/8/6 22/3/6
f 23/9/6 22/3/6 19/8/6
f 3/2/6 22/3/6 24/5/6
f 25/4/6 24/5/6 22/3/6
f 3/2/6 24/5/6 26/6/6
f 27/7/6 26/6/6 24/5/6
f 3/2/6 26/6/6 2/1/6
f 1/1/9 26/6/8 28/6/7
f 26/6/8 1/1/9 2/1/9
f 30/4/9 22/3/8 29/3/7
f 22/3/8 30/4/9 25/4/9
f 32/10/10 16/10/10 31/10/10
f 16/10/10 32/10/10 20/10/10
f 18/11/5 33/10/5 17/10/5
f 33/10/5 18/11/5 34/11/5
f 7/3/3 35/9/2 15/9/2
f 35/9/2 7/3/3 8/3/4
f 11/5/3 10/4/2 9/4/2
f 10/4/2 11/5/3 36/5/4
f 38/7/9 24/5/8 37/5/7
f 24/5/8 38/7/9 27/7/9
f 37/5/7 25/4/1 30/4/1
f 25/4/1 37/5/7 24/5/8
f 39/8/7 23/9/9 19/8/8
f 23/9/9 39/8/7 40/9/9
f 29/3/7 23/9/1 40/9/1
f 23/9/1 29/3/7 22/3/8
f 41/11/1 19/8/8 21/11/1
f 19/8/8 41/11/1 39/8/7
f 28/6/7 27/7/1 38/7/1
f 27/7/1 28/6/7 26/6/8
f 4/1/5 42/6/4 12/6/3
f 42/6/4 4/1/5 5/1/5
f 41/11/9 20/10/9 32/10/9
f 20/10/9 41/11/9 21/11/9
f 14/8/3 35/9/5 43/8/4
f 35/9/5 14/8/3 15/9/5
f 33/10/11 32/10/11 31/10/11
f 32/10/11 33/10/11 34/11/11
f 32/10/11 34/11/11 41/11/11
f 41/11/11 34/11/11 43/8/11
f 41/11/11 43/8/11 39/8/11
f 39/8/11 43/8/11 35/9/11
f 39/8/11 35/9/11 40/9/11
f 40/9/11 35/9/11 8/3/11
f 40/9/11 8/3/11 29/3/11
f 29/3/11 8/3/11 10/4/11
f 29/3/11 10/4/11 30/4/11
f 30/4/11 10/4/11 36/5/11
f 30/4/11 36/5/11 37/5/11
f 37/5/11 36/5/11 44/7/11
f 37/5/11 44/7/11 38/7/11
f 38/7/11 44/7/11 42/6/11
f 38/7/11 42/6/11 28/6/11
f 28/6/11 42/6/11 5/1/11
f 28/6/11 5/1/11 1/1/11
f 1/1/11 5/1/11 6/2/11
f 1/1/11 6/2/11 3/2/11
f 18/11/2 43/8/4 34/11/2
f 43/8/4 18/11/2 14/8/3
f 12/6/3 44/7/2 13/7/2
f 44/7/2 12/6/3 42/6/4
f 13/7/5 36/5/4 11/5/3
f 36/5/4 13/7/5 44/7/5
f 16/12/10 33/12/10 31/12/10
f 33/12/10 16/12/10 17/12/10

g cabin-wall-roof




usemtl colormap

f 3/2/1 2/1/1 1/1/1
f 6/2/2 5/1/2 4/1/2
f 9/4/5 8/3/4 7/3/3
f 8/3/4 9/4/5 10/4/5
f 7/3/6 11/5/6 9/4/6
f 12/6/6 11/5/6 7/3/6
f 11/5/6 12/6/6 13/7/6
f 7/3/6 14/8/6 12/6/6
f 3/2/6 12/6/6 14/8/6
f 14/8/6 7/3/6 15/9/6
f 6/2/6 12/6/6 3/2/6
f 12/6/6 6/2/6 4/1/6
f 3/2/6 14/8/6 16/10/6
f 14/8/6 17/10/6 16/10/6
f 17/10/6 14/8/6 18/11/6
f 3/2/6 16/10/6 19/8/6
f 20/10/6 19/8/6 16/10/6
f 19/8/6 20/10/6 21/11/6
f 3/2/6 19/8/6 22/3/6
f 23/9/6 22/3/6 19/8/6
f 3/2/6 22/3/6 24/5/6
f 25/4/6 24/5/6 22/3/6
f 3/2/6 24/5/6 26/6/6
f 27/7/6 26/6/6 24/5/6
f 3/2/6 26/6/6 2/1/6
f 1/1/9 26/6/8 28/6/7
f 26/6/8 1/1/9 2/1/9
f 30/4/9 22/3/8 29/3/7
f 22/3/8 30/4/9 25/4/9
f 32/10/10 16/10/10 31/10/10
f 16/10/10 32/10/10 20/10/10
f 18/11/5 33/10/5 17/10/5
f 33/10/5 18/11/5 34/11/5
f 7/3/3 35/9/2 15/9/2
f 35/9/2 7/3/3 8/3/4
f 11/5/3 10/4/2 9/4/2
f 10/4/2 11/5/3 36/5/4
f 38/7/9 24/5/8 37/5/7
f 24/5/8 38/7/9 27/7/9
f 37/5/7 25/4/1 30/4/1
f 25/4/1 37/5/7 24/5/8
f 39/8/7 23/9/9 19/8/8
f 23/9/9 39/8/7 40/9/9
f 29/3/7 23/9/1 40/9/1
f 23/9/1 29/3/7 22/3/8
f 41/11/1 19/8/8 21/11/1
f 19/8/8 41/11/1 39/8/7
f 28/6/7 27/7/1 38/7/1
f 27/7/1 28/6/7 26/6/8
f 4/1/5 42/6/4 12/6/3
f 42/6/4 4/1/5 5/1/5
f 41/11/9 20/10/9 32/10/9
f 20/10/9 41/11/9 21/11/9
f 14/8/3 35/9/5 43/8/4
f 35/9/5 14/8/3 15/9/5
f 33/10/11 32/10/11 31/10/11
f 32/10/11 33/10/11 34/11/11
f 32/10/11 34/11/11 41/11/11
f 41/11/11 34/11/11 43/8/11
f 41/11/11 43/8/11 39/8/11
f 39/8/11 43/8/11 35/9/11
f 39/8/11 35/9/11 40/9/11
f 40/9/11 35/9/11 8/3/11
f 40/9/11 8/3/11 29/3/11
f 29/3/11 8/3/11 10/4/11
f 29/3/11 10/4/11 30/4/11
f 30/4/11 10/4/11 36/5/11
f 30/4/11 36/5/11 37/5/11
f 37/5/11 36/5/11 44/7/11
f 37/5/11 44/7/11 38/7/11
f 38/7/11 44/7/11 42/6/11
f 38/7/11 42/6/11 28/6/11
f 28/6/11 42/6/11 5/1/11
f 28/6/11 5/1/11 1/1/11
f 1/1/11 5/1/11 6/2/11
f 1/1/11 6/2/11 3/2/11
f 18/11/2 43/8/4 34/11/2
f 43/8/4 18/11/2 14/8/3
f 12/6/3 44/7/2 13/7/2
f 44/7/2 12/6/3 42/6/4
f 13/7/5 36/5/4 11/5/3
f 36/5/4 13/7/5 44/7/5
f 16/12/10 33/12/10 31/12/10
f 33/12/10 16/12/10 17/12/10

