# Created by Kenney (www.kenney.nl)

mtllib cabin-doorway-center.mtl

g cabin-doorway-center

v 0.5 0.9 0.3 1 1 1
v 0.5 0.9 0.7 1 1 1
v -0.5 0.9 0.3 1 1 1
v -0.5 0.9 0.7 1 1 1
v 0.5 0.8 0.3 1 1 1
v 0.5 0.8 0.7 1 1 1
v -0.5 0.8 0.3 1 1 1
v -0.5 0.8 0.7 1 1 1
v 0.5 0.9 0.35 1 1 1
v 0.5 0.9 0.65 1 1 1
v 0.5 1 0.4 1 1 1
v 0.5 1 0.6 1 1 1
v -0.5 0.9 0.35 1 1 1
v -0.5 1 0.4 1 1 1
v -0.5 0.9 0.65 1 1 1
v -0.5 1 0.6 1 1 1

vn 0 1 0
vn 1 0 0
vn 0 0 -1
vn 0 -1 0
vn 0 0 1
vn -1 0 0
vn 0 0.4472136 -0.8944272
vn 0 0.4472136 0.8944272

vt 0.71875 0.475
vt 0.71875 0.4527778
vt 0.21875 0.455
vt 0.21875 0.475

usemtl colormap

f 3/1/1 2/1/1 1/1/1
f 2/1/1 3/1/1 4/1/1
f 2/1/2 5/2/2 1/1/2
f 5/2/2 2/1/2 6/2/2
f 7/2/3 1/1/3 5/2/3
f 1/1/3 7/2/3 3/1/3
f 8/2/4 5/2/4 6/2/4
f 5/2/4 8/2/4 7/2/4
f 2/1/5 8/2/5 6/2/5
f 8/2/5 2/1/5 4/1/5
f 8/2/6 3/1/6 7/2/6
f 3/1/6 8/2/6 4/1/6
f 11/4/2 10/3/2 9/3/2
f 10/3/2 11/4/2 12/4/2
f 15/3/6 14/4/6 13/3/6
f 14/4/6 15/3/6 16/4/6
f 13/3/7 11/4/7 9/3/7
f 11/4/7 13/3/7 14/4/7
f 14/4/1 12/4/1 11/4/1
f 12/4/1 14/4/1 16/4/1
f 10/3/4 13/3/4 9/3/4
f 13/3/4 10/3/4 15/3/4
f 12/4/8 15/3/8 10/3/8
f 15/3/8 12/4/8 16/4/8

g cabin-doorway-center




usemtl colormap

f 3/1/1 2/1/1 1/1/1
f 2/1/1 3/1/1 4/1/1
f 2/1/2 5/2/2 1/1/2
f 5/2/2 2/1/2 6/2/2
f 7/2/3 1/1/3 5/2/3
f 1/1/3 7/2/3 3/1/3
f 8/2/4 5/2/4 6/2/4
f 5/2/4 8/2/4 7/2/4
f 2/1/5 8/2/5 6/2/5
f 8/2/5 2/1/5 4/1/5
f 8/2/6 3/1/6 7/2/6
f 3/1/6 8/2/6 4/1/6
f 11/4/2 10/3/2 9/3/2
f 10/3/2 11/4/2 12/4/2
f 15/3/6 14/4/6 13/3/6
f 14/4/6 15/3/6 16/4/6
f 13/3/7 11/4/7 9/3/7
f 11/4/7 13/3/7 14/4/7
f 14/4/1 12/4/1 11/4/1
f 12/4/1 14/4/1 16/4/1
f 10/3/4 13/3/4 9/3/4
f 13/3/4 10/3/4 15/3/4
f 12/4/8 15/3/8 10/3/8
f 15/3/8 12/4/8 16/4/8

