# Created by Kenney (www.kenney.nl)

mtllib cabin-corner-logs.mtl

g cabin-corner-logs

v -0.5 5.770369E-14 0.3999999 1 1 1
v -0.5 5.770369E-14 0.6 1 1 1
v -0.5 0.1 0.3499999 1 1 1
v -0.5 0.1 0.65 1 1 1
v -0.5 0.2 0.6 1 1 1
v -0.5 0.2 0.3999999 1 1 1
v -0.5 0.3 0.65 1 1 1
v -0.5 0.3 0.3499999 1 1 1
v -0.5 0.4 0.6 1 1 1
v -0.5 0.4 0.3999999 1 1 1
v -0.5 0.5 0.65 1 1 1
v -0.5 0.5 0.3499999 1 1 1
v -0.5 0.6 0.6 1 1 1
v -0.5 0.6 0.3999999 1 1 1
v -0.5 0.7 0.65 1 1 1
v -0.5 0.7 0.3499999 1 1 1
v -0.5 0.8 0.6 1 1 1
v -0.5 0.8 0.3999999 1 1 1
v -0.5 0.9 0.65 1 1 1
v -0.5 0.9 0.3499999 1 1 1
v -0.5 1 0.6 1 1 1
v -0.5 1 0.3999999 1 1 1
v -0.7 5.757244E-14 0.6 1 1 1
v -0.7 5.757244E-14 0.3999999 1 1 1
v -0.7 0.1 0.65 1 1 1
v -0.7 0.1 0.3499999 1 1 1
v -0.7 0.2 0.6 1 1 1
v -0.7 0.2 0.3999999 1 1 1
v -0.7 0.3 0.65 1 1 1
v -0.7 0.3 0.3499999 1 1 1
v -0.7 0.4 0.6 1 1 1
v -0.7 0.4 0.3999999 1 1 1
v -0.7 0.5 0.65 1 1 1
v -0.7 0.5 0.3499999 1 1 1
v -0.7 0.6 0.6 1 1 1
v -0.7 0.6 0.3999999 1 1 1
v -0.7 0.7 0.65 1 1 1
v -0.7 0.7 0.3499999 1 1 1
v -0.7 0.8 0.6 1 1 1
v -0.7 0.8 0.3999999 1 1 1
v -0.7 0.9 0.65 1 1 1
v -0.7 0.9 0.3499999 1 1 1
v -0.7 1 0.6 1 1 1
v -0.7 1 0.3999999 1 1 1
v -0.6 5.775292E-14 0.5 1 1 1
v -0.4 5.775292E-14 0.5 1 1 1
v -0.65 0.1 0.5 1 1 1
v -0.35 0.1 0.5 1 1 1
v -0.4 0.2 0.5 1 1 1
v -0.6 0.2 0.5 1 1 1
v -0.35 0.3 0.5 1 1 1
v -0.65 0.3 0.5 1 1 1
v -0.4 0.4 0.5 1 1 1
v -0.6 0.4 0.5 1 1 1
v -0.35 0.5 0.5 1 1 1
v -0.65 0.5 0.5 1 1 1
v -0.4 0.6 0.5 1 1 1
v -0.6 0.6 0.5 1 1 1
v -0.35 0.7 0.5 1 1 1
v -0.65 0.7 0.5 1 1 1
v -0.4 0.8 0.5 1 1 1
v -0.6 0.8 0.5 1 1 1
v -0.35 0.9 0.5 1 1 1
v -0.65 0.9 0.5 1 1 1
v -0.4 1 0.5 1 1 1
v -0.6 1 0.5 1 1 1
v -0.4 5.762166E-14 0.7 1 1 1
v -0.6 5.762166E-14 0.7 1 1 1
v -0.35 0.1 0.7 1 1 1
v -0.65 0.1 0.7 1 1 1
v -0.4 0.2 0.7 1 1 1
v -0.6 0.2 0.7 1 1 1
v -0.35 0.3 0.7 1 1 1
v -0.65 0.3 0.7 1 1 1
v -0.4 0.4 0.7 1 1 1
v -0.6 0.4 0.7 1 1 1
v -0.35 0.5 0.7 1 1 1
v -0.65 0.5 0.7 1 1 1
v -0.4 0.6 0.7 1 1 1
v -0.6 0.6 0.7 1 1 1
v -0.35 0.7 0.7 1 1 1
v -0.65 0.7 0.7 1 1 1
v -0.4 0.8 0.7 1 1 1
v -0.6 0.8 0.7 1 1 1
v -0.35 0.9 0.7 1 1 1
v -0.65 0.9 0.7 1 1 1
v -0.4 1 0.7 1 1 1
v -0.6 1 0.7 1 1 1

vn 1 0 1.192093E-07
vn -1 0 -1.192093E-07
vn 0 1 0
vn 1.06624E-07 0.4472136 -0.8944273
vn 1.06624E-07 -0.4472136 -0.8944273
vn 1.192093E-07 0 -1
vn 0 -1 0
vn -1.06624E-07 -0.4472136 0.8944273
vn -1.192093E-07 0 1
vn -1.06624E-07 0.4472136 0.8944273
vn 0 0 -1
vn 0 0 1
vn -0.8944272 0.4472136 0
vn -0.8944272 -0.4472136 0
vn -1 0 0
vn 0.8944272 -0.4472136 0
vn 1 0 0
vn 0.8944272 0.4472136 0

vt 0.21875 0.275
vt 0.21875 0.295
vt 0.21875 0.315
vt 0.21875 0.335
vt 0.21875 0.355
vt 0.21875 0.375
vt 0.21875 0.395
vt 0.21875 0.415
vt 0.21875 0.435
vt 0.21875 0.455
vt 0.21875 0.475

usemtl colormap

f 3/2/1 2/1/1 1/1/1
f 2/1/1 3/2/1 4/2/1
f 4/2/1 3/2/1 5/3/1
f 5/3/1 3/2/1 6/3/1
f 5/3/1 6/3/1 7/4/1
f 7/4/1 6/3/1 8/4/1
f 7/4/1 8/4/1 9/5/1
f 9/5/1 8/4/1 10/5/1
f 9/5/1 10/5/1 11/6/1
f 11/6/1 10/5/1 12/6/1
f 11/6/1 12/6/1 13/7/1
f 13/7/1 12/6/1 14/7/1
f 13/7/1 14/7/1 15/8/1
f 15/8/1 14/7/1 16/8/1
f 15/8/1 16/8/1 17/9/1
f 17/9/1 16/8/1 18/9/1
f 17/9/1 18/9/1 19/10/1
f 19/10/1 18/9/1 20/10/1
f 19/10/1 20/10/1 21/11/1
f 21/11/1 20/10/1 22/11/1
f 25/2/2 24/1/2 23/1/2
f 24/1/2 25/2/2 26/2/2
f 26/2/2 25/2/2 27/3/2
f 26/2/2 27/3/2 28/3/2
f 28/3/2 27/3/2 29/4/2
f 28/3/2 29/4/2 30/4/2
f 30/4/2 29/4/2 31/5/2
f 30/4/2 31/5/2 32/5/2
f 32/5/2 31/5/2 33/6/2
f 32/5/2 33/6/2 34/6/2
f 34/6/2 33/6/2 35/7/2
f 34/6/2 35/7/2 36/7/2
f 36/7/2 35/7/2 37/8/2
f 36/7/2 37/8/2 38/8/2
f 38/8/2 37/8/2 39/9/2
f 38/8/2 39/9/2 40/9/2
f 40/9/2 39/9/2 41/10/2
f 40/9/2 41/10/2 42/10/2
f 42/10/2 41/10/2 43/11/2
f 42/10/2 43/11/2 44/11/2
f 22/11/3 43/11/3 21/11/3
f 43/11/3 22/11/3 44/11/3
f 42/10/4 22/11/4 20/10/4
f 22/11/4 42/10/4 44/11/4
f 18/9/6 42/10/5 20/10/5
f 42/10/5 18/9/6 40/9/6
f 38/8/4 18/9/6 16/8/4
f 18/9/6 38/8/4 40/9/6
f 14/7/6 38/8/5 16/8/5
f 38/8/5 14/7/6 36/7/6
f 34/6/4 14/7/6 12/6/4
f 14/7/6 34/6/4 36/7/6
f 10/5/6 34/6/5 12/6/5
f 34/6/5 10/5/6 32/5/6
f 30/4/4 10/5/6 8/4/4
f 10/5/6 30/4/4 32/5/6
f 6/3/6 30/4/5 8/4/5
f 30/4/5 6/3/6 28/3/6
f 26/2/4 6/3/6 3/2/4
f 6/3/6 26/2/4 28/3/6
f 1/1/5 26/2/5 3/2/5
f 26/2/5 1/1/5 24/1/5
f 23/1/7 1/1/7 2/1/7
f 1/1/7 23/1/7 24/1/7
f 4/2/8 23/1/8 2/1/8
f 23/1/8 4/2/8 25/2/8
f 27/3/9 4/2/10 5/3/9
f 4/2/10 27/3/9 25/2/10
f 7/4/8 27/3/9 5/3/9
f 27/3/9 7/4/8 29/4/8
f 31/5/9 7/4/10 9/5/9
f 7/4/10 31/5/9 29/4/10
f 11/6/8 31/5/9 9/5/9
f 31/5/9 11/6/8 33/6/8
f 35/7/9 11/6/10 13/7/9
f 11/6/10 35/7/9 33/6/10
f 15/8/8 35/7/9 13/7/9
f 35/7/9 15/8/8 37/8/8
f 39/9/9 15/8/10 17/9/9
f 15/8/10 39/9/9 37/8/10
f 19/10/8 39/9/9 17/9/9
f 39/9/9 19/10/8 41/10/8
f 43/11/10 19/10/10 21/11/10
f 19/10/10 43/11/10 41/10/10
f 47/2/11 46/1/11 45/1/11
f 46/1/11 47/2/11 48/2/11
f 48/2/11 47/2/11 49/3/11
f 49/3/11 47/2/11 50/3/11
f 49/3/11 50/3/11 51/4/11
f 51/4/11 50/3/11 52/4/11
f 51/4/11 52/4/11 53/5/11
f 53/5/11 52/4/11 54/5/11
f 53/5/11 54/5/11 55/6/11
f 55/6/11 54/5/11 56/6/11
f 55/6/11 56/6/11 57/7/11
f 57/7/11 56/6/11 58/7/11
f 57/7/11 58/7/11 59/8/11
f 59/8/11 58/7/11 60/8/11
f 59/8/11 60/8/11 61/9/11
f 61/9/11 60/8/11 62/9/11
f 61/9/11 62/9/11 63/10/11
f 63/10/11 62/9/11 64/10/11
f 63/10/11 64/10/11 65/11/11
f 65/11/11 64/10/11 66/11/11
f 69/2/12 68/1/12 67/1/12
f 68/1/12 69/2/12 70/2/12
f 70/2/12 69/2/12 71/3/12
f 70/2/12 71/3/12 72/3/12
f 72/3/12 71/3/12 73/4/12
f 72/3/12 73/4/12 74/4/12
f 74/4/12 73/4/12 75/5/12
f 74/4/12 75/5/12 76/5/12
f 76/5/12 75/5/12 77/6/12
f 76/5/12 77/6/12 78/6/12
f 78/6/12 77/6/12 79/7/12
f 78/6/12 79/7/12 80/7/12
f 80/7/12 79/7/12 81/8/12
f 80/7/12 81/8/12 82/8/12
f 82/8/12 81/8/12 83/9/12
f 82/8/12 83/9/12 84/9/12
f 84/9/12 83/9/12 85/10/12
f 84/9/12 85/10/12 86/10/12
f 86/10/12 85/10/12 87/11/12
f 86/10/12 87/11/12 88/11/12
f 66/11/3 87/11/3 65/11/3
f 87/11/3 66/11/3 88/11/3
f 86/10/13 66/11/13 64/10/13
f 66/11/13 86/10/13 88/11/13
f 62/9/15 86/10/14 64/10/14
f 86/10/14 62/9/15 84/9/15
f 82/8/13 62/9/15 60/8/13
f 62/9/15 82/8/13 84/9/15
f 58/7/15 82/8/14 60/8/14
f 82/8/14 58/7/15 80/7/15
f 78/6/13 58/7/15 56/6/13
f 58/7/15 78/6/13 80/7/15
f 54/5/15 78/6/14 56/6/14
f 78/6/14 54/5/15 76/5/15
f 74/4/13 54/5/15 52/4/13
f 54/5/15 74/4/13 76/5/15
f 50/3/15 74/4/14 52/4/14
f 74/4/14 50/3/15 72/3/15
f 70/2/13 50/3/15 47/2/13
f 50/3/15 70/2/13 72/3/15
f 45/1/14 70/2/14 47/2/14
f 70/2/14 45/1/14 68/1/14
f 67/1/7 45/1/7 46/1/7
f 45/1/7 67/1/7 68/1/7
f 48/2/16 67/1/16 46/1/16
f 67/1/16 48/2/16 69/2/16
f 71/3/17 48/2/18 49/3/17
f 48/2/18 71/3/17 69/2/18
f 51/4/16 71/3/17 49/3/17
f 71/3/17 51/4/16 73/4/16
f 75/5/17 51/4/18 53/5/17
f 51/4/18 75/5/17 73/4/18
f 55/6/16 75/5/17 53/5/17
f 75/5/17 55/6/16 77/6/16
f 79/7/17 55/6/18 57/7/17
f 55/6/18 79/7/17 77/6/18
f 59/8/16 79/7/17 57/7/17
f 79/7/17 59/8/16 81/8/16
f 83/9/17 59/8/18 61/9/17
f 59/8/18 83/9/17 81/8/18
f 63/10/16 83/9/17 61/9/17
f 83/9/17 63/10/16 85/10/16
f 87/11/18 63/10/18 65/11/18
f 63/10/18 87/11/18 85/10/18

g cabin-corner-logs




usemtl colormap

f 3/2/1 2/1/1 1/1/1
f 2/1/1 3/2/1 4/2/1
f 4/2/1 3/2/1 5/3/1
f 5/3/1 3/2/1 6/3/1
f 5/3/1 6/3/1 7/4/1
f 7/4/1 6/3/1 8/4/1
f 7/4/1 8/4/1 9/5/1
f 9/5/1 8/4/1 10/5/1
f 9/5/1 10/5/1 11/6/1
f 11/6/1 10/5/1 12/6/1
f 11/6/1 12/6/1 13/7/1
f 13/7/1 12/6/1 14/7/1
f 13/7/1 14/7/1 15/8/1
f 15/8/1 14/7/1 16/8/1
f 15/8/1 16/8/1 17/9/1
f 17/9/1 16/8/1 18/9/1
f 17/9/1 18/9/1 19/10/1
f 19/10/1 18/9/1 20/10/1
f 19/10/1 20/10/1 21/11/1
f 21/11/1 20/10/1 22/11/1
f 25/2/2 24/1/2 23/1/2
f 24/1/2 25/2/2 26/2/2
f 26/2/2 25/2/2 27/3/2
f 26/2/2 27/3/2 28/3/2
f 28/3/2 27/3/2 29/4/2
f 28/3/2 29/4/2 30/4/2
f 30/4/2 29/4/2 31/5/2
f 30/4/2 31/5/2 32/5/2
f 32/5/2 31/5/2 33/6/2
f 32/5/2 33/6/2 34/6/2
f 34/6/2 33/6/2 35/7/2
f 34/6/2 35/7/2 36/7/2
f 36/7/2 35/7/2 37/8/2
f 36/7/2 37/8/2 38/8/2
f 38/8/2 37/8/2 39/9/2
f 38/8/2 39/9/2 40/9/2
f 40/9/2 39/9/2 41/10/2
f 40/9/2 41/10/2 42/10/2
f 42/10/2 41/10/2 43/11/2
f 42/10/2 43/11/2 44/11/2
f 22/11/3 43/11/3 21/11/3
f 43/11/3 22/11/3 44/11/3
f 42/10/4 22/11/4 20/10/4
f 22/11/4 42/10/4 44/11/4
f 18/9/6 42/10/5 20/10/5
f 42/10/5 18/9/6 40/9/6
f 38/8/4 18/9/6 16/8/4
f 18/9/6 38/8/4 40/9/6
f 14/7/6 38/8/5 16/8/5
f 38/8/5 14/7/6 36/7/6
f 34/6/4 14/7/6 12/6/4
f 14/7/6 34/6/4 36/7/6
f 10/5/6 34/6/5 12/6/5
f 34/6/5 10/5/6 32/5/6
f 30/4/4 10/5/6 8/4/4
f 10/5/6 30/4/4 32/5/6
f 6/3/6 30/4/5 8/4/5
f 30/4/5 6/3/6 28/3/6
f 26/2/4 6/3/6 3/2/4
f 6/3/6 26/2/4 28/3/6
f 1/1/5 26/2/5 3/2/5
f 26/2/5 1/1/5 24/1/5
f 23/1/7 1/1/7 2/1/7
f 1/1/7 23/1/7 24/1/7
f 4/2/8 23/1/8 2/1/8
f 23/1/8 4/2/8 25/2/8
f 27/3/9 4/2/10 5/3/9
f 4/2/10 27/3/9 25/2/10
f 7/4/8 27/3/9 5/3/9
f 27/3/9 7/4/8 29/4/8
f 31/5/9 7/4/10 9/5/9
f 7/4/10 31/5/9 29/4/10
f 11/6/8 31/5/9 9/5/9
f 31/5/9 11/6/8 33/6/8
f 35/7/9 11/6/10 13/7/9
f 11/6/10 35/7/9 33/6/10
f 15/8/8 35/7/9 13/7/9
f 35/7/9 15/8/8 37/8/8
f 39/9/9 15/8/10 17/9/9
f 15/8/10 39/9/9 37/8/10
f 19/10/8 39/9/9 17/9/9
f 39/9/9 19/10/8 41/10/8
f 43/11/10 19/10/10 21/11/10
f 19/10/10 43/11/10 41/10/10
f 47/2/11 46/1/11 45/1/11
f 46/1/11 47/2/11 48/2/11
f 48/2/11 47/2/11 49/3/11
f 49/3/11 47/2/11 50/3/11
f 49/3/11 50/3/11 51/4/11
f 51/4/11 50/3/11 52/4/11
f 51/4/11 52/4/11 53/5/11
f 53/5/11 52/4/11 54/5/11
f 53/5/11 54/5/11 55/6/11
f 55/6/11 54/5/11 56/6/11
f 55/6/11 56/6/11 57/7/11
f 57/7/11 56/6/11 58/7/11
f 57/7/11 58/7/11 59/8/11
f 59/8/11 58/7/11 60/8/11
f 59/8/11 60/8/11 61/9/11
f 61/9/11 60/8/11 62/9/11
f 61/9/11 62/9/11 63/10/11
f 63/10/11 62/9/11 64/10/11
f 63/10/11 64/10/11 65/11/11
f 65/11/11 64/10/11 66/11/11
f 69/2/12 68/1/12 67/1/12
f 68/1/12 69/2/12 70/2/12
f 70/2/12 69/2/12 71/3/12
f 70/2/12 71/3/12 72/3/12
f 72/3/12 71/3/12 73/4/12
f 72/3/12 73/4/12 74/4/12
f 74/4/12 73/4/12 75/5/12
f 74/4/12 75/5/12 76/5/12
f 76/5/12 75/5/12 77/6/12
f 76/5/12 77/6/12 78/6/12
f 78/6/12 77/6/12 79/7/12
f 78/6/12 79/7/12 80/7/12
f 80/7/12 79/7/12 81/8/12
f 80/7/12 81/8/12 82/8/12
f 82/8/12 81/8/12 83/9/12
f 82/8/12 83/9/12 84/9/12
f 84/9/12 83/9/12 85/10/12
f 84/9/12 85/10/12 86/10/12
f 86/10/12 85/10/12 87/11/12
f 86/10/12 87/11/12 88/11/12
f 66/11/3 87/11/3 65/11/3
f 87/11/3 66/11/3 88/11/3
f 86/10/13 66/11/13 64/10/13
f 66/11/13 86/10/13 88/11/13
f 62/9/15 86/10/14 64/10/14
f 86/10/14 62/9/15 84/9/15
f 82/8/13 62/9/15 60/8/13
f 62/9/15 82/8/13 84/9/15
f 58/7/15 82/8/14 60/8/14
f 82/8/14 58/7/15 80/7/15
f 78/6/13 58/7/15 56/6/13
f 58/7/15 78/6/13 80/7/15
f 54/5/15 78/6/14 56/6/14
f 78/6/14 54/5/15 76/5/15
f 74/4/13 54/5/15 52/4/13
f 54/5/15 74/4/13 76/5/15
f 50/3/15 74/4/14 52/4/14
f 74/4/14 50/3/15 72/3/15
f 70/2/13 50/3/15 47/2/13
f 50/3/15 70/2/13 72/3/15
f 45/1/14 70/2/14 47/2/14
f 70/2/14 45/1/14 68/1/14
f 67/1/7 45/1/7 46/1/7
f 45/1/7 67/1/7 68/1/7
f 48/2/16 67/1/16 46/1/16
f 67/1/16 48/2/16 69/2/16
f 71/3/17 48/2/18 49/3/17
f 48/2/18 71/3/17 69/2/18
f 51/4/16 71/3/17 49/3/17
f 71/3/17 51/4/16 73/4/16
f 75/5/17 51/4/18 53/5/17
f 51/4/18 75/5/17 73/4/18
f 55/6/16 75/5/17 53/5/17
f 75/5/17 55/6/16 77/6/16
f 79/7/17 55/6/18 57/7/17
f 55/6/18 79/7/17 77/6/18
f 59/8/16 79/7/17 57/7/17
f 79/7/17 59/8/16 81/8/16
f 83/9/17 59/8/18 61/9/17
f 59/8/18 83/9/17 81/8/18
f 63/10/16 83/9/17 61/9/17
f 83/9/17 63/10/16 85/10/16
f 87/11/18 63/10/18 65/11/18
f 63/10/18 87/11/18 85/10/18

