# Created by Kenney (www.kenney.nl)

mtllib candy-cane-red.mtl

g candy-cane-red

v -0.05255556 0.287059 0 1 1 1
v -0.1008519 0.3 -0.05 1 1 1
v -0.1008519 0.3 0.05 1 1 1
v -0.1491482 0.312941 0 1 1 1
v 0.1491482 2.819967E-17 0 1 1 1
v 0.09914815 0 -0.05 1 1 1
v 0.09914815 0 0.05 1 1 1
v 0.04914814 0 0 1 1 1
v -0.04262562 0.3241181 0 1 1 1
v -0.08745439 0.35 -0.05 1 1 1
v -0.08745439 0.35 0.05 1 1 1
v -0.1322832 0.3758819 0 1 1 1
v 0.04092191 0.3241181 0 1 1 1
v 0.02326624 0.3417737 0 1 1 1
v 0.08575068 0.35 0.05 1 1 1
v 0.08575068 0.35 -0.05 1 1 1
v 0.04914814 0.3866026 0.05 1 1 1
v 0.1305795 0.3758819 0 1 1 1
v 0.04914814 0.3866026 -0.05 1 1 1
v -0.000851854 0.3482362 0 1 1 1
v -0.0008518536 0.4 0.05 1 1 1
v -0.0008518536 0.4 -0.05 1 1 1
v 0.07503005 0.4314313 0 1 1 1
v -0.0008518532 0.4517638 0 1 1 1
v 0.09914815 0.05 0.05 1 1 1
v 0.04914814 0.05 0 1 1 1
v 0.1491482 0.05 0 1 1 1
v 0.09914815 0.05 -0.05 1 1 1
v 0.1491482 0.15 0 1 1 1
v 0.1491482 0.25 0 1 1 1
v 0.09914815 0.15 -0.05 1 1 1
v 0.09914815 0.25 0.05 1 1 1
v 0.09914815 0.25 -0.05 1 1 1
v 0.09914815 0.15 0.05 1 1 1
v 0.04914814 0.15 0 1 1 1
v 0.04914814 0.25 0 1 1 1
v -0.05085186 0.3866026 -0.05 1 1 1
v -0.07673375 0.4314313 0 1 1 1
v -0.02496995 0.3417737 0 1 1 1
v -0.05085186 0.3866026 0.05 1 1 1
v 0.1491482 0.3065826 0 1 1 1
v 0.09914815 0.3 0.05 1 1 1
v 0.09914815 0.3 -0.05 1 1 1
v 0.04914814 0.2934174 0 1 1 1

vn -0.258819 -0.9659258 0
vn 0 -1 0
vn 0.9659258 -0.258819 0
vn 0.8660254 -0.5 0
vn 0 0 -1
vn 0 0 1
vn -0.09906362 0.05719441 -0.9934361
vn -0.09906362 0.05719441 0.9934361
vn -0.9659258 0.258819 0
vn -0.8660254 0.5 0
vn -0.8660254 -0.5 0
vn -0.5 -0.8660254 0
vn 0.09906362 0.05719441 0.9934361
vn 0.09906362 0.05719441 -0.9934361
vn 0.05719441 0.09906362 0.9934361
vn 0.8660254 0.5 0
vn 0.05719441 0.09906362 -0.9934361
vn 0 0.1143888 0.9934361
vn 0 0.1143888 -0.9934361
vn 0.5 0.8660254 0
vn 0 1 0
vn -1 0 0
vn 1 0 0
vn -0.05719441 0.09906362 -0.9934361
vn -0.5 0.8660254 0
vn 0.5 -0.8660254 0
vn -0.05719441 0.09906362 0.9934361
vn 0.9914449 0.1305262 0
vn 0.0579879 0.007634252 0.9982881
vn 0.0579879 0.007634252 -0.9982881
vn -0.9914449 -0.1305262 0

vt 0.09375 0.4020837
vt 0.09375 0.4078128
vt 0.09375 0.4135419
vt 0.09375 0.275
vt 0.09375 0.4184901
vt 0.09375 0.4299482
vt 0.09375 0.4414064
vt 0.09375 0.4263064
vt 0.09375 0.4461525
vt 0.09375 0.4291673
vt 0.09375 0.4520837
vt 0.09375 0.4659986
vt 0.09375 0.475
vt 0.09375 0.2971355
vt 0.09375 0.3414064
vt 0.09375 0.3856773
vt 0.46875 0.1799482
vt 0.46875 0.1961525
vt 0.46875 0.1914064
vt 0.46875 0.2159986
vt 0.46875 0.1684901
vt 0.46875 0.1763064
vt 0.46875 0.1791673
vt 0.46875 0.2020837
vt 0.46875 0.225
vt 0.46875 0.160727
vt 0.46875 0.1356773
vt 0.46875 0.1578128
vt 0.46875 0.1548986
vt 0.46875 0.04713546
vt 0.46875 0.09140638

usemtl colormap

f 3/2/1 2/2/1 1/1/1
f 2/2/1 3/2/1 4/3/1
f 7/4/2 6/4/2 5/4/2
f 6/4/2 7/4/2 8/4/2
f 2/2/5 9/5/4 1/1/3
f 9/5/4 3/2/6 1/1/3
f 9/5/4 2/2/5 10/6/7
f 3/2/6 9/5/4 11/6/8
f 4/3/9 10/6/7 2/2/5
f 11/6/8 4/3/9 3/2/6
f 10/6/7 4/3/9 12/7/10
f 4/3/9 11/6/8 12/7/10
f 15/6/13 14/8/12 13/5/11
f 14/8/12 16/6/14 13/5/11
f 14/8/12 15/6/13 17/9/15
f 18/7/16 17/9/15 15/6/13
f 19/9/17 18/7/16 16/6/14
f 16/6/14 14/8/12 19/9/17
f 17/9/15 20/10/2 14/8/12
f 20/10/2 19/9/17 14/8/12
f 20/10/2 17/9/15 21/11/18
f 19/9/17 20/10/2 22/11/19
f 17/9/15 18/7/16 23/12/20
f 23/12/20 21/11/18 17/9/15
f 18/7/16 19/9/17 23/12/20
f 22/11/19 23/12/20 19/9/17
f 21/11/18 23/12/20 24/13/21
f 23/12/20 22/11/19 24/13/21
f 26/14/22 7/4/6 25/14/6
f 5/4/23 25/14/6 7/4/6
f 7/4/6 26/14/22 8/4/22
f 25/14/6 5/4/23 27/14/23
f 28/14/5 8/4/22 26/14/22
f 6/4/5 27/14/23 5/4/23
f 8/4/22 28/14/5 6/4/5
f 27/14/23 6/4/5 28/14/5
f 31/15/5 30/16/23 29/15/23
f 32/16/6 29/15/23 30/16/23
f 30/16/23 31/15/5 33/16/5
f 29/15/23 32/16/6 34/15/6
f 35/15/22 33/16/5 31/15/5
f 36/16/22 34/15/6 32/16/6
f 33/16/5 35/15/22 36/16/22
f 34/15/6 36/16/22 35/15/22
f 12/19/10 37/18/24 10/17/7
f 37/18/24 12/19/10 38/20/25
f 39/22/26 11/17/8 9/21/4
f 11/17/8 39/22/26 40/18/27
f 10/17/7 39/22/26 9/21/4
f 39/22/26 10/17/7 37/18/24
f 37/18/24 20/23/2 39/22/26
f 20/23/2 37/18/24 22/24/19
f 38/20/25 22/24/19 37/18/24
f 22/24/19 38/20/25 24/25/21
f 40/18/27 12/19/10 11/17/8
f 12/19/10 40/18/27 38/20/25
f 20/23/2 40/18/27 39/22/26
f 40/18/27 20/23/2 21/24/18
f 21/24/18 38/20/25 40/18/27
f 38/20/25 21/24/18 24/25/21
f 42/28/29 30/27/23 41/26/28
f 30/27/23 42/28/29 32/27/6
f 41/26/28 15/17/13 42/28/29
f 15/17/13 41/26/28 18/19/16
f 41/26/28 33/27/5 43/28/30
f 33/27/5 41/26/28 30/27/23
f 16/17/14 41/26/28 43/28/30
f 41/26/28 16/17/14 18/19/16
f 42/28/29 13/21/11 44/29/31
f 13/21/11 42/28/29 15/17/13
f 32/27/6 44/29/31 36/27/22
f 44/29/31 32/27/6 42/28/29
f 36/27/22 43/28/30 33/27/5
f 43/28/30 36/27/22 44/29/31
f 13/21/11 43/28/30 44/29/31
f 43/28/30 13/21/11 16/17/14
f 26/30/22 31/31/5 28/30/5
f 31/31/5 26/30/22 35/31/22
f 29/31/23 28/30/5 31/31/5
f 28/30/5 29/31/23 27/30/23
f 25/30/6 35/31/22 26/30/22
f 35/31/22 25/30/6 34/31/6
f 34/31/6 27/30/23 29/31/23
f 27/30/23 34/31/6 25/30/6

g candy-cane-red




usemtl colormap

f 3/2/1 2/2/1 1/1/1
f 2/2/1 3/2/1 4/3/1
f 7/4/2 6/4/2 5/4/2
f 6/4/2 7/4/2 8/4/2
f 2/2/5 9/5/4 1/1/3
f 9/5/4 3/2/6 1/1/3
f 9/5/4 2/2/5 10/6/7
f 3/2/6 9/5/4 11/6/8
f 4/3/9 10/6/7 2/2/5
f 11/6/8 4/3/9 3/2/6
f 10/6/7 4/3/9 12/7/10
f 4/3/9 11/6/8 12/7/10
f 15/6/13 14/8/12 13/5/11
f 14/8/12 16/6/14 13/5/11
f 14/8/12 15/6/13 17/9/15
f 18/7/16 17/9/15 15/6/13
f 19/9/17 18/7/16 16/6/14
f 16/6/14 14/8/12 19/9/17
f 17/9/15 20/10/2 14/8/12
f 20/10/2 19/9/17 14/8/12
f 20/10/2 17/9/15 21/11/18
f 19/9/17 20/10/2 22/11/19
f 17/9/15 18/7/16 23/12/20
f 23/12/20 21/11/18 17/9/15
f 18/7/16 19/9/17 23/12/20
f 22/11/19 23/12/20 19/9/17
f 21/11/18 23/12/20 24/13/21
f 23/12/20 22/11/19 24/13/21
f 26/14/22 7/4/6 25/14/6
f 5/4/23 25/14/6 7/4/6
f 7/4/6 26/14/22 8/4/22
f 25/14/6 5/4/23 27/14/23
f 28/14/5 8/4/22 26/14/22
f 6/4/5 27/14/23 5/4/23
f 8/4/22 28/14/5 6/4/5
f 27/14/23 6/4/5 28/14/5
f 31/15/5 30/16/23 29/15/23
f 32/16/6 29/15/23 30/16/23
f 30/16/23 31/15/5 33/16/5
f 29/15/23 32/16/6 34/15/6
f 35/15/22 33/16/5 31/15/5
f 36/16/22 34/15/6 32/16/6
f 33/16/5 35/15/22 36/16/22
f 34/15/6 36/16/22 35/15/22
f 12/19/10 37/18/24 10/17/7
f 37/18/24 12/19/10 38/20/25
f 39/22/26 11/17/8 9/21/4
f 11/17/8 39/22/26 40/18/27
f 10/17/7 39/22/26 9/21/4
f 39/22/26 10/17/7 37/18/24
f 37/18/24 20/23/2 39/22/26
f 20/23/2 37/18/24 22/24/19
f 38/20/25 22/24/19 37/18/24
f 22/24/19 38/20/25 24/25/21
f 40/18/27 12/19/10 11/17/8
f 12/19/10 40/18/27 38/20/25
f 20/23/2 40/18/27 39/22/26
f 40/18/27 20/23/2 21/24/18
f 21/24/18 38/20/25 40/18/27
f 38/20/25 21/24/18 24/25/21
f 42/28/29 30/27/23 41/26/28
f 30/27/23 42/28/29 32/27/6
f 41/26/28 15/17/13 42/28/29
f 15/17/13 41/26/28 18/19/16
f 41/26/28 33/27/5 43/28/30
f 33/27/5 41/26/28 30/27/23
f 16/17/14 41/26/28 43/28/30
f 41/26/28 16/17/14 18/19/16
f 42/28/29 13/21/11 44/29/31
f 13/21/11 42/28/29 15/17/13
f 32/27/6 44/29/31 36/27/22
f 44/29/31 32/27/6 42/28/29
f 36/27/22 43/28/30 33/27/5
f 43/28/30 36/27/22 44/29/31
f 13/21/11 43/28/30 44/29/31
f 43/28/30 13/21/11 16/17/14
f 26/30/22 31/31/5 28/30/5
f 31/31/5 26/30/22 35/31/22
f 29/31/23 28/30/5 31/31/5
f 28/30/5 29/31/23 27/30/23
f 25/30/6 35/31/22 26/30/22
f 35/31/22 25/30/6 34/31/6
f 34/31/6 27/30/23 29/31/23
f 27/30/23 34/31/6 25/30/6

