# Created by Kenney (www.kenney.nl)

mtllib floor-stone.mtl

g floor-stone

v -0.5 0 0.5 1 1 1
v -0.5 0 1 1 1 1
v -0.5425 0.075 0.5425 1 1 1
v -0.5425 0.075 0.9575 1 1 1
v -0.9575 0.075 0.5425 1 1 1
v -0.9575 0.075 0.9575 1 1 1
v -1 0 1 1 1 1
v -1 0 0.5 1 1 1
v -1 0 0 1 1 1
v -0.5 0 0 1 1 1
v 0 0 0 1 1 1
v 0 0 0.5 1 1 1
v 0 0 1 1 1 1
v -0.5425 0.0375 0.0425 1 1 1
v -0.5425 0.0375 0.4575 1 1 1
v -0.9575 0.0375 0.0425 1 1 1
v -0.9575 0.0375 0.4575 1 1 1
v -0.0425 0.075 0.0425 1 1 1
v -0.0425 0.075 0.4575 1 1 1
v -0.4575 0.075 0.0425 1 1 1
v -0.4575 0.075 0.4575 1 1 1
v -0.0425 0.0375 0.9575 1 1 1
v -0.4575 0.0375 0.9575 1 1 1
v -0.0425 0.0375 0.5425 1 1 1
v -0.4575 0.0375 0.5425 1 1 1

vn 0.551784 0.6253552 -0.551784
vn 0.551784 0.6253552 0.551784
vn 0.4051047 0.819622 -0.4051047
vn 0.4051047 0.819622 0.4051047
vn -0.4051047 0.819622 -0.4051047
vn -0.4051047 0.819622 0.4051047
vn -0.551784 0.6253552 0.551784
vn -0.551784 0.6253552 -0.551784
vn 0 -1 0
vn 0.3742988 0.8484108 -0.3742988
vn 0.3742988 0.8484108 0.3742988
vn 0.2757812 0.9208091 -0.2757812
vn 0.2757812 0.9208091 0.2757812
vn -0.2757812 0.9208091 -0.2757812
vn -0.2757812 0.9208091 0.2757812
vn -0.3742988 0.8484108 -0.3742988
vn -0.3742988 0.8484108 0.3742988

vt 0.71875 0.025
vt 0.71875 0.225
vt 0.71875 0.125

usemtl colormap

f 3/2/3 2/1/2 1/1/1
f 2/1/2 3/2/3 4/2/4
f 5/2/5 4/2/4 3/2/3
f 4/2/4 5/2/5 6/2/6
f 4/2/4 7/1/7 2/1/2
f 7/1/7 4/2/4 6/2/6
f 7/1/7 5/2/5 8/1/8
f 5/2/5 7/1/7 6/2/6
f 5/2/5 1/1/1 8/1/8
f 1/1/1 5/2/5 3/2/3
f 10/1/9 8/1/9 9/1/9
f 8/1/9 10/1/9 1/1/9
f 1/1/9 7/1/9 8/1/9
f 11/1/9 1/1/9 10/1/9
f 7/1/9 1/1/9 2/1/9
f 1/1/9 11/1/9 12/1/9
f 12/1/9 2/1/9 1/1/9
f 2/1/9 12/1/9 13/1/9
f 14/3/12 1/1/11 10/1/10
f 1/1/11 14/3/12 15/3/13
f 16/3/14 15/3/13 14/3/12
f 15/3/13 16/3/14 17/3/15
f 9/1/16 14/3/12 10/1/10
f 14/3/12 9/1/16 16/3/14
f 15/3/13 8/1/17 1/1/11
f 8/1/17 15/3/13 17/3/15
f 9/1/16 17/3/15 16/3/14
f 17/3/15 9/1/16 8/1/17
f 20/2/5 19/2/4 18/2/3
f 19/2/4 20/2/5 21/2/6
f 20/2/5 11/1/1 10/1/8
f 11/1/1 20/2/5 18/2/3
f 19/2/4 1/1/7 12/1/2
f 1/1/7 19/2/4 21/2/6
f 18/2/3 12/1/2 11/1/1
f 12/1/2 18/2/3 19/2/4
f 1/1/7 20/2/5 10/1/8
f 20/2/5 1/1/7 21/2/6
f 22/3/13 2/1/17 13/1/11
f 2/1/17 22/3/13 23/3/15
f 1/1/16 24/3/12 12/1/10
f 24/3/12 1/1/16 25/3/14
f 1/1/16 23/3/15 25/3/14
f 23/3/15 1/1/16 2/1/17
f 24/3/12 13/1/11 12/1/10
f 13/1/11 24/3/12 22/3/13
f 25/3/14 22/3/13 24/3/12
f 22/3/13 25/3/14 23/3/15

g floor-stone




usemtl colormap

f 3/2/3 2/1/2 1/1/1
f 2/1/2 3/2/3 4/2/4
f 5/2/5 4/2/4 3/2/3
f 4/2/4 5/2/5 6/2/6
f 4/2/4 7/1/7 2/1/2
f 7/1/7 4/2/4 6/2/6
f 7/1/7 5/2/5 8/1/8
f 5/2/5 7/1/7 6/2/6
f 5/2/5 1/1/1 8/1/8
f 1/1/1 5/2/5 3/2/3
f 10/1/9 8/1/9 9/1/9
f 8/1/9 10/1/9 1/1/9
f 1/1/9 7/1/9 8/1/9
f 11/1/9 1/1/9 10/1/9
f 7/1/9 1/1/9 2/1/9
f 1/1/9 11/1/9 12/1/9
f 12/1/9 2/1/9 1/1/9
f 2/1/9 12/1/9 13/1/9
f 14/3/12 1/1/11 10/1/10
f 1/1/11 14/3/12 15/3/13
f 16/3/14 15/3/13 14/3/12
f 15/3/13 16/3/14 17/3/15
f 9/1/16 14/3/12 10/1/10
f 14/3/12 9/1/16 16/3/14
f 15/3/13 8/1/17 1/1/11
f 8/1/17 15/3/13 17/3/15
f 9/1/16 17/3/15 16/3/14
f 17/3/15 9/1/16 8/1/17
f 20/2/5 19/2/4 18/2/3
f 19/2/4 20/2/5 21/2/6
f 20/2/5 11/1/1 10/1/8
f 11/1/1 20/2/5 18/2/3
f 19/2/4 1/1/7 12/1/2
f 1/1/7 19/2/4 21/2/6
f 18/2/3 12/1/2 11/1/1
f 12/1/2 18/2/3 19/2/4
f 1/1/7 20/2/5 10/1/8
f 20/2/5 1/1/7 21/2/6
f 22/3/13 2/1/17 13/1/11
f 2/1/17 22/3/13 23/3/15
f 1/1/16 24/3/12 12/1/10
f 24/3/12 1/1/16 25/3/14
f 1/1/16 23/3/15 25/3/14
f 23/3/15 1/1/16 2/1/17
f 24/3/12 13/1/11 12/1/10
f 13/1/11 24/3/12 22/3/13
f 25/3/14 22/3/13 24/3/12
f 22/3/13 25/3/14 23/3/15

