# Created by Kenney (www.kenney.nl)

mtllib hanukkah-dreidel.mtl

g hanukkah-dreidel

v -0.04655999 0 -0.02328 1 1 1
v -0.02328 0 -0.04655999 1 1 1
v -0.08027586 0.06662896 -0.08027586 1 1 1
v -0.02328 0 0.04655999 1 1 1
v -0.04655999 0 0.02328 1 1 1
v -0.08027586 0.06662896 0.08027586 1 1 1
v 0.08027586 0.06662896 0.08027586 1 1 1
v 0.04655999 0 0.02328 1 1 1
v 0.02328 0 0.04655999 1 1 1
v 0.04655999 0 -0.02328 1 1 1
v 0.08027586 0.06662896 -0.08027586 1 1 1
v 0.02328 0 -0.04655999 1 1 1
v 0.08027586 0.1998869 -0.08027586 1 1 1
v 0.08027586 0.1998869 0.08027586 1 1 1
v -0.08027586 0.1998869 -0.08027586 1 1 1
v -0.08027586 0.1998869 0.08027586 1 1 1
v 0.02387466 0.1998869 -0.02387466 1 1 1
v 0.02387466 0.1998869 0.02387466 1 1 1
v -0.02387466 0.1998869 -0.02387466 1 1 1
v -0.02387466 0.1998869 0.02387466 1 1 1
v 0.02984332 0.3604386 -0.02984332 1 1 1
v 0.02984332 0.3604386 0.02984332 1 1 1
v -0.02984332 0.3604386 -0.02984332 1 1 1
v -0.02984332 0.3604386 0.02984332 1 1 1

vn -0.5094134 -0.6935387 -0.5094134
vn -0.5094134 -0.6935387 0.5094134
vn 0.5094134 -0.6935387 0.5094134
vn 0.5094134 -0.6935387 -0.5094134
vn 1 0 0
vn 0.9852739 -0.1709833 0
vn 0 -0.1709833 -0.9852739
vn 0 0 -1
vn 0 -0.1709833 0.9852739
vn 0 0 1
vn 0 -1 0
vn -0.9852739 -0.1709833 0
vn -1 0 0
vn 0 -0.4515085 -0.8922668
vn 0.8922668 -0.4515085 0
vn -0.8922668 -0.4515085 0
vn 0 -0.4515085 0.8922668
vn 0 1 0
vn 0.7061315 -0.05250224 -0.7061315
vn 0.7061315 -0.05250224 0.7061315
vn -0.7061315 -0.05250224 0.7061315
vn -0.7061315 -0.05250224 -0.7061315

vt 0.46875 0.275
vt 0.46875 0.3416667
vt 0.46875 0.475

usemtl colormap

f 3/2/1 2/1/1 1/1/1
f 6/2/2 5/1/2 4/1/2
f 9/1/3 8/1/3 7/2/3
f 12/1/4 11/2/4 10/1/4
f 14/3/5 11/2/6 13/3/5
f 11/2/6 14/3/5 7/2/6
f 15/3/8 11/2/7 3/2/7
f 11/2/7 15/3/8 13/3/8
f 14/3/10 6/2/9 7/2/9
f 6/2/9 14/3/10 16/3/10
f 9/1/11 10/1/11 8/1/11
f 10/1/11 9/1/11 12/1/11
f 12/1/11 9/1/11 4/1/11
f 12/1/11 4/1/11 2/1/11
f 2/1/11 4/1/11 5/1/11
f 2/1/11 5/1/11 1/1/11
f 6/2/12 15/3/13 3/2/12
f 15/3/13 6/2/12 16/3/13
f 3/2/7 12/1/14 2/1/14
f 12/1/14 3/2/7 11/2/7
f 7/2/6 10/1/15 11/2/6
f 10/1/15 7/2/6 8/1/15
f 1/1/16 6/2/12 3/2/12
f 6/2/12 1/1/16 5/1/16
f 7/2/9 4/1/17 9/1/17
f 4/1/17 7/2/9 6/2/9
f 13/3/18 17/3/18 14/3/18
f 17/3/18 13/3/18 15/3/18
f 18/3/18 14/3/18 17/3/18
f 17/3/18 15/3/18 19/3/18
f 14/3/18 18/3/18 16/3/18
f 19/3/18 15/3/18 20/3/18
f 16/3/18 18/3/18 20/3/18
f 16/3/18 20/3/18 15/3/18
f 23/3/18 22/3/18 21/3/18
f 22/3/18 23/3/18 24/3/18
f 22/3/20 17/1/19 21/3/19
f 17/1/19 22/3/20 18/1/20
f 22/3/20 20/1/21 18/1/20
f 20/1/21 22/3/20 24/3/21
f 23/3/22 17/1/19 19/1/22
f 17/1/19 23/3/22 21/3/19
f 19/1/22 24/3/21 23/3/22
f 24/3/21 19/1/22 20/1/21

g hanukkah-dreidel




usemtl colormap

f 3/2/1 2/1/1 1/1/1
f 6/2/2 5/1/2 4/1/2
f 9/1/3 8/1/3 7/2/3
f 12/1/4 11/2/4 10/1/4
f 14/3/5 11/2/6 13/3/5
f 11/2/6 14/3/5 7/2/6
f 15/3/8 11/2/7 3/2/7
f 11/2/7 15/3/8 13/3/8
f 14/3/10 6/2/9 7/2/9
f 6/2/9 14/3/10 16/3/10
f 9/1/11 10/1/11 8/1/11
f 10/1/11 9/1/11 12/1/11
f 12/1/11 9/1/11 4/1/11
f 12/1/11 4/1/11 2/1/11
f 2/1/11 4/1/11 5/1/11
f 2/1/11 5/1/11 1/1/11
f 6/2/12 15/3/13 3/2/12
f 15/3/13 6/2/12 16/3/13
f 3/2/7 12/1/14 2/1/14
f 12/1/14 3/2/7 11/2/7
f 7/2/6 10/1/15 11/2/6
f 10/1/15 7/2/6 8/1/15
f 1/1/16 6/2/12 3/2/12
f 6/2/12 1/1/16 5/1/16
f 7/2/9 4/1/17 9/1/17
f 4/1/17 7/2/9 6/2/9
f 13/3/18 17/3/18 14/3/18
f 17/3/18 13/3/18 15/3/18
f 18/3/18 14/3/18 17/3/18
f 17/3/18 15/3/18 19/3/18
f 14/3/18 18/3/18 16/3/18
f 19/3/18 15/3/18 20/3/18
f 16/3/18 18/3/18 20/3/18
f 16/3/18 20/3/18 15/3/18
f 23/3/18 22/3/18 21/3/18
f 22/3/18 23/3/18 24/3/18
f 22/3/20 17/1/19 21/3/19
f 17/1/19 22/3/20 18/1/20
f 22/3/20 20/1/21 18/1/20
f 20/1/21 22/3/20 24/3/21
f 23/3/22 17/1/19 19/1/22
f 17/1/19 23/3/22 21/3/19
f 19/1/22 24/3/21 23/3/22
f 24/3/21 19/1/22 20/1/21

