# Created by Kenney (www.kenney.nl)

mtllib snowflake-b.mtl

g snowflake-b

v -0.1607051 0.1566987 -0.0375 1 1 1
v -0.1607051 0.1 -0.0375 1 1 1
v -0.1607051 0.1566987 0.05 1 1 1
v -0.1607051 0.1 0.05 1 1 1
v -0.025 0.3216506 -0.0375 1 1 1
v -2.165734E-15 0.2783494 -0.0375 1 1 1
v -0.025 0.3216506 0.05 1 1 1
v -2.165734E-15 0.2783494 0.05 1 1 1
v -0.1253497 0.06464466 -0.0375 1 1 1
v -0.1253497 0.06464466 0.05 1 1 1
v -0.1607051 0.02928932 0.05 1 1 1
v -0.1607051 0.02928932 -0.0375 1 1 1
v -0.1607051 0 -0.0375 1 1 1
v -0.1607051 2.255973E-15 0.05 1 1 1
v -0.03830625 0.1845916 -0.0375 1 1 1
v -0.03830625 0.1845916 0.05 1 1 1
v -0.08660254 0.1716506 -0.0375 1 1 1
v -0.08660254 0.1716506 0.05 1 1 1
v -0.2107051 0.1 -0.0375 1 1 1
v -0.2107051 0.1 0.05 1 1 1
v -0.2460604 0.06464466 -0.0375 1 1 1
v -0.2460604 0.06464466 0.05 1 1 1
v -0.2107051 0.02928932 -0.0375 1 1 1
v -0.2107051 0.02928932 0.05 1 1 1
v -0.2107051 0.1566987 -0.0375 1 1 1
v -0.2107051 0.1566987 0.05 1 1 1
v -0.2598076 0.1283494 0.05 1 1 1
v -0.2598076 0.1283494 -0.0375 1 1 1
v -0.1253497 0.3353553 0.05 1 1 1
v -0.1253497 0.3353553 -0.0375 1 1 1
v -0.1607051 0.3 0.05 1 1 1
v -0.1607051 0.3 -0.0375 1 1 1
v -0.3210449 0.09299403 0.05 1 1 1
v -0.3210449 0.09299403 -0.0375 1 1 1
v -0.3464102 0.07834937 0.05 1 1 1
v -0.3464102 0.07834937 -0.0375 1 1 1
v -0.3714102 0.1216506 -0.0375 1 1 1
v -0.3714102 0.1216506 0.05 1 1 1
v -0.1357051 0.2 -0.0375 1 1 1
v -0.1357051 0.2 0.05 1 1 1
v -0.2727486 0.08005307 -0.0375 1 1 1
v -0.2727486 0.08005307 0.05 1 1 1
v -0.1607051 0.3707107 -0.0375 1 1 1
v -0.1607051 0.3707107 0.05 1 1 1
v -0.3460449 0.1362953 -0.0375 1 1 1
v -0.3460449 0.1362953 0.05 1 1 1
v -0.2848076 0.1716506 -0.0375 1 1 1
v -0.2848076 0.1716506 0.05 1 1 1
v -0.3331039 0.1845916 -0.0375 1 1 1
v -0.3331039 0.1845916 0.05 1 1 1
v -0.2848076 0.2283494 0.05 1 1 1
v -0.2848076 0.2283494 -0.0375 1 1 1
v -0.3331039 0.2154084 0.05 1 1 1
v -0.3331039 0.2154084 -0.0375 1 1 1
v -0.2727486 0.3199469 -0.0375 1 1 1
v -0.2598076 0.2716506 -0.0375 1 1 1
v -0.2727486 0.3199469 0.05 1 1 1
v -0.2598076 0.2716506 0.05 1 1 1
v -0.025 0.07834937 0.05 1 1 1
v -0.025 0.07834937 -0.0375 1 1 1
v -0.0503653 0.09299403 0.05 1 1 1
v -0.0503653 0.09299403 -0.0375 1 1 1
v -0.3464102 0.3216506 -0.0375 1 1 1
v -0.3464102 0.3216506 0.05 1 1 1
v -0.3714102 0.2783494 -0.0375 1 1 1
v -0.3714102 0.2783494 0.05 1 1 1
v -0.0503653 0.307006 -0.0375 1 1 1
v -0.0503653 0.307006 0.05 1 1 1
v -0.1116025 0.1283494 0.05 1 1 1
v -0.1116025 0.1283494 -0.0375 1 1 1
v -0.0253653 0.1362953 -0.0375 1 1 1
v -0.0253653 0.1362953 0.05 1 1 1
v -0.2107051 0 -0.0375 1 1 1
v -0.2107051 2.255973E-15 0.05 1 1 1
v -0.3210449 0.307006 -0.0375 1 1 1
v -0.3210449 0.307006 0.05 1 1 1
v -0.03830625 0.2154084 0.05 1 1 1
v -0.03830625 0.2154084 -0.0375 1 1 1
v -0.08660254 0.2283494 0.05 1 1 1
v -0.08660254 0.2283494 -0.0375 1 1 1
v -0.2107051 0.3707107 -0.0375 1 1 1
v -0.2107051 0.3707107 0.05 1 1 1
v -0.2460604 0.3353553 -0.0375 1 1 1
v -0.2460604 0.3353553 0.05 1 1 1
v -0.09866159 0.08005307 0.05 1 1 1
v -0.09866159 0.08005307 -0.0375 1 1 1
v 0 0.1216506 -0.0375 1 1 1
v 0 0.1216506 0.05 1 1 1
v -0.2357051 0.2 0.05 1 1 1
v -0.2357051 0.2 -0.0375 1 1 1
v -0.2107051 0.3 -0.0375 1 1 1
v -0.2107051 0.3 0.05 1 1 1
v -0.1607051 0.4 -0.0375 1 1 1
v -0.1607051 0.4 0.05 1 1 1
v -0.2107051 0.4 -0.0375 1 1 1
v -0.2107051 0.4 0.05 1 1 1
v -0.09866159 0.3199469 -0.0375 1 1 1
v -0.09866159 0.3199469 0.05 1 1 1
v -0.2107051 0.2433013 -0.0375 1 1 1
v -0.2107051 0.2433013 0.05 1 1 1
v -0.1607051 0.2433013 -0.0375 1 1 1
v -0.1607051 0.2433013 0.05 1 1 1
v -0.1116025 0.2716506 -0.0375 1 1 1
v -0.1116025 0.2716506 0.05 1 1 1
v -0.3460449 0.2637047 0.05 1 1 1
v -0.3460449 0.2637047 -0.0375 1 1 1
v -0.02536529 0.2637047 0.05 1 1 1
v -0.02536529 0.2637047 -0.0375 1 1 1

vn 1 0 0
vn 0.9238795 0.3826834 0
vn 0.8660254 0.5 0
vn 0.9238795 -0.3826834 0
vn 0.5 0.8660254 0
vn 0.1305262 0.9914449 0
vn -0.9238795 0.3826834 0
vn -1 0 0
vn -0.9238795 -0.3826834 0
vn 0.5 -0.8660254 0
vn 0.7933533 -0.6087614 0
vn 0.9238795 -0.3826834 0
vn 0.1305262 -0.9914449 0
vn 0.5000001 -0.8660254 0
vn -0.8660254 -0.5 0
vn 0.9238795 0.3826834 0
vn -0.7933533 0.6087614 0
vn -0.5000001 0.8660254 0
vn -0.1305262 0.9914449 0
vn -0.5 0.8660254 0
vn -0.1305262 -0.9914449 0
vn -0.5 -0.8660254 0
vn 0.7933533 0.6087614 0
vn -0.5 -0.8660254 0
vn -0.1305262 -0.9914449 0
vn -0.8660254 0.5 0
vn -0.1305262 0.9914449 0
vn -0.7933533 -0.6087614 0
vn 0.1305262 0.9914449 0
vn 0.1305262 -0.9914449 0
vn -0.9238795 0.3826834 0
vn 0.8660254 -0.5 0
vn 0 -1 0
vn -0.9238795 -0.3826834 0
vn 0 1 0
vn 0.5 0.8660254 0
vn 0 0 -1
vn 0 0 1

vt 0.21875 0.6033494
vt 0.21875 0.575
vt 0.21875 0.6858253
vt 0.21875 0.6641747
vt 0.21875 0.5573223
vt 0.21875 0.5396447
vt 0.21875 0.525
vt 0.21875 0.6172958
vt 0.21875 0.6108253
vt 0.21875 0.5891747
vt 0.21875 0.6926776
vt 0.21875 0.675
vt 0.21875 0.571497
vt 0.21875 0.5641747
vt 0.21875 0.5858253
vt 0.21875 0.625
vt 0.21875 0.5650265
vt 0.21875 0.7103553
vt 0.21875 0.5931476
vt 0.21875 0.6391747
vt 0.21875 0.6327042
vt 0.21875 0.6849735
vt 0.21875 0.6608253
vt 0.21875 0.678503
vt 0.21875 0.725
vt 0.21875 0.6466506
vt 0.21875 0.6568524
vt 0.09375 0.06417468
vt 0.09375 0.07149702
vt 0.09375 0.08582531
vt 0.09375 0.08917468
vt 0.09375 0.06502653
vt 0.09375 0.09314765
vt 0.09375 0.1033494
vt 0.09375 0.1108253
vt 0.09375 0.1172958
vt 0.09375 0.125
vt 0.09375 0.1391747
vt 0.09375 0.075
vt 0.09375 0.05732233
vt 0.09375 0.03964466
vt 0.09375 0.025
vt 0.09375 0.09314764
vt 0.09375 0.1641747
vt 0.09375 0.178503
vt 0.09375 0.1858253
vt 0.09375 0.1849734
vt 0.09375 0.1608253
vt 0.09375 0.1568523
vt 0.09375 0.1466506
vt 0.09375 0.1327042
vt 0.09375 0.175
vt 0.09375 0.1926776
vt 0.09375 0.2103553
vt 0.09375 0.225

usemtl colormap

f 3/1/1 2/2/2 1/1/1
f 2/2/2 3/1/1 4/2/2
f 7/3/3 6/4/3 5/3/3
f 6/4/3 7/3/3 8/4/3
f 4/2/2 9/5/1 2/2/2
f 9/5/1 4/2/2 10/5/1
f 11/6/4 9/5/1 10/5/1
f 9/5/1 11/6/4 12/6/4
f 11/6/4 13/7/1 12/6/4
f 13/7/1 11/6/4 14/7/1
f 17/9/6 16/8/5 15/8/5
f 16/8/5 17/9/6 18/9/6
f 21/5/8 20/2/7 19/2/7
f 20/2/7 21/5/8 22/5/8
f 24/6/9 21/5/8 23/6/9
f 21/5/8 24/6/9 22/5/8
f 19/2/7 26/1/8 25/1/8
f 26/1/8 19/2/7 20/2/7
f 27/10/11 25/1/10 26/1/10
f 25/1/10 27/10/11 28/10/11
f 31/12/12 30/11/1 29/11/1
f 30/11/1 31/12/12 32/12/12
f 35/14/14 34/13/13 33/13/13
f 34/13/13 35/14/14 36/14/14
f 35/14/15 37/15/15 36/14/15
f 37/15/15 35/14/15 38/15/15
f 39/16/5 18/9/6 17/9/6
f 18/9/6 39/16/5 40/16/5
f 27/10/11 41/17/10 28/10/11
f 41/17/10 27/10/11 42/17/10
f 33/13/13 41/17/10 42/17/10
f 41/17/10 33/13/13 34/13/13
f 44/18/16 30/11/1 43/18/16
f 30/11/1 44/18/16 29/11/1
f 37/15/18 46/19/17 45/19/17
f 46/19/17 37/15/18 38/15/18
f 49/8/20 48/9/19 47/9/19
f 48/9/19 49/8/20 50/8/20
f 53/21/22 52/20/21 51/20/21
f 52/20/21 53/21/22 54/21/22
f 57/22/5 56/23/23 55/22/5
f 56/23/23 57/22/5 58/23/23
f 45/19/17 50/8/20 49/8/20
f 50/8/20 45/19/17 46/19/17
f 61/13/25 60/14/24 59/14/24
f 60/14/24 61/13/25 62/13/25
f 65/4/26 64/3/26 63/3/26
f 64/3/26 65/4/26 66/4/26
f 67/24/27 7/3/18 5/3/18
f 7/3/18 67/24/27 68/24/27
f 3/1/22 70/10/28 69/10/28
f 70/10/28 3/1/22 1/1/22
f 16/8/5 71/19/23 15/8/5
f 71/19/23 16/8/5 72/19/23
f 74/7/8 23/6/9 73/7/8
f 23/6/9 74/7/8 24/6/9
f 75/24/29 57/22/5 55/22/5
f 57/22/5 75/24/29 76/24/29
f 79/20/30 78/21/10 77/21/10
f 78/21/10 79/20/30 80/20/30
f 83/11/8 82/18/31 81/18/31
f 82/18/31 83/11/8 84/11/8
f 85/17/22 62/13/25 61/13/25
f 62/13/25 85/17/22 86/17/22
f 88/15/32 60/14/32 87/15/32
f 60/14/32 88/15/32 59/14/32
f 51/20/21 90/16/22 89/16/22
f 90/16/22 51/20/21 52/20/21
f 74/7/33 13/7/33 14/7/33
f 13/7/33 74/7/33 73/7/33
f 91/12/34 84/11/8 83/11/8
f 84/11/8 91/12/34 92/12/34
f 95/25/35 94/25/35 93/25/35
f 94/25/35 95/25/35 96/25/35
f 97/22/20 68/24/27 67/24/27
f 68/24/27 97/22/20 98/22/20
f 56/23/23 100/26/5 99/26/5
f 100/26/5 56/23/23 58/23/23
f 31/12/12 101/26/1 32/12/12
f 101/26/1 31/12/12 102/26/1
f 71/19/23 88/15/36 87/15/36
f 88/15/36 71/19/23 72/19/23
f 63/3/36 76/24/29 75/24/29
f 76/24/29 63/3/36 64/3/36
f 103/23/17 98/22/20 97/22/20
f 98/22/20 103/23/17 104/23/17
f 100/26/8 91/12/34 99/26/8
f 91/12/34 100/26/8 92/12/34
f 66/4/24 106/27/28 105/27/28
f 106/27/28 66/4/24 65/4/24
f 85/17/22 70/10/28 86/17/22
f 70/10/28 85/17/22 69/10/28
f 81/18/31 96/25/8 95/25/8
f 96/25/8 81/18/31 82/18/31
f 107/27/11 6/4/14 8/4/14
f 6/4/14 107/27/11 108/27/11
f 94/25/1 43/18/16 93/25/1
f 43/18/16 94/25/1 44/18/16
f 101/26/20 104/23/17 103/23/17
f 104/23/17 101/26/20 102/26/20
f 47/9/19 89/16/20 90/16/20
f 89/16/20 47/9/19 48/9/19
f 40/16/10 80/20/30 79/20/30
f 80/20/30 40/16/10 39/16/10
f 107/27/11 78/21/10 108/27/11
f 78/21/10 107/27/11 77/21/10
f 53/21/22 106/27/28 54/21/22
f 106/27/28 53/21/22 105/27/28
f 37/30/37 34/29/37 36/28/37
f 28/31/37 34/29/37 37/30/37
f 34/29/37 28/31/37 41/32/37
f 28/31/37 37/30/37 45/33/37
f 28/31/37 45/33/37 25/34/37
f 25/34/37 45/33/37 47/35/37
f 47/35/37 45/33/37 49/36/37
f 25/34/37 47/35/37 1/34/37
f 17/35/37 1/34/37 47/35/37
f 90/37/37 17/35/37 47/35/37
f 17/35/37 90/37/37 39/37/37
f 39/37/37 90/37/37 52/38/37
f 39/37/37 52/38/37 80/38/37
f 2/39/37 25/34/37 1/34/37
f 2/39/37 19/39/37 25/34/37
f 2/39/37 21/40/37 19/39/37
f 9/40/37 21/40/37 2/39/37
f 12/41/37 21/40/37 9/40/37
f 12/41/37 23/41/37 21/40/37
f 13/42/37 23/41/37 12/41/37
f 23/41/37 13/42/37 73/42/37
f 71/43/37 1/34/37 17/35/37
f 71/43/37 17/35/37 15/36/37
f 71/43/37 70/31/37 1/34/37
f 87/30/37 70/31/37 71/43/37
f 62/29/37 70/31/37 87/30/37
f 87/30/37 60/28/37 62/29/37
f 70/31/37 62/29/37 86/32/37
f 63/46/37 75/45/37 65/44/37
f 55/47/37 65/44/37 75/45/37
f 56/48/37 65/44/37 55/47/37
f 56/48/37 106/49/37 65/44/37
f 99/50/37 106/49/37 56/48/37
f 52/38/37 106/49/37 99/50/37
f 106/49/37 52/38/37 54/51/37
f 52/38/37 99/50/37 80/38/37
f 80/38/37 99/50/37 101/50/37
f 108/49/37 80/38/37 101/50/37
f 80/38/37 108/49/37 78/51/37
f 108/49/37 101/50/37 103/48/37
f 99/50/37 32/52/37 101/50/37
f 32/52/37 99/50/37 91/52/37
f 108/49/37 103/48/37 6/44/37
f 6/44/37 103/48/37 97/47/37
f 6/44/37 97/47/37 67/45/37
f 5/46/37 6/44/37 67/45/37
f 32/52/37 91/52/37 83/53/37
f 32/52/37 83/53/37 30/53/37
f 30/53/37 83/53/37 43/54/37
f 43/54/37 83/53/37 81/54/37
f 43/54/37 81/54/37 95/55/37
f 43/54/37 95/55/37 93/55/37
f 88/30/38 61/29/38 59/28/38
f 69/31/38 61/29/38 88/30/38
f 61/29/38 69/31/38 85/32/38
f 69/31/38 88/30/38 72/43/38
f 69/31/38 72/43/38 3/34/38
f 3/34/38 72/43/38 18/35/38
f 18/35/38 72/43/38 16/36/38
f 3/34/38 18/35/38 48/35/38
f 18/35/38 89/37/38 48/35/38
f 89/37/38 18/35/38 40/37/38
f 89/37/38 40/37/38 79/38/38
f 89/37/38 79/38/38 51/38/38
f 48/35/38 26/34/38 3/34/38
f 20/39/38 3/34/38 26/34/38
f 20/39/38 4/39/38 3/34/38
f 22/40/38 4/39/38 20/39/38
f 22/40/38 10/40/38 4/39/38
f 24/41/38 10/40/38 22/40/38
f 24/41/38 11/41/38 10/40/38
f 74/42/38 11/41/38 24/41/38
f 11/41/38 74/42/38 14/42/38
f 46/33/38 26/34/38 48/35/38
f 46/33/38 48/35/38 50/36/38
f 46/33/38 27/31/38 26/34/38
f 38/30/38 27/31/38 46/33/38
f 33/29/38 27/31/38 38/30/38
f 38/30/38 35/28/38 33/29/38
f 27/31/38 33/29/38 42/32/38
f 7/46/38 68/45/38 8/44/38
f 98/47/38 8/44/38 68/45/38
f 104/48/38 8/44/38 98/47/38
f 104/48/38 107/49/38 8/44/38
f 102/50/38 107/49/38 104/48/38
f 79/38/38 107/49/38 102/50/38
f 107/49/38 79/38/38 77/51/38
f 79/38/38 102/50/38 51/38/38
f 100/50/38 51/38/38 102/50/38
f 31/52/38 100/50/38 102/50/38
f 100/50/38 31/52/38 92/52/38
f 92/52/38 31/52/38 29/53/38
f 92/52/38 29/53/38 84/53/38
f 84/53/38 29/53/38 44/54/38
f 84/53/38 44/54/38 82/54/38
f 82/54/38 44/54/38 94/55/38
f 82/54/38 94/55/38 96/55/38
f 105/49/38 51/38/38 100/50/38
f 51/38/38 105/49/38 53/51/38
f 105/49/38 100/50/38 58/48/38
f 105/49/38 58/48/38 66/44/38
f 66/44/38 58/48/38 57/47/38
f 66/44/38 57/47/38 76/45/38
f 64/46/38 66/44/38 76/45/38

g snowflake-b




usemtl colormap

f 3/1/1 2/2/2 1/1/1
f 2/2/2 3/1/1 4/2/2
f 7/3/3 6/4/3 5/3/3
f 6/4/3 7/3/3 8/4/3
f 4/2/2 9/5/1 2/2/2
f 9/5/1 4/2/2 10/5/1
f 11/6/4 9/5/1 10/5/1
f 9/5/1 11/6/4 12/6/4
f 11/6/4 13/7/1 12/6/4
f 13/7/1 11/6/4 14/7/1
f 17/9/6 16/8/5 15/8/5
f 16/8/5 17/9/6 18/9/6
f 21/5/8 20/2/7 19/2/7
f 20/2/7 21/5/8 22/5/8
f 24/6/9 21/5/8 23/6/9
f 21/5/8 24/6/9 22/5/8
f 19/2/7 26/1/8 25/1/8
f 26/1/8 19/2/7 20/2/7
f 27/10/11 25/1/10 26/1/10
f 25/1/10 27/10/11 28/10/11
f 31/12/12 30/11/1 29/11/1
f 30/11/1 31/12/12 32/12/12
f 35/14/14 34/13/13 33/13/13
f 34/13/13 35/14/14 36/14/14
f 35/14/15 37/15/15 36/14/15
f 37/15/15 35/14/15 38/15/15
f 39/16/5 18/9/6 17/9/6
f 18/9/6 39/16/5 40/16/5
f 27/10/11 41/17/10 28/10/11
f 41/17/10 27/10/11 42/17/10
f 33/13/13 41/17/10 42/17/10
f 41/17/10 33/13/13 34/13/13
f 44/18/16 30/11/1 43/18/16
f 30/11/1 44/18/16 29/11/1
f 37/15/18 46/19/17 45/19/17
f 46/19/17 37/15/18 38/15/18
f 49/8/20 48/9/19 47/9/19
f 48/9/19 49/8/20 50/8/20
f 53/21/22 52/20/21 51/20/21
f 52/20/21 53/21/22 54/21/22
f 57/22/5 56/23/23 55/22/5
f 56/23/23 57/22/5 58/23/23
f 45/19/17 50/8/20 49/8/20
f 50/8/20 45/19/17 46/19/17
f 61/13/25 60/14/24 59/14/24
f 60/14/24 61/13/25 62/13/25
f 65/4/26 64/3/26 63/3/26
f 64/3/26 65/4/26 66/4/26
f 67/24/27 7/3/18 5/3/18
f 7/3/18 67/24/27 68/24/27
f 3/1/22 70/10/28 69/10/28
f 70/10/28 3/1/22 1/1/22
f 16/8/5 71/19/23 15/8/5
f 71/19/23 16/8/5 72/19/23
f 74/7/8 23/6/9 73/7/8
f 23/6/9 74/7/8 24/6/9
f 75/24/29 57/22/5 55/22/5
f 57/22/5 75/24/29 76/24/29
f 79/20/30 78/21/10 77/21/10
f 78/21/10 79/20/30 80/20/30
f 83/11/8 82/18/31 81/18/31
f 82/18/31 83/11/8 84/11/8
f 85/17/22 62/13/25 61/13/25
f 62/13/25 85/17/22 86/17/22
f 88/15/32 60/14/32 87/15/32
f 60/14/32 88/15/32 59/14/32
f 51/20/21 90/16/22 89/16/22
f 90/16/22 51/20/21 52/20/21
f 74/7/33 13/7/33 14/7/33
f 13/7/33 74/7/33 73/7/33
f 91/12/34 84/11/8 83/11/8
f 84/11/8 91/12/34 92/12/34
f 95/25/35 94/25/35 93/25/35
f 94/25/35 95/25/35 96/25/35
f 97/22/20 68/24/27 67/24/27
f 68/24/27 97/22/20 98/22/20
f 56/23/23 100/26/5 99/26/5
f 100/26/5 56/23/23 58/23/23
f 31/12/12 101/26/1 32/12/12
f 101/26/1 31/12/12 102/26/1
f 71/19/23 88/15/36 87/15/36
f 88/15/36 71/19/23 72/19/23
f 63/3/36 76/24/29 75/24/29
f 76/24/29 63/3/36 64/3/36
f 103/23/17 98/22/20 97/22/20
f 98/22/20 103/23/17 104/23/17
f 100/26/8 91/12/34 99/26/8
f 91/12/34 100/26/8 92/12/34
f 66/4/24 106/27/28 105/27/28
f 106/27/28 66/4/24 65/4/24
f 85/17/22 70/10/28 86/17/22
f 70/10/28 85/17/22 69/10/28
f 81/18/31 96/25/8 95/25/8
f 96/25/8 81/18/31 82/18/31
f 107/27/11 6/4/14 8/4/14
f 6/4/14 107/27/11 108/27/11
f 94/25/1 43/18/16 93/25/1
f 43/18/16 94/25/1 44/18/16
f 101/26/20 104/23/17 103/23/17
f 104/23/17 101/26/20 102/26/20
f 47/9/19 89/16/20 90/16/20
f 89/16/20 47/9/19 48/9/19
f 40/16/10 80/20/30 79/20/30
f 80/20/30 40/16/10 39/16/10
f 107/27/11 78/21/10 108/27/11
f 78/21/10 107/27/11 77/21/10
f 53/21/22 106/27/28 54/21/22
f 106/27/28 53/21/22 105/27/28
f 37/30/37 34/29/37 36/28/37
f 28/31/37 34/29/37 37/30/37
f 34/29/37 28/31/37 41/32/37
f 28/31/37 37/30/37 45/33/37
f 28/31/37 45/33/37 25/34/37
f 25/34/37 45/33/37 47/35/37
f 47/35/37 45/33/37 49/36/37
f 25/34/37 47/35/37 1/34/37
f 17/35/37 1/34/37 47/35/37
f 90/37/37 17/35/37 47/35/37
f 17/35/37 90/37/37 39/37/37
f 39/37/37 90/37/37 52/38/37
f 39/37/37 52/38/37 80/38/37
f 2/39/37 25/34/37 1/34/37
f 2/39/37 19/39/37 25/34/37
f 2/39/37 21/40/37 19/39/37
f 9/40/37 21/40/37 2/39/37
f 12/41/37 21/40/37 9/40/37
f 12/41/37 23/41/37 21/40/37
f 13/42/37 23/41/37 12/41/37
f 23/41/37 13/42/37 73/42/37
f 71/43/37 1/34/37 17/35/37
f 71/43/37 17/35/37 15/36/37
f 71/43/37 70/31/37 1/34/37
f 87/30/37 70/31/37 71/43/37
f 62/29/37 70/31/37 87/30/37
f 87/30/37 60/28/37 62/29/37
f 70/31/37 62/29/37 86/32/37
f 63/46/37 75/45/37 65/44/37
f 55/47/37 65/44/37 75/45/37
f 56/48/37 65/44/37 55/47/37
f 56/48/37 106/49/37 65/44/37
f 99/50/37 106/49/37 56/48/37
f 52/38/37 106/49/37 99/50/37
f 106/49/37 52/38/37 54/51/37
f 52/38/37 99/50/37 80/38/37
f 80/38/37 99/50/37 101/50/37
f 108/49/37 80/38/37 101/50/37
f 80/38/37 108/49/37 78/51/37
f 108/49/37 101/50/37 103/48/37
f 99/50/37 32/52/37 101/50/37
f 32/52/37 99/50/37 91/52/37
f 108/49/37 103/48/37 6/44/37
f 6/44/37 103/48/37 97/47/37
f 6/44/37 97/47/37 67/45/37
f 5/46/37 6/44/37 67/45/37
f 32/52/37 91/52/37 83/53/37
f 32/52/37 83/53/37 30/53/37
f 30/53/37 83/53/37 43/54/37
f 43/54/37 83/53/37 81/54/37
f 43/54/37 81/54/37 95/55/37
f 43/54/37 95/55/37 93/55/37
f 88/30/38 61/29/38 59/28/38
f 69/31/38 61/29/38 88/30/38
f 61/29/38 69/31/38 85/32/38
f 69/31/38 88/30/38 72/43/38
f 69/31/38 72/43/38 3/34/38
f 3/34/38 72/43/38 18/35/38
f 18/35/38 72/43/38 16/36/38
f 3/34/38 18/35/38 48/35/38
f 18/35/38 89/37/38 48/35/38
f 89/37/38 18/35/38 40/37/38
f 89/37/38 40/37/38 79/38/38
f 89/37/38 79/38/38 51/38/38
f 48/35/38 26/34/38 3/34/38
f 20/39/38 3/34/38 26/34/38
f 20/39/38 4/39/38 3/34/38
f 22/40/38 4/39/38 20/39/38
f 22/40/38 10/40/38 4/39/38
f 24/41/38 10/40/38 22/40/38
f 24/41/38 11/41/38 10/40/38
f 74/42/38 11/41/38 24/41/38
f 11/41/38 74/42/38 14/42/38
f 46/33/38 26/34/38 48/35/38
f 46/33/38 48/35/38 50/36/38
f 46/33/38 27/31/38 26/34/38
f 38/30/38 27/31/38 46/33/38
f 33/29/38 27/31/38 38/30/38
f 38/30/38 35/28/38 33/29/38
f 27/31/38 33/29/38 42/32/38
f 7/46/38 68/45/38 8/44/38
f 98/47/38 8/44/38 68/45/38
f 104/48/38 8/44/38 98/47/38
f 104/48/38 107/49/38 8/44/38
f 102/50/38 107/49/38 104/48/38
f 79/38/38 107/49/38 102/50/38
f 107/49/38 79/38/38 77/51/38
f 79/38/38 102/50/38 51/38/38
f 100/50/38 51/38/38 102/50/38
f 31/52/38 100/50/38 102/50/38
f 100/50/38 31/52/38 92/52/38
f 92/52/38 31/52/38 29/53/38
f 92/52/38 29/53/38 84/53/38
f 84/53/38 29/53/38 44/54/38
f 84/53/38 44/54/38 82/54/38
f 82/54/38 44/54/38 94/55/38
f 82/54/38 94/55/38 96/55/38
f 105/49/38 51/38/38 100/50/38
f 51/38/38 105/49/38 53/51/38
f 105/49/38 100/50/38 58/48/38
f 105/49/38 58/48/38 66/44/38
f 66/44/38 58/48/38 57/47/38
f 66/44/38 57/47/38 76/45/38
f 64/46/38 66/44/38 76/45/38

