# Created by Kenney (www.kenney.nl)

mtllib snowflake-c.mtl

g snowflake-c

v -0.09452722 0.2887259 -0.0375 1 1 1
v -0.09452722 0.2887259 0.05 1 1 1
v -0.1424038 0.2466506 -0.0375 1 1 1
v -0.1424038 0.2466506 0.05 1 1 1
v -0.03415063 0.3091506 -0.0375 1 1 1
v -0.03415063 0.3091506 0.05 1 1 1
v -0.2893829 0.176226 -0.0375 1 1 1
v -0.2893829 0.176226 0.05 1 1 1
v -0.3372595 0.1341506 -0.0375 1 1 1
v -0.3372595 0.1341506 0.05 1 1 1
v -0.009150635 0.2658494 0.05 1 1 1
v -0.009150635 0.2658494 -0.0375 1 1 1
v -0.05702722 0.2237741 0.05 1 1 1
v -0.05702722 0.2237741 -0.0375 1 1 1
v -0.1174038 0.2033494 -0.0375 1 1 1
v -0.1174038 0.1966506 -0.0375 1 1 1
v -0.1174038 0.2033494 0.05 1 1 1
v -0.1174038 0.1966506 0.05 1 1 1
v -0.2290064 0.1966506 -0.0375 1 1 1
v -0.2290064 0.2033494 -0.0375 1 1 1
v -0.2290064 0.1966506 0.05 1 1 1
v -0.2290064 0.2033494 0.05 1 1 1
v -0.1482051 0.25 -0.0375 1 1 1
v -0.1482051 0.25 0.05 1 1 1
v -0.2893829 0.2237741 0.05 1 1 1
v -0.2893829 0.2237741 -0.0375 1 1 1
v -0.1357051 0.0875 -0.0375 1 1 1
v -0.1482051 0.025 -0.0375 1 1 1
v -0.1357051 0.0875 0.05 1 1 1
v -0.1482051 0.025 0.05 1 1 1
v -0.3122595 0.09084936 0.05 1 1 1
v -0.3122595 0.09084936 -0.0375 1 1 1
v -0.3464102 0.1 0.05 1 1 1
v -0.3464102 0.1 -0.0375 1 1 1
v -0.2518829 0.2887259 -0.0375 1 1 1
v -0.2518829 0.2887259 0.05 1 1 1
v -0.3122595 0.3091506 -0.0375 1 1 1
v -0.3122595 0.3091506 0.05 1 1 1
v 0 0.3 -0.0375 1 1 1
v 0 0.3 0.05 1 1 1
v 0 0.1 0.05 1 1 1
v 0 0.1 -0.0375 1 1 1
v -0.03415063 0.09084936 0.05 1 1 1
v -0.03415063 0.09084936 -0.0375 1 1 1
v -0.009150635 0.1341506 -0.0375 1 1 1
v -0.009150635 0.1341506 0.05 1 1 1
v -0.09452722 0.111274 0.05 1 1 1
v -0.09452722 0.111274 -0.0375 1 1 1
v -0.1424038 0.1533494 0.05 1 1 1
v -0.1424038 0.1533494 -0.0375 1 1 1
v -0.3372595 0.2658494 0.05 1 1 1
v -0.3372595 0.2658494 -0.0375 1 1 1
v -0.2107051 0.3125 -0.0375 1 1 1
v -0.2107051 0.3125 0.05 1 1 1
v -0.1982051 0.25 -0.0375 1 1 1
v -0.1982051 0.25 0.05 1 1 1
v -0.3464102 0.3 -0.0375 1 1 1
v -0.3464102 0.3 0.05 1 1 1
v -0.05702722 0.176226 -0.0375 1 1 1
v -0.05702722 0.176226 0.05 1 1 1
v -0.1482051 0.15 -0.0375 1 1 1
v -0.1482051 0.15 0.05 1 1 1
v -0.1982051 0.15 -0.0375 1 1 1
v -0.1982051 0.15 0.05 1 1 1
v -0.2107051 0.0875 -0.0375 1 1 1
v -0.2107051 0.0875 0.05 1 1 1
v -0.2040063 0.1533494 0.05 1 1 1
v -0.2040063 0.1533494 -0.0375 1 1 1
v -0.2040063 0.2466506 -0.0375 1 1 1
v -0.2040063 0.2466506 0.05 1 1 1
v -0.1357051 0.3125 -0.0375 1 1 1
v -0.1357051 0.3125 0.05 1 1 1
v -0.1482051 0.375 -0.0375 1 1 1
v -0.1482051 0.375 0.05 1 1 1
v -0.1732051 0.4 -0.0375 1 1 1
v -0.1732051 0.4 0.05 1 1 1
v -0.2518829 0.111274 0.05 1 1 1
v -0.2518829 0.111274 -0.0375 1 1 1
v -0.1732051 2.377796E-14 0.05 1 1 1
v -0.1732051 0 -0.0375 1 1 1
v -0.1982051 0.025 0.05 1 1 1
v -0.1982051 0.025 -0.0375 1 1 1
v -0.1982051 0.375 -0.0375 1 1 1
v -0.1982051 0.375 0.05 1 1 1

vn -0.5 0.8660254 0
vn -0.09853761 0.9951333 0
vn -0.03219635 0.9994816 0
vn -0.8494782 0.5276237 0
vn 0.8494782 -0.5276237 0
vn 0.5 -0.8660254 0
vn 0.8125419 -0.5829027 0
vn 0.8125419 0.5829027 0
vn -0.8125419 0.5829027 0
vn -0.8125419 -0.5829027 0
vn 0.9110795 0.4122306 0
vn -0.5 -0.8660254 0
vn 1 0 0
vn 0.8816746 -0.4718579 0
vn 0.03219635 -0.9994816 0
vn -0.258819 -0.9659258 0
vn 0.5 0.8660254 0
vn 0.03219635 0.9994816 0
vn 0.9659258 -0.258819 0
vn 0.258819 -0.9659258 0
vn -0.03219635 -0.9994816 0
vn 0.8494782 0.5276237 0
vn 0.9659258 0.258819 0
vn -0.09853761 -0.9951333 0
vn -0.8494782 -0.5276237 0
vn -1 0 0
vn -0.9110795 0.4122306 0
vn -0.258819 0.9659258 0
vn 0.9110795 -0.4122306 0
vn -0.9110795 -0.4122306 0
vn 0.258819 0.9659258 0
vn 0.09853761 -0.9951333 0
vn 0.09853761 0.9951333 0
vn 0.8816746 0.4718579 0
vn 0.7071068 0.7071068 0
vn -0.9659258 -0.258819 0
vn -0.7071068 -0.7071068 0
vn -0.8816746 -0.4718579 0
vn -0.9659258 0.258819 0
vn -0.8816746 0.4718579 0
vn -0.7071068 0.7071068 0
vn 0.7071068 -0.7071068 0
vn 0 0 1
vn 0 0 -1

vt 0.21875 0.669363
vt 0.21875 0.6483253
vt 0.21875 0.6795753
vt 0.21875 0.613113
vt 0.21875 0.5920753
vt 0.21875 0.6579247
vt 0.21875 0.636887
vt 0.21875 0.6266747
vt 0.21875 0.6233253
vt 0.21875 0.65
vt 0.21875 0.56875
vt 0.21875 0.5375
vt 0.21875 0.5704247
vt 0.21875 0.575
vt 0.21875 0.675
vt 0.21875 0.580637
vt 0.21875 0.6016747
vt 0.21875 0.68125
vt 0.21875 0.6
vt 0.21875 0.7125
vt 0.21875 0.725
vt 0.21875 0.525
vt 0.09375 0.025
vt 0.09375 0.0375
vt 0.09375 0.06875
vt 0.09375 0.1
vt 0.09375 0.1016747
vt 0.09375 0.113113
vt 0.09375 0.09207531
vt 0.09375 0.08063702
vt 0.09375 0.075
vt 0.09375 0.07042468
vt 0.09375 0.1233253
vt 0.09375 0.1266747
vt 0.09375 0.136887
vt 0.09375 0.1579247
vt 0.09375 0.1483253
vt 0.09375 0.169363
vt 0.09375 0.175
vt 0.09375 0.1795753
vt 0.09375 0.15
vt 0.09375 0.18125
vt 0.09375 0.2125
vt 0.09375 0.225

usemtl colormap

f 3/2/2 2/1/1 1/1/1
f 2/1/1 3/2/2 4/2/2
f 1/1/1 6/3/3 5/3/3
f 6/3/3 1/1/1 2/1/1
f 9/5/4 8/4/1 7/4/1
f 8/4/1 9/5/4 10/5/4
f 13/7/6 12/6/5 11/6/5
f 12/6/5 13/7/6 14/7/6
f 17/8/7 16/9/8 15/8/7
f 16/9/8 17/8/7 18/9/8
f 21/9/9 20/8/10 19/9/9
f 20/8/10 21/9/9 22/8/10
f 23/10/11 4/2/2 3/2/2
f 4/2/2 23/10/11 24/10/11
f 25/7/12 20/8/10 22/8/10
f 20/8/10 25/7/12 26/7/12
f 29/11/13 28/12/14 27/11/13
f 28/12/14 29/11/13 30/12/14
f 33/14/16 32/13/15 31/13/15
f 32/13/15 33/14/16 34/14/16
f 37/3/18 36/1/17 35/1/17
f 36/1/17 37/3/18 38/3/18
f 40/15/19 12/6/5 39/15/19
f 12/6/5 40/15/19 11/6/5
f 43/13/21 42/14/20 41/14/20
f 42/14/20 43/13/21 44/13/21
f 17/8/7 14/7/6 13/7/6
f 14/7/6 17/8/7 15/8/7
f 46/5/22 42/14/23 45/5/22
f 42/14/23 46/5/22 41/14/23
f 49/17/24 48/16/12 47/16/12
f 48/16/12 49/17/24 50/17/24
f 47/16/12 44/13/21 43/13/21
f 44/13/21 47/16/12 48/16/12
f 51/6/25 26/7/12 25/7/12
f 26/7/12 51/6/25 52/6/25
f 55/10/27 54/18/26 53/18/26
f 54/18/26 55/10/27 56/10/27
f 57/15/28 38/3/18 37/3/18
f 38/3/18 57/15/28 58/15/28
f 16/9/8 60/4/17 59/4/17
f 60/4/17 16/9/8 18/9/8
f 62/19/29 27/11/13 61/19/29
f 27/11/13 62/19/29 29/11/13
f 65/11/26 64/19/30 63/19/30
f 64/19/30 65/11/26 66/11/26
f 5/3/3 40/15/31 39/15/31
f 40/15/31 5/3/3 6/3/3
f 7/4/1 21/9/9 19/9/9
f 21/9/9 7/4/1 8/4/1
f 67/17/32 63/19/30 64/19/30
f 63/19/30 67/17/32 68/17/32
f 62/19/29 50/17/24 49/17/24
f 50/17/24 62/19/29 61/19/29
f 35/1/17 70/2/33 69/2/33
f 70/2/33 35/1/17 36/1/17
f 69/2/33 56/10/27 55/10/27
f 56/10/27 69/2/33 70/2/33
f 72/18/13 23/10/11 71/18/13
f 23/10/11 72/18/13 24/10/11
f 75/21/35 74/20/34 73/20/34
f 74/20/34 75/21/35 76/21/35
f 59/4/17 46/5/22 45/5/22
f 46/5/22 59/4/17 60/4/17
f 77/16/6 68/17/32 67/17/32
f 68/17/32 77/16/6 78/16/6
f 31/13/15 78/16/6 77/16/6
f 78/16/6 31/13/15 32/13/15
f 52/6/25 58/15/36 57/15/36
f 58/15/36 52/6/25 51/6/25
f 74/20/34 71/18/13 73/20/34
f 71/18/13 74/20/34 72/18/13
f 81/12/38 80/22/37 79/22/37
f 80/22/37 81/12/38 82/12/38
f 82/12/38 66/11/26 65/11/26
f 66/11/26 82/12/38 81/12/38
f 34/14/39 10/5/4 9/5/4
f 10/5/4 34/14/39 33/14/39
f 53/18/26 84/20/40 83/20/40
f 84/20/40 53/18/26 54/18/26
f 83/20/40 76/21/41 75/21/41
f 76/21/41 83/20/40 84/20/40
f 30/12/14 80/22/42 28/12/14
f 80/22/42 30/12/14 79/22/42
f 30/24/43 81/24/43 79/23/43
f 81/24/43 30/24/43 29/25/43
f 81/24/43 29/25/43 66/25/43
f 66/25/43 29/25/43 62/26/43
f 66/25/43 62/26/43 64/26/43
f 64/26/43 62/26/43 49/27/43
f 64/26/43 49/27/43 67/27/43
f 8/28/43 67/27/43 49/27/43
f 10/29/43 67/27/43 8/28/43
f 10/29/43 77/30/43 67/27/43
f 33/31/43 77/30/43 10/29/43
f 77/30/43 33/31/43 31/32/43
f 49/27/43 60/28/43 8/28/43
f 8/28/43 60/28/43 21/33/43
f 49/27/43 46/29/43 60/28/43
f 21/33/43 60/28/43 18/33/43
f 47/30/43 46/29/43 49/27/43
f 47/30/43 41/31/43 46/29/43
f 41/31/43 47/30/43 43/32/43
f 21/33/43 18/33/43 22/34/43
f 22/34/43 18/33/43 17/34/43
f 22/34/43 17/34/43 13/35/43
f 22/34/43 13/35/43 25/35/43
f 25/35/43 13/35/43 11/36/43
f 25/35/43 11/36/43 4/37/43
f 4/37/43 11/36/43 2/38/43
f 2/38/43 11/36/43 40/39/43
f 2/38/43 40/39/43 6/40/43
f 70/37/43 25/35/43 4/37/43
f 24/41/43 70/37/43 4/37/43
f 25/35/43 70/37/43 51/36/43
f 70/37/43 24/41/43 56/41/43
f 51/36/43 70/37/43 36/38/43
f 51/36/43 36/38/43 58/39/43
f 58/39/43 36/38/43 38/40/43
f 56/41/43 24/41/43 72/42/43
f 56/41/43 72/42/43 54/42/43
f 54/42/43 72/42/43 74/43/43
f 54/42/43 74/43/43 84/43/43
f 84/43/43 74/43/43 76/44/43
f 34/31/44 78/30/44 32/32/44
f 78/30/44 34/31/44 9/29/44
f 78/30/44 9/29/44 68/27/44
f 68/27/44 9/29/44 7/28/44
f 68/27/44 7/28/44 50/27/44
f 61/26/44 68/27/44 50/27/44
f 61/26/44 63/26/44 68/27/44
f 27/25/44 63/26/44 61/26/44
f 27/25/44 65/25/44 63/26/44
f 28/24/44 65/25/44 27/25/44
f 28/24/44 82/24/44 65/25/44
f 82/24/44 28/24/44 80/23/44
f 59/28/44 50/27/44 7/28/44
f 59/28/44 7/28/44 19/33/44
f 45/29/44 50/27/44 59/28/44
f 59/28/44 19/33/44 16/33/44
f 45/29/44 48/30/44 50/27/44
f 42/31/44 48/30/44 45/29/44
f 48/30/44 42/31/44 44/32/44
f 16/33/44 19/33/44 20/34/44
f 16/33/44 20/34/44 15/34/44
f 15/34/44 20/34/44 14/35/44
f 14/35/44 20/34/44 26/35/44
f 14/35/44 26/35/44 52/36/44
f 14/35/44 52/36/44 69/37/44
f 69/37/44 52/36/44 35/38/44
f 35/38/44 52/36/44 57/39/44
f 35/38/44 57/39/44 37/40/44
f 14/35/44 69/37/44 3/37/44
f 3/37/44 12/36/44 14/35/44
f 12/36/44 3/37/44 1/38/44
f 12/36/44 1/38/44 39/39/44
f 39/39/44 1/38/44 5/40/44
f 69/37/44 23/41/44 3/37/44
f 23/41/44 69/37/44 55/41/44
f 23/41/44 55/41/44 53/42/44
f 23/41/44 53/42/44 71/42/44
f 71/42/44 53/42/44 83/43/44
f 71/42/44 83/43/44 73/43/44
f 73/43/44 83/43/44 75/44/44

g snowflake-c




usemtl colormap

f 3/2/2 2/1/1 1/1/1
f 2/1/1 3/2/2 4/2/2
f 1/1/1 6/3/3 5/3/3
f 6/3/3 1/1/1 2/1/1
f 9/5/4 8/4/1 7/4/1
f 8/4/1 9/5/4 10/5/4
f 13/7/6 12/6/5 11/6/5
f 12/6/5 13/7/6 14/7/6
f 17/8/7 16/9/8 15/8/7
f 16/9/8 17/8/7 18/9/8
f 21/9/9 20/8/10 19/9/9
f 20/8/10 21/9/9 22/8/10
f 23/10/11 4/2/2 3/2/2
f 4/2/2 23/10/11 24/10/11
f 25/7/12 20/8/10 22/8/10
f 20/8/10 25/7/12 26/7/12
f 29/11/13 28/12/14 27/11/13
f 28/12/14 29/11/13 30/12/14
f 33/14/16 32/13/15 31/13/15
f 32/13/15 33/14/16 34/14/16
f 37/3/18 36/1/17 35/1/17
f 36/1/17 37/3/18 38/3/18
f 40/15/19 12/6/5 39/15/19
f 12/6/5 40/15/19 11/6/5
f 43/13/21 42/14/20 41/14/20
f 42/14/20 43/13/21 44/13/21
f 17/8/7 14/7/6 13/7/6
f 14/7/6 17/8/7 15/8/7
f 46/5/22 42/14/23 45/5/22
f 42/14/23 46/5/22 41/14/23
f 49/17/24 48/16/12 47/16/12
f 48/16/12 49/17/24 50/17/24
f 47/16/12 44/13/21 43/13/21
f 44/13/21 47/16/12 48/16/12
f 51/6/25 26/7/12 25/7/12
f 26/7/12 51/6/25 52/6/25
f 55/10/27 54/18/26 53/18/26
f 54/18/26 55/10/27 56/10/27
f 57/15/28 38/3/18 37/3/18
f 38/3/18 57/15/28 58/15/28
f 16/9/8 60/4/17 59/4/17
f 60/4/17 16/9/8 18/9/8
f 62/19/29 27/11/13 61/19/29
f 27/11/13 62/19/29 29/11/13
f 65/11/26 64/19/30 63/19/30
f 64/19/30 65/11/26 66/11/26
f 5/3/3 40/15/31 39/15/31
f 40/15/31 5/3/3 6/3/3
f 7/4/1 21/9/9 19/9/9
f 21/9/9 7/4/1 8/4/1
f 67/17/32 63/19/30 64/19/30
f 63/19/30 67/17/32 68/17/32
f 62/19/29 50/17/24 49/17/24
f 50/17/24 62/19/29 61/19/29
f 35/1/17 70/2/33 69/2/33
f 70/2/33 35/1/17 36/1/17
f 69/2/33 56/10/27 55/10/27
f 56/10/27 69/2/33 70/2/33
f 72/18/13 23/10/11 71/18/13
f 23/10/11 72/18/13 24/10/11
f 75/21/35 74/20/34 73/20/34
f 74/20/34 75/21/35 76/21/35
f 59/4/17 46/5/22 45/5/22
f 46/5/22 59/4/17 60/4/17
f 77/16/6 68/17/32 67/17/32
f 68/17/32 77/16/6 78/16/6
f 31/13/15 78/16/6 77/16/6
f 78/16/6 31/13/15 32/13/15
f 52/6/25 58/15/36 57/15/36
f 58/15/36 52/6/25 51/6/25
f 74/20/34 71/18/13 73/20/34
f 71/18/13 74/20/34 72/18/13
f 81/12/38 80/22/37 79/22/37
f 80/22/37 81/12/38 82/12/38
f 82/12/38 66/11/26 65/11/26
f 66/11/26 82/12/38 81/12/38
f 34/14/39 10/5/4 9/5/4
f 10/5/4 34/14/39 33/14/39
f 53/18/26 84/20/40 83/20/40
f 84/20/40 53/18/26 54/18/26
f 83/20/40 76/21/41 75/21/41
f 76/21/41 83/20/40 84/20/40
f 30/12/14 80/22/42 28/12/14
f 80/22/42 30/12/14 79/22/42
f 30/24/43 81/24/43 79/23/43
f 81/24/43 30/24/43 29/25/43
f 81/24/43 29/25/43 66/25/43
f 66/25/43 29/25/43 62/26/43
f 66/25/43 62/26/43 64/26/43
f 64/26/43 62/26/43 49/27/43
f 64/26/43 49/27/43 67/27/43
f 8/28/43 67/27/43 49/27/43
f 10/29/43 67/27/43 8/28/43
f 10/29/43 77/30/43 67/27/43
f 33/31/43 77/30/43 10/29/43
f 77/30/43 33/31/43 31/32/43
f 49/27/43 60/28/43 8/28/43
f 8/28/43 60/28/43 21/33/43
f 49/27/43 46/29/43 60/28/43
f 21/33/43 60/28/43 18/33/43
f 47/30/43 46/29/43 49/27/43
f 47/30/43 41/31/43 46/29/43
f 41/31/43 47/30/43 43/32/43
f 21/33/43 18/33/43 22/34/43
f 22/34/43 18/33/43 17/34/43
f 22/34/43 17/34/43 13/35/43
f 22/34/43 13/35/43 25/35/43
f 25/35/43 13/35/43 11/36/43
f 25/35/43 11/36/43 4/37/43
f 4/37/43 11/36/43 2/38/43
f 2/38/43 11/36/43 40/39/43
f 2/38/43 40/39/43 6/40/43
f 70/37/43 25/35/43 4/37/43
f 24/41/43 70/37/43 4/37/43
f 25/35/43 70/37/43 51/36/43
f 70/37/43 24/41/43 56/41/43
f 51/36/43 70/37/43 36/38/43
f 51/36/43 36/38/43 58/39/43
f 58/39/43 36/38/43 38/40/43
f 56/41/43 24/41/43 72/42/43
f 56/41/43 72/42/43 54/42/43
f 54/42/43 72/42/43 74/43/43
f 54/42/43 74/43/43 84/43/43
f 84/43/43 74/43/43 76/44/43
f 34/31/44 78/30/44 32/32/44
f 78/30/44 34/31/44 9/29/44
f 78/30/44 9/29/44 68/27/44
f 68/27/44 9/29/44 7/28/44
f 68/27/44 7/28/44 50/27/44
f 61/26/44 68/27/44 50/27/44
f 61/26/44 63/26/44 68/27/44
f 27/25/44 63/26/44 61/26/44
f 27/25/44 65/25/44 63/26/44
f 28/24/44 65/25/44 27/25/44
f 28/24/44 82/24/44 65/25/44
f 82/24/44 28/24/44 80/23/44
f 59/28/44 50/27/44 7/28/44
f 59/28/44 7/28/44 19/33/44
f 45/29/44 50/27/44 59/28/44
f 59/28/44 19/33/44 16/33/44
f 45/29/44 48/30/44 50/27/44
f 42/31/44 48/30/44 45/29/44
f 48/30/44 42/31/44 44/32/44
f 16/33/44 19/33/44 20/34/44
f 16/33/44 20/34/44 15/34/44
f 15/34/44 20/34/44 14/35/44
f 14/35/44 20/34/44 26/35/44
f 14/35/44 26/35/44 52/36/44
f 14/35/44 52/36/44 69/37/44
f 69/37/44 52/36/44 35/38/44
f 35/38/44 52/36/44 57/39/44
f 35/38/44 57/39/44 37/40/44
f 14/35/44 69/37/44 3/37/44
f 3/37/44 12/36/44 14/35/44
f 12/36/44 3/37/44 1/38/44
f 12/36/44 1/38/44 39/39/44
f 39/39/44 1/38/44 5/40/44
f 69/37/44 23/41/44 3/37/44
f 23/41/44 69/37/44 55/41/44
f 23/41/44 55/41/44 53/42/44
f 23/41/44 53/42/44 71/42/44
f 71/42/44 53/42/44 83/43/44
f 71/42/44 83/43/44 73/43/44
f 73/43/44 83/43/44 75/44/44

