# Created by Kenney (www.kenney.nl)

mtllib snowflake-a.mtl

g snowflake-a

v -0.2473076 0.1283494 -0.0375 1 1 1
v -0.2473076 0.07834937 -0.0375 1 1 1
v -0.2473076 0.1283494 0.05 1 1 1
v -0.2473076 0.07834937 0.05 1 1 1
v -0.2232051 0.2 -0.0375 1 1 1
v -0.2232051 0.2 0.05 1 1 1
v -0.2723076 0.1716506 -0.0375 1 1 1
v -0.2723076 0.1716506 0.05 1 1 1
v -0.09910253 0.3216506 -0.0375 1 1 1
v -0.09910253 0.3216506 0.05 1 1 1
v -0.09910253 0.2716506 -0.0375 1 1 1
v -0.09910253 0.2716506 0.05 1 1 1
v -0.2290064 0.3466506 -0.0375 1 1 1
v -0.2290064 0.3466506 0.05 1 1 1
v -0.2415064 0.325 -0.0375 1 1 1
v -0.2415064 0.325 0.05 1 1 1
v -0.3464102 0.3 -0.0375 1 1 1
v -0.3464102 0.3 0.05 1 1 1
v -0.3372595 0.2658494 -0.0375 1 1 1
v -0.3372595 0.2658494 0.05 1 1 1
v -0.1982051 0.1566987 -0.0375 1 1 1
v -0.1982051 0.1566987 0.05 1 1 1
v -0.1982051 0.1 -0.0375 1 1 1
v -0.1982051 0.1 0.05 1 1 1
v -0.07410254 0.3216506 -0.0375 1 1 1
v -0.07410254 0.3216506 0.05 1 1 1
v -0.01830127 0.225 -0.0375 1 1 1
v -0.01830127 0.225 0.05 1 1 1
v -0.04910254 0.2427831 -0.0375 1 1 1
v -0.04910254 0.2427831 0.05 1 1 1
v -0.1482051 0.375 -0.0375 1 1 1
v -0.1482051 0.3288675 -0.0375 1 1 1
v -0.1482051 0.375 0.05 1 1 1
v -0.1482051 0.3288675 0.05 1 1 1
v -0.07410254 0.2860844 -0.0375 1 1 1
v -0.07410254 0.2860844 0.05 1 1 1
v -0.009150635 0.2658494 0.05 1 1 1
v -0.009150635 0.2658494 -0.0375 1 1 1
v -0.2723076 0.2860844 -0.0375 1 1 1
v -0.2723076 0.3216506 -0.0375 1 1 1
v -0.2723076 0.2860844 0.05 1 1 1
v -0.2723076 0.3216506 0.05 1 1 1
v -0.1982051 0.2433013 -0.0375 1 1 1
v -0.1982051 0.2433013 0.05 1 1 1
v -0.2473076 0.2716506 -0.0375 1 1 1
v -0.2473076 0.2716506 0.05 1 1 1
v -3.609557E-15 0.3 -0.0375 1 1 1
v -3.609557E-15 0.3 0.05 1 1 1
v -0.2473076 0.3216506 -0.0375 1 1 1
v -0.2473076 0.3216506 0.05 1 1 1
v -0.03080127 0.2033494 -0.0375 1 1 1
v -0.03080127 0.2033494 0.05 1 1 1
v -0.1174038 0.3466506 -0.0375 1 1 1
v -0.1174038 0.3466506 0.05 1 1 1
v -0.03415063 0.3091506 -0.0375 1 1 1
v -0.03415063 0.3091506 0.05 1 1 1
v -0.1482051 0.2433013 -0.0375 1 1 1
v -0.1482051 0.2433013 0.05 1 1 1
v -0.3122595 0.3091506 -0.0375 1 1 1
v -0.3122595 0.3091506 0.05 1 1 1
v -0.1049038 0.325 -0.0375 1 1 1
v -0.1049038 0.325 0.05 1 1 1
v -0.1482051 0.3 0.05 1 1 1
v -0.1482051 0.3 -0.0375 1 1 1
v -0.1482051 0.1566987 -0.0375 1 1 1
v -0.1482051 0.1 -0.0375 1 1 1
v -0.1482051 0.1566987 0.05 1 1 1
v -0.1482051 0.1 0.05 1 1 1
v -0.07410254 0.07834937 0.05 1 1 1
v -0.07410254 0.07834937 -0.0375 1 1 1
v -0.09910253 0.07834937 0.05 1 1 1
v -0.09910253 0.07834937 -0.0375 1 1 1
v -0.1049038 0.075 -0.0375 1 1 1
v -0.1049038 0.075 0.05 1 1 1
v -0.2723076 0.2283494 0.05 1 1 1
v -0.2723076 0.2283494 -0.0375 1 1 1
v -0.1982051 0.3 0.05 1 1 1
v -0.1982051 0.3 -0.0375 1 1 1
v -0.1482051 0.07113249 -0.0375 1 1 1
v -0.1482051 0.025 -0.0375 1 1 1
v -0.1482051 0.07113249 0.05 1 1 1
v -0.1482051 0.025 0.05 1 1 1
v -0.3122595 0.09084936 0.05 1 1 1
v -0.3122595 0.09084936 -0.0375 1 1 1
v -0.3464102 0.1 0.05 1 1 1
v -0.3464102 0.1 -0.0375 1 1 1
v -0.3156089 0.1966506 -0.0375 1 1 1
v -0.3156089 0.1966506 0.05 1 1 1
v -0.1174038 0.05334936 0.05 1 1 1
v -0.1174038 0.05334936 -0.0375 1 1 1
v -0.1982051 0.07113249 0.05 1 1 1
v -0.1982051 0.07113249 -0.0375 1 1 1
v -0.2290064 0.05334936 0.05 1 1 1
v -0.2290064 0.05334936 -0.0375 1 1 1
v -0.03415063 0.09084936 0.05 1 1 1
v -0.03415063 0.09084936 -0.0375 1 1 1
v -0.07410254 0.1139156 0.05 1 1 1
v -0.07410254 0.1139156 -0.0375 1 1 1
v -0.2973076 0.2427831 -0.0375 1 1 1
v -0.2973076 0.2427831 0.05 1 1 1
v -0.3281089 0.225 -0.0375 1 1 1
v -0.3281089 0.225 0.05 1 1 1
v -0.03080127 0.1966506 -0.0375 1 1 1
v -0.03080127 0.1966506 0.05 1 1 1
v -0.07410254 0.1716506 -0.0375 1 1 1
v -0.07410254 0.1716506 0.05 1 1 1
v -0.01830127 0.175 -0.0375 1 1 1
v -0.01830127 0.175 0.05 1 1 1
v -0.009150635 0.1341506 -0.0375 1 1 1
v 0 0.1 -0.0375 1 1 1
v -0.009150635 0.1341506 0.05 1 1 1
v 0 0.1 0.05 1 1 1
v -0.07410254 0.2283494 0.05 1 1 1
v -0.07410254 0.2283494 -0.0375 1 1 1
v -0.1232051 0.2 0.05 1 1 1
v -0.1232051 0.2 -0.0375 1 1 1
v -0.1732051 9.926282E-16 0.05 1 1 1
v -0.1732051 0 -0.0375 1 1 1
v -0.1982051 0.025 0.05 1 1 1
v -0.1982051 0.025 -0.0375 1 1 1
v -0.1982051 0.375 -0.0375 1 1 1
v -0.1982051 0.375 0.05 1 1 1
v -0.1982051 0.3288675 -0.0375 1 1 1
v -0.1982051 0.3288675 0.05 1 1 1
v -0.3156089 0.2033494 -0.0375 1 1 1
v -0.3156089 0.2033494 0.05 1 1 1
v -0.09910253 0.1283494 -0.0375 1 1 1
v -0.09910253 0.1283494 0.05 1 1 1
v -0.04910254 0.1572169 0.05 1 1 1
v -0.04910254 0.1572169 -0.0375 1 1 1
v -0.2415064 0.075 -0.0375 1 1 1
v -0.2415064 0.075 0.05 1 1 1
v -0.2723076 0.1139156 0.05 1 1 1
v -0.2723076 0.1139156 -0.0375 1 1 1
v -0.3372595 0.1341506 -0.0375 1 1 1
v -0.3372595 0.1341506 0.05 1 1 1
v -0.2973076 0.1572169 -0.0375 1 1 1
v -0.2973076 0.1572169 0.05 1 1 1
v -0.3281089 0.175 0.05 1 1 1
v -0.3281089 0.175 -0.0375 1 1 1
v -0.1732051 0.4 -0.0375 1 1 1
v -0.1732051 0.4 0.05 1 1 1
v -0.2723076 0.07834937 -0.0375 1 1 1
v -0.2723076 0.07834937 0.05 1 1 1

vn 0.8660254 -0.5 0
vn 0.7071068 -0.7071068 0
vn -0.5 0.8660254 0
vn 0 1 0
vn -0.7071068 0.7071068 0
vn -0.8660254 0.5 0
vn -0.258819 0.9659258 0
vn -0.9659258 -0.258819 0
vn -0.7933533 -0.6087614 0
vn -1 0 0
vn 0.7071068 0.7071068 0
vn 0.9659258 0.2588191 0
vn 1 0 0
vn 0.9238795 0.3826834 0
vn 0.5 0.8660254 0
vn 0.7933533 -0.6087614 0
vn 0.8660254 0.5 0
vn 0.2588191 -0.9659258 0
vn 0.258819 0.9659258 0
vn -0.1305262 0.9914449 0
vn 0.1305262 0.9914449 0
vn 0.9659258 -0.258819 0
vn -0.7071068 -0.7071068 0
vn 0.9659258 0.258819 0
vn -0.5 -0.8660254 0
vn 0 -1 0
vn -0.8660254 -0.5 0
vn 0.5 -0.8660254 0
vn 0.9238795 -0.3826834 0
vn 0.1305262 -0.9914449 0
vn -0.2588191 0.9659258 0
vn 0.258819 -0.9659258 0
vn -0.258819 -0.9659258 0
vn -0.1305262 -0.9914449 0
vn -0.9659258 0.2588191 0
vn 0.2588191 0.9659258 0
vn 0.9659258 -0.2588191 0
vn 0.7933533 0.6087614 0
vn -0.9238795 -0.3826834 0
vn -0.9238795 0.3826834 0
vn -0.2588191 -0.9659258 0
vn -0.9659258 0.258819 0
vn -0.7933533 0.6087614 0
vn -0.9659258 -0.2588191 0
vn 0 0 1
vn 0 0 -1

vt 0.21875 0.5891747
vt 0.21875 0.5641747
vt 0.21875 0.625
vt 0.21875 0.6108253
vt 0.21875 0.6858253
vt 0.21875 0.6608253
vt 0.21875 0.6983253
vt 0.21875 0.6875
vt 0.21875 0.675
vt 0.21875 0.6579247
vt 0.21875 0.6033494
vt 0.21875 0.575
vt 0.21875 0.6375
vt 0.21875 0.6463916
vt 0.21875 0.7125
vt 0.21875 0.6894338
vt 0.21875 0.6680422
vt 0.21875 0.6466506
vt 0.21875 0.6266747
vt 0.21875 0.6795753
vt 0.21875 0.5625
vt 0.21875 0.6391747
vt 0.21875 0.5605662
vt 0.21875 0.5375
vt 0.21875 0.5704247
vt 0.21875 0.6233253
vt 0.21875 0.5516747
vt 0.21875 0.5819578
vt 0.21875 0.6125
vt 0.21875 0.5920753
vt 0.21875 0.525
vt 0.21875 0.6036084
vt 0.21875 0.725
vt 0.09375 0.05167468
vt 0.09375 0.06056624
vt 0.09375 0.0625
vt 0.09375 0.0375
vt 0.09375 0.025
vt 0.09375 0.075
vt 0.09375 0.1033494
vt 0.09375 0.1036084
vt 0.09375 0.09207531
vt 0.09375 0.08917468
vt 0.09375 0.1125
vt 0.09375 0.08195779
vt 0.09375 0.07042468
vt 0.09375 0.06417468
vt 0.09375 0.1108253
vt 0.09375 0.1233253
vt 0.09375 0.125
vt 0.09375 0.1391747
vt 0.09375 0.1463916
vt 0.09375 0.1375
vt 0.09375 0.1266747
vt 0.09375 0.1466506
vt 0.09375 0.1579247
vt 0.09375 0.1608253
vt 0.09375 0.175
vt 0.09375 0.1875
vt 0.09375 0.1680422
vt 0.09375 0.1795753
vt 0.09375 0.1858253
vt 0.09375 0.1894338
vt 0.09375 0.1983253
vt 0.09375 0.2125
vt 0.09375 0.225

usemtl colormap

f 3/1/1 2/2/2 1/1/1
f 2/2/2 3/1/1 4/2/2
f 7/4/4 6/3/3 5/3/3
f 6/3/3 7/4/4 8/4/4
f 11/6/6 10/5/5 9/5/5
f 10/5/5 11/6/6 12/6/6
f 15/8/8 14/7/7 13/7/7
f 14/7/7 15/8/8 16/8/8
f 19/10/9 18/9/6 17/9/6
f 18/9/6 19/10/9 20/10/9
f 23/12/6 22/11/10 21/11/10
f 22/11/10 23/12/6 24/12/6
f 9/5/5 26/5/11 25/5/11
f 26/5/11 9/5/5 10/5/5
f 29/14/13 28/13/12 27/13/12
f 28/13/12 29/14/13 30/14/13
f 33/15/14 32/16/15 31/15/14
f 32/16/15 33/15/14 34/16/15
f 26/5/11 35/17/15 25/5/11
f 35/17/15 26/5/11 36/17/15
f 30/14/13 38/10/16 37/10/16
f 38/10/16 30/14/13 29/14/13
f 41/17/3 40/5/5 39/17/3
f 40/5/5 41/17/3 42/5/5
f 45/6/17 44/18/15 43/18/15
f 44/18/15 45/6/17 46/6/17
f 48/9/17 38/10/16 47/9/17
f 38/10/16 48/9/17 37/10/16
f 50/5/11 45/6/17 49/5/11
f 45/6/17 50/5/11 46/6/17
f 28/13/12 51/19/18 27/13/12
f 51/19/18 28/13/12 52/19/18
f 32/16/15 54/7/19 53/7/19
f 54/7/19 32/16/15 34/16/15
f 35/17/15 56/20/20 55/20/20
f 56/20/20 35/17/15 36/17/15
f 57/18/3 12/6/6 11/6/6
f 12/6/6 57/18/3 58/18/3
f 55/20/20 48/9/17 47/9/17
f 48/9/17 55/20/20 56/20/20
f 59/20/21 41/17/3 39/17/3
f 41/17/3 59/20/21 60/20/21
f 54/7/19 61/8/22 53/7/19
f 61/8/22 54/7/19 62/8/22
f 63/9/1 61/8/22 62/8/22
f 61/8/22 63/9/1 64/9/1
f 63/9/1 57/18/13 64/9/1
f 57/18/13 63/9/1 58/18/13
f 67/11/13 66/12/17 65/11/13
f 66/12/17 67/11/13 68/12/17
f 71/2/23 70/2/2 69/2/2
f 70/2/2 71/2/23 72/2/23
f 66/12/17 74/21/24 73/21/24
f 74/21/24 66/12/17 68/12/17
f 75/22/26 5/3/25 6/3/25
f 5/3/25 75/22/26 76/22/26
f 16/8/8 78/9/27 77/9/27
f 78/9/27 16/8/8 15/8/8
f 81/23/28 80/24/29 79/23/28
f 80/24/29 81/23/28 82/24/29
f 85/12/27 84/25/30 83/25/30
f 84/25/30 85/12/27 86/12/27
f 87/26/31 8/4/4 7/4/4
f 8/4/4 87/26/31 88/26/31
f 81/23/28 90/27/32 89/27/32
f 90/27/32 81/23/28 79/23/28
f 93/27/33 92/23/25 91/23/25
f 92/23/25 93/27/33 94/27/33
f 40/5/5 50/5/11 49/5/11
f 50/5/11 40/5/5 42/5/5
f 97/28/28 96/25/34 95/25/34
f 96/25/34 97/28/28 98/28/28
f 101/13/35 100/14/10 99/14/10
f 100/14/10 101/13/35 102/13/35
f 43/18/10 77/9/27 78/9/27
f 77/9/27 43/18/10 44/18/10
f 105/4/4 104/26/36 103/26/36
f 104/26/36 105/4/4 106/4/4
f 104/26/36 107/29/37 103/26/36
f 107/29/37 104/26/36 108/29/37
f 111/30/38 110/12/1 109/30/38
f 110/12/1 111/30/38 112/12/1
f 95/25/34 110/12/1 112/12/1
f 110/12/1 95/25/34 96/25/34
f 115/3/28 114/22/26 113/22/26
f 114/22/26 115/3/28 116/3/28
f 119/24/39 118/31/26 117/31/26
f 118/31/26 119/24/39 120/24/39
f 123/16/3 122/15/40 121/15/40
f 122/15/40 123/16/3 124/16/3
f 126/19/41 101/13/35 125/19/41
f 101/13/35 126/19/41 102/13/35
f 116/3/15 106/4/4 105/4/4
f 106/4/4 116/3/15 115/3/15
f 72/2/23 128/1/27 127/1/27
f 128/1/27 72/2/23 71/2/23
f 113/22/26 51/19/18 52/19/18
f 51/19/18 113/22/26 114/22/26
f 129/32/13 107/29/37 108/29/37
f 107/29/37 129/32/13 130/32/13
f 130/32/13 111/30/38 109/30/38
f 111/30/38 130/32/13 129/32/13
f 97/28/28 70/2/2 98/28/28
f 70/2/2 97/28/28 69/2/2
f 67/11/25 127/1/27 128/1/27
f 127/1/27 67/11/25 65/11/25
f 13/7/7 124/16/3 123/16/3
f 124/16/3 13/7/7 14/7/7
f 120/24/39 91/23/25 92/23/25
f 91/23/25 120/24/39 119/24/39
f 17/9/6 60/20/21 59/20/21
f 60/20/21 17/9/6 18/9/6
f 20/10/9 99/14/10 100/14/10
f 99/14/10 20/10/9 19/10/9
f 74/21/24 90/27/32 73/21/24
f 90/27/32 74/21/24 89/27/32
f 94/27/33 132/21/42 131/21/42
f 132/21/42 94/27/33 93/27/33
f 83/25/30 134/28/25 133/28/25
f 134/28/25 83/25/30 84/25/30
f 86/12/27 136/30/43 135/30/43
f 136/30/43 86/12/27 85/12/27
f 135/30/43 138/32/10 137/32/10
f 138/32/10 135/30/43 136/30/43
f 139/29/44 137/32/10 138/32/10
f 137/32/10 139/29/44 140/29/44
f 139/29/44 87/26/31 140/29/44
f 87/26/31 139/29/44 88/26/31
f 121/15/40 142/33/4 141/33/4
f 142/33/4 121/15/40 122/15/40
f 141/33/4 33/15/14 31/15/14
f 33/15/14 141/33/4 142/33/4
f 82/24/29 118/31/26 80/24/29
f 118/31/26 82/24/29 117/31/26
f 131/21/42 24/12/6 23/12/6
f 24/12/6 131/21/42 132/21/42
f 3/1/1 21/11/28 22/11/28
f 21/11/28 3/1/1 1/1/1
f 143/2/23 133/28/25 134/28/25
f 133/28/25 143/2/23 144/2/23
f 144/2/23 2/2/2 4/2/2
f 2/2/2 144/2/23 143/2/23
f 126/19/41 76/22/26 75/22/26
f 76/22/26 126/19/41 125/19/41
f 74/36/45 81/35/45 89/34/45
f 81/35/45 74/36/45 91/35/45
f 119/37/45 81/35/45 91/35/45
f 119/37/45 82/37/45 81/35/45
f 82/37/45 119/37/45 117/38/45
f 132/36/45 91/35/45 74/36/45
f 91/35/45 132/36/45 93/34/45
f 132/36/45 74/36/45 68/39/45
f 132/36/45 68/39/45 24/39/45
f 24/39/45 68/39/45 67/40/45
f 24/39/45 67/40/45 22/40/45
f 138/41/45 22/40/45 67/40/45
f 136/42/45 22/40/45 138/41/45
f 136/42/45 3/43/45 22/40/45
f 67/40/45 129/41/45 138/41/45
f 138/41/45 129/41/45 139/44/45
f 136/42/45 133/45/45 3/43/45
f 85/39/45 133/45/45 136/42/45
f 133/45/45 85/39/45 83/46/45
f 144/47/45 3/43/45 133/45/45
f 3/43/45 144/47/45 4/47/45
f 67/40/45 111/42/45 129/41/45
f 128/43/45 111/42/45 67/40/45
f 139/44/45 129/41/45 8/48/45
f 139/44/45 8/48/45 88/49/45
f 129/41/45 106/48/45 8/48/45
f 106/48/45 129/41/45 108/44/45
f 106/48/45 108/44/45 104/49/45
f 106/48/45 6/50/45 8/48/45
f 6/50/45 106/48/45 115/50/45
f 6/50/45 115/50/45 75/51/45
f 75/51/45 115/50/45 113/51/45
f 97/45/45 111/42/45 128/43/45
f 97/45/45 112/39/45 111/42/45
f 112/39/45 97/45/45 95/46/45
f 128/43/45 69/47/45 97/45/45
f 69/47/45 128/43/45 71/47/45
f 113/51/45 30/52/45 75/51/45
f 113/51/45 28/53/45 30/52/45
f 28/53/45 113/51/45 52/54/45
f 75/51/45 30/52/45 100/52/45
f 102/53/45 75/51/45 100/52/45
f 75/51/45 102/53/45 126/54/45
f 100/52/45 30/52/45 44/55/45
f 100/52/45 44/55/45 20/56/45
f 44/55/45 30/52/45 58/55/45
f 37/56/45 58/55/45 30/52/45
f 58/55/45 37/56/45 12/57/45
f 63/58/45 44/55/45 58/55/45
f 12/57/45 37/56/45 48/58/45
f 44/55/45 63/58/45 77/58/45
f 20/56/45 44/55/45 46/57/45
f 77/58/45 63/58/45 62/59/45
f 20/56/45 46/57/45 18/58/45
f 77/58/45 62/59/45 16/59/45
f 12/57/45 48/58/45 36/60/45
f 36/60/45 48/58/45 56/61/45
f 36/60/45 10/62/45 12/57/45
f 10/62/45 36/60/45 26/62/45
f 18/58/45 46/57/45 41/60/45
f 18/58/45 41/60/45 60/61/45
f 50/62/45 41/60/45 46/57/45
f 41/60/45 50/62/45 42/62/45
f 16/59/45 62/59/45 34/63/45
f 34/63/45 62/59/45 54/64/45
f 124/63/45 16/59/45 34/63/45
f 16/59/45 124/63/45 14/64/45
f 33/65/45 124/63/45 34/63/45
f 124/63/45 33/65/45 122/65/45
f 122/65/45 33/65/45 142/66/45
f 131/36/46 92/35/46 94/34/46
f 92/35/46 131/36/46 79/35/46
f 80/37/46 92/35/46 79/35/46
f 80/37/46 120/37/46 92/35/46
f 120/37/46 80/37/46 118/38/46
f 73/36/46 79/35/46 131/36/46
f 79/35/46 73/36/46 90/34/46
f 73/36/46 131/36/46 23/39/46
f 73/36/46 23/39/46 66/39/46
f 66/39/46 23/39/46 21/40/46
f 66/39/46 21/40/46 65/40/46
f 21/40/46 137/41/46 65/40/46
f 21/40/46 135/42/46 137/41/46
f 1/43/46 135/42/46 21/40/46
f 130/41/46 65/40/46 137/41/46
f 130/41/46 137/41/46 140/44/46
f 134/45/46 135/42/46 1/43/46
f 134/45/46 86/39/46 135/42/46
f 86/39/46 134/45/46 84/46/46
f 1/43/46 143/47/46 134/45/46
f 143/47/46 1/43/46 2/47/46
f 109/42/46 65/40/46 130/41/46
f 109/42/46 127/43/46 65/40/46
f 130/41/46 140/44/46 7/48/46
f 7/48/46 140/44/46 87/49/46
f 105/48/46 130/41/46 7/48/46
f 130/41/46 105/48/46 107/44/46
f 107/44/46 105/48/46 103/49/46
f 5/50/46 105/48/46 7/48/46
f 105/48/46 5/50/46 116/50/46
f 116/50/46 5/50/46 76/51/46
f 116/50/46 76/51/46 114/51/46
f 109/42/46 98/45/46 127/43/46
f 110/39/46 98/45/46 109/42/46
f 98/45/46 110/39/46 96/46/46
f 70/47/46 127/43/46 98/45/46
f 127/43/46 70/47/46 72/47/46
f 76/51/46 99/52/46 114/51/46
f 76/51/46 101/53/46 99/52/46
f 101/53/46 76/51/46 125/54/46
f 29/52/46 114/51/46 99/52/46
f 27/53/46 114/51/46 29/52/46
f 114/51/46 27/53/46 51/54/46
f 29/52/46 99/52/46 43/55/46
f 43/55/46 99/52/46 19/56/46
f 57/55/46 29/52/46 43/55/46
f 29/52/46 57/55/46 38/56/46
f 43/55/46 19/56/46 45/57/46
f 78/58/46 57/55/46 43/55/46
f 45/57/46 19/56/46 17/58/46
f 57/55/46 78/58/46 64/58/46
f 38/56/46 57/55/46 11/57/46
f 64/58/46 78/58/46 15/59/46
f 38/56/46 11/57/46 47/58/46
f 64/58/46 15/59/46 61/59/46
f 45/57/46 17/58/46 39/60/46
f 39/60/46 17/58/46 59/61/46
f 39/60/46 49/62/46 45/57/46
f 49/62/46 39/60/46 40/62/46
f 47/58/46 11/57/46 35/60/46
f 47/58/46 35/60/46 55/61/46
f 9/62/46 35/60/46 11/57/46
f 35/60/46 9/62/46 25/62/46
f 61/59/46 15/59/46 123/63/46
f 123/63/46 15/59/46 13/64/46
f 32/63/46 61/59/46 123/63/46
f 61/59/46 32/63/46 53/64/46
f 121/65/46 32/63/46 123/63/46
f 32/63/46 121/65/46 31/65/46
f 31/65/46 121/65/46 141/66/46

g snowflake-a




usemtl colormap

f 3/1/1 2/2/2 1/1/1
f 2/2/2 3/1/1 4/2/2
f 7/4/4 6/3/3 5/3/3
f 6/3/3 7/4/4 8/4/4
f 11/6/6 10/5/5 9/5/5
f 10/5/5 11/6/6 12/6/6
f 15/8/8 14/7/7 13/7/7
f 14/7/7 15/8/8 16/8/8
f 19/10/9 18/9/6 17/9/6
f 18/9/6 19/10/9 20/10/9
f 23/12/6 22/11/10 21/11/10
f 22/11/10 23/12/6 24/12/6
f 9/5/5 26/5/11 25/5/11
f 26/5/11 9/5/5 10/5/5
f 29/14/13 28/13/12 27/13/12
f 28/13/12 29/14/13 30/14/13
f 33/15/14 32/16/15 31/15/14
f 32/16/15 33/15/14 34/16/15
f 26/5/11 35/17/15 25/5/11
f 35/17/15 26/5/11 36/17/15
f 30/14/13 38/10/16 37/10/16
f 38/10/16 30/14/13 29/14/13
f 41/17/3 40/5/5 39/17/3
f 40/5/5 41/17/3 42/5/5
f 45/6/17 44/18/15 43/18/15
f 44/18/15 45/6/17 46/6/17
f 48/9/17 38/10/16 47/9/17
f 38/10/16 48/9/17 37/10/16
f 50/5/11 45/6/17 49/5/11
f 45/6/17 50/5/11 46/6/17
f 28/13/12 51/19/18 27/13/12
f 51/19/18 28/13/12 52/19/18
f 32/16/15 54/7/19 53/7/19
f 54/7/19 32/16/15 34/16/15
f 35/17/15 56/20/20 55/20/20
f 56/20/20 35/17/15 36/17/15
f 57/18/3 12/6/6 11/6/6
f 12/6/6 57/18/3 58/18/3
f 55/20/20 48/9/17 47/9/17
f 48/9/17 55/20/20 56/20/20
f 59/20/21 41/17/3 39/17/3
f 41/17/3 59/20/21 60/20/21
f 54/7/19 61/8/22 53/7/19
f 61/8/22 54/7/19 62/8/22
f 63/9/1 61/8/22 62/8/22
f 61/8/22 63/9/1 64/9/1
f 63/9/1 57/18/13 64/9/1
f 57/18/13 63/9/1 58/18/13
f 67/11/13 66/12/17 65/11/13
f 66/12/17 67/11/13 68/12/17
f 71/2/23 70/2/2 69/2/2
f 70/2/2 71/2/23 72/2/23
f 66/12/17 74/21/24 73/21/24
f 74/21/24 66/12/17 68/12/17
f 75/22/26 5/3/25 6/3/25
f 5/3/25 75/22/26 76/22/26
f 16/8/8 78/9/27 77/9/27
f 78/9/27 16/8/8 15/8/8
f 81/23/28 80/24/29 79/23/28
f 80/24/29 81/23/28 82/24/29
f 85/12/27 84/25/30 83/25/30
f 84/25/30 85/12/27 86/12/27
f 87/26/31 8/4/4 7/4/4
f 8/4/4 87/26/31 88/26/31
f 81/23/28 90/27/32 89/27/32
f 90/27/32 81/23/28 79/23/28
f 93/27/33 92/23/25 91/23/25
f 92/23/25 93/27/33 94/27/33
f 40/5/5 50/5/11 49/5/11
f 50/5/11 40/5/5 42/5/5
f 97/28/28 96/25/34 95/25/34
f 96/25/34 97/28/28 98/28/28
f 101/13/35 100/14/10 99/14/10
f 100/14/10 101/13/35 102/13/35
f 43/18/10 77/9/27 78/9/27
f 77/9/27 43/18/10 44/18/10
f 105/4/4 104/26/36 103/26/36
f 104/26/36 105/4/4 106/4/4
f 104/26/36 107/29/37 103/26/36
f 107/29/37 104/26/36 108/29/37
f 111/30/38 110/12/1 109/30/38
f 110/12/1 111/30/38 112/12/1
f 95/25/34 110/12/1 112/12/1
f 110/12/1 95/25/34 96/25/34
f 115/3/28 114/22/26 113/22/26
f 114/22/26 115/3/28 116/3/28
f 119/24/39 118/31/26 117/31/26
f 118/31/26 119/24/39 120/24/39
f 123/16/3 122/15/40 121/15/40
f 122/15/40 123/16/3 124/16/3
f 126/19/41 101/13/35 125/19/41
f 101/13/35 126/19/41 102/13/35
f 116/3/15 106/4/4 105/4/4
f 106/4/4 116/3/15 115/3/15
f 72/2/23 128/1/27 127/1/27
f 128/1/27 72/2/23 71/2/23
f 113/22/26 51/19/18 52/19/18
f 51/19/18 113/22/26 114/22/26
f 129/32/13 107/29/37 108/29/37
f 107/29/37 129/32/13 130/32/13
f 130/32/13 111/30/38 109/30/38
f 111/30/38 130/32/13 129/32/13
f 97/28/28 70/2/2 98/28/28
f 70/2/2 97/28/28 69/2/2
f 67/11/25 127/1/27 128/1/27
f 127/1/27 67/11/25 65/11/25
f 13/7/7 124/16/3 123/16/3
f 124/16/3 13/7/7 14/7/7
f 120/24/39 91/23/25 92/23/25
f 91/23/25 120/24/39 119/24/39
f 17/9/6 60/20/21 59/20/21
f 60/20/21 17/9/6 18/9/6
f 20/10/9 99/14/10 100/14/10
f 99/14/10 20/10/9 19/10/9
f 74/21/24 90/27/32 73/21/24
f 90/27/32 74/21/24 89/27/32
f 94/27/33 132/21/42 131/21/42
f 132/21/42 94/27/33 93/27/33
f 83/25/30 134/28/25 133/28/25
f 134/28/25 83/25/30 84/25/30
f 86/12/27 136/30/43 135/30/43
f 136/30/43 86/12/27 85/12/27
f 135/30/43 138/32/10 137/32/10
f 138/32/10 135/30/43 136/30/43
f 139/29/44 137/32/10 138/32/10
f 137/32/10 139/29/44 140/29/44
f 139/29/44 87/26/31 140/29/44
f 87/26/31 139/29/44 88/26/31
f 121/15/40 142/33/4 141/33/4
f 142/33/4 121/15/40 122/15/40
f 141/33/4 33/15/14 31/15/14
f 33/15/14 141/33/4 142/33/4
f 82/24/29 118/31/26 80/24/29
f 118/31/26 82/24/29 117/31/26
f 131/21/42 24/12/6 23/12/6
f 24/12/6 131/21/42 132/21/42
f 3/1/1 21/11/28 22/11/28
f 21/11/28 3/1/1 1/1/1
f 143/2/23 133/28/25 134/28/25
f 133/28/25 143/2/23 144/2/23
f 144/2/23 2/2/2 4/2/2
f 2/2/2 144/2/23 143/2/23
f 126/19/41 76/22/26 75/22/26
f 76/22/26 126/19/41 125/19/41
f 74/36/45 81/35/45 89/34/45
f 81/35/45 74/36/45 91/35/45
f 119/37/45 81/35/45 91/35/45
f 119/37/45 82/37/45 81/35/45
f 82/37/45 119/37/45 117/38/45
f 132/36/45 91/35/45 74/36/45
f 91/35/45 132/36/45 93/34/45
f 132/36/45 74/36/45 68/39/45
f 132/36/45 68/39/45 24/39/45
f 24/39/45 68/39/45 67/40/45
f 24/39/45 67/40/45 22/40/45
f 138/41/45 22/40/45 67/40/45
f 136/42/45 22/40/45 138/41/45
f 136/42/45 3/43/45 22/40/45
f 67/40/45 129/41/45 138/41/45
f 138/41/45 129/41/45 139/44/45
f 136/42/45 133/45/45 3/43/45
f 85/39/45 133/45/45 136/42/45
f 133/45/45 85/39/45 83/46/45
f 144/47/45 3/43/45 133/45/45
f 3/43/45 144/47/45 4/47/45
f 67/40/45 111/42/45 129/41/45
f 128/43/45 111/42/45 67/40/45
f 139/44/45 129/41/45 8/48/45
f 139/44/45 8/48/45 88/49/45
f 129/41/45 106/48/45 8/48/45
f 106/48/45 129/41/45 108/44/45
f 106/48/45 108/44/45 104/49/45
f 106/48/45 6/50/45 8/48/45
f 6/50/45 106/48/45 115/50/45
f 6/50/45 115/50/45 75/51/45
f 75/51/45 115/50/45 113/51/45
f 97/45/45 111/42/45 128/43/45
f 97/45/45 112/39/45 111/42/45
f 112/39/45 97/45/45 95/46/45
f 128/43/45 69/47/45 97/45/45
f 69/47/45 128/43/45 71/47/45
f 113/51/45 30/52/45 75/51/45
f 113/51/45 28/53/45 30/52/45
f 28/53/45 113/51/45 52/54/45
f 75/51/45 30/52/45 100/52/45
f 102/53/45 75/51/45 100/52/45
f 75/51/45 102/53/45 126/54/45
f 100/52/45 30/52/45 44/55/45
f 100/52/45 44/55/45 20/56/45
f 44/55/45 30/52/45 58/55/45
f 37/56/45 58/55/45 30/52/45
f 58/55/45 37/56/45 12/57/45
f 63/58/45 44/55/45 58/55/45
f 12/57/45 37/56/45 48/58/45
f 44/55/45 63/58/45 77/58/45
f 20/56/45 44/55/45 46/57/45
f 77/58/45 63/58/45 62/59/45
f 20/56/45 46/57/45 18/58/45
f 77/58/45 62/59/45 16/59/45
f 12/57/45 48/58/45 36/60/45
f 36/60/45 48/58/45 56/61/45
f 36/60/45 10/62/45 12/57/45
f 10/62/45 36/60/45 26/62/45
f 18/58/45 46/57/45 41/60/45
f 18/58/45 41/60/45 60/61/45
f 50/62/45 41/60/45 46/57/45
f 41/60/45 50/62/45 42/62/45
f 16/59/45 62/59/45 34/63/45
f 34/63/45 62/59/45 54/64/45
f 124/63/45 16/59/45 34/63/45
f 16/59/45 124/63/45 14/64/45
f 33/65/45 124/63/45 34/63/45
f 124/63/45 33/65/45 122/65/45
f 122/65/45 33/65/45 142/66/45
f 131/36/46 92/35/46 94/34/46
f 92/35/46 131/36/46 79/35/46
f 80/37/46 92/35/46 79/35/46
f 80/37/46 120/37/46 92/35/46
f 120/37/46 80/37/46 118/38/46
f 73/36/46 79/35/46 131/36/46
f 79/35/46 73/36/46 90/34/46
f 73/36/46 131/36/46 23/39/46
f 73/36/46 23/39/46 66/39/46
f 66/39/46 23/39/46 21/40/46
f 66/39/46 21/40/46 65/40/46
f 21/40/46 137/41/46 65/40/46
f 21/40/46 135/42/46 137/41/46
f 1/43/46 135/42/46 21/40/46
f 130/41/46 65/40/46 137/41/46
f 130/41/46 137/41/46 140/44/46
f 134/45/46 135/42/46 1/43/46
f 134/45/46 86/39/46 135/42/46
f 86/39/46 134/45/46 84/46/46
f 1/43/46 143/47/46 134/45/46
f 143/47/46 1/43/46 2/47/46
f 109/42/46 65/40/46 130/41/46
f 109/42/46 127/43/46 65/40/46
f 130/41/46 140/44/46 7/48/46
f 7/48/46 140/44/46 87/49/46
f 105/48/46 130/41/46 7/48/46
f 130/41/46 105/48/46 107/44/46
f 107/44/46 105/48/46 103/49/46
f 5/50/46 105/48/46 7/48/46
f 105/48/46 5/50/46 116/50/46
f 116/50/46 5/50/46 76/51/46
f 116/50/46 76/51/46 114/51/46
f 109/42/46 98/45/46 127/43/46
f 110/39/46 98/45/46 109/42/46
f 98/45/46 110/39/46 96/46/46
f 70/47/46 127/43/46 98/45/46
f 127/43/46 70/47/46 72/47/46
f 76/51/46 99/52/46 114/51/46
f 76/51/46 101/53/46 99/52/46
f 101/53/46 76/51/46 125/54/46
f 29/52/46 114/51/46 99/52/46
f 27/53/46 114/51/46 29/52/46
f 114/51/46 27/53/46 51/54/46
f 29/52/46 99/52/46 43/55/46
f 43/55/46 99/52/46 19/56/46
f 57/55/46 29/52/46 43/55/46
f 29/52/46 57/55/46 38/56/46
f 43/55/46 19/56/46 45/57/46
f 78/58/46 57/55/46 43/55/46
f 45/57/46 19/56/46 17/58/46
f 57/55/46 78/58/46 64/58/46
f 38/56/46 57/55/46 11/57/46
f 64/58/46 78/58/46 15/59/46
f 38/56/46 11/57/46 47/58/46
f 64/58/46 15/59/46 61/59/46
f 45/57/46 17/58/46 39/60/46
f 39/60/46 17/58/46 59/61/46
f 39/60/46 49/62/46 45/57/46
f 49/62/46 39/60/46 40/62/46
f 47/58/46 11/57/46 35/60/46
f 47/58/46 35/60/46 55/61/46
f 9/62/46 35/60/46 11/57/46
f 35/60/46 9/62/46 25/62/46
f 61/59/46 15/59/46 123/63/46
f 123/63/46 15/59/46 13/64/46
f 32/63/46 61/59/46 123/63/46
f 61/59/46 32/63/46 53/64/46
f 121/65/46 32/63/46 123/63/46
f 32/63/46 121/65/46 31/65/46
f 31/65/46 121/65/46 141/66/46

