# Created by Kenney (www.kenney.nl)

mtllib snow-flat-large.mtl

g snow-flat-large

v 1.413076 0 -0.843025 1 1 1
v 1.271769 0.1 -0.7587225 1 1 1
v 1.30329 0 -1.09974 1 1 1
v 1.172961 0.1 -0.989766 1 1 1
v 1.547261 0 0.077094 1 1 1
v 1.255714 0 -0.29186 1 1 1
v 1.492526 0 0.544139 1 1 1
v 1.270864 0 0.772204 1 1 1
v 0.9648672 0 0.858883 1 1 1
v 1.171367 0 -0.425997 1 1 1
v 1.091411 0 -1.19796 1 1 1
v 1.271739 0 -0.5544525 1 1 1
v 0.6848062 0 -1.118406 1 1 1
v 0.8497573 0 0.94257 1 1 1
v 0.5975003 0 1.206053 1 1 1
v 0.2884822 0 -1.207222 1 1 1
v 0.2448203 0 1.207222 1 1 1
v -0.2111862 0 -1.107853 1 1 1
v -0.03441375 0 1.082037 1 1 1
v -0.4241437 0 1.128053 1 1 1
v -0.5045897 0 -0.86439 1 1 1
v -0.6993558 0 1.013346 1 1 1
v -0.8291177 0 -0.666695 1 1 1
v -0.8803437 0 0.776402 1 1 1
v -1.184871 0 -0.602188 1 1 1
v -0.9941397 0 0.610359 1 1 1
v -1.184871 0 0.4977675 1 1 1
v -1.38163 0 0.372357 1 1 1
v -1.477049 0 -0.352424 1 1 1
v -1.547261 0 0.025491 1 1 1
v -0.3817294 0.1 1.015248 1 1 1
v -0.6294202 0.1 0.9120114 1 1 1
v 1.343274 0.1 0.4897251 1 1 1
v 1.143778 0.1 0.6949836 1 1 1
v 1.144565 0.1 -0.4990072 1 1 1
v 0.8683805 0.1 0.7729947 1 1 1
v 0.7647815 0.1 0.848313 1 1 1
v -0.1900676 0.1 -0.9970673 1 1 1
v -0.4541307 0.1 -0.777951 1 1 1
v 0.5377502 0.1 1.085448 1 1 1
v 0.259634 0.1 -1.0865 1 1 1
v 0.2203382 0.1 1.0865 1 1 1
v -0.03097237 0.1 0.9738333 1 1 1
v -0.7923094 0.1 0.6987618 1 1 1
v -0.8947258 0.1 0.5493231 1 1 1
v 0.9822697 0.1 -1.078164 1 1 1
v 1.392535 0.1 0.0693846 1 1 1
v 1.130143 0.1 -0.262674 1 1 1
v 0.6163256 0.1 -1.006565 1 1 1
v 1.05423 0.1 -0.3833973 1 1 1
v -1.066384 0.1 0.4479907 1 1 1
v -1.243467 0.1 0.3351213 1 1 1
v -1.392535 0.1 0.0229419 1 1 1
v -1.066384 0.1 -0.5419692 1 1 1
v -1.329344 0.1 -0.3171816 1 1 1
v -0.7462059 0.1 -0.6000255 1 1 1

vn 0.5613673 0.8266199 -0.03957786
vn 0.6232325 0.7711743 0.1298902
vn 0.3672079 0.8622372 -0.348863
vn 0.3571878 0.8617464 -0.3602916
vn 0 -1 0
vn -0.06842405 0.7591805 0.6472735
vn -0.1041164 0.7633451 0.6375453
vn -0.3894536 0.7756606 0.4966654
vn -0.3823054 0.7758934 0.5018286
vn 0.4851781 0.845496 0.2230221
vn 0.3325887 0.8036941 0.4934174
vn 0.4782614 0.8446584 0.2404546
vn 0.2751254 0.7817677 0.5595939
vn 0.6684767 0.641081 0.3770332
vn 0.6636217 0.5864732 0.4643871
vn 0.2604217 0.7612906 0.5938157
vn 0.4068111 0.7854113 0.4665124
vn 0.2959238 0.7704731 0.564624
vn 0.4074637 0.785418 0.4659312
vn -0.3139431 0.7337809 -0.6024993
vn -0.4097677 0.7060295 -0.5775923
vn -0.2739174 0.7393166 -0.6151261
vn -0.4133399 0.7058342 -0.575281
vn 0.2399207 0.802394 0.5464447
vn 0.2269239 0.801993 0.5525512
vn 0.02025234 0.7723203 -0.6349105
vn -0.009367398 0.7689714 -0.6392145
vn -0.112641 0.753863 0.6473041
vn -0.1714866 0.7413331 0.6488587
vn -0.1155637 0.7313075 0.6721864
vn -0.09451275 0.7326077 0.6740575
vn -0.5272296 0.7596886 0.3806602
vn -0.5262448 0.7597629 0.3818727
vn -0.4637159 0.7494329 0.4725652
vn -0.4398215 0.7441376 0.5028083
vn 0.1176624 0.8124664 -0.5710113
vn -0.005906519 0.7650179 -0.643982
vn 0.5429627 0.8305393 -0.1240802
vn 0.5381646 0.8165914 -0.2087041
vn 0.5217629 0.7652354 -0.3770655
vn 0.5268387 0.7679037 -0.3643693
vn -0.03383515 0.7346562 -0.6775954
vn 0.04017557 0.7569621 -0.6522226
vn 0.6742694 0.7201498 0.1635392
vn 0.6451228 0.7638386 -0.01916214
vn -0.35938 0.7208285 0.5926654
vn -0.3641083 0.723412 0.5866005
vn -0.4377708 0.7747235 0.4562457
vn -0.4746794 0.7958226 0.3759599
vn -0.5398588 0.837466 0.08487146
vn -0.5410005 0.838671 0.06284354
vn -0.2411196 0.6941357 -0.6782603
vn -0.4772161 0.8180286 -0.3210825
vn -0.3303069 0.7423827 -0.5828938
vn -0.4977387 0.8271446 -0.2609364
vn -0.2857947 0.6842508 -0.6709115
vn -0.23053 0.6648394 -0.7105241
vn 0 1 0

vt 0.09375 0.025
vt 0.09375 0.225

usemtl colormap

f 3/1/3 2/2/2 1/1/1
f 2/2/2 3/1/3 4/2/4
f 7/1/5 6/1/5 5/1/5
f 6/1/5 7/1/5 8/1/5
f 6/1/5 8/1/5 9/1/5
f 6/1/5 9/1/5 10/1/5
f 10/1/5 9/1/5 11/1/5
f 11/1/5 12/1/5 10/1/5
f 3/1/5 12/1/5 11/1/5
f 12/1/5 3/1/5 1/1/5
f 11/1/5 9/1/5 13/1/5
f 13/1/5 9/1/5 14/1/5
f 13/1/5 14/1/5 15/1/5
f 13/1/5 15/1/5 16/1/5
f 16/1/5 15/1/5 17/1/5
f 16/1/5 17/1/5 18/1/5
f 18/1/5 17/1/5 19/1/5
f 18/1/5 19/1/5 20/1/5
f 18/1/5 20/1/5 21/1/5
f 21/1/5 20/1/5 22/1/5
f 21/1/5 22/1/5 23/1/5
f 23/1/5 22/1/5 24/1/5
f 23/1/5 24/1/5 25/1/5
f 25/1/5 24/1/5 26/1/5
f 25/1/5 26/1/5 27/1/5
f 25/1/5 27/1/5 28/1/5
f 25/1/5 28/1/5 29/1/5
f 29/1/5 28/1/5 30/1/5
f 32/2/8 20/1/7 31/2/6
f 20/1/7 32/2/8 22/1/9
f 33/2/12 8/1/11 7/1/10
f 8/1/11 33/2/12 34/2/13
f 2/2/2 12/1/14 1/1/1
f 12/1/14 2/2/2 35/2/15
f 36/2/18 14/1/17 9/1/16
f 14/1/17 36/2/18 37/2/19
f 18/1/22 39/2/21 38/2/20
f 39/2/21 18/1/22 21/1/23
f 37/2/19 15/1/24 14/1/17
f 15/1/24 37/2/19 40/2/25
f 34/2/13 9/1/16 8/1/11
f 9/1/16 34/2/13 36/2/18
f 18/1/22 41/2/27 16/1/26
f 41/2/27 18/1/22 38/2/20
f 40/2/25 17/1/28 15/1/24
f 17/1/28 40/2/25 42/2/29
f 42/2/29 19/1/30 17/1/28
f 19/1/30 42/2/29 43/2/31
f 45/2/34 24/1/33 44/2/32
f 24/1/33 45/2/34 26/1/35
f 11/1/36 4/2/4 3/1/3
f 4/2/4 11/1/36 46/2/37
f 6/1/40 47/2/39 5/1/38
f 47/2/39 6/1/40 48/2/41
f 47/2/39 7/1/10 5/1/38
f 7/1/10 47/2/39 33/2/12
f 49/2/43 11/1/36 13/1/42
f 11/1/36 49/2/43 46/2/37
f 44/2/32 22/1/9 32/2/8
f 22/1/9 44/2/32 24/1/33
f 10/1/44 48/2/41 6/1/40
f 48/2/41 10/1/44 50/2/45
f 16/1/26 49/2/43 13/1/42
f 49/2/43 16/1/26 41/2/27
f 52/2/48 27/1/47 51/2/46
f 27/1/47 52/2/48 28/1/49
f 53/2/50 28/1/49 52/2/48
f 28/1/49 53/2/50 30/1/51
f 31/2/6 19/1/30 43/2/31
f 19/1/30 31/2/6 20/1/7
f 51/2/46 26/1/35 45/2/34
f 26/1/35 51/2/46 27/1/47
f 25/1/54 55/2/53 54/2/52
f 55/2/53 25/1/54 29/1/55
f 29/1/55 53/2/50 55/2/53
f 53/2/50 29/1/55 30/1/51
f 35/2/15 10/1/44 12/1/14
f 10/1/44 35/2/15 50/2/45
f 21/1/23 56/2/56 39/2/21
f 56/2/56 21/1/23 23/1/57
f 54/2/52 23/1/57 25/1/54
f 23/1/57 54/2/52 56/2/56
f 4/2/58 35/2/58 2/2/58
f 35/2/58 4/2/58 46/2/58
f 35/2/58 46/2/58 50/2/58
f 36/2/58 50/2/58 46/2/58
f 36/2/58 46/2/58 49/2/58
f 36/2/58 48/2/58 50/2/58
f 36/2/58 49/2/58 37/2/58
f 34/2/58 48/2/58 36/2/58
f 33/2/58 48/2/58 34/2/58
f 48/2/58 33/2/58 47/2/58
f 37/2/58 49/2/58 40/2/58
f 40/2/58 49/2/58 41/2/58
f 40/2/58 41/2/58 42/2/58
f 42/2/58 41/2/58 38/2/58
f 42/2/58 38/2/58 43/2/58
f 43/2/58 38/2/58 31/2/58
f 31/2/58 38/2/58 39/2/58
f 31/2/58 39/2/58 32/2/58
f 32/2/58 39/2/58 56/2/58
f 32/2/58 56/2/58 44/2/58
f 44/2/58 56/2/58 54/2/58
f 44/2/58 54/2/58 45/2/58
f 45/2/58 54/2/58 51/2/58
f 51/2/58 54/2/58 55/2/58
f 51/2/58 55/2/58 52/2/58
f 52/2/58 55/2/58 53/2/58

g snow-flat-large




usemtl colormap

f 3/1/3 2/2/2 1/1/1
f 2/2/2 3/1/3 4/2/4
f 7/1/5 6/1/5 5/1/5
f 6/1/5 7/1/5 8/1/5
f 6/1/5 8/1/5 9/1/5
f 6/1/5 9/1/5 10/1/5
f 10/1/5 9/1/5 11/1/5
f 11/1/5 12/1/5 10/1/5
f 3/1/5 12/1/5 11/1/5
f 12/1/5 3/1/5 1/1/5
f 11/1/5 9/1/5 13/1/5
f 13/1/5 9/1/5 14/1/5
f 13/1/5 14/1/5 15/1/5
f 13/1/5 15/1/5 16/1/5
f 16/1/5 15/1/5 17/1/5
f 16/1/5 17/1/5 18/1/5
f 18/1/5 17/1/5 19/1/5
f 18/1/5 19/1/5 20/1/5
f 18/1/5 20/1/5 21/1/5
f 21/1/5 20/1/5 22/1/5
f 21/1/5 22/1/5 23/1/5
f 23/1/5 22/1/5 24/1/5
f 23/1/5 24/1/5 25/1/5
f 25/1/5 24/1/5 26/1/5
f 25/1/5 26/1/5 27/1/5
f 25/1/5 27/1/5 28/1/5
f 25/1/5 28/1/5 29/1/5
f 29/1/5 28/1/5 30/1/5
f 32/2/8 20/1/7 31/2/6
f 20/1/7 32/2/8 22/1/9
f 33/2/12 8/1/11 7/1/10
f 8/1/11 33/2/12 34/2/13
f 2/2/2 12/1/14 1/1/1
f 12/1/14 2/2/2 35/2/15
f 36/2/18 14/1/17 9/1/16
f 14/1/17 36/2/18 37/2/19
f 18/1/22 39/2/21 38/2/20
f 39/2/21 18/1/22 21/1/23
f 37/2/19 15/1/24 14/1/17
f 15/1/24 37/2/19 40/2/25
f 34/2/13 9/1/16 8/1/11
f 9/1/16 34/2/13 36/2/18
f 18/1/22 41/2/27 16/1/26
f 41/2/27 18/1/22 38/2/20
f 40/2/25 17/1/28 15/1/24
f 17/1/28 40/2/25 42/2/29
f 42/2/29 19/1/30 17/1/28
f 19/1/30 42/2/29 43/2/31
f 45/2/34 24/1/33 44/2/32
f 24/1/33 45/2/34 26/1/35
f 11/1/36 4/2/4 3/1/3
f 4/2/4 11/1/36 46/2/37
f 6/1/40 47/2/39 5/1/38
f 47/2/39 6/1/40 48/2/41
f 47/2/39 7/1/10 5/1/38
f 7/1/10 47/2/39 33/2/12
f 49/2/43 11/1/36 13/1/42
f 11/1/36 49/2/43 46/2/37
f 44/2/32 22/1/9 32/2/8
f 22/1/9 44/2/32 24/1/33
f 10/1/44 48/2/41 6/1/40
f 48/2/41 10/1/44 50/2/45
f 16/1/26 49/2/43 13/1/42
f 49/2/43 16/1/26 41/2/27
f 52/2/48 27/1/47 51/2/46
f 27/1/47 52/2/48 28/1/49
f 53/2/50 28/1/49 52/2/48
f 28/1/49 53/2/50 30/1/51
f 31/2/6 19/1/30 43/2/31
f 19/1/30 31/2/6 20/1/7
f 51/2/46 26/1/35 45/2/34
f 26/1/35 51/2/46 27/1/47
f 25/1/54 55/2/53 54/2/52
f 55/2/53 25/1/54 29/1/55
f 29/1/55 53/2/50 55/2/53
f 53/2/50 29/1/55 30/1/51
f 35/2/15 10/1/44 12/1/14
f 10/1/44 35/2/15 50/2/45
f 21/1/23 56/2/56 39/2/21
f 56/2/56 21/1/23 23/1/57
f 54/2/52 23/1/57 25/1/54
f 23/1/57 54/2/52 56/2/56
f 4/2/58 35/2/58 2/2/58
f 35/2/58 4/2/58 46/2/58
f 35/2/58 46/2/58 50/2/58
f 36/2/58 50/2/58 46/2/58
f 36/2/58 46/2/58 49/2/58
f 36/2/58 48/2/58 50/2/58
f 36/2/58 49/2/58 37/2/58
f 34/2/58 48/2/58 36/2/58
f 33/2/58 48/2/58 34/2/58
f 48/2/58 33/2/58 47/2/58
f 37/2/58 49/2/58 40/2/58
f 40/2/58 49/2/58 41/2/58
f 40/2/58 41/2/58 42/2/58
f 42/2/58 41/2/58 38/2/58
f 42/2/58 38/2/58 43/2/58
f 43/2/58 38/2/58 31/2/58
f 31/2/58 38/2/58 39/2/58
f 31/2/58 39/2/58 32/2/58
f 32/2/58 39/2/58 56/2/58
f 32/2/58 56/2/58 44/2/58
f 44/2/58 56/2/58 54/2/58
f 44/2/58 54/2/58 45/2/58
f 45/2/58 54/2/58 51/2/58
f 51/2/58 54/2/58 55/2/58
f 51/2/58 55/2/58 52/2/58
f 52/2/58 55/2/58 53/2/58

