# Created by Kenney (www.kenney.nl)

mtllib snow-flat.mtl

g snow-flat

v 0.8862292 0 0.2111037 1 1 1
v 0.7109224 0 0.3609621 1 1 1
v 0.7089834 0.1 0.168883 1 1 1
v 0.5687379 0.1 0.2887697 1 1 1
v -0.5238772 0.1 0.57474 1 1 1
v -0.6548464 0 0.718425 1 1 1
v -0.6255793 0.1 0.5275946 1 1 1
v -0.7819741 0 0.6594933 1 1 1
v -0.8478457 0 0.5054643 1 1 1
v -0.7028203 0 0.2552475 1 1 1
v -0.5789203 0 -0.5156805 1 1 1
v -0.4108837 0 0.6706929 1 1 1
v -0.8955158 0 -0.3268341 1 1 1
v -0.9283567 0 -0.0466071 1 1 1
v -0.3585001 0 -0.7239825 1 1 1
v -0.1730894 0 0.7239825 1 1 1
v 0.02064825 0 -0.6495729 1 1 1
v 0.1267117 0 0.6643608 1 1 1
v 0.2544863 0 -0.6771825 1 1 1
v 0.4196134 0 -0.6083583 1 1 1
v 0.4974706 0 0.3996663 1 1 1
v 0.5282062 0 -0.4661919 1 1 1
v 0.5964838 0 -0.3665661 1 1 1
v 0.7109224 0 -0.2990112 1 1 1
v 0.8289779 0 -0.2237649 1 1 1
v 0.9283567 0 -0.0156453 1 1 1
v 0.1013694 0.1 0.5314887 1 1 1
v -0.1384715 0.1 0.579186 1 1 1
v 0.203589 0.1 -0.541746 1 1 1
v 0.0165186 0.1 -0.5196583 1 1 1
v -0.328707 0.1 0.5365543 1 1 1
v -0.4631363 0.1 -0.4125444 1 1 1
v -0.7164126 0.1 -0.2614673 1 1 1
v -0.2868001 0.1 -0.579186 1 1 1
v 0.3356907 0.1 -0.4866866 1 1 1
v 0.3979765 0.1 0.3197331 1 1 1
v 0.4771871 0.1 -0.2932529 1 1 1
v 0.422565 0.1 -0.3729535 1 1 1
v -0.5622563 0.1 0.204198 1 1 1
v -0.6782766 0.1 0.4043714 1 1 1
v -0.7426854 0.1 -0.03728568 1 1 1
v 0.7426854 0.1 -0.01251624 1 1 1
v 0.6631823 0.1 -0.1790119 1 1 1
v 0.5687379 0.1 -0.239209 1 1 1

vn 0.4366762 0.8702496 0.2279903
vn 0.2980056 0.7998427 0.5210034
vn 0.4187019 0.8623388 0.2847112
vn 0.2148054 0.7537662 0.6210436
vn -0.4187019 -0.8623388 -0.2847112
vn -0.2980056 -0.7998427 -0.5210034
vn -0.4366762 -0.8702496 -0.2279903
vn -0.2148054 -0.7537662 -0.6210436
vn 0.01035897 0.8162883 0.5775519
vn -0.1051066 0.8586014 0.5017532
vn -0.3098027 0.8977113 0.3132676
vn -0.318926 0.8981214 0.302761
vn 0.3098027 -0.8977113 -0.3132676
vn 0.1051066 -0.8586014 -0.5017532
vn -0.01035897 -0.8162883 -0.5775519
vn 0.318926 -0.8981214 -0.302761
vn 0 -1 0
vn 0 1 0
vn 0.2276756 0.798386 0.5574438
vn -0.01867827 0.8247789 0.5651469
vn 0.2561446 0.7951871 0.5496065
vn 0.009571288 0.8217307 0.5697956
vn -0.2561446 -0.7951871 -0.5496065
vn 0.01867827 -0.8247789 -0.5651469
vn -0.2276756 -0.798386 -0.5574438
vn -0.009571288 -0.8217307 -0.5697956
vn 0.09360025 0.8174278 -0.5683755
vn 0.05946447 0.8135993 -0.5783769
vn 0.02358891 0.7925721 -0.6093219
vn 0.02297455 0.7925739 -0.6093429
vn -0.02358891 -0.7925721 0.6093219
vn -0.05946447 -0.8135993 0.5783769
vn -0.09360025 -0.8174278 0.5683755
vn -0.02297455 -0.7925739 0.6093429
vn -0.03746443 0.8120287 0.5824139
vn 0.03354004 0.7913233 0.6104772
vn -0.03354004 -0.7913233 -0.6104772
vn 0.03746443 -0.8120287 -0.5824139
vn -0.3354891 0.8360956 -0.4340406
vn -0.3804916 0.8757325 -0.2971846
vn -0.3264468 0.8349382 -0.4430696
vn -0.4052447 0.8823028 -0.2394132
vn 0.3264468 -0.8349382 0.4430696
vn 0.3804916 -0.8757325 0.2971846
vn 0.3354891 -0.8360956 0.4340406
vn 0.4052447 -0.8823028 0.2394132
vn -0.1133376 0.8428971 -0.526003
vn -0.1638695 0.8477983 -0.5043657
vn 0.1638695 -0.8477983 0.5043657
vn 0.1133376 -0.8428971 0.526003
vn 0.3396791 0.8279645 -0.4461982
vn 0.3465546 0.827751 -0.4412802
vn -0.3465546 -0.827751 0.4412802
vn -0.3396791 -0.8279645 0.4461982
vn 0.2243471 0.7348369 0.6400649
vn 0.2829979 0.7546938 0.5919032
vn -0.2243471 -0.7348369 -0.6400649
vn -0.2829979 -0.7546938 -0.5919032
vn 0.3932392 0.8005901 -0.4521264
vn 0.4156669 0.8055106 -0.4223432
vn 0.4698151 0.8142492 -0.3409869
vn 0.4707713 0.8141806 -0.3398299
vn -0.4698151 -0.8142492 0.3409869
vn -0.4156669 -0.8055106 0.4223432
vn -0.3932392 -0.8005901 0.4521264
vn -0.4707713 -0.8141806 0.3398299
vn -0.5622628 0.8242814 0.06648826
vn -0.5734219 0.8016766 -0.168825
vn -0.5913358 0.8047597 -0.05180442
vn -0.496588 0.8676182 0.02528183
vn 0.5913358 -0.8047597 0.05180442
vn 0.5734219 -0.8016766 0.168825
vn 0.5622628 -0.8242814 -0.06648826
vn 0.496588 -0.8676182 -0.02528183
vn -0.4736411 0.8630583 0.1754835
vn -0.4756692 0.8736079 0.1027042
vn 0.4736411 -0.8630583 -0.1754835
vn 0.4756692 -0.8736079 -0.1027042
vn 0.4727618 0.8794935 -0.05465866
vn 0.4718725 0.8784767 -0.0749329
vn -0.4718725 -0.8784767 0.0749329
vn -0.4727618 -0.8794935 0.05465866
vn 0.4202051 0.8448631 -0.3311101
vn 0.3878099 0.8260192 -0.4090178
vn 0.3283091 0.782869 -0.528516
vn 0.3239861 0.7804423 -0.5347364
vn -0.3283091 -0.782869 0.528516
vn -0.3878099 -0.8260192 0.4090178
vn -0.4202051 -0.8448631 0.3311101
vn -0.3239861 -0.7804423 0.5347364

vt 0.09375 0.025
vt 0.09375 0.225

usemtl colormap

f 3/2/3 2/1/2 1/1/1
f 2/1/2 3/2/3 4/2/4
f 1/1/7 2/1/6 3/2/5
f 4/2/8 3/2/5 2/1/6
f 7/2/11 6/1/10 5/2/9
f 6/1/10 7/2/11 8/1/12
f 5/2/15 6/1/14 7/2/13
f 8/1/16 7/2/13 6/1/14
f 10/1/17 8/1/17 9/1/17
f 8/1/17 10/1/17 6/1/17
f 11/1/17 6/1/17 10/1/17
f 11/1/17 12/1/17 6/1/17
f 11/1/17 10/1/17 13/1/17
f 13/1/17 10/1/17 14/1/17
f 15/1/17 12/1/17 11/1/17
f 15/1/17 16/1/17 12/1/17
f 17/1/17 16/1/17 15/1/17
f 17/1/17 18/1/17 16/1/17
f 19/1/17 18/1/17 17/1/17
f 20/1/17 18/1/17 19/1/17
f 20/1/17 21/1/17 18/1/17
f 22/1/17 21/1/17 20/1/17
f 23/1/17 21/1/17 22/1/17
f 23/1/17 2/1/17 21/1/17
f 24/1/17 2/1/17 23/1/17
f 25/1/17 2/1/17 24/1/17
f 25/1/17 1/1/17 2/1/17
f 1/1/17 25/1/17 26/1/17
f 9/1/18 8/1/18 10/1/18
f 6/1/18 10/1/18 8/1/18
f 10/1/18 6/1/18 11/1/18
f 6/1/18 12/1/18 11/1/18
f 13/1/18 10/1/18 11/1/18
f 14/1/18 10/1/18 13/1/18
f 11/1/18 12/1/18 15/1/18
f 12/1/18 16/1/18 15/1/18
f 15/1/18 16/1/18 17/1/18
f 16/1/18 18/1/18 17/1/18
f 17/1/18 18/1/18 19/1/18
f 19/1/18 18/1/18 20/1/18
f 18/1/18 21/1/18 20/1/18
f 20/1/18 21/1/18 22/1/18
f 22/1/18 21/1/18 23/1/18
f 21/1/18 2/1/18 23/1/18
f 23/1/18 2/1/18 24/1/18
f 24/1/18 2/1/18 25/1/18
f 2/1/18 1/1/18 25/1/18
f 26/1/18 25/1/18 1/1/18
f 27/2/21 16/1/20 18/1/19
f 16/1/20 27/2/21 28/2/22
f 18/1/25 16/1/24 27/2/23
f 28/2/26 27/2/23 16/1/24
f 17/1/29 29/2/28 19/1/27
f 29/2/28 17/1/29 30/2/30
f 19/1/33 29/2/32 17/1/31
f 30/2/34 17/1/31 29/2/32
f 5/2/9 12/1/36 31/2/35
f 12/1/36 5/2/9 6/1/10
f 31/2/38 12/1/37 5/2/15
f 6/1/14 5/2/15 12/1/37
f 11/1/41 33/2/40 32/2/39
f 33/2/40 11/1/41 13/1/42
f 32/2/45 33/2/44 11/1/43
f 13/1/46 11/1/43 33/2/44
f 15/1/48 32/2/39 34/2/47
f 32/2/39 15/1/48 11/1/41
f 34/2/50 32/2/45 15/1/49
f 11/1/43 15/1/49 32/2/45
f 19/1/27 35/2/52 20/1/51
f 35/2/52 19/1/27 29/2/28
f 20/1/54 35/2/53 19/1/33
f 29/2/32 19/1/33 35/2/53
f 15/1/48 30/2/30 17/1/29
f 30/2/30 15/1/48 34/2/47
f 17/1/31 30/2/34 15/1/49
f 34/2/50 15/1/49 30/2/34
f 31/2/35 16/1/20 28/2/22
f 16/1/20 31/2/35 12/1/36
f 28/2/26 16/1/24 31/2/38
f 12/1/37 31/2/38 16/1/24
f 4/2/4 21/1/55 2/1/2
f 21/1/55 4/2/4 36/2/56
f 2/1/6 21/1/57 4/2/8
f 36/2/58 4/2/8 21/1/57
f 22/1/61 37/2/60 23/1/59
f 37/2/60 22/1/61 38/2/62
f 23/1/65 37/2/64 22/1/63
f 38/2/66 22/1/63 37/2/64
f 10/1/69 40/2/68 39/2/67
f 40/2/68 10/1/69 9/1/70
f 39/2/73 40/2/72 10/1/71
f 9/1/74 10/1/71 40/2/72
f 41/2/75 10/1/69 39/2/67
f 10/1/69 41/2/75 14/1/76
f 39/2/73 10/1/71 41/2/77
f 14/1/78 41/2/77 10/1/71
f 42/2/80 1/1/1 26/1/79
f 1/1/1 42/2/80 3/2/3
f 26/1/82 1/1/7 42/2/81
f 3/2/5 42/2/81 1/1/7
f 24/1/85 43/2/84 25/1/83
f 43/2/84 24/1/85 44/2/86
f 25/1/89 43/2/88 24/1/87
f 44/2/90 24/1/87 43/2/88
f 40/2/68 8/1/12 7/2/11
f 8/1/12 40/2/68 9/1/70
f 7/2/13 8/1/16 40/2/72
f 9/1/74 40/2/72 8/1/16
f 20/1/51 38/2/62 22/1/61
f 38/2/62 20/1/51 35/2/52
f 22/1/63 38/2/66 20/1/54
f 35/2/53 20/1/54 38/2/66
f 43/2/18 3/2/18 42/2/18
f 3/2/18 43/2/18 4/2/18
f 4/2/18 43/2/18 44/2/18
f 4/2/18 44/2/18 37/2/18
f 4/2/18 37/2/18 36/2/18
f 36/2/18 37/2/18 38/2/18
f 36/2/18 38/2/18 35/2/18
f 36/2/18 35/2/18 27/2/18
f 27/2/18 35/2/18 29/2/18
f 27/2/18 29/2/18 30/2/18
f 27/2/18 30/2/18 28/2/18
f 28/2/18 30/2/18 34/2/18
f 28/2/18 34/2/18 31/2/18
f 31/2/18 34/2/18 32/2/18
f 31/2/18 32/2/18 5/2/18
f 5/2/18 32/2/18 39/2/18
f 39/2/18 32/2/18 33/2/18
f 39/2/18 33/2/18 41/2/18
f 39/2/18 7/2/18 5/2/18
f 7/2/18 39/2/18 40/2/18
f 42/2/17 3/2/17 43/2/17
f 4/2/17 43/2/17 3/2/17
f 44/2/17 43/2/17 4/2/17
f 37/2/17 44/2/17 4/2/17
f 36/2/17 37/2/17 4/2/17
f 38/2/17 37/2/17 36/2/17
f 35/2/17 38/2/17 36/2/17
f 27/2/17 35/2/17 36/2/17
f 29/2/17 35/2/17 27/2/17
f 30/2/17 29/2/17 27/2/17
f 28/2/17 30/2/17 27/2/17
f 34/2/17 30/2/17 28/2/17
f 31/2/17 34/2/17 28/2/17
f 32/2/17 34/2/17 31/2/17
f 5/2/17 32/2/17 31/2/17
f 39/2/17 32/2/17 5/2/17
f 5/2/17 7/2/17 39/2/17
f 40/2/17 39/2/17 7/2/17
f 33/2/17 32/2/17 39/2/17
f 41/2/17 33/2/17 39/2/17
f 23/1/59 44/2/86 24/1/85
f 44/2/86 23/1/59 37/2/60
f 24/1/87 44/2/90 23/1/65
f 37/2/64 23/1/65 44/2/90
f 36/2/56 18/1/19 21/1/55
f 18/1/19 36/2/56 27/2/21
f 21/1/57 18/1/25 36/2/58
f 27/2/23 36/2/58 18/1/25
f 25/1/83 42/2/80 26/1/79
f 42/2/80 25/1/83 43/2/84
f 26/1/82 42/2/81 25/1/89
f 43/2/88 25/1/89 42/2/81
f 13/1/42 41/2/75 33/2/40
f 41/2/75 13/1/42 14/1/76
f 33/2/44 41/2/77 13/1/46
f 14/1/78 13/1/46 41/2/77

g snow-flat




usemtl colormap

f 3/2/3 2/1/2 1/1/1
f 2/1/2 3/2/3 4/2/4
f 1/1/7 2/1/6 3/2/5
f 4/2/8 3/2/5 2/1/6
f 7/2/11 6/1/10 5/2/9
f 6/1/10 7/2/11 8/1/12
f 5/2/15 6/1/14 7/2/13
f 8/1/16 7/2/13 6/1/14
f 10/1/17 8/1/17 9/1/17
f 8/1/17 10/1/17 6/1/17
f 11/1/17 6/1/17 10/1/17
f 11/1/17 12/1/17 6/1/17
f 11/1/17 10/1/17 13/1/17
f 13/1/17 10/1/17 14/1/17
f 15/1/17 12/1/17 11/1/17
f 15/1/17 16/1/17 12/1/17
f 17/1/17 16/1/17 15/1/17
f 17/1/17 18/1/17 16/1/17
f 19/1/17 18/1/17 17/1/17
f 20/1/17 18/1/17 19/1/17
f 20/1/17 21/1/17 18/1/17
f 22/1/17 21/1/17 20/1/17
f 23/1/17 21/1/17 22/1/17
f 23/1/17 2/1/17 21/1/17
f 24/1/17 2/1/17 23/1/17
f 25/1/17 2/1/17 24/1/17
f 25/1/17 1/1/17 2/1/17
f 1/1/17 25/1/17 26/1/17
f 9/1/18 8/1/18 10/1/18
f 6/1/18 10/1/18 8/1/18
f 10/1/18 6/1/18 11/1/18
f 6/1/18 12/1/18 11/1/18
f 13/1/18 10/1/18 11/1/18
f 14/1/18 10/1/18 13/1/18
f 11/1/18 12/1/18 15/1/18
f 12/1/18 16/1/18 15/1/18
f 15/1/18 16/1/18 17/1/18
f 16/1/18 18/1/18 17/1/18
f 17/1/18 18/1/18 19/1/18
f 19/1/18 18/1/18 20/1/18
f 18/1/18 21/1/18 20/1/18
f 20/1/18 21/1/18 22/1/18
f 22/1/18 21/1/18 23/1/18
f 21/1/18 2/1/18 23/1/18
f 23/1/18 2/1/18 24/1/18
f 24/1/18 2/1/18 25/1/18
f 2/1/18 1/1/18 25/1/18
f 26/1/18 25/1/18 1/1/18
f 27/2/21 16/1/20 18/1/19
f 16/1/20 27/2/21 28/2/22
f 18/1/25 16/1/24 27/2/23
f 28/2/26 27/2/23 16/1/24
f 17/1/29 29/2/28 19/1/27
f 29/2/28 17/1/29 30/2/30
f 19/1/33 29/2/32 17/1/31
f 30/2/34 17/1/31 29/2/32
f 5/2/9 12/1/36 31/2/35
f 12/1/36 5/2/9 6/1/10
f 31/2/38 12/1/37 5/2/15
f 6/1/14 5/2/15 12/1/37
f 11/1/41 33/2/40 32/2/39
f 33/2/40 11/1/41 13/1/42
f 32/2/45 33/2/44 11/1/43
f 13/1/46 11/1/43 33/2/44
f 15/1/48 32/2/39 34/2/47
f 32/2/39 15/1/48 11/1/41
f 34/2/50 32/2/45 15/1/49
f 11/1/43 15/1/49 32/2/45
f 19/1/27 35/2/52 20/1/51
f 35/2/52 19/1/27 29/2/28
f 20/1/54 35/2/53 19/1/33
f 29/2/32 19/1/33 35/2/53
f 15/1/48 30/2/30 17/1/29
f 30/2/30 15/1/48 34/2/47
f 17/1/31 30/2/34 15/1/49
f 34/2/50 15/1/49 30/2/34
f 31/2/35 16/1/20 28/2/22
f 16/1/20 31/2/35 12/1/36
f 28/2/26 16/1/24 31/2/38
f 12/1/37 31/2/38 16/1/24
f 4/2/4 21/1/55 2/1/2
f 21/1/55 4/2/4 36/2/56
f 2/1/6 21/1/57 4/2/8
f 36/2/58 4/2/8 21/1/57
f 22/1/61 37/2/60 23/1/59
f 37/2/60 22/1/61 38/2/62
f 23/1/65 37/2/64 22/1/63
f 38/2/66 22/1/63 37/2/64
f 10/1/69 40/2/68 39/2/67
f 40/2/68 10/1/69 9/1/70
f 39/2/73 40/2/72 10/1/71
f 9/1/74 10/1/71 40/2/72
f 41/2/75 10/1/69 39/2/67
f 10/1/69 41/2/75 14/1/76
f 39/2/73 10/1/71 41/2/77
f 14/1/78 41/2/77 10/1/71
f 42/2/80 1/1/1 26/1/79
f 1/1/1 42/2/80 3/2/3
f 26/1/82 1/1/7 42/2/81
f 3/2/5 42/2/81 1/1/7
f 24/1/85 43/2/84 25/1/83
f 43/2/84 24/1/85 44/2/86
f 25/1/89 43/2/88 24/1/87
f 44/2/90 24/1/87 43/2/88
f 40/2/68 8/1/12 7/2/11
f 8/1/12 40/2/68 9/1/70
f 7/2/13 8/1/16 40/2/72
f 9/1/74 40/2/72 8/1/16
f 20/1/51 38/2/62 22/1/61
f 38/2/62 20/1/51 35/2/52
f 22/1/63 38/2/66 20/1/54
f 35/2/53 20/1/54 38/2/66
f 43/2/18 3/2/18 42/2/18
f 3/2/18 43/2/18 4/2/18
f 4/2/18 43/2/18 44/2/18
f 4/2/18 44/2/18 37/2/18
f 4/2/18 37/2/18 36/2/18
f 36/2/18 37/2/18 38/2/18
f 36/2/18 38/2/18 35/2/18
f 36/2/18 35/2/18 27/2/18
f 27/2/18 35/2/18 29/2/18
f 27/2/18 29/2/18 30/2/18
f 27/2/18 30/2/18 28/2/18
f 28/2/18 30/2/18 34/2/18
f 28/2/18 34/2/18 31/2/18
f 31/2/18 34/2/18 32/2/18
f 31/2/18 32/2/18 5/2/18
f 5/2/18 32/2/18 39/2/18
f 39/2/18 32/2/18 33/2/18
f 39/2/18 33/2/18 41/2/18
f 39/2/18 7/2/18 5/2/18
f 7/2/18 39/2/18 40/2/18
f 42/2/17 3/2/17 43/2/17
f 4/2/17 43/2/17 3/2/17
f 44/2/17 43/2/17 4/2/17
f 37/2/17 44/2/17 4/2/17
f 36/2/17 37/2/17 4/2/17
f 38/2/17 37/2/17 36/2/17
f 35/2/17 38/2/17 36/2/17
f 27/2/17 35/2/17 36/2/17
f 29/2/17 35/2/17 27/2/17
f 30/2/17 29/2/17 27/2/17
f 28/2/17 30/2/17 27/2/17
f 34/2/17 30/2/17 28/2/17
f 31/2/17 34/2/17 28/2/17
f 32/2/17 34/2/17 31/2/17
f 5/2/17 32/2/17 31/2/17
f 39/2/17 32/2/17 5/2/17
f 5/2/17 7/2/17 39/2/17
f 40/2/17 39/2/17 7/2/17
f 33/2/17 32/2/17 39/2/17
f 41/2/17 33/2/17 39/2/17
f 23/1/59 44/2/86 24/1/85
f 44/2/86 23/1/59 37/2/60
f 24/1/87 44/2/90 23/1/65
f 37/2/64 23/1/65 44/2/90
f 36/2/56 18/1/19 21/1/55
f 18/1/19 36/2/56 27/2/21
f 21/1/57 18/1/25 36/2/58
f 27/2/23 36/2/58 18/1/25
f 25/1/83 42/2/80 26/1/79
f 42/2/80 25/1/83 43/2/84
f 26/1/82 42/2/81 25/1/89
f 43/2/88 25/1/89 42/2/81
f 13/1/42 41/2/75 33/2/40
f 41/2/75 13/1/42 14/1/76
f 33/2/44 41/2/77 13/1/46
f 14/1/78 13/1/46 41/2/77

