# Created by Kenney (www.kenney.nl)

mtllib sock-red.mtl

g sock-red

v 0.1090652 0.4638078 0.075 1 1 1
v 0.1090652 0.4638078 -0.075 1 1 1
v 0.08491708 0.4573373 0.1 1 1 1
v 0.08491708 0.4573373 -0.1 1 1 1
v 0.08491708 0.4573373 0.05 1 1 1
v 0.06076894 0.4508669 0.075 1 1 1
v 0.08491708 0.4573373 -0.05 1 1 1
v 0.06076894 0.4508669 -0.075 1 1 1
v -0.1082681 0.4055735 0.1 1 1 1
v -0.08411993 0.412044 0.075 1 1 1
v -0.1082681 0.4055735 0.05 1 1 1
v -0.1324162 0.399103 0.075 1 1 1
v -0.1082681 0.4055735 -0.1 1 1 1
v -0.08411993 0.412044 -0.075 1 1 1
v -0.1082681 0.4055735 -0.05 1 1 1
v -0.1324162 0.399103 -0.075 1 1 1
v -0.1276795 0.478018 0.1 1 1 1
v -0.1518276 0.4715475 0.075 1 1 1
v -0.1518276 0.4715475 -0.075 1 1 1
v -0.13415 0.5021661 0.06464466 1 1 1
v -0.1241475 0.5048463 0.075 1 1 1
v -0.13415 0.5021661 -0.06464466 1 1 1
v 0.04903269 0.5512497 0.075 1 1 1
v -0.1276795 0.478018 -0.1 1 1 1
v -0.1241475 0.5048463 -0.075 1 1 1
v 0.06550565 0.5297818 0.1 1 1 1
v 0.05903518 0.5539299 0.06464466 1 1 1
v 0.06550565 0.5297818 -0.1 1 1 1
v 0.04903269 0.5512497 -0.075 1 1 1
v 0.05903518 0.5539299 -0.06464466 1 1 1
v 0.08965379 0.5362523 0.075 1 1 1
v 0.08965379 0.5362523 -0.075 1 1 1
v 0.09568418 0.5646817 0.01925 1 1 1
v 0.08909721 0.5646918 0.01925 1 1 1
v 0.114036 0.5820323 0.01925 1 1 1
v 0.08579493 0.5703913 0.01925 1 1 1
v 0.09164508 0.5949597 0.01925 1 1 1
v 0.1198861 0.6066008 0.01925 1 1 1
v 0.1099969 0.6123103 0.01925 1 1 1
v 0.1165839 0.6123002 0.01925 1 1 1
v 0.06251009 0.6117808 -0.01925 1 1 1
v 0.06251009 0.6117808 0.01925 1 1 1
v 0.05145477 0.5653526 -0.01925 1 1 1
v 0.05145477 0.5653526 0.01925 1 1 1
v 0.1084906 0.5324229 0.01925 1 1 1
v 0.1084906 0.5324229 -0.01925 1 1 1
v 0.07050054 0.5324815 0.01925 1 1 1
v 0.07050054 0.5324815 -0.01925 1 1 1
v 0.08909721 0.5646919 0.01925 1 1 1
v 0.08579493 0.5703913 0.01925 1 1 1
v 0.143171 0.5652112 0.01925 1 1 1
v 0.114036 0.5820323 0.01925 1 1 1
v 0.09164508 0.5949597 0.01925 1 1 1
v 0.1099969 0.6123103 0.01925 1 1 1
v 0.1542263 0.6116394 0.01925 1 1 1
v 0.09719044 0.6445691 0.01925 1 1 1
v 0.1198862 0.6066008 0.01925 1 1 1
v 0.1165839 0.6123002 0.01925 1 1 1
v 0.1351805 0.6445105 0.01925 1 1 1
v 0.143171 0.5652112 -0.01925 1 1 1
v 0.09719044 0.6445691 -0.01925 1 1 1
v 0.1351805 0.6445105 -0.01925 1 1 1
v 0.1542263 0.6116394 -0.01925 1 1 1
v 0.03338418 0.03169873 0.05 1 1 1
v 0.01985428 0.0551332 0.075 1 1 1
v 0.07997677 0.09241936 0.05 1 1 1
v 0.05708002 0.1036467 0.075 1 1 1
v 0.03338418 0.03169873 -0.05 1 1 1
v -0.04249772 0.02170869 0.05 1 1 1
v -0.04249772 0.02170869 -0.05 1 1 1
v 0.01985428 0.0551332 -0.075 1 1 1
v 0.05708002 0.1036467 -0.075 1 1 1
v -0.03549413 0.04784645 -0.075 1 1 1
v -0.07978387 0.08183116 -0.075 1 1 1
v 0.09303956 0.2403092 -0.075 1 1 1
v -0.08777317 0.142516 -0.075 1 1 1
v -0.04983665 0.2840971 -0.075 1 1 1
v 0.09283482 0.3311953 -0.075 1 1 1
v 0.06076892 0.4508669 -0.075 1 1 1
v -0.03549413 0.04784645 0.075 1 1 1
v 0.07997677 0.09241936 -0.05 1 1 1
v 0.1180468 0.2371029 -0.05 1 1 1
v -0.1032183 0.06830127 0.05 1 1 1
v -0.07978387 0.08183116 0.075 1 1 1
v -0.07571857 0.2840971 -0.05 1 1 1
v -0.07571857 0.2840971 0.05 1 1 1
v -0.1132084 0.1441832 -0.05 1 1 1
v -0.1132084 0.1441832 0.05 1 1 1
v -0.1032183 0.06830127 -0.05 1 1 1
v 0.1180468 0.2371029 0.05 1 1 1
v 0.09303956 0.2403092 0.075 1 1 1
v -0.1082681 0.4055735 -0.05 1 1 1
v -0.1082681 0.4055735 0.05 1 1 1
v 0.08491706 0.4573374 -0.05 1 1 1
v 0.1178274 0.3345143 -0.05 1 1 1
v 0.1178274 0.3345143 0.05 1 1 1
v 0.09283482 0.3311953 0.075 1 1 1
v 0.08491706 0.4573374 0.05 1 1 1
v -0.04983665 0.2840971 0.075 1 1 1
v -0.08777317 0.142516 0.075 1 1 1
v 0.06076892 0.4508669 0.075 1 1 1

vn 0.258819 -0.9659258 0
vn -0.3696438 -0.09904576 0.9238795
vn -0.4390454 0.2642215 0.8587352
vn 0.3696438 0.09904576 0.9238795
vn -0.892399 -0.2391176 0.3826834
vn -0.9249403 0.1340263 0.3556998
vn -0.892399 -0.2391176 -0.3826834
vn -0.9249403 0.1340263 -0.3556998
vn -0.3696438 -0.09904576 -0.9238795
vn -0.6233156 0.7638198 0.167502
vn -0.3945037 0.8251297 0.4043856
vn -0.6233156 0.7638198 -0.167502
vn -0.0709147 0.9118352 0.4043856
vn -0.4390454 0.2642215 -0.8587352
vn -0.3945037 0.8251297 -0.4043856
vn 0.3696438 0.09904576 -0.9238795
vn 0.2481138 0.4483452 0.8587352
vn 0.1578972 0.9731451 0.167502
vn 0.2481138 0.4483452 -0.8587352
vn -0.0709147 0.9118352 -0.4043856
vn 0.1578972 0.9731451 -0.167502
vn 0.7340086 0.5785404 0.3556998
vn 0.892399 0.2391176 0.3826834
vn 0.892399 0.2391176 -0.3826834
vn 0.7340086 0.5785404 -0.3556998
vn 0 0 1
vn -0.8660254 0.5000001 0
vn -0.9894061 -0.1451737 0
vn 0.3689788 -0.9294378 0
vn -0.5000001 -0.8660254 0
vn 0 0 0.9999999
vn 0.8660254 -0.5000001 0
vn -0.3689788 0.9294378 0
vn 0.5000001 0.8660254 0
vn 0 0 -0.9999999
vn 0.9894061 0.1451737 0
vn 0.4647441 -0.8049604 0.3688517
vn 0.2188519 -0.3790626 0.8991193
vn 0.8338257 -0.4088649 0.3708966
vn 0.3748998 -0.1838315 0.9086562
vn 0.4647441 -0.8049604 -0.3688517
vn -0.2405692 -0.8978166 0.3688517
vn -0.2405692 -0.8978166 -0.3688517
vn 0.2188519 -0.3790626 -0.8991193
vn 0.3748998 -0.1838315 -0.9086562
vn -0.1132861 -0.4227894 -0.8991193
vn -0.3790626 -0.2188519 -0.8991193
vn 0.4036718 -0.05175746 -0.9134387
vn -0.4163327 0.02728789 -0.9088028
vn -0.3186576 -7.450581E-09 -0.9478698
vn 0.4034345 0.05357547 -0.9134387
vn -0.1132861 -0.4227894 0.8991193
vn 0.8338257 -0.4088649 -0.3708966
vn 0.9199718 -0.1179558 -0.3738157
vn -0.8049604 -0.4647441 0.3688517
vn -0.3790626 -0.2188519 0.8991193
vn -0.9093993 -1.490116E-08 -0.4159239
vn -0.9093993 -1.490116E-08 0.4159239
vn -0.9266552 0.06073616 -0.3709733
vn -0.9266552 0.06073616 0.3709733
vn -0.8049604 -0.4647441 -0.3688517
vn 0.9199718 -0.1179558 0.3738157
vn 0.4036718 -0.05175746 0.9134387
vn 0.9194311 0.122099 -0.3738157
vn 0.9194311 0.122099 0.3738157
vn 0.4034345 0.05357547 0.9134387
vn -0.3186576 -7.450581E-09 0.9478698
vn -0.4163327 0.02728789 0.9088028

vt 0.09375 0.275
vt 0.09375 0.425
vt 0.09375 0.475
vt 0.84375 0.225
vt 0.84375 0.025
vt 0.84375 0.02502132
vt 0.84375 0.06142895
vt 0.84375 0.03698767
vt 0.84375 0.08857106
vt 0.84375 0.1130123
vt 0.84375 0.125
vt 0.84375 0.1249787
vt 0.46875 0.125
vt 0.46875 0.05428932
vt 0.46875 0.025
vt 0.46875 0.08250362
vt 0.46875 0.08758199
vt 0.46875 0.162418
vt 0.46875 0.1957107
vt 0.46875 0.1674964
vt 0.46875 0.225
vt 0.46875 0.2118587
vt 0.46875 0.2015747
vt 0.46875 0.1931428
vt 0.46875 0.2199773
vt 0.46875 0.2081952
vt 0.46875 0.1859277
vt 0.46875 0.1314538
vt 0.46875 0.1554173
vt 0.46875 0.09159688
vt 0.46875 0.0872895
vt 0.46875 0.136265
vt 0.46875 0.1894489
vt 0.46875 0.08822895
vt 0.46875 0.1512979
vt 0.46875 0.08892987

usemtl colormap

f 3/1/1 2/1/1 1/1/1
f 2/1/1 3/1/1 4/1/1
f 4/1/1 3/1/1 5/1/1
f 3/1/1 6/1/1 5/1/1
f 4/1/1 5/1/1 7/1/1
f 4/1/1 7/1/1 8/1/1
f 6/1/1 3/1/1 9/1/1
f 6/1/1 9/1/1 10/1/1
f 10/1/1 9/1/1 11/1/1
f 11/1/1 9/1/1 12/1/1
f 4/1/1 8/1/1 13/1/1
f 13/1/1 8/1/1 14/1/1
f 11/1/1 12/1/1 15/1/1
f 13/1/1 14/1/1 15/1/1
f 16/1/1 15/1/1 12/1/1
f 13/1/1 15/1/1 16/1/1
f 3/1/4 17/2/3 9/1/2
f 17/2/3 12/1/5 9/1/2
f 12/1/5 17/2/3 18/2/6
f 18/2/6 16/1/7 12/1/5
f 16/1/7 18/2/6 19/2/8
f 19/2/8 13/1/9 16/1/7
f 17/2/3 20/3/10 18/2/6
f 20/3/10 19/2/8 18/2/6
f 20/3/10 17/2/3 21/3/11
f 19/2/8 20/3/10 22/3/12
f 17/2/3 23/3/13 21/3/11
f 13/1/9 19/2/8 24/2/14
f 22/3/12 24/2/14 19/2/8
f 24/2/14 22/3/12 25/3/15
f 24/2/14 4/1/16 13/1/9
f 23/3/13 17/2/3 26/2/17
f 17/2/3 3/1/4 26/2/17
f 26/2/17 27/3/18 23/3/13
f 25/3/15 28/2/19 24/2/14
f 4/1/16 24/2/14 28/2/19
f 28/2/19 25/3/15 29/3/20
f 30/3/21 28/2/19 29/3/20
f 3/1/4 31/2/22 26/2/17
f 27/3/18 26/2/17 31/2/22
f 31/2/22 3/1/4 1/1/23
f 2/1/24 31/2/22 1/1/23
f 32/2/25 4/1/16 28/2/19
f 28/2/19 30/3/21 32/2/25
f 27/3/18 32/2/25 30/3/21
f 32/2/25 27/3/18 31/2/22
f 4/1/16 32/2/25 2/1/24
f 31/2/22 2/1/24 32/2/25
f 29/4/20 27/4/18 30/4/21
f 27/4/18 29/4/20 23/4/13
f 23/4/13 29/4/20 25/4/15
f 23/4/13 25/4/15 21/4/11
f 21/4/11 25/4/15 22/4/12
f 21/4/11 22/4/12 20/4/10
f 35/7/26 34/6/26 33/5/26
f 34/6/26 35/7/26 36/8/26
f 36/8/26 35/7/26 37/9/26
f 37/9/26 35/7/26 38/10/26
f 37/9/26 38/10/26 39/11/26
f 39/11/26 38/10/26 40/12/26
f 43/14/28 42/13/27 41/13/27
f 42/13/27 43/14/28 44/14/28
f 47/15/30 46/14/29 45/14/29
f 46/14/29 47/15/30 48/15/30
f 45/14/31 44/14/31 47/15/31
f 44/14/31 45/14/31 49/16/31
f 45/14/31 33/17/31 49/16/31
f 44/14/31 49/16/31 50/17/31
f 33/17/31 45/14/31 51/13/31
f 33/17/31 51/13/31 52/13/31
f 44/14/31 50/17/31 42/13/31
f 42/13/31 50/17/31 53/13/31
f 42/13/31 53/13/31 54/18/31
f 52/13/31 51/13/31 55/19/31
f 42/13/31 54/18/31 56/19/31
f 52/13/31 55/19/31 57/18/31
f 56/19/31 54/18/31 58/20/31
f 57/18/31 55/19/31 58/20/31
f 56/19/31 58/20/31 55/19/31
f 56/19/31 55/19/31 59/21/31
f 51/13/32 46/14/29 60/13/32
f 46/14/29 51/13/32 45/14/29
f 41/13/27 56/19/33 61/19/33
f 56/19/33 41/13/27 42/13/27
f 62/21/34 56/19/33 59/21/34
f 56/19/33 62/21/34 61/19/33
f 43/14/35 46/14/35 48/15/35
f 46/14/35 43/14/35 60/13/35
f 60/13/35 43/14/35 41/13/35
f 60/13/35 41/13/35 61/19/35
f 60/13/35 61/19/35 63/19/35
f 63/19/35 61/19/35 62/21/35
f 44/14/28 48/15/30 47/15/30
f 48/15/30 44/14/28 43/14/28
f 55/19/36 60/13/32 63/19/36
f 60/13/32 55/19/36 51/13/32
f 62/21/34 55/19/36 63/19/36
f 55/19/36 62/21/34 59/21/34
f 66/23/39 65/22/38 64/21/37
f 65/22/38 66/23/39 67/24/40
f 69/25/42 68/21/41 64/21/37
f 68/21/41 69/25/42 70/25/43
f 73/26/46 72/24/45 71/22/44
f 72/24/45 73/26/46 74/27/47
f 72/24/45 74/27/47 75/28/48
f 75/28/48 74/27/47 76/29/49
f 75/28/48 76/29/49 77/30/50
f 75/28/48 77/30/50 78/31/51
f 78/31/51 77/30/50 14/15/9
f 78/31/51 14/15/9 79/15/16
f 65/22/38 69/25/42 64/21/37
f 69/25/42 65/22/38 80/26/52
f 72/24/45 82/32/54 81/23/53
f 82/32/54 72/24/45 75/28/48
f 80/26/52 83/33/55 69/25/42
f 83/33/55 80/26/52 84/27/56
f 64/21/37 81/23/53 66/23/39
f 81/23/53 64/21/37 68/21/41
f 87/35/59 86/34/58 85/34/57
f 86/34/58 87/35/59 88/35/60
f 70/25/43 83/33/55 89/33/61
f 83/33/55 70/25/43 69/25/42
f 90/32/62 81/23/53 82/32/54
f 81/23/53 90/32/62 66/23/39
f 90/32/62 67/24/40 66/23/39
f 67/24/40 90/32/62 91/28/63
f 85/34/57 93/15/5 92/15/7
f 93/15/5 85/34/57 86/34/58
f 94/15/24 78/31/51 79/15/16
f 78/31/51 94/15/24 95/36/64
f 96/36/65 91/28/63 90/32/62
f 91/28/63 96/36/65 97/31/66
f 87/35/59 74/27/47 89/33/61
f 74/27/47 87/35/59 76/29/49
f 98/15/23 95/36/64 94/15/24
f 95/36/64 98/15/23 96/36/65
f 89/33/61 88/35/60 87/35/59
f 88/35/60 89/33/61 83/33/55
f 86/34/58 10/15/2 93/15/5
f 10/15/2 86/34/58 99/30/67
f 99/30/67 88/35/60 100/29/68
f 88/35/60 99/30/67 86/34/58
f 75/28/48 95/36/64 82/32/54
f 95/36/64 75/28/48 78/31/51
f 70/25/43 71/22/44 68/21/41
f 71/22/44 70/25/43 73/26/46
f 71/22/44 81/23/53 68/21/41
f 81/23/53 71/22/44 72/24/45
f 96/36/65 82/32/54 95/36/64
f 82/32/54 96/36/65 90/32/62
f 89/33/61 73/26/46 70/25/43
f 73/26/46 89/33/61 74/27/47
f 87/35/59 77/30/50 76/29/49
f 77/30/50 87/35/59 85/34/57
f 84/27/56 88/35/60 83/33/55
f 88/35/60 84/27/56 100/29/68
f 101/15/4 96/36/65 98/15/23
f 96/36/65 101/15/4 97/31/66
f 67/24/40 80/26/52 65/22/38
f 80/26/52 67/24/40 84/27/56
f 84/27/56 67/24/40 91/28/63
f 84/27/56 91/28/63 100/29/68
f 100/29/68 91/28/63 99/30/67
f 99/30/67 91/28/63 97/31/66
f 99/30/67 97/31/66 10/15/2
f 10/15/2 97/31/66 101/15/4
f 85/34/57 14/15/9 77/30/50
f 14/15/9 85/34/57 92/15/7

g sock-red




usemtl colormap

f 3/1/1 2/1/1 1/1/1
f 2/1/1 3/1/1 4/1/1
f 4/1/1 3/1/1 5/1/1
f 3/1/1 6/1/1 5/1/1
f 4/1/1 5/1/1 7/1/1
f 4/1/1 7/1/1 8/1/1
f 6/1/1 3/1/1 9/1/1
f 6/1/1 9/1/1 10/1/1
f 10/1/1 9/1/1 11/1/1
f 11/1/1 9/1/1 12/1/1
f 4/1/1 8/1/1 13/1/1
f 13/1/1 8/1/1 14/1/1
f 11/1/1 12/1/1 15/1/1
f 13/1/1 14/1/1 15/1/1
f 16/1/1 15/1/1 12/1/1
f 13/1/1 15/1/1 16/1/1
f 3/1/4 17/2/3 9/1/2
f 17/2/3 12/1/5 9/1/2
f 12/1/5 17/2/3 18/2/6
f 18/2/6 16/1/7 12/1/5
f 16/1/7 18/2/6 19/2/8
f 19/2/8 13/1/9 16/1/7
f 17/2/3 20/3/10 18/2/6
f 20/3/10 19/2/8 18/2/6
f 20/3/10 17/2/3 21/3/11
f 19/2/8 20/3/10 22/3/12
f 17/2/3 23/3/13 21/3/11
f 13/1/9 19/2/8 24/2/14
f 22/3/12 24/2/14 19/2/8
f 24/2/14 22/3/12 25/3/15
f 24/2/14 4/1/16 13/1/9
f 23/3/13 17/2/3 26/2/17
f 17/2/3 3/1/4 26/2/17
f 26/2/17 27/3/18 23/3/13
f 25/3/15 28/2/19 24/2/14
f 4/1/16 24/2/14 28/2/19
f 28/2/19 25/3/15 29/3/20
f 30/3/21 28/2/19 29/3/20
f 3/1/4 31/2/22 26/2/17
f 27/3/18 26/2/17 31/2/22
f 31/2/22 3/1/4 1/1/23
f 2/1/24 31/2/22 1/1/23
f 32/2/25 4/1/16 28/2/19
f 28/2/19 30/3/21 32/2/25
f 27/3/18 32/2/25 30/3/21
f 32/2/25 27/3/18 31/2/22
f 4/1/16 32/2/25 2/1/24
f 31/2/22 2/1/24 32/2/25
f 29/4/20 27/4/18 30/4/21
f 27/4/18 29/4/20 23/4/13
f 23/4/13 29/4/20 25/4/15
f 23/4/13 25/4/15 21/4/11
f 21/4/11 25/4/15 22/4/12
f 21/4/11 22/4/12 20/4/10
f 35/7/26 34/6/26 33/5/26
f 34/6/26 35/7/26 36/8/26
f 36/8/26 35/7/26 37/9/26
f 37/9/26 35/7/26 38/10/26
f 37/9/26 38/10/26 39/11/26
f 39/11/26 38/10/26 40/12/26
f 43/14/28 42/13/27 41/13/27
f 42/13/27 43/14/28 44/14/28
f 47/15/30 46/14/29 45/14/29
f 46/14/29 47/15/30 48/15/30
f 45/14/31 44/14/31 47/15/31
f 44/14/31 45/14/31 49/16/31
f 45/14/31 33/17/31 49/16/31
f 44/14/31 49/16/31 50/17/31
f 33/17/31 45/14/31 51/13/31
f 33/17/31 51/13/31 52/13/31
f 44/14/31 50/17/31 42/13/31
f 42/13/31 50/17/31 53/13/31
f 42/13/31 53/13/31 54/18/31
f 52/13/31 51/13/31 55/19/31
f 42/13/31 54/18/31 56/19/31
f 52/13/31 55/19/31 57/18/31
f 56/19/31 54/18/31 58/20/31
f 57/18/31 55/19/31 58/20/31
f 56/19/31 58/20/31 55/19/31
f 56/19/31 55/19/31 59/21/31
f 51/13/32 46/14/29 60/13/32
f 46/14/29 51/13/32 45/14/29
f 41/13/27 56/19/33 61/19/33
f 56/19/33 41/13/27 42/13/27
f 62/21/34 56/19/33 59/21/34
f 56/19/33 62/21/34 61/19/33
f 43/14/35 46/14/35 48/15/35
f 46/14/35 43/14/35 60/13/35
f 60/13/35 43/14/35 41/13/35
f 60/13/35 41/13/35 61/19/35
f 60/13/35 61/19/35 63/19/35
f 63/19/35 61/19/35 62/21/35
f 44/14/28 48/15/30 47/15/30
f 48/15/30 44/14/28 43/14/28
f 55/19/36 60/13/32 63/19/36
f 60/13/32 55/19/36 51/13/32
f 62/21/34 55/19/36 63/19/36
f 55/19/36 62/21/34 59/21/34
f 66/23/39 65/22/38 64/21/37
f 65/22/38 66/23/39 67/24/40
f 69/25/42 68/21/41 64/21/37
f 68/21/41 69/25/42 70/25/43
f 73/26/46 72/24/45 71/22/44
f 72/24/45 73/26/46 74/27/47
f 72/24/45 74/27/47 75/28/48
f 75/28/48 74/27/47 76/29/49
f 75/28/48 76/29/49 77/30/50
f 75/28/48 77/30/50 78/31/51
f 78/31/51 77/30/50 14/15/9
f 78/31/51 14/15/9 79/15/16
f 65/22/38 69/25/42 64/21/37
f 69/25/42 65/22/38 80/26/52
f 72/24/45 82/32/54 81/23/53
f 82/32/54 72/24/45 75/28/48
f 80/26/52 83/33/55 69/25/42
f 83/33/55 80/26/52 84/27/56
f 64/21/37 81/23/53 66/23/39
f 81/23/53 64/21/37 68/21/41
f 87/35/59 86/34/58 85/34/57
f 86/34/58 87/35/59 88/35/60
f 70/25/43 83/33/55 89/33/61
f 83/33/55 70/25/43 69/25/42
f 90/32/62 81/23/53 82/32/54
f 81/23/53 90/32/62 66/23/39
f 90/32/62 67/24/40 66/23/39
f 67/24/40 90/32/62 91/28/63
f 85/34/57 93/15/5 92/15/7
f 93/15/5 85/34/57 86/34/58
f 94/15/24 78/31/51 79/15/16
f 78/31/51 94/15/24 95/36/64
f 96/36/65 91/28/63 90/32/62
f 91/28/63 96/36/65 97/31/66
f 87/35/59 74/27/47 89/33/61
f 74/27/47 87/35/59 76/29/49
f 98/15/23 95/36/64 94/15/24
f 95/36/64 98/15/23 96/36/65
f 89/33/61 88/35/60 87/35/59
f 88/35/60 89/33/61 83/33/55
f 86/34/58 10/15/2 93/15/5
f 10/15/2 86/34/58 99/30/67
f 99/30/67 88/35/60 100/29/68
f 88/35/60 99/30/67 86/34/58
f 75/28/48 95/36/64 82/32/54
f 95/36/64 75/28/48 78/31/51
f 70/25/43 71/22/44 68/21/41
f 71/22/44 70/25/43 73/26/46
f 71/22/44 81/23/53 68/21/41
f 81/23/53 71/22/44 72/24/45
f 96/36/65 82/32/54 95/36/64
f 82/32/54 96/36/65 90/32/62
f 89/33/61 73/26/46 70/25/43
f 73/26/46 89/33/61 74/27/47
f 87/35/59 77/30/50 76/29/49
f 77/30/50 87/35/59 85/34/57
f 84/27/56 88/35/60 83/33/55
f 88/35/60 84/27/56 100/29/68
f 101/15/4 96/36/65 98/15/23
f 96/36/65 101/15/4 97/31/66
f 67/24/40 80/26/52 65/22/38
f 80/26/52 67/24/40 84/27/56
f 84/27/56 67/24/40 91/28/63
f 84/27/56 91/28/63 100/29/68
f 100/29/68 91/28/63 99/30/67
f 99/30/67 91/28/63 97/31/66
f 99/30/67 97/31/66 10/15/2
f 10/15/2 97/31/66 101/15/4
f 85/34/57 14/15/9 77/30/50
f 14/15/9 85/34/57 92/15/7

