# Created by Kenney (www.kenney.nl)

mtllib trainset-rail-detailed-corner.mtl

g trainset-rail-detailed-corner

v 0.098511 0.021021 -0.25 1 1 1
v 0.04649751 0.021021 -0.25 1 1 1
v 0.07198218 0.021021 -0.1166306 1 1 1
v 0.02392797 0.021021 -0.1365353 1 1 1
v -0.003565505 0.021021 -0.003565505 1 1 1
v -0.0403446 0.021021 -0.0403446 1 1 1
v -0.1166306 0.021021 0.07198218 1 1 1
v -0.1365353 0.021021 0.02392797 1 1 1
v -0.25 0.021021 0.098511 1 1 1
v -0.25 0.021021 0.04649751 1 1 1
v -0.04649749 0.021021 -0.25 1 1 1
v -0.098511 0.021021 -0.25 1 1 1
v -0.0619882 0.021021 -0.172123 1 1 1
v -0.106102 0.021021 -0.106102 1 1 1
v -0.1100424 0.021021 -0.1920277 1 1 1
v -0.172123 0.021021 -0.0619882 1 1 1
v -0.1428811 0.021021 -0.1428811 1 1 1
v -0.1920277 0.021021 -0.1100424 1 1 1
v -0.25 0.021021 -0.04649749 1 1 1
v -0.25 0.021021 -0.098511 1 1 1
v -0.04649749 0.036156 -0.25 1 1 1
v -0.0619882 0.036156 -0.172123 1 1 1
v -0.098511 0.036156 -0.25 1 1 1
v -0.106102 0.036156 -0.106102 1 1 1
v -0.1100424 0.036156 -0.1920277 1 1 1
v -0.172123 0.036156 -0.0619882 1 1 1
v -0.1428811 0.036156 -0.1428811 1 1 1
v -0.1920277 0.036156 -0.1100424 1 1 1
v -0.25 0.036156 -0.04649749 1 1 1
v -0.25 0.036156 -0.098511 1 1 1
v 0.098511 0.036156 -0.25 1 1 1
v 0.07198218 0.036156 -0.1166306 1 1 1
v 0.04649751 0.036156 -0.25 1 1 1
v 0.02392797 0.036156 -0.1365353 1 1 1
v -0.003565505 0.036156 -0.003565505 1 1 1
v -0.0403446 0.036156 -0.0403446 1 1 1
v -0.1166306 0.036156 0.07198218 1 1 1
v -0.1365353 0.036156 0.02392797 1 1 1
v -0.25 0.036156 0.098511 1 1 1
v -0.25 0.036156 0.04649751 1 1 1
v -0.2 0 0.15 1 1 1
v -0.2 0 -0.15 1 1 1
v -0.25 0 0.15 1 1 1
v -0.25 0 -0.15 1 1 1
v -0.2 0.021021 -0.15 1 1 1
v -0.2 0.021021 0.15 1 1 1
v -0.25 0.021021 -0.15 1 1 1
v -0.25 0.021021 0.15 1 1 1
v -0.15 0 -0.2 1 1 1
v 0.15 0 -0.2 1 1 1
v -0.15 0 -0.25 1 1 1
v 0.15 0 -0.25 1 1 1
v 0.15 0.021021 -0.2 1 1 1
v -0.15 0.021021 -0.2 1 1 1
v 0.15 0.021021 -0.25 1 1 1
v -0.15 0.021021 -0.25 1 1 1

vn 0 -1 0
vn 0.7381161 0.6585046 0.1468204
vn 0.6894013 0.6657189 0.2855594
vn -0.6515982 0.7474093 -0.129611
vn 0.5276449 0.6657189 0.5276449
vn -0.6071194 0.7537675 -0.2514771
vn 0.2855594 0.6657189 0.6894013
vn -0.4646691 0.7537675 -0.4646691
vn -0.2514771 0.7537675 -0.6071194
vn 0.1468204 0.6585046 0.7381161
vn -0.129611 0.7474093 -0.6515982
vn -1 0 0
vn 0.3826834 0 0.9238795
vn 0.1950903 0 0.9807853
vn 0.7071068 0 0.7071068
vn 0.9238795 0 0.3826834
vn 0.9807853 0 0.1950903
vn 0 0 -1
vn -0.9807853 0 -0.1950903
vn -0.9238795 0 -0.3826834
vn -0.7071068 0 -0.7071068
vn -0.3826834 0 -0.9238795
vn -0.1950903 0 -0.9807853
vn 0 0.7071068 -0.7071068
vn 0 0.7071068 0.7071068
vn 1 0 0
vn 0 0 1
vn 0.7071068 0.7071068 8.42937E-08
vn -0.7071068 0.7071068 -8.42937E-08
vn 1.192093E-07 0 -1
vn 1 0 1.192093E-07
vn -1.192093E-07 0 1
vn -1 0 -1.192093E-07

vt 0.96875 0.075
vt 0.96875 0.175
vt 0.21875 0.325
vt 0.21875 0.425

usemtl colormap

f 3/1/1 2/1/1 1/1/1
f 2/1/1 3/1/1 4/1/1
f 4/1/1 3/1/1 5/1/1
f 4/1/1 5/1/1 6/1/1
f 6/1/1 5/1/1 7/1/1
f 6/1/1 7/1/1 8/1/1
f 8/1/1 7/1/1 9/1/1
f 8/1/1 9/1/1 10/1/1
f 13/1/1 12/1/1 11/1/1
f 12/1/1 13/1/1 14/1/1
f 12/1/1 14/1/1 15/1/1
f 15/1/1 14/1/1 16/1/1
f 15/1/1 16/1/1 17/1/1
f 17/1/1 16/1/1 18/1/1
f 18/1/1 16/1/1 19/1/1
f 18/1/1 19/1/1 20/1/1
f 23/2/4 22/2/3 21/2/2
f 22/2/3 23/2/4 24/2/5
f 24/2/5 23/2/4 25/2/6
f 24/2/5 25/2/6 26/2/7
f 26/2/7 25/2/6 27/2/8
f 26/2/7 27/2/8 28/2/9
f 26/2/7 28/2/9 29/2/10
f 29/2/10 28/2/9 30/2/11
f 19/1/12 30/2/12 20/1/12
f 30/2/12 19/1/12 29/2/12
f 26/2/7 19/1/14 16/1/13
f 19/1/14 26/2/7 29/2/10
f 14/1/15 26/2/7 16/1/13
f 26/2/7 14/1/15 24/2/5
f 24/2/5 13/1/16 22/2/3
f 13/1/16 24/2/5 14/1/15
f 22/2/3 11/1/17 21/2/2
f 11/1/17 22/2/3 13/1/16
f 12/1/18 21/2/18 11/1/18
f 21/2/18 12/1/18 23/2/18
f 15/1/20 23/2/4 12/1/19
f 23/2/4 15/1/20 25/2/6
f 17/1/21 25/2/6 15/1/20
f 25/2/6 17/1/21 27/2/8
f 28/2/9 17/1/21 18/1/22
f 17/1/21 28/2/9 27/2/8
f 30/2/11 18/1/22 20/1/23
f 18/1/22 30/2/11 28/2/9
f 33/2/4 32/2/3 31/2/2
f 32/2/3 33/2/4 34/2/6
f 32/2/3 34/2/6 35/2/5
f 35/2/5 34/2/6 36/2/8
f 35/2/5 36/2/8 37/2/7
f 37/2/7 36/2/8 38/2/9
f 37/2/7 38/2/9 39/2/10
f 39/2/10 38/2/9 40/2/11
f 9/1/12 40/2/12 10/1/12
f 40/2/12 9/1/12 39/2/12
f 37/2/7 9/1/14 7/1/13
f 9/1/14 37/2/7 39/2/10
f 35/2/5 7/1/13 5/1/15
f 7/1/13 35/2/5 37/2/7
f 35/2/5 3/1/16 32/2/3
f 3/1/16 35/2/5 5/1/15
f 32/2/3 1/1/17 31/2/2
f 1/1/17 32/2/3 3/1/16
f 2/1/18 31/2/18 1/1/18
f 31/2/18 2/1/18 33/2/18
f 4/1/20 33/2/4 2/1/19
f 33/2/4 4/1/20 34/2/6
f 6/1/21 34/2/6 4/1/20
f 34/2/6 6/1/21 36/2/8
f 8/1/22 36/2/8 6/1/21
f 36/2/8 8/1/22 38/2/9
f 10/1/23 38/2/9 8/1/22
f 38/2/9 10/1/23 40/2/11
f 43/3/1 42/3/1 41/3/1
f 42/3/1 43/3/1 44/3/1
f 47/4/24 46/4/25 45/4/24
f 46/4/25 47/4/24 48/4/25
f 43/3/12 47/4/12 44/3/12
f 47/4/12 43/3/12 48/4/12
f 47/4/24 42/3/18 44/3/18
f 42/3/18 47/4/24 45/4/24
f 46/4/26 42/3/26 45/4/26
f 42/3/26 46/4/26 41/3/26
f 46/4/25 43/3/27 41/3/27
f 43/3/27 46/4/25 48/4/25
f 51/3/1 50/3/1 49/3/1
f 50/3/1 51/3/1 52/3/1
f 55/4/28 54/4/29 53/4/28
f 54/4/29 55/4/28 56/4/29
f 51/3/30 55/4/30 52/3/30
f 55/4/30 51/3/30 56/4/30
f 55/4/28 50/3/31 52/3/31
f 50/3/31 55/4/28 53/4/28
f 54/4/32 50/3/32 53/4/32
f 50/3/32 54/4/32 49/3/32
f 54/4/29 51/3/33 49/3/33
f 51/3/33 54/4/29 56/4/29

g trainset-rail-detailed-corner




usemtl colormap

f 3/1/1 2/1/1 1/1/1
f 2/1/1 3/1/1 4/1/1
f 4/1/1 3/1/1 5/1/1
f 4/1/1 5/1/1 6/1/1
f 6/1/1 5/1/1 7/1/1
f 6/1/1 7/1/1 8/1/1
f 8/1/1 7/1/1 9/1/1
f 8/1/1 9/1/1 10/1/1
f 13/1/1 12/1/1 11/1/1
f 12/1/1 13/1/1 14/1/1
f 12/1/1 14/1/1 15/1/1
f 15/1/1 14/1/1 16/1/1
f 15/1/1 16/1/1 17/1/1
f 17/1/1 16/1/1 18/1/1
f 18/1/1 16/1/1 19/1/1
f 18/1/1 19/1/1 20/1/1
f 23/2/4 22/2/3 21/2/2
f 22/2/3 23/2/4 24/2/5
f 24/2/5 23/2/4 25/2/6
f 24/2/5 25/2/6 26/2/7
f 26/2/7 25/2/6 27/2/8
f 26/2/7 27/2/8 28/2/9
f 26/2/7 28/2/9 29/2/10
f 29/2/10 28/2/9 30/2/11
f 19/1/12 30/2/12 20/1/12
f 30/2/12 19/1/12 29/2/12
f 26/2/7 19/1/14 16/1/13
f 19/1/14 26/2/7 29/2/10
f 14/1/15 26/2/7 16/1/13
f 26/2/7 14/1/15 24/2/5
f 24/2/5 13/1/16 22/2/3
f 13/1/16 24/2/5 14/1/15
f 22/2/3 11/1/17 21/2/2
f 11/1/17 22/2/3 13/1/16
f 12/1/18 21/2/18 11/1/18
f 21/2/18 12/1/18 23/2/18
f 15/1/20 23/2/4 12/1/19
f 23/2/4 15/1/20 25/2/6
f 17/1/21 25/2/6 15/1/20
f 25/2/6 17/1/21 27/2/8
f 28/2/9 17/1/21 18/1/22
f 17/1/21 28/2/9 27/2/8
f 30/2/11 18/1/22 20/1/23
f 18/1/22 30/2/11 28/2/9
f 33/2/4 32/2/3 31/2/2
f 32/2/3 33/2/4 34/2/6
f 32/2/3 34/2/6 35/2/5
f 35/2/5 34/2/6 36/2/8
f 35/2/5 36/2/8 37/2/7
f 37/2/7 36/2/8 38/2/9
f 37/2/7 38/2/9 39/2/10
f 39/2/10 38/2/9 40/2/11
f 9/1/12 40/2/12 10/1/12
f 40/2/12 9/1/12 39/2/12
f 37/2/7 9/1/14 7/1/13
f 9/1/14 37/2/7 39/2/10
f 35/2/5 7/1/13 5/1/15
f 7/1/13 35/2/5 37/2/7
f 35/2/5 3/1/16 32/2/3
f 3/1/16 35/2/5 5/1/15
f 32/2/3 1/1/17 31/2/2
f 1/1/17 32/2/3 3/1/16
f 2/1/18 31/2/18 1/1/18
f 31/2/18 2/1/18 33/2/18
f 4/1/20 33/2/4 2/1/19
f 33/2/4 4/1/20 34/2/6
f 6/1/21 34/2/6 4/1/20
f 34/2/6 6/1/21 36/2/8
f 8/1/22 36/2/8 6/1/21
f 36/2/8 8/1/22 38/2/9
f 10/1/23 38/2/9 8/1/22
f 38/2/9 10/1/23 40/2/11
f 43/3/1 42/3/1 41/3/1
f 42/3/1 43/3/1 44/3/1
f 47/4/24 46/4/25 45/4/24
f 46/4/25 47/4/24 48/4/25
f 43/3/12 47/4/12 44/3/12
f 47/4/12 43/3/12 48/4/12
f 47/4/24 42/3/18 44/3/18
f 42/3/18 47/4/24 45/4/24
f 46/4/26 42/3/26 45/4/26
f 42/3/26 46/4/26 41/3/26
f 46/4/25 43/3/27 41/3/27
f 43/3/27 46/4/25 48/4/25
f 51/3/1 50/3/1 49/3/1
f 50/3/1 51/3/1 52/3/1
f 55/4/28 54/4/29 53/4/28
f 54/4/29 55/4/28 56/4/29
f 51/3/30 55/4/30 52/3/30
f 55/4/30 51/3/30 56/4/30
f 55/4/28 50/3/31 52/3/31
f 50/3/31 55/4/28 53/4/28
f 54/4/32 50/3/32 53/4/32
f 50/3/32 54/4/32 49/3/32
f 54/4/29 51/3/33 49/3/33
f 51/3/33 54/4/29 56/4/29

