# Created by Kenney (www.kenney.nl)

mtllib trainset-rail-detailed-straight.mtl

g trainset-rail-detailed-straight

v -0.25 0.021021 0.0464975 1 1 1
v -0.25 0.036156 0.0464975 1 1 1
v -0.25 0.021021 0.098511 1 1 1
v -0.25 0.036156 0.098511 1 1 1
v 0.25 0.021021 0.098511 1 1 1
v 0.25 0.036156 0.098511 1 1 1
v 0.25 0.036156 -0.098511 1 1 1
v 0.25 0.036156 -0.0464975 1 1 1
v -0.25 0.036156 -0.098511 1 1 1
v -0.25 0.036156 -0.0464975 1 1 1
v 0.25 0.021021 -0.0464975 1 1 1
v 0.25 0.021021 -0.098511 1 1 1
v -0.25 0.021021 -0.0464975 1 1 1
v -0.25 0.021021 -0.098511 1 1 1
v 0.25 0.021021 0.0464975 1 1 1
v 0.25 0.036156 0.0464975 1 1 1
v 0.05 0 0.15 1 1 1
v 0.05 0 -0.15 1 1 1
v -0.05 0 0.15 1 1 1
v -0.05 0 -0.15 1 1 1
v 0.05 0.021021 -0.15 1 1 1
v 0.05 0.021021 0.15 1 1 1
v -0.05 0.021021 -0.15 1 1 1
v -0.05 0.021021 0.15 1 1 1
v 0.25 0 0.15 1 1 1
v 0.25 0 -0.15 1 1 1
v 0.2 0 0.15 1 1 1
v 0.2 0 -0.15 1 1 1
v 0.25 0.021021 -0.15 1 1 1
v 0.25 0.021021 0.15 1 1 1
v 0.2 0.021021 -0.15 1 1 1
v 0.2 0.021021 0.15 1 1 1
v -0.2 0 0.15 1 1 1
v -0.2 0 -0.15 1 1 1
v -0.25 0 0.15 1 1 1
v -0.25 0 -0.15 1 1 1
v -0.2 0.021021 -0.15 1 1 1
v -0.2 0.021021 0.15 1 1 1
v -0.25 0.021021 -0.15 1 1 1
v -0.25 0.021021 0.15 1 1 1

vn -1 0 0
vn 0 0 1
vn 0 0.7071068 0.7071068
vn 0 0.7071068 -0.7071068
vn 0 -1 0
vn 0 0 -1
vn 1 0 0

vt 0.96875 0.075
vt 0.96875 0.175
vt 0.21875 0.325
vt 0.21875 0.425

usemtl colormap

f 3/1/1 2/2/1 1/1/1
f 2/2/1 3/1/1 4/2/1
f 6/2/3 3/1/2 5/1/2
f 3/1/2 6/2/3 4/2/3
f 9/2/4 8/2/3 7/2/4
f 8/2/3 9/2/4 10/2/3
f 13/1/5 12/1/5 11/1/5
f 12/1/5 13/1/5 14/1/5
f 8/2/3 13/1/2 11/1/2
f 13/1/2 8/2/3 10/2/3
f 2/2/4 15/1/6 1/1/6
f 15/1/6 2/2/4 16/2/4
f 6/2/7 15/1/7 16/2/7
f 15/1/7 6/2/7 5/1/7
f 3/1/5 15/1/5 5/1/5
f 15/1/5 3/1/5 1/1/5
f 9/2/4 12/1/6 14/1/6
f 12/1/6 9/2/4 7/2/4
f 2/2/4 6/2/3 16/2/4
f 6/2/3 2/2/4 4/2/3
f 13/1/1 9/2/1 14/1/1
f 9/2/1 13/1/1 10/2/1
f 8/2/7 12/1/7 7/2/7
f 12/1/7 8/2/7 11/1/7
f 19/3/5 18/3/5 17/3/5
f 18/3/5 19/3/5 20/3/5
f 23/4/4 22/4/3 21/4/4
f 22/4/3 23/4/4 24/4/3
f 19/3/1 23/4/1 20/3/1
f 23/4/1 19/3/1 24/4/1
f 23/4/4 18/3/6 20/3/6
f 18/3/6 23/4/4 21/4/4
f 22/4/7 18/3/7 21/4/7
f 18/3/7 22/4/7 17/3/7
f 22/4/3 19/3/2 17/3/2
f 19/3/2 22/4/3 24/4/3
f 27/3/5 26/3/5 25/3/5
f 26/3/5 27/3/5 28/3/5
f 31/4/4 30/4/3 29/4/4
f 30/4/3 31/4/4 32/4/3
f 27/3/1 31/4/1 28/3/1
f 31/4/1 27/3/1 32/4/1
f 31/4/4 26/3/6 28/3/6
f 26/3/6 31/4/4 29/4/4
f 30/4/7 26/3/7 29/4/7
f 26/3/7 30/4/7 25/3/7
f 30/4/3 27/3/2 25/3/2
f 27/3/2 30/4/3 32/4/3
f 35/3/5 34/3/5 33/3/5
f 34/3/5 35/3/5 36/3/5
f 39/4/4 38/4/3 37/4/4
f 38/4/3 39/4/4 40/4/3
f 35/3/1 39/4/1 36/3/1
f 39/4/1 35/3/1 40/4/1
f 39/4/4 34/3/6 36/3/6
f 34/3/6 39/4/4 37/4/4
f 38/4/7 34/3/7 37/4/7
f 34/3/7 38/4/7 33/3/7
f 38/4/3 35/3/2 33/3/2
f 35/3/2 38/4/3 40/4/3

g trainset-rail-detailed-straight




usemtl colormap

f 3/1/1 2/2/1 1/1/1
f 2/2/1 3/1/1 4/2/1
f 6/2/3 3/1/2 5/1/2
f 3/1/2 6/2/3 4/2/3
f 9/2/4 8/2/3 7/2/4
f 8/2/3 9/2/4 10/2/3
f 13/1/5 12/1/5 11/1/5
f 12/1/5 13/1/5 14/1/5
f 8/2/3 13/1/2 11/1/2
f 13/1/2 8/2/3 10/2/3
f 2/2/4 15/1/6 1/1/6
f 15/1/6 2/2/4 16/2/4
f 6/2/7 15/1/7 16/2/7
f 15/1/7 6/2/7 5/1/7
f 3/1/5 15/1/5 5/1/5
f 15/1/5 3/1/5 1/1/5
f 9/2/4 12/1/6 14/1/6
f 12/1/6 9/2/4 7/2/4
f 2/2/4 6/2/3 16/2/4
f 6/2/3 2/2/4 4/2/3
f 13/1/1 9/2/1 14/1/1
f 9/2/1 13/1/1 10/2/1
f 8/2/7 12/1/7 7/2/7
f 12/1/7 8/2/7 11/1/7
f 19/3/5 18/3/5 17/3/5
f 18/3/5 19/3/5 20/3/5
f 23/4/4 22/4/3 21/4/4
f 22/4/3 23/4/4 24/4/3
f 19/3/1 23/4/1 20/3/1
f 23/4/1 19/3/1 24/4/1
f 23/4/4 18/3/6 20/3/6
f 18/3/6 23/4/4 21/4/4
f 22/4/7 18/3/7 21/4/7
f 18/3/7 22/4/7 17/3/7
f 22/4/3 19/3/2 17/3/2
f 19/3/2 22/4/3 24/4/3
f 27/3/5 26/3/5 25/3/5
f 26/3/5 27/3/5 28/3/5
f 31/4/4 30/4/3 29/4/4
f 30/4/3 31/4/4 32/4/3
f 27/3/1 31/4/1 28/3/1
f 31/4/1 27/3/1 32/4/1
f 31/4/4 26/3/6 28/3/6
f 26/3/6 31/4/4 29/4/4
f 30/4/7 26/3/7 29/4/7
f 26/3/7 30/4/7 25/3/7
f 30/4/3 27/3/2 25/3/2
f 27/3/2 30/4/3 32/4/3
f 35/3/5 34/3/5 33/3/5
f 34/3/5 35/3/5 36/3/5
f 39/4/4 38/4/3 37/4/4
f 38/4/3 39/4/4 40/4/3
f 35/3/1 39/4/1 36/3/1
f 39/4/1 35/3/1 40/4/1
f 39/4/4 34/3/6 36/3/6
f 34/3/6 39/4/4 37/4/4
f 38/4/7 34/3/7 37/4/7
f 34/3/7 38/4/7 33/3/7
f 38/4/3 35/3/2 33/3/2
f 35/3/2 38/4/3 40/4/3

