<svg width="64" height="64" xmlns="http://www.w3.org/2000/svg" xmlns:xlink="http://www.w3.org/1999/xlink">
  <defs/>
  <g>
    <path stroke="none" fill="#FFFFFF" d="M16 8 L22.35 8 22.3 8.05 22.25 8.15 Q21 9.5 21 11.35 21 13.25 22.25 14.5 23.55 16 25.6 16 L38.4 16 Q40.25 16.05 41.7 14.6 43 13.35 43 11.35 43 9.5 41.8 8.15 L41.7 8.05 41.65 8 48 8 Q56 8 56 16 L56 48 Q56 56 48 56 L16 56 Q8 56 8 48 L8 16 Q8 8 16 8 M30.85 3.5 Q31.3 3 32 3 32.65 3 33.15 3.5 L39.55 10.15 Q40 10.65 40 11.35 40 12.05 39.55 12.5 39.05 13 38.4 13 L25.6 13 Q24.9 13 24.45 12.5 24 12.05 24 11.35 24 10.65 24.45 10.15 L30.85 3.5 M25 41 L39 41 39 37 29 37 29 23 25 23 25 41"/>
  </g>
</svg>