<svg width="64" height="64" xmlns="http://www.w3.org/2000/svg" xmlns:xlink="http://www.w3.org/1999/xlink">
  <defs/>
  <g>
    <path stroke="none" fill="#FFFFFF" d="M16 8 L48 8 Q56 8 56 16 L56 48 Q56 56 48 56 L16 56 Q8 56 8 48 L8 41.65 8.05 41.7 8.15 41.75 Q9.5 43 11.35 43 13.25 43 14.5 41.75 16 40.45 16 38.4 L16 25.6 Q16.05 23.75 14.6 22.3 13.35 21 11.35 21 9.5 21 8.15 22.2 L8.05 22.3 8 22.35 8 16 Q8 8 16 8 M25 41 L39 41 39 37 29 37 29 23 25 23 25 41 M3.5 33.15 Q3 32.7 3 32 3 31.35 3.5 30.85 L10.15 24.45 Q10.65 24 11.35 24 12.05 24 12.5 24.45 13 24.95 13 25.6 L13 38.4 Q13 39.1 12.5 39.55 L11.35 40 Q10.65 40 10.15 39.55 L3.5 33.15"/>
  </g>
</svg>