<svg width="64" height="64" xmlns="http://www.w3.org/2000/svg" xmlns:xlink="http://www.w3.org/1999/xlink">
  <defs/>
  <g>
    <path stroke="none" fill="#FFFFFF" d="M34 35 L35.3 34.55 33.6 30 33.05 28.55 Q32.55 27.3 33.05 26.25 33.45 25.5 35.15 25.1 36.8 24.7 37.7 25.4 L38.15 25.9 38.9 27 41.8 34.6 Q43 34 44.3 34 45.75 34 46.65 35.2 48.7 37.95 50.4 41.95 52 47.9 49.1 51.65 47.45 53.55 44.95 54.45 42.5 55.35 39.75 54.85 37.65 54.3 35.8 53.2 32.1 50.95 28.45 50.75 22.95 51.1 23 47.8 23 46.65 23.7 45.8 24.45 45.1 25.55 44.85 27.05 44.65 28.75 44.85 30.85 44.75 30.4 43.15 L29.9 41.75 27.85 36.15 27.75 35.85 26.4 32.35 26.3 32 Q25.95 30.9 26.4 30 26.8 29.25 28.5 28.85 30.15 28.45 31.05 29.15 L32.3 31.1 34 35 M26 26 L26 26.6 Q24.15 27.35 23.75 28.6 L23.7 28.7 Q22.6 30.8 23.6 33.4 L25.55 38.5 24 40 18 34 18 32 22 32 22 26 16 26 16 30 14 30 8 24 14 18 16 18 16 22 22 22 22 16 18 16 18 14 24 8 30 14 30 16 26 16 26 22 32 22 32 18 34 18 38.3 22.3 Q36.75 21.7 34.5 22.25 L34.45 22.25 Q31 23.05 30.4 24.85 L30.35 24.95 30.05 25.75 27.85 26 26 26"/>
  </g>
</svg>